<svg width="993" height="1555" viewBox="0 0 993 1555" fill="none" xmlns="http://www.w3.org/2000/svg">
<path d="M637.428 1489.62C627.872 1525.28 481.305 1517 310.062 1471.12C138.819 1425.23 7.74722 1359.12 17.3039 1323.46L354.619 64.5781L974.744 230.74L637.428 1489.62Z" fill="#F48722"/>
<ellipse cx="664.682" cy="147.66" rx="321" ry="66.8569" transform="rotate(15 664.682 147.66)" fill="#C7CFDC"/>
<path d="M349.789 403.843L347.017 414.188L337.348 411.597L327.184 449.529L315.487 446.395L325.651 408.463L315.982 405.872L318.754 395.527L349.789 403.843ZM342.391 453.604L355.798 403.569L367.495 406.703L361.353 429.624C363.597 427.472 366.845 426.168 372.254 427.617C381.179 430.009 384.748 435.893 382.519 444.21L377.483 463.007L365.785 459.872L370.115 443.712C371.13 439.926 370.755 436.999 366.495 435.858C362.573 434.807 359.107 438.009 358.454 440.443L354.088 456.738L342.391 453.604ZM396.106 453.793C395.304 457.056 396.852 459.935 400.233 460.841C404.019 461.855 405.711 461.222 406.718 459.897L417.063 462.669C414.429 466.819 408.885 472.363 397.458 469.301C386.505 466.366 383.238 456.65 385.394 448.603C387.55 440.557 395.869 433.583 406.755 436.5C418.925 439.761 421.737 449.283 419.345 458.208C419.2 458.749 419.037 459.357 418.825 459.88L396.106 453.793ZM408.853 450.034C409.158 448.086 408.101 445.267 404.518 444.307C400.934 443.346 398.61 445.26 398.035 447.135L408.853 450.034Z" fill="white"/>
<path d="M335.405 470.118L366.161 478.358L370.594 597.816L343.857 590.652L343.177 573.408L308.094 564.008L298.729 578.56L271.837 571.355L335.405 470.118ZM341.521 510.351L321.942 541.381L342.497 546.889L341.521 510.351ZM379.689 600.253L398.738 529.161L425.32 536.284L423.788 542.002C428.367 539.751 436.779 538.029 449.916 541.549C463.516 545.193 468.93 550.951 471.439 556.426C476.338 553.598 482.68 550.328 497.362 554.262C515.908 559.232 523.974 571.166 519.957 586.157L507.037 634.376L480.454 627.253L491.967 584.289C493.582 578.262 491.322 571.859 483.131 569.664C474.785 567.428 469.544 572.152 468.095 577.561L456.499 620.835L429.917 613.712L441.636 569.975C443.127 564.411 441.825 558.762 432.707 556.318C423.588 553.875 419.399 558.384 417.908 563.948L406.271 607.376L379.689 600.253ZM583.548 577.687C607.194 584.023 614.012 605.561 609.084 623.953C604.156 642.344 587.483 657.588 563.837 651.252C552.709 648.27 547.016 642.935 544.124 639.51L542.923 643.992L519.277 637.656L549.922 523.29L573.567 529.626L560.73 577.536C565.339 575.79 570.875 574.291 583.548 577.687ZM552.84 608.219C550.686 616.256 555.551 624.682 563.588 626.836C571.624 628.989 580.05 624.124 582.204 616.088C584.357 608.051 579.492 599.625 571.456 597.471C563.419 595.318 554.993 600.183 552.84 608.219ZM640.992 637.803C639.158 645.263 642.696 651.842 650.423 653.913C659.078 656.232 662.945 654.783 665.247 651.756L688.893 658.092C682.873 667.577 670.201 680.249 644.082 673.251C619.046 666.542 611.579 644.333 616.507 625.942C621.435 607.55 640.449 591.608 665.331 598.276C693.15 605.73 699.576 627.494 694.11 647.895C693.778 649.131 693.406 650.522 692.92 651.717L640.992 637.803ZM670.128 629.211C670.824 624.76 668.41 618.315 660.219 616.12C652.028 613.926 646.714 618.3 645.4 622.585L670.128 629.211ZM695.599 684.901L714.648 613.809L741.385 620.973L740.059 625.919C743.979 623.656 750.536 621.437 759.191 623.756C763.982 625.04 766.515 626.713 768.544 628.416L763.119 648.662C761.275 647.505 759.01 646.07 754.219 644.786C745.718 642.509 735.09 644.464 732.026 655.901L722.336 692.065L695.599 684.901Z" fill="white"/>
<path d="M292.127 612.779L270.413 606.96L265.734 624.424L287.448 630.243L286.164 635.034L264.45 629.215L258.156 652.707L279.87 658.525L278.607 663.239L252.179 656.157L266.963 600.984L293.39 608.065L292.127 612.779ZM330.365 615.819L334.692 616.978L319.37 674.161L315.042 673.002L316.347 668.133C312.422 670.726 307.458 671.632 302.59 670.328C293.472 667.884 288.041 658.478 290.485 649.36C292.928 640.242 302.334 634.811 311.452 637.254C316.32 638.559 320.166 641.825 322.269 646.033L330.365 615.819ZM294.791 650.597C292.99 657.32 297.006 664.276 303.729 666.078C310.452 667.879 317.408 663.863 319.21 657.14C321.011 650.417 316.995 643.46 310.272 641.659C303.549 639.858 296.593 643.874 294.791 650.597ZM341.872 645.985L333.32 677.899L328.916 676.719L337.467 644.805L341.872 645.985ZM344.551 637.841C344.157 639.309 342.61 640.137 341.142 639.743C339.674 639.35 338.748 637.86 339.141 636.391C339.556 634.846 341.103 634.018 342.571 634.411C344.039 634.805 344.965 636.295 344.551 637.841ZM352.71 653.527L348.383 652.368L349.542 648.04L353.87 649.2L357.617 635.213L361.945 636.373L358.197 650.359L365.692 652.368L364.533 656.695L357.037 654.687L349.646 682.273L345.318 681.114L352.71 653.527ZM378.471 655.792L369.92 687.706L365.515 686.526L374.066 654.611L378.471 655.792ZM381.15 647.648C380.757 649.116 379.21 649.944 377.742 649.55C376.273 649.157 375.348 647.666 375.741 646.198C376.155 644.653 377.702 643.825 379.17 644.218C380.639 644.612 381.564 646.102 381.15 647.648ZM415.393 682.829C412.949 691.947 403.543 697.378 394.425 694.935C385.307 692.491 379.876 683.085 382.319 673.967C384.763 664.849 394.169 659.418 403.287 661.861C412.405 664.305 417.836 673.711 415.393 682.829ZM386.626 675.204C384.825 681.927 388.841 688.883 395.564 690.685C402.287 692.486 409.243 688.47 411.045 681.747C412.846 675.024 408.83 668.067 402.107 666.266C395.384 664.465 388.427 668.481 386.626 675.204ZM419.857 701.087L428.409 669.172L432.736 670.332L431.535 674.814C433.182 672.688 436.915 671.12 442.169 672.528C451.133 674.93 453.97 681.653 452.002 688.994L446.805 708.39L442.401 707.21L447.204 689.282C448.84 683.178 447.192 678.512 441.01 676.856C434.21 675.034 430.334 679.296 429.051 684.087L424.185 702.246L419.857 701.087Z" fill="white"/>
<rect width="323" height="67.9718" transform="translate(476.379 657.236) rotate(15)" fill="#3DA6CF"/>
<path d="M497.017 689.68C496.641 691.083 497.566 692.244 500.688 693.618C508.009 696.761 510.559 702.277 509.028 707.99C507.35 714.253 500.862 718.422 490.941 715.764C485.58 714.327 481.123 710.716 478.474 707.375L482.866 700.604C485.33 703.036 488.477 705.92 491.483 706.726C494.089 707.424 495.717 707.162 496.106 705.709C496.455 704.406 495.307 703.078 492.335 701.744C485.378 698.645 483.089 693.36 484.646 687.547C486.19 681.785 492.194 677.218 500.511 679.446C506.324 681.004 510.662 683.455 513.368 686.382L508.895 693.454C506.903 691.47 503.554 689.337 499.996 688.384C498.643 688.022 497.299 688.628 497.017 689.68Z" fill="white"/>
<path d="M529.601 687.456L523.345 710.805C522.848 712.659 523.846 713.947 525.549 714.403C527.253 714.86 528.811 714.257 529.308 712.403L535.564 689.053L547.038 692.128L540.527 716.43C538.379 724.447 530.243 726.348 522.877 724.375C515.412 722.374 509.467 716.7 511.615 708.683L518.127 684.381L529.601 687.456Z" fill="white"/>
<path d="M566.331 706.427C562.072 705.286 558.632 709.305 557.383 713.965C556.094 718.775 557.097 724.253 561.757 725.502C564.212 726.159 565.375 725.827 566.232 725.036L567.118 721.729L563.109 720.655L564.895 713.99L580.378 718.139L577.048 730.565C573.709 733.806 566.81 736.307 559.394 734.32C546.516 730.87 542.623 719.945 545.08 710.776C547.537 701.606 556.394 694.205 568.721 697.508C577.489 699.858 581.062 705.165 582.427 709.29L570.47 710.221C570.067 708.717 569.337 707.233 566.331 706.427Z" fill="white"/>
<path d="M598.726 705.978L612.054 709.549L613.792 748.359L602.468 745.325L602.097 739.694L592.327 737.076L589.19 741.767L577.816 738.719L598.726 705.978ZM601.349 722.845L596.866 729.754L601.677 731.042L601.349 722.845Z" fill="white"/>
<path d="M650.605 732.23C648.994 738.243 646.094 740.044 642.338 740.434L647.013 757.261L633.785 753.716L630.93 740.921L627.922 752.145L616.197 749.004L625.783 713.228L641.818 717.524C648.532 719.323 652.686 724.464 650.605 732.23ZM633.789 730.249L635.693 730.759C637.297 731.189 638.604 730.519 639.047 728.865C639.477 727.262 638.693 725.978 637.09 725.548L635.186 725.038L633.789 730.249Z" fill="white"/>
<path d="M682.6 728.452L680.21 737.371L668.636 734.269L667.119 739.931L678.092 742.872L675.702 751.79L664.729 748.85L661.44 761.126L649.965 758.052L659.551 722.276L682.6 728.452Z" fill="white"/>
<path d="M710.791 748.357C709.18 754.37 706.281 756.171 702.525 756.561L707.199 773.388L693.971 769.843L691.116 757.048L688.109 768.272L676.384 765.131L685.97 729.355L702.004 733.651C708.718 735.45 712.872 740.591 710.791 748.357ZM693.976 746.376L695.88 746.886C697.483 747.316 698.791 746.645 699.234 744.992C699.663 743.389 698.88 742.104 697.276 741.675L695.372 741.165L693.976 746.376Z" fill="white"/>
<path d="M742.787 744.579L740.397 753.498L728.822 750.396L727.587 755.006L738.561 757.946L736.157 766.915L725.184 763.975L724.029 768.284L735.604 771.386L733.201 780.355L710.152 774.179L719.738 738.403L742.787 744.579Z" fill="white"/>
<path d="M769.895 751.842L767.505 760.761L755.931 757.66L754.696 762.27L765.669 765.21L763.266 774.179L752.292 771.239L751.138 775.548L762.712 778.649L760.309 787.618L737.26 781.442L746.846 745.666L769.895 751.842Z" fill="white"/>
<path d="M208.951 1230.28L202.196 1255.49L98.7449 1227.77L109.111 1189.09C114.08 1170.54 130.317 1159.21 150.601 1164.64C166.104 1168.8 174.641 1180.4 175.543 1193.84L222.81 1178.56L215.434 1206.09L170.7 1220.03L208.951 1230.28ZM148.387 1214.05L151.377 1202.9C153.318 1195.65 149.97 1191.34 143.885 1189.71C137.799 1188.08 132.366 1190.97 130.657 1197.35L127.668 1208.5L148.387 1214.05ZM203.224 1138.06C210.218 1139.78 216.386 1136.46 218.327 1129.22C220.501 1121.1 219.143 1117.48 216.305 1115.32L222.245 1093.15C231.137 1098.8 243.018 1110.68 236.456 1135.16C230.167 1158.64 209.346 1165.63 192.104 1161.01C174.863 1156.39 159.917 1138.57 166.167 1115.24C173.155 1089.16 193.56 1083.14 212.685 1088.26C213.844 1088.57 215.148 1088.92 216.269 1089.38L203.224 1138.06ZM195.169 1110.75C190.996 1110.09 184.954 1112.36 182.897 1120.04C180.839 1127.71 184.94 1132.7 188.958 1133.93L195.169 1110.75ZM153.283 1009.17L159.223 986.997L266.441 1015.73L260.501 1037.89L256.299 1036.77C257.724 1040.72 259.387 1047.85 256.592 1058.28C250.652 1080.45 230.46 1086.84 213.218 1082.22C195.976 1077.6 181.685 1061.97 187.625 1039.8C190.809 1027.92 194.62 1024.12 198.199 1021.2L153.283 1009.17ZM219.433 1056.71C226.967 1058.72 234.866 1054.16 236.885 1046.63C238.904 1039.1 234.343 1031.2 226.809 1029.18C219.275 1027.16 211.375 1031.72 209.356 1039.25C207.338 1046.79 211.898 1054.69 219.433 1056.71ZM212.315 915.198C224.486 918.459 229.117 924.359 230.037 930.196C235.469 920.936 245.35 915.353 260.129 919.313C280.124 924.671 286.394 941.259 281.386 959.95L270.477 1000.66L167.026 972.944L176.305 938.315C181.313 919.625 195.653 910.733 212.315 915.198ZM213.626 958.409L214.907 953.628C216.615 947.253 214.002 942.515 207.482 940.768C201.397 939.138 195.896 941.701 194.188 948.076L192.907 952.858L213.626 958.409ZM257.962 970.289L260.873 959.423C262.737 952.468 259.933 946.126 251.674 943.913C243.705 941.778 237.671 945.752 235.808 952.706L232.896 963.573L257.962 970.289ZM233.2 873.187L271.595 883.475C277.826 885.145 281.694 882.299 283.13 876.938C284.528 871.722 282.746 867.362 276.371 865.654L237.975 855.366L244.691 830.3L284.391 840.938C302.647 845.829 309.362 861.916 303.849 882.49C298.337 903.064 284.439 913.782 266.183 908.891L226.483 898.253L233.2 873.187ZM322.239 807.483L315.484 832.694L208.266 803.965L215.021 778.755L322.239 807.483ZM334.106 763.196L327.351 788.407L220.133 759.678L226.888 734.467L334.106 763.196Z" fill="white"/>
<path d="M355.449 63.5832C355.376 63.8097 355.307 64.0375 355.245 64.2677C345.688 99.9336 476.761 166.043 648.003 211.927C819.246 257.811 965.813 266.095 975.369 230.429C975.431 230.199 975.485 229.968 975.535 229.735L975.554 229.74L956.143 302.184C946.586 337.85 800.019 329.567 628.776 283.683C457.534 237.798 326.462 171.688 336.018 136.023L355.43 63.5781L355.449 63.5832Z" fill="#3DA6CF"/>
<path d="M485.561 186.802C484.915 188.474 485.896 190.019 489.546 192.115C498.113 196.934 500.515 204.037 497.886 210.843C495.003 218.305 486.496 222.566 474.675 217.999C468.287 215.532 463.295 210.516 460.485 206.068L466.764 198.34C469.466 201.647 472.948 205.6 476.53 206.983C479.634 208.183 481.665 208.076 482.334 206.344C482.934 204.792 481.7 203.012 478.229 200.985C470.103 196.268 467.991 189.482 470.666 182.557C473.318 175.692 481.284 170.879 491.194 174.708C498.119 177.383 503.118 180.961 506.053 184.907L499.635 192.994C497.452 190.298 493.625 187.242 489.386 185.604C487.774 184.981 486.045 185.548 485.561 186.802ZM525.22 187.453L515.547 215.665C514.779 217.905 515.898 219.574 517.956 220.28C520.015 220.985 521.983 220.375 522.751 218.135L532.424 189.923L546.288 194.676L536.22 224.039C532.899 233.725 522.725 235.379 513.826 232.327C504.805 229.234 497.967 221.748 501.289 212.062L511.356 182.7L525.22 187.453ZM568.728 213.118C563.534 211.499 559.094 216.282 557.322 221.964C555.494 227.83 556.457 234.633 562.139 236.404C565.133 237.338 566.584 236.985 567.679 236.053L568.936 232.02L564.048 230.497L566.581 222.37L585.461 228.255L580.738 243.408C576.46 247.237 567.83 249.977 558.787 247.158C543.085 242.263 538.829 228.602 542.315 217.42C545.8 206.239 557.087 197.557 572.118 202.242C582.811 205.575 586.95 212.296 588.428 217.449L573.641 218.001C573.22 216.127 572.394 214.261 568.728 213.118ZM608.24 213.619L624.617 218.268L626.052 266.177L612.138 262.227L611.783 255.274L599.778 251.866L595.823 257.596L581.847 253.628L608.24 213.619ZM611.168 234.475L605.512 242.916L611.422 244.594L611.168 234.475ZM671.806 246.097C669.871 253.529 666.31 255.777 661.679 256.291L667.596 277.009L651.244 272.753L647.609 256.993L643.998 270.867L629.505 267.095L641.015 222.872L660.835 228.031C669.134 230.191 674.304 236.497 671.806 246.097ZM651.043 243.801L653.396 244.413C655.378 244.929 656.985 244.091 657.517 242.047C658.033 240.065 657.055 238.488 655.073 237.972L652.719 237.359L651.043 243.801ZM710.984 240.483L708.316 251.558L693.943 248.095L692.249 255.126L705.875 258.409L703.206 269.484L689.58 266.201L685.907 281.444L671.658 278.011L682.364 233.586L710.984 240.483ZM746.389 263.276C744.758 270.781 741.291 273.171 736.685 273.873L743.439 294.334L726.928 290.746L722.655 275.147L719.611 289.156L704.976 285.976L714.679 241.322L734.692 245.671C743.073 247.492 748.495 253.582 746.389 263.276ZM725.55 261.826L727.926 262.342C729.927 262.777 731.499 261.874 731.947 259.81C732.382 257.809 731.341 256.273 729.339 255.838L726.963 255.322L725.55 261.826ZM785.169 255.771L783.047 266.963L768.522 264.21L767.425 269.995L781.196 272.605L779.062 283.861L765.292 281.25L764.266 286.658L778.792 289.411L776.658 300.667L747.733 295.184L756.244 250.287L785.169 255.771ZM818.602 260.999L816.865 272.257L802.254 270.004L801.356 275.823L815.208 277.96L813.462 289.282L799.609 287.145L798.77 292.584L813.382 294.838L811.635 306.16L782.539 301.672L789.506 256.51L818.602 260.999Z" fill="white"/>
</svg>
