<svg width="993" height="1555" viewBox="0 0 993 1555" fill="none" xmlns="http://www.w3.org/2000/svg">
<path d="M637.428 1489.62C627.872 1525.28 481.305 1517 310.062 1471.12C138.819 1425.23 7.74723 1359.12 17.3039 1323.46L354.619 64.5781L974.744 230.74L637.428 1489.62Z" fill="#F48722"/>
<ellipse cx="664.682" cy="147.66" rx="321" ry="66.8569" transform="rotate(15 664.682 147.66)" fill="#C7CFDC"/>
<path d="M326.271 476.387L351.259 483.083L354.861 580.142L333.138 574.322L332.585 560.311L304.08 552.673L296.471 564.497L274.622 558.642L326.271 476.387ZM331.239 509.077L315.332 534.289L332.033 538.764L331.239 509.077ZM362.251 582.122L377.729 524.36L399.327 530.147L398.082 534.793C401.802 532.964 408.637 531.565 419.31 534.425C430.361 537.386 434.76 542.064 436.798 546.513C440.778 544.215 445.931 541.558 457.861 544.755C472.929 548.792 479.483 558.489 476.219 570.669L465.721 609.847L444.123 604.06L453.477 569.151C454.789 564.254 452.953 559.052 446.298 557.268C439.517 555.452 435.258 559.29 434.081 563.685L424.66 598.845L403.062 593.058L412.584 557.521C413.795 553.001 412.737 548.41 405.328 546.425C397.92 544.44 394.515 548.104 393.304 552.624L383.849 587.91L362.251 582.122ZM527.887 563.787C547.099 568.935 552.639 586.435 548.635 601.378C544.631 616.321 531.084 628.707 511.871 623.559C502.83 621.136 498.205 616.801 495.855 614.018L494.879 617.66L475.667 612.512L500.565 519.59L519.777 524.738L509.347 563.665C513.092 562.246 517.59 561.028 527.887 563.787ZM502.936 588.595C501.187 595.125 505.139 601.971 511.669 603.721C518.199 605.47 525.045 601.517 526.795 594.988C528.544 588.458 524.591 581.612 518.062 579.862C511.532 578.113 504.686 582.065 502.936 588.595ZM574.56 612.632C573.07 618.693 575.944 624.039 582.223 625.721C589.255 627.605 592.397 626.428 594.267 623.968L613.479 629.116C608.588 636.823 598.292 647.119 577.071 641.433C556.728 635.982 550.662 617.937 554.666 602.994C558.67 588.051 574.119 575.099 594.336 580.516C616.938 586.572 622.159 604.256 617.718 620.831C617.449 621.836 617.146 622.966 616.751 623.937L574.56 612.632ZM598.233 605.651C598.798 602.034 596.837 596.798 590.182 595.014C583.526 593.231 579.209 596.785 578.142 600.267L598.233 605.651ZM618.928 650.899L634.405 593.136L656.129 598.957L655.052 602.976C658.237 601.137 663.565 599.335 670.597 601.219C674.489 602.262 676.548 603.621 678.196 605.005L673.788 621.454C672.29 620.515 670.449 619.348 666.557 618.305C659.65 616.455 651.015 618.044 648.525 627.336L640.651 656.72L618.928 650.899Z" fill="white"/>
<path d="M304.378 599.433L277.235 592.16L271.386 613.99L298.528 621.263L296.924 627.251L269.781 619.979L261.913 649.343L289.056 656.616L287.477 662.508L254.442 653.656L272.922 584.689L305.957 593.541L304.378 599.433ZM352.174 603.233L357.584 604.682L338.431 676.161L333.022 674.711L334.652 668.626C329.746 671.867 323.542 673 317.457 671.369C306.059 668.315 299.27 656.557 302.324 645.159C305.378 633.761 317.136 626.973 328.534 630.027C334.619 631.658 339.426 635.741 342.055 641.001L352.174 603.233ZM307.708 646.705C305.456 655.109 310.476 663.805 318.88 666.056C327.284 668.308 335.979 663.288 338.231 654.884C340.483 646.481 335.462 637.785 327.059 635.533C318.655 633.281 309.959 638.302 307.708 646.705ZM366.558 640.941L355.869 680.833L350.363 679.358L361.052 639.465L366.558 640.941ZM369.907 630.76C369.415 632.596 367.482 633.63 365.646 633.139C363.811 632.647 362.654 630.784 363.146 628.949C363.663 627.017 365.597 625.982 367.432 626.474C369.267 626.966 370.425 628.829 369.907 630.76ZM380.106 650.368L374.697 648.919L376.147 643.51L381.556 644.959L386.24 627.476L391.649 628.925L386.965 646.409L396.334 648.919L394.885 654.328L385.515 651.818L376.276 686.301L370.866 684.852L380.106 650.368ZM412.308 653.199L401.618 693.092L396.113 691.617L406.802 651.724L412.308 653.199ZM415.657 643.019C415.165 644.854 413.231 645.889 411.396 645.397C409.561 644.905 408.403 643.042 408.895 641.207C409.413 639.275 411.346 638.241 413.182 638.732C415.017 639.224 416.174 641.087 415.657 643.019ZM458.46 686.996C455.405 698.394 443.648 705.182 432.25 702.128C420.852 699.074 414.064 687.316 417.118 675.918C420.172 664.52 431.93 657.732 443.327 660.786C454.725 663.84 461.514 675.598 458.46 686.996ZM422.501 677.464C420.249 685.868 425.27 694.563 433.674 696.815C442.077 699.067 450.773 694.046 453.024 685.643C455.276 677.239 450.256 668.544 441.852 666.292C433.449 664.04 424.753 669.061 422.501 677.464ZM464.041 709.818L474.73 669.925L480.139 671.374L478.638 676.977C480.696 674.319 485.362 672.36 491.93 674.12C503.135 677.122 506.681 685.526 504.222 694.702L497.726 718.947L492.22 717.472L498.224 695.062C500.269 687.432 498.208 681.6 490.481 679.529C481.981 677.251 477.137 682.579 475.532 688.568L469.45 711.267L464.041 709.818Z" fill="white"/>
<path d="M208.951 1230.28L202.196 1255.49L98.7449 1227.77L109.111 1189.09C114.08 1170.54 130.317 1159.21 150.601 1164.64C166.104 1168.8 174.641 1180.4 175.543 1193.84L222.81 1178.56L215.434 1206.09L170.7 1220.03L208.951 1230.28ZM148.387 1214.05L151.377 1202.9C153.318 1195.65 149.97 1191.34 143.885 1189.71C137.799 1188.08 132.366 1190.97 130.657 1197.35L127.668 1208.5L148.387 1214.05ZM203.224 1138.06C210.218 1139.78 216.386 1136.46 218.327 1129.22C220.501 1121.1 219.143 1117.48 216.305 1115.32L222.245 1093.15C231.137 1098.8 243.018 1110.68 236.456 1135.16C230.167 1158.64 209.346 1165.63 192.104 1161.01C174.863 1156.39 159.917 1138.57 166.167 1115.24C173.155 1089.16 193.56 1083.14 212.685 1088.26C213.844 1088.57 215.148 1088.92 216.269 1089.38L203.224 1138.06ZM195.169 1110.75C190.996 1110.09 184.954 1112.36 182.897 1120.04C180.839 1127.71 184.94 1132.7 188.958 1133.93L195.169 1110.75ZM153.283 1009.17L159.223 986.997L266.441 1015.73L260.501 1037.89L256.299 1036.77C257.724 1040.72 259.387 1047.85 256.592 1058.28C250.652 1080.45 230.46 1086.84 213.218 1082.22C195.976 1077.6 181.685 1061.97 187.625 1039.8C190.809 1027.92 194.62 1024.12 198.199 1021.2L153.283 1009.17ZM219.433 1056.71C226.967 1058.72 234.866 1054.16 236.885 1046.63C238.904 1039.1 234.343 1031.2 226.809 1029.18C219.275 1027.16 211.375 1031.72 209.356 1039.25C207.338 1046.79 211.898 1054.69 219.433 1056.71ZM212.315 915.198C224.486 918.459 229.117 924.359 230.037 930.196C235.469 920.936 245.35 915.353 260.129 919.313C280.124 924.671 286.394 941.259 281.386 959.95L270.477 1000.66L167.026 972.944L176.305 938.315C181.313 919.625 195.653 910.733 212.315 915.198ZM213.626 958.409L214.907 953.628C216.615 947.253 214.002 942.515 207.482 940.768C201.397 939.138 195.896 941.701 194.188 948.076L192.907 952.858L213.626 958.409ZM257.962 970.289L260.873 959.423C262.737 952.468 259.933 946.126 251.674 943.913C243.705 941.778 237.671 945.752 235.808 952.706L232.896 963.573L257.962 970.289ZM233.2 873.187L271.595 883.475C277.826 885.145 281.694 882.299 283.13 876.938C284.528 871.722 282.746 867.362 276.371 865.654L237.975 855.366L244.691 830.3L284.391 840.938C302.647 845.829 309.362 861.916 303.849 882.49C298.337 903.064 284.439 913.782 266.183 908.891L226.483 898.253L233.2 873.187ZM322.239 807.483L315.484 832.694L208.266 803.965L215.021 778.755L322.239 807.483ZM334.106 763.196L327.351 788.407L220.133 759.678L226.888 734.467L334.106 763.196Z" fill="white"/>
</svg>
