<svg width="993" height="1555" viewBox="0 0 993 1555" fill="none" xmlns="http://www.w3.org/2000/svg">
<path d="M637.428 1489.62C627.871 1525.28 481.304 1517 310.061 1471.12C138.819 1425.23 7.74648 1359.12 17.3031 1323.46L354.618 64.5781L974.743 230.74L637.428 1489.62Z" fill="#F0F0F2"/>
<ellipse cx="664.681" cy="147.66" rx="321" ry="66.8569" transform="rotate(15 664.681 147.66)" fill="#C7CFDC"/>
<path d="M344.362 424.081L341.59 434.426L331.922 431.836L321.758 469.767L310.06 466.633L320.224 428.701L310.555 426.11L313.327 415.765L344.362 424.081ZM336.964 473.842L350.371 423.807L362.068 426.941L355.927 449.863C358.17 447.71 361.418 446.406 366.828 447.856C375.753 450.247 379.321 456.131 377.093 464.448L372.056 483.245L360.359 480.111L364.689 463.951C365.704 460.164 365.328 457.237 361.069 456.096C357.147 455.045 353.68 458.247 353.028 460.681L348.662 476.976L336.964 473.842ZM390.68 474.031C389.878 477.295 391.425 480.173 394.806 481.079C398.592 482.094 400.284 481.46 401.291 480.135L411.636 482.907C409.003 487.057 403.459 492.601 392.032 489.539C381.078 486.604 377.812 476.888 379.968 468.842C382.124 460.796 390.442 453.821 401.328 456.738C413.499 459.999 416.31 469.521 413.919 478.446C413.774 478.987 413.611 479.596 413.398 480.118L390.68 474.031ZM403.427 470.272C403.731 468.325 402.675 465.505 399.091 464.545C395.508 463.585 393.183 465.498 392.608 467.373L403.427 470.272Z" fill="black"/>
<path d="M309.348 535.825C305.797 549.078 311.606 563.099 329.591 567.918C341.762 571.18 348.437 570.069 353.93 568.498L347.191 593.65C342.617 595.034 335.058 596.197 323.158 593.008C288.404 583.696 277.663 554.004 284.33 529.122C290.961 504.375 314.865 484.401 348.808 493.496C362.331 497.12 366.105 500.885 370.852 505.345L364.112 530.498C359.401 525.902 354.961 521.379 342.925 518.154C324.94 513.335 312.899 522.573 309.348 535.825ZM432.558 587.102C428.101 603.735 412.628 617.127 389.774 611.003C366.92 604.879 359.81 585.437 364.267 568.803C368.652 552.441 384.603 538.887 407.457 545.011C430.311 551.135 436.943 570.739 432.558 587.102ZM385.597 574.664C383.713 581.696 387.97 589.069 395.002 590.953C402.304 592.909 409.407 588.58 411.291 581.548C413.175 574.516 409.189 567.216 401.886 565.259C394.854 563.375 387.481 567.632 385.597 574.664ZM460.508 595.171C458.552 602.473 462.775 607.808 470.753 609.946C478.191 611.939 482.313 611.159 486.013 609.252L480.433 630.077C476.508 631.2 470.952 632.465 460.133 629.566C439.038 623.913 432.802 604.995 437.113 588.902C441.425 572.81 456.321 559.409 477.417 565.061C485.666 567.272 491.92 570.977 495.506 573.822L490.071 594.106C487.333 591.343 484.865 588.653 477.022 586.551C469.043 584.413 462.465 587.868 460.508 595.171ZM563.43 622.169C558.973 638.802 543.5 652.194 520.646 646.07C497.792 639.946 490.682 620.504 495.139 603.87C499.523 587.508 515.475 573.954 538.328 580.078C561.182 586.202 567.814 605.806 563.43 622.169ZM516.469 609.731C514.585 616.763 518.841 624.136 525.873 626.02C533.176 627.976 540.278 623.647 542.162 616.615C544.047 609.583 540.06 602.283 532.758 600.326C525.726 598.442 518.353 602.699 516.469 609.731ZM563.952 655.79L580.62 593.584L603.879 599.816L602.358 605.496C606.13 603.318 612.148 600.872 624.183 604.097C640.952 608.59 646.305 619.446 642.138 634.997L631.702 673.943L608.442 667.711L617.537 633.768C619.567 626.195 619.736 620.153 611.217 617.871C601.751 615.334 598.154 621.183 596.922 625.78L587.211 662.022L563.952 655.79ZM682.452 620.87L672.85 656.706C671.292 662.521 673.948 666.131 678.951 667.472C683.82 668.776 687.889 667.113 689.483 661.163L699.085 625.327L722.48 631.595L712.552 668.648C707.986 685.687 692.972 691.955 673.77 686.809C654.567 681.664 644.563 668.693 649.129 651.654L659.057 614.601L682.452 620.87ZM735.518 655.815L727.946 653.786L733.127 634.448L740.7 636.477L745.555 618.357L768.95 624.625L764.095 642.746L777.212 646.261L772.03 665.599L758.913 662.084L747.427 704.952L724.032 698.683L735.518 655.815Z" fill="black"/>
<path d="M291.361 615.63L269.647 609.812L264.967 627.276L286.681 633.094L285.398 637.885L263.684 632.067L257.389 655.558L279.103 661.376L277.84 666.09L251.412 659.009L266.196 603.835L292.624 610.916L291.361 615.63ZM329.598 618.67L333.926 619.83L318.603 677.013L314.276 675.853L315.581 670.985C311.656 673.577 306.692 674.484 301.824 673.179C292.706 670.736 287.275 661.33 289.718 652.212C292.161 643.093 301.567 637.663 310.686 640.106C315.554 641.41 319.4 644.677 321.502 648.884L329.598 618.67ZM294.025 653.448C292.223 660.171 296.24 667.128 302.963 668.929C309.685 670.73 316.642 666.714 318.443 659.991C320.245 653.268 316.228 646.312 309.506 644.51C302.783 642.709 295.826 646.725 294.025 653.448ZM341.105 648.836L332.554 680.751L328.149 679.57L336.701 647.656L341.105 648.836ZM343.784 640.692C343.391 642.161 341.844 642.988 340.376 642.595C338.908 642.202 337.982 640.711 338.375 639.243C338.789 637.697 340.336 636.87 341.804 637.263C343.273 637.656 344.198 639.147 343.784 640.692ZM351.944 656.379L347.616 655.219L348.776 650.892L353.103 652.051L356.851 638.065L361.178 639.224L357.431 653.211L364.926 655.219L363.767 659.547L356.271 657.538L348.879 685.125L344.552 683.965L351.944 656.379ZM377.705 658.643L369.153 690.557L364.749 689.377L373.3 657.463L377.705 658.643ZM380.384 650.499C379.99 651.967 378.443 652.795 376.975 652.402C375.507 652.008 374.581 650.518 374.975 649.05C375.389 647.504 376.936 646.676 378.404 647.07C379.872 647.463 380.798 648.954 380.384 650.499ZM414.626 685.681C412.183 694.799 402.777 700.229 393.659 697.786C384.54 695.343 379.11 685.937 381.553 676.819C383.996 667.7 393.402 662.27 402.521 664.713C411.639 667.156 417.07 676.562 414.626 685.681ZM385.86 678.055C384.058 684.778 388.075 691.735 394.797 693.536C401.52 695.338 408.477 691.321 410.278 684.598C412.08 677.875 408.063 670.919 401.34 669.118C394.618 667.316 387.661 671.333 385.86 678.055ZM419.091 703.938L427.642 672.024L431.97 673.184L430.769 677.665C432.415 675.539 436.148 673.972 441.403 675.38C450.367 677.782 453.203 684.505 451.236 691.846L446.039 711.242L441.634 710.062L446.438 692.134C448.074 686.029 446.425 681.364 440.243 679.707C433.443 677.885 429.568 682.147 428.284 686.938L423.418 705.098L419.091 703.938Z" fill="black"/>
<path d="M208.185 1233.13L201.43 1258.34L97.9795 1230.62L108.345 1191.94C113.315 1173.39 129.551 1162.06 149.836 1167.49C165.339 1171.65 173.876 1183.25 174.778 1196.7L222.045 1181.41L214.669 1208.94L169.935 1222.88L208.185 1233.13ZM147.622 1216.91L150.611 1205.75C152.552 1198.5 149.205 1194.19 143.119 1192.56C137.034 1190.93 131.6 1193.82 129.892 1200.2L126.903 1211.35L147.622 1216.91ZM202.459 1140.91C209.452 1142.63 215.621 1139.31 217.562 1132.07C219.736 1123.96 218.378 1120.33 215.54 1118.17L221.48 1096.01C230.372 1101.65 242.252 1113.53 235.691 1138.01C229.402 1161.49 208.581 1168.49 191.339 1163.87C174.097 1159.25 159.151 1141.42 165.402 1118.09C172.39 1092.01 192.795 1085.99 211.92 1091.11C213.079 1091.42 214.383 1091.77 215.503 1092.23L202.459 1140.91ZM194.404 1113.6C190.231 1112.94 184.189 1115.21 182.131 1122.89C180.074 1130.57 184.174 1135.55 188.192 1136.78L194.404 1113.6ZM152.518 1012.02L158.458 989.849L265.675 1018.58L259.735 1040.75L255.534 1039.62C256.959 1043.57 258.622 1050.7 255.827 1061.13C249.887 1083.3 229.695 1089.69 212.453 1085.07C195.211 1080.45 180.92 1064.82 186.86 1042.65C190.043 1030.77 193.855 1026.98 197.433 1024.05L152.518 1012.02ZM218.667 1059.56C226.201 1061.58 234.101 1057.02 236.12 1049.48C238.139 1041.95 233.578 1034.05 226.044 1032.03C218.509 1030.01 210.61 1034.57 208.591 1042.1C206.572 1049.64 211.133 1057.54 218.667 1059.56ZM211.55 918.049C223.72 921.311 228.351 927.21 229.272 933.047C234.703 923.788 244.585 918.205 259.364 922.165C279.358 927.522 285.629 944.11 280.621 962.801L269.711 1003.51L166.261 975.795L175.539 941.167C180.548 922.476 194.887 913.585 211.55 918.049ZM212.86 961.261L214.141 956.48C215.85 950.105 213.237 945.367 206.717 943.62C200.632 941.989 195.131 944.553 193.422 950.928L192.141 955.709L212.86 961.261ZM257.196 973.141L260.108 962.274C261.972 955.319 259.167 948.978 250.909 946.765C242.94 944.629 236.906 948.603 235.042 955.558L232.131 966.424L257.196 973.141ZM232.434 876.039L270.83 886.327C277.06 887.996 280.929 885.151 282.365 879.79C283.763 874.574 281.98 870.214 275.605 868.506L237.21 858.218L243.926 833.152L283.626 843.789C301.882 848.681 308.597 864.767 303.084 885.341C297.571 905.916 283.674 916.634 265.418 911.742L225.718 901.105L232.434 876.039ZM321.474 810.335L314.719 835.546L207.501 806.817L214.256 781.606L321.474 810.335ZM333.341 766.048L326.585 791.258L219.368 762.529L226.123 737.319L333.341 766.048Z" fill="black"/>
</svg>
