<svg width="993" height="1555" viewBox="0 0 993 1555" fill="none" xmlns="http://www.w3.org/2000/svg">
<path d="M637.428 1489.62C627.872 1525.28 481.305 1517 310.062 1471.12C138.819 1425.23 7.74723 1359.12 17.3039 1323.46L354.619 64.5781L974.744 230.74L637.428 1489.62Z" fill="#F0F0F2"/>
<ellipse cx="664.682" cy="147.66" rx="321" ry="66.8569" transform="rotate(15 664.682 147.66)" fill="#C7CFDC"/>
<path d="M36.7357 1251.02C36.6626 1251.24 36.5937 1251.47 36.532 1251.7C26.9755 1287.37 158.048 1353.48 329.29 1399.36C500.533 1445.24 647.1 1453.53 656.656 1417.86C656.718 1417.63 656.772 1417.4 656.822 1417.17L656.841 1417.17L637.43 1489.62C627.873 1525.28 481.306 1517 310.064 1471.12C138.821 1425.23 7.74872 1359.12 17.3054 1323.46L36.7168 1251.01L36.7357 1251.02Z" fill="#3DA6CF"/>
<path d="M166.848 1374.24C166.202 1375.91 167.183 1377.45 170.833 1379.55C179.4 1384.37 181.802 1391.47 179.173 1398.28C176.29 1405.74 167.783 1410 155.962 1405.43C149.574 1402.97 144.583 1397.95 141.772 1393.5L148.051 1385.77C150.753 1389.08 154.235 1393.03 157.817 1394.42C160.921 1395.62 162.952 1395.51 163.621 1393.78C164.221 1392.23 162.987 1390.45 159.517 1388.42C151.391 1383.7 149.278 1376.92 151.953 1369.99C154.606 1363.13 162.571 1358.31 172.481 1362.14C179.406 1364.82 184.405 1368.39 187.34 1372.34L180.922 1380.43C178.739 1377.73 174.912 1374.68 170.673 1373.04C169.061 1372.41 167.333 1372.98 166.848 1374.24ZM206.507 1374.89L196.834 1403.1C196.066 1405.34 197.185 1407.01 199.243 1407.71C201.302 1408.42 203.27 1407.81 204.038 1405.57L213.711 1377.36L227.575 1382.11L217.508 1411.47C214.186 1421.16 204.012 1422.81 195.113 1419.76C186.092 1416.67 179.255 1409.18 182.576 1399.5L192.643 1370.13L206.507 1374.89ZM250.015 1400.55C244.821 1398.93 240.381 1403.72 238.609 1409.4C236.781 1415.26 237.744 1422.07 243.427 1423.84C246.42 1424.77 247.871 1424.42 248.966 1423.49L250.223 1419.45L245.335 1417.93L247.868 1409.8L266.748 1415.69L262.025 1430.84C257.748 1434.67 249.117 1437.41 240.074 1434.59C224.372 1429.7 220.116 1416.04 223.602 1404.85C227.087 1393.67 238.374 1384.99 253.405 1389.68C264.098 1393.01 268.237 1399.73 269.715 1404.88L254.928 1405.43C254.507 1403.56 253.681 1401.69 250.015 1400.55ZM289.527 1401.05L305.904 1405.7L307.339 1453.61L293.425 1449.66L293.07 1442.71L281.065 1439.3L277.11 1445.03L263.134 1441.06L289.527 1401.05ZM292.455 1421.91L286.799 1430.35L292.709 1432.03L292.455 1421.91ZM353.093 1433.53C351.158 1440.96 347.597 1443.21 342.967 1443.72L348.883 1464.44L332.531 1460.19L328.896 1444.43L325.285 1458.3L310.792 1454.53L322.302 1410.31L342.122 1415.46C350.421 1417.62 355.592 1423.93 353.093 1433.53ZM332.33 1431.23L334.683 1431.85C336.665 1432.36 338.272 1431.52 338.804 1429.48C339.32 1427.5 338.342 1425.92 336.36 1425.41L334.006 1424.79L332.33 1431.23ZM392.271 1427.92L389.603 1438.99L375.23 1435.53L373.536 1442.56L387.162 1445.84L384.493 1456.92L370.867 1453.63L367.194 1468.88L352.946 1465.44L363.651 1421.02L392.271 1427.92ZM427.676 1450.71C426.045 1458.21 422.579 1460.6 417.972 1461.31L424.726 1481.77L408.215 1478.18L403.942 1462.58L400.898 1476.59L386.263 1473.41L395.967 1428.76L415.98 1433.1C424.36 1434.93 429.782 1441.02 427.676 1450.71ZM406.837 1449.26L409.213 1449.78C411.215 1450.21 412.786 1449.31 413.235 1447.24C413.669 1445.24 412.628 1443.71 410.627 1443.27L408.25 1442.76L406.837 1449.26ZM466.456 1443.2L464.334 1454.4L449.809 1451.64L448.712 1457.43L462.483 1460.04L460.349 1471.29L446.579 1468.68L445.554 1474.09L460.079 1476.85L457.945 1488.1L429.02 1482.62L437.531 1437.72L466.456 1443.2ZM499.889 1448.43L498.152 1459.69L483.541 1457.44L482.643 1463.26L496.495 1465.39L494.749 1476.72L480.897 1474.58L480.057 1480.02L494.669 1482.27L492.922 1493.59L463.826 1489.11L470.793 1443.94L499.889 1448.43Z" fill="white"/>
<path d="M310.48 523.26C307.182 535.566 312.576 548.586 329.277 553.061C340.579 556.089 346.777 555.058 351.878 553.598L345.62 576.954C341.373 578.239 334.354 579.319 323.304 576.358C291.032 567.711 281.058 540.14 287.249 517.035C293.406 494.056 315.603 475.509 347.121 483.954C359.678 487.319 363.183 490.815 367.591 494.957L361.333 518.313C356.958 514.045 352.835 509.845 341.659 506.851C324.958 502.376 313.777 510.954 310.48 523.26ZM424.89 570.874C420.751 586.319 406.383 598.754 385.162 593.068C363.94 587.381 357.338 569.327 361.476 553.882C365.548 538.688 380.36 526.103 401.581 531.789C422.802 537.476 428.961 555.68 424.89 570.874ZM381.283 559.324C379.533 565.854 383.486 572.7 390.016 574.45C396.797 576.267 403.392 572.246 405.141 565.717C406.891 559.187 403.189 552.408 396.409 550.591C389.879 548.842 383.033 552.794 381.283 559.324ZM450.843 578.366C449.026 585.147 452.948 590.101 460.356 592.086C467.263 593.937 471.091 593.213 474.526 591.441L469.344 610.779C465.701 611.822 460.541 612.996 450.495 610.305C430.906 605.056 425.116 587.488 429.119 572.546C433.123 557.603 446.955 545.159 466.544 550.407C474.204 552.46 480.012 555.9 483.341 558.542L478.294 577.378C475.752 574.812 473.46 572.314 466.177 570.362C458.769 568.377 452.66 571.586 450.843 578.366ZM546.413 603.436C542.275 618.881 527.907 631.316 506.685 625.63C485.464 619.944 478.862 601.89 483 586.444C487.071 571.25 501.883 558.665 523.105 564.351C544.326 570.038 550.484 588.242 546.413 603.436ZM502.807 591.886C501.057 598.416 505.01 605.262 511.539 607.012C518.32 608.829 524.915 604.809 526.665 598.279C528.415 591.749 524.713 584.97 517.932 583.153C511.403 581.404 504.556 585.356 502.807 591.886ZM546.898 634.655L562.375 576.893L583.974 582.68L582.56 587.954C586.063 585.932 591.651 583.661 602.827 586.655C618.398 590.827 623.368 600.907 619.499 615.348L609.809 651.512L588.211 645.725L596.656 614.207C598.54 607.175 598.698 601.564 590.787 599.445C581.997 597.089 578.657 602.52 577.513 606.79L568.496 640.442L546.898 634.655ZM656.934 602.23L648.018 635.506C646.571 640.905 649.037 644.258 653.683 645.503C658.204 646.714 661.982 645.169 663.463 639.644L672.379 606.368L694.103 612.189L684.884 646.595C680.644 662.417 666.703 668.237 648.872 663.459C631.041 658.682 621.752 646.637 625.991 630.815L635.21 596.409L656.934 602.23ZM706.21 634.679L699.178 632.795L703.989 614.838L711.021 616.722L715.53 599.896L737.254 605.717L732.745 622.543L744.925 625.807L740.114 643.763L727.934 640.5L717.268 680.306L695.544 674.485L706.21 634.679Z" fill="black"/>
<path d="M303.612 602.284L276.47 595.011L270.62 616.841L297.763 624.114L296.158 630.103L269.016 622.83L261.148 652.194L288.29 659.467L286.711 665.359L253.677 656.508L272.156 587.541L305.191 596.392L303.612 602.284ZM351.409 606.084L356.818 607.534L337.665 679.012L332.256 677.563L333.887 671.478C328.981 674.718 322.776 675.851 316.691 674.221C305.293 671.166 298.505 659.409 301.559 648.011C304.613 636.613 316.37 629.825 327.768 632.879C333.854 634.509 338.661 638.593 341.289 643.852L351.409 606.084ZM306.942 649.557C304.69 657.96 309.711 666.656 318.114 668.908C326.518 671.16 335.214 666.139 337.465 657.736C339.717 649.332 334.697 640.636 326.293 638.385C317.89 636.133 309.194 641.153 306.942 649.557ZM365.793 643.792L355.103 683.685L349.598 682.21L360.287 642.317L365.793 643.792ZM369.141 633.612C368.65 635.447 366.716 636.482 364.881 635.99C363.045 635.499 361.888 633.636 362.38 631.8C362.898 629.868 364.831 628.834 366.667 629.325C368.502 629.817 369.659 631.68 369.141 633.612ZM379.341 653.22L373.931 651.77L375.381 646.361L380.79 647.811L385.475 630.327L390.884 631.777L386.199 649.26L395.569 651.771L394.119 657.18L384.75 654.669L375.51 689.153L370.101 687.703L379.341 653.22ZM411.542 656.051L400.853 695.943L395.347 694.468L406.036 654.575L411.542 656.051ZM414.891 645.871C414.399 647.706 412.465 648.741 410.63 648.249C408.795 647.757 407.638 645.894 408.129 644.059C408.647 642.127 410.581 641.092 412.416 641.584C414.251 642.076 415.409 643.939 414.891 645.871ZM457.694 689.847C454.64 701.245 442.882 708.033 431.484 704.979C420.086 701.925 413.298 690.168 416.352 678.77C419.406 667.372 431.164 660.584 442.562 663.638C453.96 666.692 460.748 678.449 457.694 689.847ZM421.736 680.316C419.484 688.719 424.504 697.415 432.908 699.667C441.311 701.918 450.007 696.898 452.259 688.494C454.511 680.091 449.49 671.395 441.087 669.143C432.683 666.892 423.987 671.912 421.736 680.316ZM463.275 712.669L473.964 672.777L479.373 674.226L477.872 679.828C479.93 677.17 484.596 675.211 491.165 676.971C502.369 679.974 505.915 688.378 503.456 697.554L496.96 721.799L491.454 720.323L497.459 697.914C499.503 690.283 497.443 684.451 489.715 682.381C481.215 680.103 476.371 685.431 474.766 691.419L468.684 714.119L463.275 712.669Z" fill="black"/>
<path d="M208.185 1233.13L201.43 1258.34L97.9793 1230.62L108.345 1191.94C113.314 1173.39 129.551 1162.06 149.835 1167.49C165.339 1171.65 173.876 1183.25 174.778 1196.7L222.045 1181.41L214.669 1208.94L169.934 1222.88L208.185 1233.13ZM147.622 1216.91L150.611 1205.75C152.552 1198.5 149.204 1194.19 143.119 1192.56C137.034 1190.93 131.6 1193.82 129.892 1200.2L126.902 1211.35L147.622 1216.91ZM202.459 1140.91C209.452 1142.63 215.621 1139.31 217.562 1132.07C219.736 1123.96 218.378 1120.33 215.54 1118.17L221.479 1096.01C230.372 1101.65 242.252 1113.53 235.691 1138.01C229.402 1161.49 208.58 1168.49 191.339 1163.87C174.097 1159.25 159.151 1141.42 165.402 1118.09C172.39 1092.01 192.794 1085.99 211.92 1091.11C213.079 1091.42 214.383 1091.77 215.503 1092.23L202.459 1140.91ZM194.404 1113.6C190.23 1112.94 184.189 1115.21 182.131 1122.89C180.074 1130.57 184.174 1135.55 188.192 1136.78L194.404 1113.6ZM152.517 1012.02L158.457 989.849L265.675 1018.58L259.735 1040.75L255.533 1039.62C256.959 1043.57 258.622 1050.7 255.827 1061.13C249.887 1083.3 229.694 1089.69 212.453 1085.07C195.211 1080.45 180.92 1064.82 186.859 1042.65C190.043 1030.77 193.854 1026.98 197.433 1024.05L152.517 1012.02ZM218.667 1059.56C226.201 1061.58 234.101 1057.02 236.12 1049.48C238.138 1041.95 233.578 1034.05 226.043 1032.03C218.509 1030.01 210.609 1034.57 208.591 1042.1C206.572 1049.64 211.133 1057.54 218.667 1059.56ZM211.549 918.049C223.72 921.311 228.351 927.21 229.272 933.047C234.703 923.788 244.585 918.205 259.364 922.165C279.358 927.522 285.629 944.11 280.62 962.801L269.711 1003.51L166.26 975.795L175.539 941.167C180.547 922.476 194.887 913.585 211.549 918.049ZM212.86 961.261L214.141 956.48C215.849 950.105 213.237 945.367 206.717 943.62C200.631 941.989 195.13 944.553 193.422 950.928L192.141 955.709L212.86 961.261ZM257.196 973.141L260.108 962.274C261.971 955.319 259.167 948.978 250.908 946.765C242.94 944.629 236.906 948.603 235.042 955.558L232.13 966.424L257.196 973.141ZM232.434 876.039L270.83 886.327C277.06 887.996 280.928 885.151 282.365 879.79C283.762 874.574 281.98 870.214 275.605 868.506L237.209 858.218L243.926 833.152L283.625 843.789C301.881 848.681 308.597 864.767 303.084 885.341C297.571 905.916 283.673 916.634 265.417 911.742L225.718 901.105L232.434 876.039ZM321.474 810.335L314.718 835.546L207.501 806.817L214.256 781.606L321.474 810.335ZM333.34 766.048L326.585 791.258L219.367 762.529L226.123 737.319L333.34 766.048Z" fill="black"/>
</svg>
