<svg width="993" height="1555" viewBox="0 0 993 1555" fill="none" xmlns="http://www.w3.org/2000/svg">
<path d="M637.428 1489.62C627.872 1525.28 481.305 1517 310.062 1471.12C138.819 1425.23 7.74722 1359.12 17.3039 1323.46L354.619 64.5781L974.744 230.74L637.428 1489.62Z" fill="#F0F0F2"/>
<ellipse cx="664.682" cy="147.66" rx="321" ry="66.8569" transform="rotate(15 664.682 147.66)" fill="#C7CFDC"/>
<path d="M344.363 424.081L341.591 434.426L331.922 431.836L321.758 469.767L310.061 466.633L320.225 428.701L310.556 426.11L313.328 415.765L344.363 424.081ZM336.965 473.842L350.372 423.807L362.069 426.941L355.927 449.863C358.171 447.71 361.419 446.406 366.828 447.856C375.753 450.247 379.322 456.131 377.094 464.448L372.057 483.245L360.36 480.111L364.69 463.951C365.704 460.164 365.329 457.237 361.069 456.096C357.148 455.045 353.681 458.247 353.029 460.681L348.662 476.976L336.965 473.842ZM390.68 474.031C389.878 477.295 391.426 480.173 394.807 481.079C398.593 482.094 400.285 481.46 401.292 480.135L411.637 482.907C409.003 487.057 403.459 492.601 392.033 489.539C381.079 486.604 377.812 476.888 379.968 468.842C382.124 460.796 390.443 453.821 401.329 456.738C413.5 459.999 416.311 469.521 413.919 478.446C413.775 478.987 413.611 479.596 413.399 480.118L390.68 474.031ZM403.428 470.272C403.732 468.325 402.676 465.505 399.092 464.545C395.509 463.585 393.184 465.498 392.609 467.373L403.428 470.272Z" fill="black"/>
<path d="M309.348 535.825C305.797 549.078 311.606 563.099 329.592 567.918C341.762 571.18 348.437 570.069 353.931 568.498L347.192 593.65C342.618 595.034 335.059 596.197 323.159 593.008C288.405 583.696 277.664 554.004 284.331 529.122C290.962 504.375 314.866 484.401 348.808 493.496C362.331 497.12 366.106 500.885 370.853 505.345L364.113 530.498C359.402 525.902 354.962 521.379 342.926 518.154C324.941 513.335 312.899 522.573 309.348 535.825ZM432.559 587.102C428.102 603.735 412.629 617.127 389.775 611.003C366.921 604.879 359.811 585.437 364.268 568.803C368.652 552.441 384.604 538.887 407.457 545.011C430.311 551.135 436.943 570.739 432.559 587.102ZM385.598 574.664C383.714 581.696 387.971 589.069 395.002 590.953C402.305 592.909 409.407 588.58 411.292 581.548C413.176 574.516 409.189 567.216 401.887 565.259C394.855 563.375 387.482 567.632 385.598 574.664ZM460.509 595.171C458.552 602.473 462.775 607.808 470.754 609.946C478.192 611.939 482.314 611.159 486.014 609.252L480.433 630.077C476.509 631.2 470.952 632.465 460.134 629.566C439.038 623.913 432.802 604.995 437.114 588.902C441.426 572.81 456.322 559.409 477.418 565.061C485.667 567.272 491.921 570.977 495.507 573.822L490.072 594.106C487.334 591.343 484.866 588.653 477.023 586.551C469.044 584.413 462.466 587.868 460.509 595.171ZM563.43 622.169C558.974 638.802 543.5 652.194 520.647 646.07C497.793 639.946 490.683 620.504 495.14 603.87C499.524 587.508 515.475 573.954 538.329 580.078C561.183 586.202 567.815 605.806 563.43 622.169ZM516.47 609.731C514.585 616.763 518.842 624.136 525.874 626.02C533.176 627.976 540.279 623.647 542.163 616.615C544.047 609.583 540.061 602.283 532.759 600.326C525.727 598.442 518.354 602.699 516.47 609.731ZM563.953 655.79L580.621 593.584L603.88 599.816L602.358 605.496C606.13 603.318 612.149 600.872 624.184 604.097C640.952 608.59 646.305 619.446 642.138 634.997L631.703 673.943L608.443 667.711L617.538 633.768C619.567 626.195 619.737 620.153 611.217 617.871C601.751 615.334 598.155 621.183 596.923 625.78L587.212 662.022L563.953 655.79ZM682.453 620.87L672.851 656.706C671.292 662.521 673.949 666.131 678.952 667.472C683.82 668.776 687.889 667.113 689.484 661.163L699.086 625.327L722.481 631.595L712.552 668.648C707.987 685.687 692.973 691.955 673.77 686.809C654.568 681.664 644.564 668.693 649.13 651.654L659.058 614.601L682.453 620.87ZM735.519 655.815L727.946 653.786L733.128 634.448L740.701 636.477L745.556 618.357L768.951 624.625L764.096 642.746L777.213 646.261L772.031 665.599L758.914 662.084L747.428 704.952L724.033 698.683L735.519 655.815Z" fill="black"/>
<path d="M291.362 615.63L269.648 609.812L264.968 627.276L286.682 633.094L285.398 637.885L263.684 632.067L257.39 655.558L279.104 661.376L277.841 666.09L251.413 659.009L266.197 603.835L292.625 610.916L291.362 615.63ZM329.599 618.67L333.926 619.83L318.604 677.013L314.277 675.853L315.581 670.985C311.657 673.577 306.693 674.484 301.825 673.179C292.706 670.736 287.276 661.33 289.719 652.212C292.162 643.093 301.568 637.663 310.687 640.106C315.555 641.41 319.4 644.677 321.503 648.884L329.599 618.67ZM294.026 653.448C292.224 660.171 296.241 667.128 302.963 668.929C309.686 670.73 316.643 666.714 318.444 659.991C320.246 653.268 316.229 646.312 309.506 644.51C302.783 642.709 295.827 646.725 294.026 653.448ZM341.106 648.836L332.555 680.751L328.15 679.57L336.701 647.656L341.106 648.836ZM343.785 640.692C343.392 642.161 341.845 642.988 340.376 642.595C338.908 642.202 337.982 640.711 338.376 639.243C338.79 637.697 340.337 636.87 341.805 637.263C343.273 637.656 344.199 639.147 343.785 640.692ZM351.944 656.379L347.617 655.219L348.777 650.892L353.104 652.051L356.852 638.065L361.179 639.224L357.431 653.211L364.927 655.219L363.767 659.547L356.272 657.538L348.88 685.125L344.553 683.965L351.944 656.379ZM377.705 658.643L369.154 690.557L364.749 689.377L373.301 657.463L377.705 658.643ZM380.385 650.499C379.991 651.967 378.444 652.795 376.976 652.402C375.508 652.008 374.582 650.518 374.975 649.05C375.39 647.504 376.936 646.676 378.405 647.07C379.873 647.463 380.799 648.954 380.385 650.499ZM414.627 685.681C412.184 694.799 402.778 700.229 393.659 697.786C384.541 695.343 379.11 685.937 381.554 676.819C383.997 667.7 393.403 662.27 402.521 664.713C411.64 667.156 417.07 676.562 414.627 685.681ZM385.86 678.055C384.059 684.778 388.075 691.735 394.798 693.536C401.521 695.338 408.478 691.321 410.279 684.598C412.08 677.875 408.064 670.919 401.341 669.118C394.618 667.316 387.662 671.333 385.86 678.055ZM419.092 703.938L427.643 672.024L431.971 673.184L430.77 677.665C432.416 675.539 436.149 673.972 441.404 675.38C450.367 677.782 453.204 684.505 451.237 691.846L446.04 711.242L441.635 710.062L446.439 692.134C448.075 686.029 446.426 681.364 440.244 679.707C433.444 677.885 429.569 682.147 428.285 686.938L423.419 705.098L419.092 703.938Z" fill="black"/>
<path d="M208.185 1233.13L201.43 1258.34L97.9793 1230.62L108.345 1191.94C113.314 1173.39 129.551 1162.06 149.835 1167.49C165.339 1171.65 173.876 1183.25 174.778 1196.7L222.045 1181.41L214.669 1208.94L169.934 1222.88L208.185 1233.13ZM147.622 1216.91L150.611 1205.75C152.552 1198.5 149.204 1194.19 143.119 1192.56C137.034 1190.93 131.6 1193.82 129.892 1200.2L126.902 1211.35L147.622 1216.91ZM202.459 1140.91C209.452 1142.63 215.621 1139.31 217.562 1132.07C219.736 1123.96 218.378 1120.33 215.54 1118.17L221.479 1096.01C230.372 1101.65 242.252 1113.53 235.691 1138.01C229.402 1161.49 208.58 1168.49 191.339 1163.87C174.097 1159.25 159.151 1141.42 165.402 1118.09C172.39 1092.01 192.794 1085.99 211.92 1091.11C213.079 1091.42 214.383 1091.77 215.503 1092.23L202.459 1140.91ZM194.404 1113.6C190.23 1112.94 184.189 1115.21 182.131 1122.89C180.074 1130.57 184.174 1135.55 188.192 1136.78L194.404 1113.6ZM152.517 1012.02L158.457 989.849L265.675 1018.58L259.735 1040.75L255.533 1039.62C256.959 1043.57 258.622 1050.7 255.827 1061.13C249.887 1083.3 229.694 1089.69 212.453 1085.07C195.211 1080.45 180.92 1064.82 186.859 1042.65C190.043 1030.77 193.854 1026.98 197.433 1024.05L152.517 1012.02ZM218.667 1059.56C226.201 1061.58 234.101 1057.02 236.12 1049.48C238.138 1041.95 233.578 1034.05 226.043 1032.03C218.509 1030.01 210.609 1034.57 208.591 1042.1C206.572 1049.64 211.133 1057.54 218.667 1059.56ZM211.549 918.049C223.72 921.311 228.351 927.21 229.272 933.047C234.703 923.788 244.585 918.205 259.364 922.165C279.358 927.522 285.629 944.11 280.62 962.801L269.711 1003.51L166.26 975.795L175.539 941.167C180.547 922.476 194.887 913.585 211.549 918.049ZM212.86 961.261L214.141 956.48C215.849 950.105 213.237 945.367 206.717 943.62C200.631 941.989 195.13 944.553 193.422 950.928L192.141 955.709L212.86 961.261ZM257.196 973.141L260.108 962.274C261.971 955.319 259.167 948.978 250.908 946.765C242.94 944.629 236.906 948.603 235.042 955.558L232.13 966.424L257.196 973.141ZM232.434 876.039L270.83 886.327C277.06 887.996 280.928 885.151 282.365 879.79C283.762 874.574 281.98 870.214 275.605 868.506L237.209 858.218L243.926 833.152L283.625 843.789C301.881 848.681 308.597 864.767 303.084 885.341C297.571 905.916 283.673 916.634 265.417 911.742L225.718 901.105L232.434 876.039ZM321.474 810.335L314.718 835.546L207.501 806.817L214.256 781.606L321.474 810.335ZM333.34 766.048L326.585 791.258L219.367 762.529L226.123 737.319L333.34 766.048Z" fill="black"/>
</svg>
