<svg width="993" height="1555" viewBox="0 0 993 1555" fill="none" xmlns="http://www.w3.org/2000/svg">
<path d="M637.428 1489.62C627.871 1525.28 481.304 1517 310.061 1471.12C138.819 1425.23 7.74648 1359.12 17.3031 1323.46L354.618 64.5781L974.743 230.74L637.428 1489.62Z" fill="#F0F0F2"/>
<ellipse cx="664.681" cy="147.66" rx="321" ry="66.8569" transform="rotate(15 664.681 147.66)" fill="#C7CFDC"/>
<path d="M344.362 424.081L341.59 434.426L331.922 431.836L321.758 469.767L310.06 466.633L320.224 428.701L310.555 426.11L313.327 415.765L344.362 424.081ZM336.964 473.842L350.371 423.807L362.068 426.941L355.927 449.863C358.17 447.71 361.418 446.406 366.828 447.856C375.753 450.247 379.321 456.131 377.093 464.448L372.056 483.245L360.359 480.111L364.689 463.951C365.704 460.164 365.328 457.237 361.069 456.096C357.147 455.045 353.68 458.247 353.028 460.681L348.662 476.976L336.964 473.842ZM390.68 474.031C389.878 477.295 391.425 480.173 394.806 481.079C398.592 482.094 400.284 481.46 401.291 480.135L411.636 482.907C409.003 487.057 403.459 492.601 392.032 489.539C381.078 486.604 377.812 476.888 379.968 468.842C382.124 460.796 390.442 453.821 401.328 456.738C413.499 459.999 416.31 469.521 413.919 478.446C413.774 478.987 413.611 479.596 413.398 480.118L390.68 474.031ZM403.427 470.272C403.731 468.325 402.675 465.505 399.091 464.545C395.508 463.585 393.183 465.498 392.608 467.373L403.427 470.272Z" fill="black"/>
<path d="M309.348 535.825C305.797 549.078 311.606 563.099 329.591 567.918C341.762 571.18 348.437 570.069 353.93 568.498L347.191 593.65C342.617 595.034 335.058 596.197 323.158 593.008C288.404 583.696 277.663 554.004 284.33 529.122C290.961 504.375 314.865 484.401 348.808 493.496C362.331 497.12 366.105 500.885 370.852 505.345L364.112 530.498C359.401 525.902 354.961 521.379 342.925 518.154C324.94 513.335 312.899 522.573 309.348 535.825ZM432.558 587.102C428.101 603.735 412.628 617.127 389.774 611.003C366.92 604.879 359.81 585.437 364.267 568.803C368.652 552.441 384.603 538.887 407.457 545.011C430.311 551.135 436.943 570.739 432.558 587.102ZM385.597 574.664C383.713 581.696 387.97 589.069 395.002 590.953C402.304 592.909 409.407 588.58 411.291 581.548C413.175 574.516 409.189 567.216 401.886 565.259C394.854 563.375 387.481 567.632 385.597 574.664ZM460.508 595.171C458.552 602.473 462.775 607.808 470.753 609.946C478.191 611.939 482.313 611.159 486.013 609.252L480.433 630.077C476.508 631.2 470.952 632.465 460.133 629.566C439.038 623.913 432.802 604.995 437.113 588.902C441.425 572.81 456.321 559.409 477.417 565.061C485.666 567.272 491.92 570.977 495.506 573.822L490.071 594.106C487.333 591.343 484.865 588.653 477.022 586.551C469.043 584.413 462.465 587.868 460.508 595.171ZM563.43 622.169C558.973 638.802 543.5 652.194 520.646 646.07C497.792 639.946 490.682 620.504 495.139 603.87C499.523 587.508 515.475 573.954 538.328 580.078C561.182 586.202 567.814 605.806 563.43 622.169ZM516.469 609.731C514.585 616.763 518.841 624.136 525.873 626.02C533.176 627.976 540.278 623.647 542.162 616.615C544.047 609.583 540.06 602.283 532.758 600.326C525.726 598.442 518.353 602.699 516.469 609.731ZM563.952 655.79L580.62 593.584L603.879 599.816L602.358 605.496C606.13 603.318 612.148 600.872 624.183 604.097C640.952 608.59 646.305 619.446 642.138 634.997L631.702 673.943L608.442 667.711L617.537 633.768C619.567 626.195 619.736 620.153 611.217 617.871C601.751 615.334 598.154 621.183 596.922 625.78L587.211 662.022L563.952 655.79ZM682.452 620.87L672.85 656.706C671.292 662.521 673.948 666.131 678.951 667.472C683.82 668.776 687.889 667.113 689.483 661.163L699.085 625.327L722.48 631.595L712.552 668.648C707.986 685.687 692.972 691.955 673.77 686.809C654.567 681.664 644.563 668.693 649.129 651.654L659.057 614.601L682.452 620.87ZM735.518 655.815L727.946 653.786L733.127 634.448L740.7 636.477L745.555 618.357L768.95 624.625L764.095 642.746L777.212 646.261L772.03 665.599L758.913 662.084L747.427 704.952L724.032 698.683L735.518 655.815Z" fill="black"/>
<path d="M291.361 615.63L269.647 609.812L264.967 627.276L286.681 633.094L285.398 637.885L263.684 632.067L257.389 655.558L279.103 661.376L277.84 666.09L251.412 659.009L266.196 603.835L292.624 610.916L291.361 615.63ZM329.598 618.67L333.926 619.83L318.603 677.013L314.276 675.853L315.581 670.985C311.656 673.577 306.692 674.484 301.824 673.179C292.706 670.736 287.275 661.33 289.718 652.212C292.161 643.093 301.567 637.663 310.686 640.106C315.554 641.41 319.4 644.677 321.502 648.884L329.598 618.67ZM294.025 653.448C292.223 660.171 296.24 667.128 302.963 668.929C309.685 670.73 316.642 666.714 318.443 659.991C320.245 653.268 316.228 646.312 309.506 644.51C302.783 642.709 295.826 646.725 294.025 653.448ZM341.105 648.836L332.554 680.751L328.149 679.57L336.701 647.656L341.105 648.836ZM343.784 640.692C343.391 642.161 341.844 642.988 340.376 642.595C338.908 642.202 337.982 640.711 338.375 639.243C338.789 637.697 340.336 636.87 341.804 637.263C343.273 637.656 344.198 639.147 343.784 640.692ZM351.944 656.379L347.616 655.219L348.776 650.892L353.103 652.051L356.851 638.065L361.178 639.224L357.431 653.211L364.926 655.219L363.767 659.547L356.271 657.538L348.879 685.125L344.552 683.965L351.944 656.379ZM377.705 658.643L369.153 690.557L364.749 689.377L373.3 657.463L377.705 658.643ZM380.384 650.499C379.99 651.967 378.443 652.795 376.975 652.402C375.507 652.008 374.581 650.518 374.975 649.05C375.389 647.504 376.936 646.676 378.404 647.07C379.872 647.463 380.798 648.954 380.384 650.499ZM414.626 685.681C412.183 694.799 402.777 700.229 393.659 697.786C384.54 695.343 379.11 685.937 381.553 676.819C383.996 667.7 393.402 662.27 402.521 664.713C411.639 667.156 417.07 676.562 414.626 685.681ZM385.86 678.055C384.058 684.778 388.075 691.735 394.797 693.536C401.52 695.338 408.477 691.321 410.278 684.598C412.08 677.875 408.063 670.919 401.34 669.118C394.618 667.316 387.661 671.333 385.86 678.055ZM419.091 703.938L427.642 672.024L431.97 673.184L430.769 677.665C432.415 675.539 436.148 673.972 441.403 675.38C450.367 677.782 453.203 684.505 451.236 691.846L446.039 711.242L441.634 710.062L446.438 692.134C448.074 686.029 446.425 681.364 440.243 679.707C433.443 677.885 429.568 682.147 428.284 686.938L423.418 705.098L419.091 703.938Z" fill="black"/>
<rect width="323" height="67.9718" transform="translate(475.613 660.088) rotate(15)" fill="#3DA6CF"/>
<path d="M496.251 692.532C495.875 693.935 496.799 695.096 499.922 696.469C507.243 699.612 509.792 705.129 508.262 710.841C506.584 717.104 500.096 721.274 490.175 718.615C484.814 717.179 480.357 713.568 477.708 710.226L482.1 703.455C484.563 705.887 487.711 708.772 490.717 709.577C493.323 710.275 494.95 710.013 495.34 708.56C495.689 707.257 494.541 705.929 491.569 704.596C484.612 701.497 482.323 696.211 483.88 690.399C485.424 684.636 491.427 680.069 499.745 682.298C505.557 683.855 509.895 686.306 512.602 689.233L508.129 696.305C506.136 694.322 502.787 692.189 499.23 691.236C497.877 690.873 496.533 691.48 496.251 692.532Z" fill="white"/>
<path d="M528.835 690.307L522.578 713.657C522.082 715.511 523.079 716.799 524.783 717.255C526.487 717.711 528.044 717.109 528.541 715.255L534.798 691.905L546.272 694.98L539.76 719.281C537.612 727.298 529.477 729.2 522.111 727.226C514.645 725.226 508.701 719.551 510.849 711.534L517.361 687.233L528.835 690.307Z" fill="white"/>
<path d="M565.564 709.279C561.305 708.137 557.865 712.156 556.617 716.816C555.328 721.627 556.331 727.104 560.99 728.353C563.446 729.011 564.609 728.678 565.465 727.887L566.351 724.58L562.343 723.506L564.129 716.842L579.611 720.991L576.282 733.417C572.943 736.658 566.043 739.159 558.627 737.172C545.75 733.721 541.857 722.797 544.314 713.627C546.771 704.458 555.628 697.057 567.954 700.36C576.723 702.709 580.295 708.016 581.66 712.141L569.703 713.073C569.301 711.569 568.571 710.084 565.564 709.279Z" fill="white"/>
<path d="M597.96 708.829L611.288 712.4L613.026 751.211L601.702 748.177L601.331 742.546L591.56 739.928L588.424 744.619L577.049 741.571L597.96 708.829ZM600.583 725.697L596.1 732.605L600.91 733.894L600.583 725.697Z" fill="white"/>
<path d="M649.838 735.082C648.227 741.095 645.328 742.896 641.572 743.285L646.246 760.112L633.018 756.568L630.163 743.773L627.156 754.997L615.431 751.855L625.017 716.079L641.051 720.376C647.765 722.175 651.919 727.315 649.838 735.082ZM633.023 733.1L634.927 733.611C636.53 734.04 637.838 733.37 638.281 731.717C638.711 730.113 637.927 728.829 636.323 728.399L634.419 727.889L633.023 733.1Z" fill="white"/>
<path d="M681.834 731.303L679.444 740.222L667.87 737.121L666.352 742.783L677.326 745.723L674.936 754.642L663.963 751.702L660.673 763.978L649.199 760.903L658.785 725.127L681.834 731.303Z" fill="white"/>
<path d="M710.025 751.209C708.414 757.222 705.515 759.023 701.758 759.412L706.433 776.239L693.205 772.695L690.35 759.9L687.342 771.124L675.617 767.982L685.204 732.206L701.238 736.502C707.952 738.302 712.106 743.442 710.025 751.209ZM693.21 749.227L695.114 749.737C696.717 750.167 698.024 749.497 698.467 747.844C698.897 746.24 698.113 744.956 696.51 744.526L694.606 744.016L693.21 749.227Z" fill="white"/>
<path d="M742.02 747.43L739.631 756.349L728.056 753.248L726.821 757.857L737.794 760.798L735.391 769.767L724.418 766.827L723.263 771.136L734.838 774.237L732.434 783.206L709.385 777.03L718.971 741.254L742.02 747.43Z" fill="white"/>
<path d="M769.129 754.694L766.739 763.613L755.164 760.511L753.929 765.121L764.903 768.061L762.499 777.031L751.526 774.09L750.371 778.399L761.946 781.501L759.543 790.47L736.494 784.294L746.08 748.518L769.129 754.694Z" fill="white"/>
<path d="M208.185 1233.13L201.43 1258.34L97.9795 1230.62L108.345 1191.94C113.315 1173.39 129.551 1162.06 149.836 1167.49C165.339 1171.65 173.876 1183.25 174.778 1196.7L222.045 1181.41L214.669 1208.94L169.935 1222.88L208.185 1233.13ZM147.622 1216.91L150.611 1205.75C152.552 1198.5 149.205 1194.19 143.119 1192.56C137.034 1190.93 131.6 1193.82 129.892 1200.2L126.903 1211.35L147.622 1216.91ZM202.459 1140.91C209.452 1142.63 215.621 1139.31 217.562 1132.07C219.736 1123.96 218.378 1120.33 215.54 1118.17L221.48 1096.01C230.372 1101.65 242.252 1113.53 235.691 1138.01C229.402 1161.49 208.581 1168.49 191.339 1163.87C174.097 1159.25 159.151 1141.42 165.402 1118.09C172.39 1092.01 192.795 1085.99 211.92 1091.11C213.079 1091.42 214.383 1091.77 215.503 1092.23L202.459 1140.91ZM194.404 1113.6C190.231 1112.94 184.189 1115.21 182.131 1122.89C180.074 1130.57 184.174 1135.55 188.192 1136.78L194.404 1113.6ZM152.518 1012.02L158.458 989.849L265.675 1018.58L259.735 1040.75L255.534 1039.62C256.959 1043.57 258.622 1050.7 255.827 1061.13C249.887 1083.3 229.695 1089.69 212.453 1085.07C195.211 1080.45 180.92 1064.82 186.86 1042.65C190.043 1030.77 193.855 1026.98 197.433 1024.05L152.518 1012.02ZM218.667 1059.56C226.201 1061.58 234.101 1057.02 236.12 1049.48C238.139 1041.95 233.578 1034.05 226.044 1032.03C218.509 1030.01 210.61 1034.57 208.591 1042.1C206.572 1049.64 211.133 1057.54 218.667 1059.56ZM211.55 918.049C223.72 921.311 228.351 927.21 229.272 933.047C234.703 923.788 244.585 918.205 259.364 922.165C279.358 927.522 285.629 944.11 280.621 962.801L269.711 1003.51L166.261 975.795L175.539 941.167C180.548 922.476 194.887 913.585 211.55 918.049ZM212.86 961.261L214.141 956.48C215.85 950.105 213.237 945.367 206.717 943.62C200.632 941.989 195.131 944.553 193.422 950.928L192.141 955.709L212.86 961.261ZM257.196 973.141L260.108 962.274C261.972 955.319 259.167 948.978 250.909 946.765C242.94 944.629 236.906 948.603 235.042 955.558L232.131 966.424L257.196 973.141ZM232.434 876.039L270.83 886.327C277.06 887.996 280.929 885.151 282.365 879.79C283.763 874.574 281.98 870.214 275.605 868.506L237.21 858.218L243.926 833.152L283.626 843.789C301.882 848.681 308.597 864.767 303.084 885.341C297.571 905.916 283.674 916.634 265.418 911.742L225.718 901.105L232.434 876.039ZM321.474 810.335L314.719 835.546L207.501 806.817L214.256 781.606L321.474 810.335ZM333.341 766.048L326.585 791.258L219.368 762.529L226.123 737.319L333.341 766.048Z" fill="black"/>
<path d="M355.59 63.5832C355.517 63.8097 355.448 64.0375 355.387 64.2677C345.83 99.9336 476.903 166.043 648.145 211.927C819.388 257.811 965.954 266.095 975.511 230.429C975.573 230.199 975.627 229.968 975.677 229.735L975.696 229.74L956.284 302.184C946.728 337.85 800.161 329.567 628.918 283.683C457.676 237.798 326.603 171.688 336.16 136.023L355.572 63.5781L355.59 63.5832Z" fill="#3DA6CF"/>
<path d="M485.703 186.802C485.057 188.474 486.038 190.019 489.688 192.115C498.255 196.934 500.657 204.037 498.027 210.843C495.144 218.305 486.637 222.566 474.817 217.999C468.429 215.532 463.437 210.516 460.627 206.068L466.906 198.34C469.608 201.647 473.089 205.6 476.671 206.983C479.776 208.183 481.807 208.076 482.476 206.344C483.075 204.792 481.842 203.012 478.371 200.985C470.245 196.268 468.133 189.482 470.808 182.557C473.46 175.692 481.426 170.879 491.336 174.708C498.261 177.383 503.26 180.961 506.195 184.907L499.777 192.994C497.594 190.298 493.766 187.242 489.528 185.604C487.916 184.981 486.187 185.548 485.703 186.802ZM525.361 187.453L515.689 215.665C514.921 217.905 516.04 219.574 518.098 220.28C520.156 220.985 522.125 220.375 522.893 218.135L532.566 189.923L546.43 194.676L536.362 224.039C533.041 233.725 522.867 235.379 513.967 232.327C504.947 229.234 498.109 221.748 501.43 212.062L511.498 182.7L525.361 187.453ZM568.87 213.118C563.676 211.499 559.235 216.282 557.464 221.964C555.636 227.83 556.599 234.633 562.281 236.404C565.275 237.338 566.726 236.985 567.821 236.053L569.078 232.02L564.19 230.497L566.723 222.37L585.603 228.255L580.88 243.408C576.602 247.237 567.972 249.977 558.929 247.158C543.226 242.263 538.971 228.602 542.457 217.42C545.942 206.239 557.229 197.557 572.26 202.242C582.952 205.575 587.092 212.296 588.569 217.449L573.783 218.001C573.362 216.127 572.536 214.261 568.87 213.118ZM608.382 213.619L624.759 218.268L626.194 266.177L612.28 262.227L611.925 255.274L599.919 251.866L595.964 257.596L581.989 253.628L608.382 213.619ZM611.31 234.475L605.654 242.916L611.564 244.594L611.31 234.475ZM671.948 246.097C670.013 253.529 666.452 255.777 661.821 256.291L667.737 277.009L651.386 272.753L647.751 256.993L644.14 270.867L629.646 267.095L641.157 222.872L660.976 228.031C669.276 230.191 674.446 236.497 671.948 246.097ZM651.184 243.801L653.538 244.413C655.52 244.929 657.127 244.091 657.659 242.047C658.175 240.065 657.197 238.488 655.215 237.972L652.861 237.359L651.184 243.801ZM711.126 240.483L708.457 251.558L694.085 248.095L692.391 255.126L706.016 258.409L703.348 269.484L689.722 266.201L686.048 281.444L671.8 278.011L682.505 233.586L711.126 240.483ZM746.531 263.276C744.9 270.781 741.433 273.171 736.827 273.873L743.581 294.334L727.07 290.746L722.797 275.147L719.753 289.156L705.118 285.976L714.821 241.322L734.834 245.671C743.215 247.492 748.637 253.582 746.531 263.276ZM725.691 261.826L728.068 262.342C730.069 262.777 731.641 261.874 732.089 259.81C732.524 257.809 731.483 256.273 729.481 255.838L727.105 255.322L725.691 261.826ZM785.311 255.771L783.189 266.963L768.664 264.21L767.567 269.995L781.338 272.605L779.204 283.861L765.433 281.25L764.408 286.658L778.934 289.411L776.8 300.667L747.875 295.184L756.386 250.287L785.311 255.771ZM818.743 260.999L817.007 272.257L802.396 270.004L801.498 275.823L815.35 277.96L813.603 289.282L799.751 287.145L798.912 292.584L813.523 294.838L811.777 306.16L782.681 301.672L789.648 256.51L818.743 260.999Z" fill="white"/>
</svg>
