<svg width="993" height="1555" viewBox="0 0 993 1555" fill="none" xmlns="http://www.w3.org/2000/svg">
<path d="M637.428 1489.62C627.872 1525.28 481.305 1517 310.062 1471.12C138.819 1425.23 7.74722 1359.12 17.3039 1323.46L354.619 64.5781L974.744 230.74L637.428 1489.62Z" fill="#F0F0F2"/>
<ellipse cx="664.682" cy="147.66" rx="321" ry="66.8569" transform="rotate(15 664.682 147.66)" fill="#C7CFDC"/>
<path d="M344.363 424.081L341.591 434.426L331.922 431.836L321.758 469.767L310.061 466.633L320.225 428.701L310.556 426.11L313.328 415.765L344.363 424.081ZM336.965 473.842L350.372 423.807L362.069 426.941L355.927 449.863C358.171 447.71 361.419 446.406 366.828 447.856C375.753 450.247 379.322 456.131 377.094 464.448L372.057 483.245L360.36 480.111L364.69 463.951C365.704 460.164 365.329 457.237 361.069 456.096C357.148 455.045 353.681 458.247 353.029 460.681L348.662 476.976L336.965 473.842ZM390.68 474.031C389.878 477.295 391.426 480.173 394.807 481.079C398.593 482.094 400.285 481.46 401.292 480.135L411.637 482.907C409.003 487.057 403.459 492.601 392.033 489.539C381.079 486.604 377.812 476.888 379.968 468.842C382.124 460.796 390.443 453.821 401.329 456.738C413.5 459.999 416.311 469.521 413.919 478.446C413.775 478.987 413.611 479.596 413.399 480.118L390.68 474.031ZM403.428 470.272C403.732 468.325 402.676 465.505 399.092 464.545C395.509 463.585 393.184 465.498 392.609 467.373L403.428 470.272Z" fill="black"/>
<path d="M309.348 535.825C305.797 549.078 311.606 563.099 329.592 567.918C341.762 571.18 348.437 570.069 353.931 568.498L347.192 593.65C342.618 595.034 335.059 596.197 323.159 593.008C288.405 583.696 277.664 554.004 284.331 529.122C290.962 504.375 314.866 484.401 348.808 493.496C362.331 497.12 366.106 500.885 370.853 505.345L364.113 530.498C359.402 525.902 354.962 521.379 342.926 518.154C324.941 513.335 312.899 522.573 309.348 535.825ZM432.559 587.102C428.102 603.735 412.629 617.127 389.775 611.003C366.921 604.879 359.811 585.437 364.268 568.803C368.652 552.441 384.604 538.887 407.457 545.011C430.311 551.135 436.943 570.739 432.559 587.102ZM385.598 574.664C383.714 581.696 387.971 589.069 395.002 590.953C402.305 592.909 409.407 588.58 411.292 581.548C413.176 574.516 409.189 567.216 401.887 565.259C394.855 563.375 387.482 567.632 385.598 574.664ZM460.509 595.171C458.552 602.473 462.775 607.808 470.754 609.946C478.192 611.939 482.314 611.159 486.014 609.252L480.433 630.077C476.509 631.2 470.952 632.465 460.134 629.566C439.038 623.913 432.802 604.995 437.114 588.902C441.426 572.81 456.322 559.409 477.418 565.061C485.667 567.272 491.921 570.977 495.507 573.822L490.072 594.106C487.334 591.343 484.866 588.653 477.023 586.551C469.044 584.413 462.466 587.868 460.509 595.171ZM563.43 622.169C558.974 638.802 543.5 652.194 520.647 646.07C497.793 639.946 490.683 620.504 495.14 603.87C499.524 587.508 515.475 573.954 538.329 580.078C561.183 586.202 567.815 605.806 563.43 622.169ZM516.47 609.731C514.585 616.763 518.842 624.136 525.874 626.02C533.176 627.976 540.279 623.647 542.163 616.615C544.047 609.583 540.061 602.283 532.759 600.326C525.727 598.442 518.354 602.699 516.47 609.731ZM563.953 655.79L580.621 593.584L603.88 599.816L602.358 605.496C606.13 603.318 612.149 600.872 624.184 604.097C640.952 608.59 646.305 619.446 642.138 634.997L631.703 673.943L608.443 667.711L617.538 633.768C619.567 626.195 619.737 620.153 611.217 617.871C601.751 615.334 598.155 621.183 596.923 625.78L587.212 662.022L563.953 655.79ZM682.453 620.87L672.851 656.706C671.292 662.521 673.949 666.131 678.952 667.472C683.82 668.776 687.889 667.113 689.484 661.163L699.086 625.327L722.481 631.595L712.552 668.648C707.987 685.687 692.973 691.955 673.77 686.809C654.568 681.664 644.564 668.693 649.13 651.654L659.058 614.601L682.453 620.87ZM735.519 655.815L727.946 653.786L733.128 634.448L740.701 636.477L745.556 618.357L768.951 624.625L764.096 642.746L777.213 646.261L772.031 665.599L758.914 662.084L747.428 704.952L724.033 698.683L735.519 655.815Z" fill="black"/>
<path d="M291.362 615.63L269.648 609.812L264.968 627.276L286.682 633.094L285.398 637.885L263.684 632.067L257.39 655.558L279.104 661.376L277.841 666.09L251.413 659.009L266.197 603.835L292.625 610.916L291.362 615.63ZM329.599 618.67L333.926 619.83L318.604 677.013L314.277 675.853L315.581 670.985C311.657 673.577 306.693 674.484 301.825 673.179C292.706 670.736 287.276 661.33 289.719 652.212C292.162 643.093 301.568 637.663 310.687 640.106C315.555 641.41 319.4 644.677 321.503 648.884L329.599 618.67ZM294.026 653.448C292.224 660.171 296.241 667.128 302.963 668.929C309.686 670.73 316.643 666.714 318.444 659.991C320.246 653.268 316.229 646.312 309.506 644.51C302.783 642.709 295.827 646.725 294.026 653.448ZM341.106 648.836L332.555 680.751L328.15 679.57L336.701 647.656L341.106 648.836ZM343.785 640.692C343.392 642.161 341.845 642.988 340.376 642.595C338.908 642.202 337.982 640.711 338.376 639.243C338.79 637.697 340.337 636.87 341.805 637.263C343.273 637.656 344.199 639.147 343.785 640.692ZM351.944 656.379L347.617 655.219L348.777 650.892L353.104 652.051L356.852 638.065L361.179 639.224L357.431 653.211L364.927 655.219L363.767 659.547L356.272 657.538L348.88 685.125L344.553 683.965L351.944 656.379ZM377.705 658.643L369.154 690.557L364.749 689.377L373.301 657.463L377.705 658.643ZM380.385 650.499C379.991 651.967 378.444 652.795 376.976 652.402C375.508 652.008 374.582 650.518 374.975 649.05C375.39 647.504 376.936 646.676 378.405 647.07C379.873 647.463 380.799 648.954 380.385 650.499ZM414.627 685.681C412.184 694.799 402.778 700.229 393.659 697.786C384.541 695.343 379.11 685.937 381.554 676.819C383.997 667.7 393.403 662.27 402.521 664.713C411.64 667.156 417.07 676.562 414.627 685.681ZM385.86 678.055C384.059 684.778 388.075 691.735 394.798 693.536C401.521 695.338 408.478 691.321 410.279 684.598C412.08 677.875 408.064 670.919 401.341 669.118C394.618 667.316 387.662 671.333 385.86 678.055ZM419.092 703.938L427.643 672.024L431.971 673.184L430.77 677.665C432.416 675.539 436.149 673.972 441.404 675.38C450.367 677.782 453.204 684.505 451.237 691.846L446.04 711.242L441.635 710.062L446.439 692.134C448.075 686.029 446.426 681.364 440.244 679.707C433.444 677.885 429.569 682.147 428.285 686.938L423.419 705.098L419.092 703.938Z" fill="black"/>
<rect width="323" height="67.9718" transform="translate(475.613 660.088) rotate(15)" fill="#3DA6CF"/>
<path d="M496.252 692.532C495.876 693.935 496.8 695.096 499.923 696.469C507.244 699.612 509.793 705.129 508.263 710.841C506.584 717.104 500.097 721.274 490.176 718.615C484.814 717.179 480.358 713.568 477.709 710.226L482.101 703.455C484.564 705.887 487.711 708.772 490.718 709.577C493.323 710.275 494.951 710.013 495.34 708.56C495.689 707.257 494.542 705.929 491.569 704.596C484.613 701.497 482.323 696.211 483.881 690.399C485.425 684.636 491.428 680.069 499.746 682.298C505.558 683.855 509.896 686.306 512.602 689.233L508.13 696.305C506.137 694.322 502.788 692.189 499.231 691.236C497.878 690.873 496.534 691.48 496.252 692.532Z" fill="white"/>
<path d="M528.836 690.307L522.579 713.657C522.082 715.511 523.08 716.799 524.784 717.255C526.487 717.711 528.045 717.109 528.542 715.255L534.798 691.905L546.273 694.98L539.761 719.281C537.613 727.298 529.478 729.2 522.112 727.226C514.646 725.226 508.702 719.551 510.85 711.534L517.361 687.233L528.836 690.307Z" fill="white"/>
<path d="M565.565 709.279C561.306 708.137 557.866 712.156 556.618 716.816C555.329 721.627 556.331 727.104 560.991 728.353C563.446 729.011 564.61 728.678 565.466 727.887L566.352 724.58L562.344 723.506L564.129 716.842L579.612 720.991L576.282 733.417C572.944 736.658 566.044 739.159 558.628 737.172C545.751 733.721 541.858 722.797 544.315 713.627C546.772 704.458 555.629 697.057 567.955 700.36C576.724 702.709 580.296 708.016 581.661 712.141L569.704 713.073C569.302 711.569 568.572 710.084 565.565 709.279Z" fill="white"/>
<path d="M597.96 708.829L611.289 712.4L613.027 751.211L601.703 748.177L601.332 742.546L591.561 739.928L588.424 744.619L577.05 741.571L597.96 708.829ZM600.583 725.697L596.101 732.605L600.911 733.894L600.583 725.697Z" fill="white"/>
<path d="M649.839 735.082C648.228 741.095 645.329 742.896 641.573 743.285L646.247 760.112L633.019 756.568L630.164 743.773L627.157 754.997L615.432 751.855L625.018 716.079L641.052 720.376C647.766 722.175 651.92 727.315 649.839 735.082ZM633.024 733.1L634.928 733.611C636.531 734.04 637.839 733.37 638.282 731.717C638.711 730.113 637.928 728.829 636.324 728.399L634.42 727.889L633.024 733.1Z" fill="white"/>
<path d="M681.835 731.303L679.445 740.222L667.87 737.121L666.353 742.783L677.326 745.723L674.937 754.642L663.963 751.702L660.674 763.978L649.2 760.903L658.786 725.127L681.835 731.303Z" fill="white"/>
<path d="M710.026 751.209C708.415 757.222 705.515 759.023 701.759 759.412L706.434 776.239L693.206 772.695L690.351 759.9L687.343 771.124L675.618 767.982L685.204 732.206L701.238 736.502C707.953 738.302 712.107 743.442 710.026 751.209ZM693.21 749.227L695.114 749.737C696.718 750.167 698.025 749.497 698.468 747.844C698.898 746.24 698.114 744.956 696.511 744.526L694.607 744.016L693.21 749.227Z" fill="white"/>
<path d="M742.021 747.43L739.631 756.349L728.057 753.248L726.822 757.857L737.795 760.798L735.392 769.767L724.418 766.827L723.264 771.136L734.838 774.237L732.435 783.206L709.386 777.03L718.972 741.254L742.021 747.43Z" fill="white"/>
<path d="M769.13 754.694L766.74 763.613L755.165 760.511L753.93 765.121L764.903 768.061L762.5 777.031L751.527 774.09L750.372 778.399L761.947 781.501L759.543 790.47L736.494 784.294L746.081 748.518L769.13 754.694Z" fill="white"/>
<path d="M208.185 1233.13L201.43 1258.34L97.9793 1230.62L108.345 1191.94C113.314 1173.39 129.551 1162.06 149.835 1167.49C165.339 1171.65 173.876 1183.25 174.778 1196.7L222.045 1181.41L214.669 1208.94L169.934 1222.88L208.185 1233.13ZM147.622 1216.91L150.611 1205.75C152.552 1198.5 149.204 1194.19 143.119 1192.56C137.034 1190.93 131.6 1193.82 129.892 1200.2L126.902 1211.35L147.622 1216.91ZM202.459 1140.91C209.452 1142.63 215.621 1139.31 217.562 1132.07C219.736 1123.96 218.378 1120.33 215.54 1118.17L221.479 1096.01C230.372 1101.65 242.252 1113.53 235.691 1138.01C229.402 1161.49 208.58 1168.49 191.339 1163.87C174.097 1159.25 159.151 1141.42 165.402 1118.09C172.39 1092.01 192.794 1085.99 211.92 1091.11C213.079 1091.42 214.383 1091.77 215.503 1092.23L202.459 1140.91ZM194.404 1113.6C190.23 1112.94 184.189 1115.21 182.131 1122.89C180.074 1130.57 184.174 1135.55 188.192 1136.78L194.404 1113.6ZM152.517 1012.02L158.457 989.849L265.675 1018.58L259.735 1040.75L255.533 1039.62C256.959 1043.57 258.622 1050.7 255.827 1061.13C249.887 1083.3 229.694 1089.69 212.453 1085.07C195.211 1080.45 180.92 1064.82 186.859 1042.65C190.043 1030.77 193.854 1026.98 197.433 1024.05L152.517 1012.02ZM218.667 1059.56C226.201 1061.58 234.101 1057.02 236.12 1049.48C238.138 1041.95 233.578 1034.05 226.043 1032.03C218.509 1030.01 210.609 1034.57 208.591 1042.1C206.572 1049.64 211.133 1057.54 218.667 1059.56ZM211.549 918.049C223.72 921.311 228.351 927.21 229.272 933.047C234.703 923.788 244.585 918.205 259.364 922.165C279.358 927.522 285.629 944.11 280.62 962.801L269.711 1003.51L166.26 975.795L175.539 941.167C180.547 922.476 194.887 913.585 211.549 918.049ZM212.86 961.261L214.141 956.48C215.849 950.105 213.237 945.367 206.717 943.62C200.631 941.989 195.13 944.553 193.422 950.928L192.141 955.709L212.86 961.261ZM257.196 973.141L260.108 962.274C261.971 955.319 259.167 948.978 250.908 946.765C242.94 944.629 236.906 948.603 235.042 955.558L232.13 966.424L257.196 973.141ZM232.434 876.039L270.83 886.327C277.06 887.996 280.928 885.151 282.365 879.79C283.762 874.574 281.98 870.214 275.605 868.506L237.209 858.218L243.926 833.152L283.625 843.789C301.881 848.681 308.597 864.767 303.084 885.341C297.571 905.916 283.673 916.634 265.417 911.742L225.718 901.105L232.434 876.039ZM321.474 810.335L314.718 835.546L207.501 806.817L214.256 781.606L321.474 810.335ZM333.34 766.048L326.585 791.258L219.367 762.529L226.123 737.319L333.34 766.048Z" fill="black"/>
<path d="M355.591 63.5832C355.518 63.8097 355.449 64.0375 355.388 64.2677C345.831 99.9336 476.903 166.043 648.146 211.927C819.389 257.811 965.955 266.095 975.512 230.429C975.574 230.199 975.628 229.968 975.678 229.735L975.697 229.74L956.285 302.184C946.729 337.85 800.162 329.567 628.919 283.683C457.676 237.798 326.604 171.688 336.161 136.023L355.572 63.5781L355.591 63.5832Z" fill="#3DA6CF"/>
<path d="M485.704 186.802C485.058 188.474 486.039 190.019 489.689 192.115C498.256 196.934 500.657 204.037 498.028 210.843C495.145 218.305 486.638 222.566 474.818 217.999C468.43 215.532 463.438 210.516 460.628 206.068L466.907 198.34C469.608 201.647 473.09 205.6 476.672 206.983C479.776 208.183 481.808 208.076 482.476 206.344C483.076 204.792 481.843 203.012 478.372 200.985C470.246 196.268 468.133 189.482 470.809 182.557C473.461 175.692 481.427 170.879 491.337 174.708C498.262 177.383 503.26 180.961 506.195 184.907L499.778 192.994C497.595 190.298 493.767 187.242 489.528 185.604C487.917 184.981 486.188 185.548 485.704 186.802ZM525.362 187.453L515.689 215.665C514.921 217.905 516.04 219.574 518.099 220.28C520.157 220.985 522.126 220.375 522.894 218.135L532.567 189.923L546.43 194.676L536.363 224.039C533.042 233.725 522.868 235.379 513.968 232.327C504.948 229.234 498.11 221.748 501.431 212.062L511.498 182.7L525.362 187.453ZM568.87 213.118C563.677 211.499 559.236 216.282 557.465 221.964C555.637 227.83 556.6 234.633 562.282 236.404C565.276 237.338 566.726 236.985 567.822 236.053L569.079 232.02L564.191 230.497L566.724 222.37L585.604 228.255L580.88 243.408C576.603 247.237 567.973 249.977 558.93 247.158C543.227 242.263 538.972 228.602 542.457 217.42C545.943 206.239 557.23 197.557 572.261 202.242C582.953 205.575 587.093 212.296 588.57 217.449L573.784 218.001C573.362 216.127 572.536 214.261 568.87 213.118ZM608.383 213.619L624.759 218.268L626.195 266.177L612.281 262.227L611.926 255.274L599.92 251.866L595.965 257.596L581.989 253.628L608.383 213.619ZM611.31 234.475L605.654 242.916L611.565 244.594L611.31 234.475ZM671.948 246.097C670.014 253.529 666.453 255.777 661.822 256.291L667.738 277.009L651.387 272.753L647.751 256.993L644.14 270.867L629.647 267.095L641.158 222.872L660.977 228.031C669.277 230.191 674.447 236.497 671.948 246.097ZM651.185 243.801L653.539 244.413C655.521 244.929 657.128 244.091 657.66 242.047C658.176 240.065 657.197 238.488 655.215 237.972L652.862 237.359L651.185 243.801ZM711.127 240.483L708.458 251.558L694.086 248.095L692.391 255.126L706.017 258.409L703.348 269.484L689.722 266.201L686.049 281.444L671.801 278.011L682.506 233.586L711.127 240.483ZM746.531 263.276C744.901 270.781 741.434 273.171 736.828 273.873L743.581 294.334L727.071 290.746L722.797 275.147L719.753 289.156L705.119 285.976L714.822 241.322L734.835 245.671C743.215 247.492 748.638 253.582 746.531 263.276ZM725.692 261.826L728.069 262.342C730.07 262.777 731.642 261.874 732.09 259.81C732.525 257.809 731.483 256.273 729.482 255.838L727.105 255.322L725.692 261.826ZM785.312 255.771L783.19 266.963L768.665 264.21L767.568 269.995L781.339 272.605L779.205 283.861L765.434 281.25L764.409 286.658L778.934 289.411L776.801 300.667L747.876 295.184L756.387 250.287L785.312 255.771ZM818.744 260.999L817.007 272.257L802.396 270.004L801.499 275.823L815.351 277.96L813.604 289.282L799.752 287.145L798.913 292.584L813.524 294.838L811.778 306.16L782.682 301.672L789.648 256.51L818.744 260.999Z" fill="white"/>
</svg>
