<svg width="993" height="1555" viewBox="0 0 993 1555" fill="none" xmlns="http://www.w3.org/2000/svg">
<path d="M547.187 1449.55C533.582 1489.67 419.91 1500.55 309.95 1471.09C199.99 1441.62 104.698 1373.91 115.64 1333.08L349.568 183.891L919.464 336.594L547.187 1449.55Z" fill="#DFCCAE"/>
<path d="M335.485 135.992L955.609 302.153L926.244 411.746L306.119 245.584L335.485 135.992Z" fill="#3D2F2F"/>
<path d="M926.244 411.746C921.778 428.411 779.338 404.725 608.096 358.841C436.853 312.957 301.654 262.249 306.119 245.584C310.585 228.918 453.024 252.606 624.267 298.49C795.509 344.375 930.709 395.08 926.244 411.746Z" fill="#3D2F2F"/>
<path d="M955.609 302.153C951.143 318.819 808.704 295.133 637.461 249.249C466.218 203.365 331.019 152.657 335.485 135.992C339.95 119.326 482.389 143.014 653.632 188.898C824.875 234.782 960.074 285.488 955.609 302.153Z" fill="#453939"/>
<path d="M410.251 39.5052L939.103 181.211L912.557 280.281L383.705 138.575L410.251 39.5052Z" fill="#3D2F2F"/>
<path d="M912.555 280.286C908.518 295.352 786.859 275.843 640.82 236.712C494.782 197.581 379.667 153.646 383.704 138.581C387.74 123.516 509.4 143.025 655.439 182.155C801.477 221.286 916.592 265.221 912.555 280.286Z" fill="#3D2F2F"/>
<path d="M939.102 181.212C935.065 196.277 813.406 176.768 667.367 137.637C521.329 98.5066 406.214 54.5719 410.251 39.5065C414.287 24.4411 535.947 43.9501 681.986 83.0809C828.024 122.212 943.139 166.146 939.102 181.212Z" fill="#453939"/>
<path d="M665.051 1155.53C662.502 1165.04 542.095 1141.05 408.65 1105.29C275.204 1069.53 159.194 1030.18 161.744 1020.67L249.249 567.941C249.015 570.439 264.864 578.485 268.982 579.588C311.008 597.362 411.443 629.669 527.213 660.69C645.481 692.38 754.929 717.217 790.96 720.133C802.217 721.044 813.463 721.498 814.324 719.319L665.051 1155.53Z" fill="#BE9B7B"/>
<path d="M814.324 719.319C814.321 719.33 814.327 719.308 814.324 719.319V719.319Z" fill="#BE9B7B"/>
<path fill-rule="evenodd" clip-rule="evenodd" d="M249.249 567.941L270.829 570.745L268.982 579.588C264.864 578.485 249.015 570.439 249.249 567.941Z" fill="#3D2F2F"/>
<path fill-rule="evenodd" clip-rule="evenodd" d="M814.324 719.319C813.463 721.498 802.217 721.044 790.96 720.133L794.082 711.404L814.324 719.319Z" fill="#3D2F2F"/>
<path d="M339.318 884.764C335.068 883.625 331.58 881.189 328.853 877.456C326.249 873.653 324.644 868.823 324.039 862.967C323.434 857.111 324.116 850.512 326.083 843.171C328.282 834.961 331.405 828.136 335.451 822.698C339.592 817.286 344.229 813.507 349.359 811.361C354.515 809.119 359.7 808.697 364.916 810.095C369.36 811.285 372.604 813.086 374.65 815.498C375.434 816.433 375.633 817.625 375.244 819.074L370.798 836.828C370.41 838.277 369.636 838.846 368.477 838.535C367.414 838.251 366.906 837.442 366.953 836.108C367.024 830.433 366.82 825.979 366.341 822.745C365.862 819.51 365.088 817.181 364.021 815.756C362.979 814.234 361.637 813.254 359.995 812.814C358.063 812.296 355.737 812.863 353.017 814.516C350.393 816.194 347.684 819.35 344.889 823.985C342.217 828.549 339.794 834.887 337.62 843.001C334.85 853.337 334.071 861.462 335.281 867.376C336.588 873.317 339.367 876.857 343.617 877.996C346.997 878.902 350.174 878.252 353.146 876.046C356.215 873.866 359.554 869.325 363.163 862.424C363.737 861.439 364.459 861.063 365.329 861.296C366.488 861.607 366.664 862.689 365.856 864.543C362.982 871.02 360.074 875.883 357.133 879.133C354.314 882.311 351.407 884.276 348.41 885.026C345.537 885.705 342.506 885.618 339.318 884.764ZM391.749 898.813C386.823 897.493 382.82 894.66 379.739 890.315C376.781 885.899 374.92 880.482 374.154 874.066C373.389 867.649 373.964 860.867 375.879 853.719C377.795 846.571 380.675 840.458 384.52 835.38C388.365 830.302 392.721 826.604 397.587 824.284C402.453 821.965 407.301 821.452 412.131 822.746C417.057 824.066 420.999 826.934 423.957 831.35C427.012 835.792 428.934 841.173 429.726 847.493C430.517 853.813 429.955 860.547 428.039 867.695C426.124 874.843 423.231 881.004 419.36 886.178C415.585 891.379 411.265 895.139 406.399 897.458C401.558 899.681 396.675 900.133 391.749 898.813ZM392.72 895.19C402.765 897.882 410.868 887.733 417.028 864.744C423.162 841.852 421.206 829.06 411.16 826.368C401.115 823.676 393.025 833.777 386.891 856.669C380.731 879.658 382.674 892.499 392.72 895.19ZM436.747 899.068L451.926 842.416C452.548 840.098 451.699 838.628 449.381 838.007L446.048 837.114C444.889 836.803 444.439 836.165 444.698 835.199C444.957 834.233 445.679 833.857 446.864 834.071C451.533 834.805 454.334 833.433 455.265 829.956L455.498 829.086C456.844 824.063 458.824 819.573 461.437 815.614C464.148 811.682 467.266 808.739 470.791 806.785C474.414 804.856 478.302 804.449 482.455 805.562C486.319 806.597 489.257 808.575 491.27 811.495C493.283 814.416 493.875 817.421 493.047 820.512C492.555 822.348 491.697 823.619 490.472 824.326C489.37 824.962 488.046 825.073 486.5 824.659C484.568 824.142 483.336 823.139 482.803 821.65C482.367 820.187 482.114 818.618 482.046 816.943C482.003 815.172 481.763 813.555 481.327 812.092C480.987 810.655 479.9 809.691 478.064 809.199C476.132 808.681 474.289 809.378 472.535 811.289C470.903 813.13 469.285 817.044 467.68 823.033L464.264 835.783C463.953 836.942 464.377 837.677 465.536 837.988L477.997 841.326C479.446 841.715 479.989 842.585 479.627 843.937C479.264 845.289 478.359 845.772 476.91 845.383L464.449 842.045C463.29 841.734 462.555 842.158 462.245 843.317L446.599 901.708C446.056 903.736 445.97 905.214 446.343 906.142C446.812 907.096 448.035 907.941 450.011 908.678L457.496 911.46C458.507 911.938 458.896 912.612 458.663 913.481C458.352 914.64 457.473 915.026 456.024 914.637L425.887 906.562C424.438 906.174 423.856 905.449 424.141 904.386C424.425 903.324 425.209 902.912 426.49 903.152L430.19 903.833C432.27 904.183 433.717 904.001 434.529 903.287C435.464 902.503 436.203 901.096 436.747 899.068ZM478.487 910.252L493.667 853.6C494.288 851.282 493.44 849.812 491.121 849.191L487.789 848.298C486.63 847.988 486.18 847.349 486.438 846.384C486.697 845.418 487.419 845.042 488.604 845.256C493.273 845.989 496.074 844.617 497.006 841.14L497.239 840.271C498.584 835.248 500.564 830.757 503.178 826.799C505.888 822.866 509.006 819.923 512.532 817.969C516.154 816.041 520.042 815.633 524.196 816.746C528.059 817.781 530.998 819.759 533.01 822.68C535.023 825.6 535.615 828.606 534.787 831.697C534.295 833.532 533.437 834.803 532.212 835.51C531.11 836.147 529.786 836.258 528.241 835.844C526.309 835.326 525.077 834.323 524.544 832.834C524.107 831.371 523.855 829.803 523.786 828.128C523.743 826.356 523.503 824.739 523.067 823.276C522.727 821.84 521.64 820.875 519.805 820.383C517.873 819.866 516.03 820.563 514.275 822.474C512.643 824.314 511.025 828.228 509.42 834.217L506.004 846.967C505.693 848.127 506.118 848.861 507.277 849.172L519.737 852.511C521.186 852.899 521.729 853.769 521.367 855.121C521.005 856.474 520.099 856.956 518.65 856.568L506.19 853.229C505.031 852.918 504.296 853.343 503.985 854.502L488.34 912.892C487.796 914.92 487.711 916.399 488.083 917.327C488.552 918.28 489.775 919.126 491.752 919.862L499.237 922.645C500.248 923.122 500.636 923.796 500.403 924.665C500.093 925.824 499.213 926.21 497.764 925.822L467.627 917.747C466.179 917.358 465.596 916.633 465.881 915.57C466.166 914.508 466.949 914.097 468.231 914.336L471.93 915.017C474.011 915.368 475.457 915.186 476.269 914.472C477.204 913.687 477.944 912.28 478.487 910.252ZM528.394 935.427C523.757 934.184 520.018 931.526 517.176 927.451C514.334 923.377 512.552 918.241 511.832 912.043C511.234 905.775 511.931 898.922 513.924 891.484C515.969 883.853 518.878 877.438 522.653 872.237C526.427 867.037 530.686 863.313 535.43 861.064C540.174 858.815 544.912 858.325 549.645 859.593C555.344 861.12 559.298 864.716 561.507 870.381C563.839 875.975 563.594 884.036 560.773 894.565C559.919 897.752 558.285 899.022 555.87 898.375L528.341 890.999C526.409 890.481 525.145 891.333 524.55 893.555C521.807 903.794 521.246 911.874 522.869 917.796C524.491 923.717 527.621 927.3 532.257 928.542C535.928 929.525 539.272 929.024 542.289 927.037C545.306 925.05 548.367 921.16 551.472 915.366C552.047 914.381 552.817 914.018 553.783 914.277C554.942 914.588 555.118 915.67 554.31 917.524C550.462 925.707 546.381 931.084 542.068 933.655C537.782 936.13 533.224 936.721 528.394 935.427ZM528.877 887.26L543.511 891.181C548.147 892.424 551.112 890.63 552.406 885.8C554.089 879.522 554.636 874.389 554.048 870.401C553.46 866.413 551.621 864.004 548.53 863.176C544.763 862.167 540.993 863.486 537.22 867.134C533.544 870.808 530.245 876.55 527.325 884.36C526.717 885.853 527.235 886.82 528.877 887.26ZM579.897 949.227C575.261 947.984 571.522 945.326 568.679 941.252C565.837 937.177 564.056 932.041 563.335 925.843C562.737 919.575 563.435 912.722 565.427 905.284C567.472 897.654 570.382 891.238 574.156 886.038C577.931 880.838 582.19 877.113 586.934 874.864C591.677 872.615 596.416 872.125 601.149 873.393C606.848 874.92 610.802 878.516 613.011 884.181C615.342 889.775 615.098 897.836 612.277 908.365C611.422 911.552 609.788 912.823 607.373 912.176L579.844 904.799C577.912 904.282 576.649 905.134 576.054 907.355C573.31 917.594 572.75 925.674 574.372 931.596C575.995 937.518 579.124 941.1 583.761 942.342C587.431 943.326 590.775 942.824 593.792 940.837C596.809 938.85 599.87 934.96 602.976 929.166C603.55 928.182 604.32 927.819 605.286 928.077C606.446 928.388 606.621 929.47 605.814 931.325C601.965 939.507 597.884 944.884 593.572 947.456C589.285 949.931 584.727 950.521 579.897 949.227ZM580.38 901.061L595.014 904.982C599.65 906.224 602.616 904.43 603.91 899.601C605.592 893.322 606.139 888.189 605.551 884.201C604.964 880.213 603.124 877.805 600.033 876.976C596.266 875.967 592.496 877.286 588.724 880.934C585.047 884.608 581.749 890.35 578.828 898.16C578.221 899.654 578.738 900.621 580.38 901.061Z" fill="#DFCCAE"/>
</svg>
