<svg width="954" height="1478" viewBox="0 0 954 1478" fill="none" xmlns="http://www.w3.org/2000/svg">
<path d="M474.262 1440.51C460.143 1480.49 347.273 1491.59 216.081 1456.43C84.8885 1421.28 -10.0838 1353.65 0.858367 1312.82L200.699 154.5L880.637 336.689L474.262 1440.51Z" fill="#DFCCAE"/>
<path d="M150.339 96.8801L953.061 311.969L923.696 421.561L120.973 206.472L150.339 96.8801Z" fill="#3D2F2F"/>
<path d="M923.696 421.561C919.23 438.226 735.914 403.588 514.249 344.193C292.583 284.798 116.508 223.137 120.973 206.472C125.439 189.807 308.754 224.447 530.42 283.842C752.085 343.237 928.161 404.895 923.696 421.561Z" fill="#3D2F2F"/>
<path d="M953.061 311.969C948.595 328.634 765.279 293.996 543.614 234.601C321.948 175.206 145.873 113.545 150.339 96.8801C154.804 80.2147 338.119 114.855 559.785 174.25C781.45 233.645 957.526 295.303 953.061 311.969Z" fill="#453939"/>
<path d="M238.543 3.99447L923.116 187.425L896.571 286.496L211.997 103.065L238.543 3.99447Z" fill="#3D2F2F"/>
<path d="M896.569 286.501C892.532 301.567 736.013 272.717 546.973 222.064C357.933 171.411 207.959 118.136 211.995 103.07C216.032 88.0049 372.552 116.854 561.591 167.507C750.631 218.161 900.606 271.436 896.569 286.501Z" fill="#3D2F2F"/>
<path d="M923.116 187.427C919.079 202.492 762.56 173.643 573.52 122.99C384.48 72.3365 234.506 19.0611 238.542 3.99579C242.579 -11.0696 399.099 17.78 588.138 68.433C777.178 119.086 927.153 172.361 923.116 187.427Z" fill="#453939"/>
<path d="M598.283 1148.13L597.651 1147.96C595.102 1157.48 468.619 1131.85 315.143 1090.73C161.666 1049.61 39.3162 1008.56 41.8656 999.042L41.5367 998.954L113.254 541.996C113.081 544.51 115.298 546.796 131.78 553.422C180.359 572.951 300.479 610.431 433.627 646.108C569.647 682.555 699.428 712.84 740.614 717.137C753.481 718.48 762.246 718.269 763.146 716.101L598.283 1148.13Z" fill="#BE9B7B"/>
<path d="M763.146 716.101C763.143 716.112 763.15 716.09 763.146 716.101Z" fill="#BE9B7B"/>
<path fill-rule="evenodd" clip-rule="evenodd" d="M113.254 541.996L133.297 544.416L131.78 553.422C115.298 546.796 113.081 544.51 113.254 541.996Z" fill="#3D2F2F"/>
<path fill-rule="evenodd" clip-rule="evenodd" d="M763.146 716.101C762.246 718.269 753.481 718.48 740.614 717.137L743.845 708.438L763.146 716.101Z" fill="#3D2F2F"/>
</svg>
