<svg width="993" height="1555" viewBox="0 0 993 1555" fill="none" xmlns="http://www.w3.org/2000/svg">
<g clip-path="url(#clip0_64_7)">
<path d="M637.428 1489.62C627.872 1525.28 481.305 1517 310.062 1471.12C138.819 1425.23 7.74723 1359.12 17.3039 1323.46L354.619 64.5781L974.744 230.74L637.428 1489.62Z" fill="#C28E63"/>
<ellipse cx="664.682" cy="147.66" rx="321" ry="66.8569" transform="rotate(15 664.682 147.66)" fill="#C7CFDC"/>
<path d="M274.172 650.361C269.497 649.109 265.659 646.429 262.66 642.323C259.795 638.139 258.03 632.826 257.365 626.384C256.699 619.943 257.448 612.684 259.612 604.609C262.032 595.578 265.467 588.071 269.917 582.089C274.473 576.135 279.573 571.978 285.216 569.618C290.887 567.152 296.592 566.688 302.33 568.225C307.217 569.535 310.786 571.516 313.036 574.169C313.899 575.197 314.117 576.508 313.69 578.102L308.799 597.632C308.372 599.225 307.521 599.852 306.246 599.51C305.077 599.197 304.518 598.307 304.57 596.84C304.648 590.598 304.424 585.697 303.897 582.14C303.369 578.582 302.519 576.02 301.344 574.452C300.198 572.779 298.722 571.7 296.916 571.216C294.791 570.646 292.232 571.27 289.24 573.088C286.354 574.934 283.374 578.406 280.299 583.504C277.36 588.524 274.694 595.497 272.303 604.422C269.257 615.791 268.399 624.729 269.731 631.235C271.168 637.77 274.225 641.664 278.9 642.916C282.618 643.913 286.113 643.198 289.382 640.771C292.758 638.373 296.431 633.379 300.401 625.788C301.033 624.704 301.827 624.291 302.783 624.547C304.058 624.888 304.251 626.079 303.363 628.119C300.201 635.243 297.003 640.593 293.768 644.167C290.667 647.664 287.469 649.825 284.173 650.65C281.012 651.397 277.678 651.301 274.172 650.361Z" fill="white"/>
<path d="M331.845 665.815C326.426 664.363 322.023 661.247 318.634 656.467C315.381 651.61 313.333 645.652 312.491 638.593C311.649 631.535 312.282 624.074 314.389 616.212C316.496 608.349 319.664 601.625 323.894 596.039C328.123 590.453 332.915 586.385 338.268 583.833C343.62 581.282 348.953 580.718 354.266 582.141C359.684 583.593 364.021 586.748 367.274 591.606C370.634 596.492 372.749 602.411 373.62 609.363C374.49 616.315 373.872 623.723 371.765 631.585C369.658 639.448 366.475 646.225 362.217 651.917C358.065 657.638 353.313 661.773 347.96 664.325C342.636 666.77 337.264 667.267 331.845 665.815ZM332.913 661.831C343.963 664.791 352.876 653.628 359.652 628.34C366.399 603.158 364.248 589.087 353.198 586.126C342.148 583.165 333.249 594.275 326.501 619.457C319.726 644.745 321.863 658.87 332.913 661.831Z" fill="white"/>
<path d="M368.122 673.998C366.847 673.656 366.366 672.901 366.679 671.732C366.964 670.67 367.719 670.189 368.945 670.29L371.262 670.569C373.578 670.848 375.396 670.652 376.715 669.98C378.033 669.308 378.992 667.857 379.59 665.626L404.06 574.302C404.572 572.389 404.609 570.976 404.171 570.061C403.839 569.175 402.944 568.479 401.485 567.975L397.947 566.514C396.835 565.989 396.422 565.194 396.706 564.132C396.991 563.069 397.746 562.589 398.972 562.689C402.118 562.849 404.867 562.788 407.22 562.508C409.573 562.227 411.554 561.847 413.163 561.367C415.147 560.76 416.565 560.57 417.415 560.798C418.584 561.111 418.94 562.118 418.485 563.818L390.427 668.53C389.829 670.761 389.721 672.44 390.102 673.567C390.618 674.617 391.949 675.599 394.095 676.516L397.633 677.976C398.745 678.502 399.158 679.296 398.873 680.359C398.56 681.528 397.766 681.941 396.491 681.599L368.122 673.998Z" fill="white"/>
<path d="M428.417 691.691C423.742 690.439 419.972 687.72 417.107 683.536C414.377 679.274 412.772 674.004 412.29 667.726C411.837 661.341 412.636 654.323 414.686 646.673C417.077 637.748 420.551 630.309 425.107 624.355C429.692 618.295 434.94 614.007 440.853 611.492C446.765 608.976 452.803 608.544 458.966 610.195C460.453 610.594 461.898 611.152 463.3 611.869C464.731 612.48 466.051 613.29 467.262 614.297C468.734 615.603 469.683 615.459 470.111 613.865L475.577 593.465C476.089 591.552 476.126 590.139 475.688 589.224C475.356 588.338 474.461 587.642 473.002 587.138L468.986 585.549C467.874 585.023 467.461 584.229 467.745 583.167C468.03 582.104 468.785 581.623 470.011 581.724C473.582 581.998 476.49 581.98 478.737 581.671C481.09 581.39 483.071 581.01 484.68 580.53C486.665 579.923 488.082 579.733 488.932 579.961C490.101 580.274 490.457 581.281 490.002 582.981L463.14 683.23C461.944 687.693 462.462 690.223 464.693 690.821C466.075 691.191 467.592 690.629 469.244 689.136C470.926 687.537 472.364 684.506 473.56 680.043C474.015 678.343 474.934 677.678 476.315 678.048C477.59 678.39 477.986 679.464 477.502 681.27C475.423 689.027 472.586 694.302 468.99 697.097C465.423 699.785 461.939 700.674 458.539 699.763C455.458 698.937 453.391 697.301 452.338 694.855C451.314 692.303 450.92 689.522 451.158 686.511C451.279 685.632 451.021 685.107 450.384 684.937C449.775 684.659 449.091 684.875 448.332 685.582C444.246 688.929 440.782 691.019 437.94 691.852C435.098 692.684 431.923 692.631 428.417 691.691ZM433.888 685.299C436.65 686.04 439.442 685.82 442.264 684.64C445.22 683.382 447.869 681.359 450.211 678.57C452.659 675.809 454.409 672.463 455.463 668.532L465.071 632.672C466.352 627.89 466.248 623.819 464.756 620.459C463.372 617.127 460.926 614.991 457.42 614.052C451.47 612.458 445.696 614.668 440.098 620.685C434.635 626.623 430.295 635.596 427.077 647.602C424.145 658.546 423.291 667.257 424.517 673.735C425.876 680.135 429 683.99 433.888 685.299Z" fill="white"/>
<path fill-rule="evenodd" clip-rule="evenodd" d="M520.843 712.016C524.141 715.86 527.967 718.366 532.324 719.533C538.274 721.127 544.099 720.638 549.799 718.066C555.605 715.522 560.801 711.22 565.385 705.16C569.97 699.1 573.444 691.661 575.807 682.842C577.885 675.086 578.577 668.039 577.884 661.704C577.296 655.397 575.517 650.137 572.546 645.925C569.709 641.634 565.847 638.834 560.96 637.525C555.541 636.073 549.921 637.072 544.099 640.523C543.022 641.145 542.139 641.251 541.452 640.839C540.9 640.349 540.738 639.679 540.966 638.829L551.514 599.463C551.97 597.763 551.613 596.756 550.444 596.443C549.594 596.215 548.177 596.405 546.192 597.012C544.583 597.492 542.655 597.886 540.409 598.196C538.162 598.505 535.466 598.579 532.32 598.42C531.094 598.319 530.339 598.8 530.054 599.862C529.77 600.925 530.183 601.719 531.295 602.245L534.514 603.62C535.945 604.231 536.826 604.979 537.158 605.866C537.625 606.674 537.602 608.034 537.089 609.947L516.591 686.449C515.158 691.796 513.89 696.227 512.789 699.74C512.577 700.415 512.372 701.056 512.172 701.664L522.554 705.624C521.636 707.551 520.502 709.221 519.152 710.634C519.742 710.93 520.305 711.391 520.843 712.016ZM509.627 713.435L509.588 713.424C509.582 713.423 509.577 713.422 509.572 713.42C509.576 713.421 509.584 713.423 509.588 713.424C509.602 713.429 509.613 713.433 509.627 713.435ZM509.535 713.41C509.358 713.363 509.182 713.311 509.009 713.254C509.118 713.304 509.239 713.348 509.373 713.383C509.406 713.392 509.439 713.397 509.473 713.401C509.494 713.404 509.515 713.407 509.535 713.41ZM550.235 708.788C544.744 714.832 539.023 717.058 533.073 715.463C529.566 714.524 527.068 712.374 525.577 709.013C524.192 705.681 524.14 701.625 525.421 696.843L536.183 656.68C537.606 651.367 540.045 647.579 543.498 645.316C546.952 643.053 550.485 642.405 554.097 643.373C559.941 644.939 563.688 649.018 565.338 655.609C566.989 662.201 566.347 670.969 563.415 681.913C560.226 693.813 555.833 702.772 550.235 708.788Z" fill="white"/>
<path d="M614.129 663.729C620.478 657.458 626.734 655.149 632.897 656.8C636.403 657.74 638.721 659.5 639.852 662.08C641.011 664.555 641.249 667.067 640.566 669.617C640.025 671.636 639.052 673.14 637.648 674.131C636.35 675.149 634.639 675.374 632.514 674.805C630.814 674.349 629.638 673.636 628.987 672.664C628.471 671.615 628.09 670.488 627.844 669.283C627.703 668.106 627.414 667.061 626.976 666.146C626.566 665.125 625.617 664.416 624.13 664.017C622.217 663.505 620.098 664.189 617.772 666.071C615.474 667.847 613.228 670.491 611.034 674.003C608.947 677.543 607.248 681.758 605.938 686.645L596.031 723.621C595.433 725.852 595.325 727.531 595.706 728.659C596.193 729.814 597.524 730.797 599.699 731.607L603.874 733.239C604.986 733.764 605.413 734.505 605.157 735.462C604.816 736.737 603.848 737.16 602.254 736.733L575.319 729.516C573.726 729.089 573.085 728.291 573.398 727.123C573.655 726.166 574.516 725.714 575.983 725.765L577.981 725.959C580.326 726.132 581.931 725.879 582.796 725.199C583.796 724.442 584.595 722.948 585.193 720.717L599.542 667.166C600.055 665.253 600.078 663.893 599.611 663.084C599.279 662.198 598.398 661.45 596.967 660.839L593.748 659.464C592.395 658.987 591.861 658.218 592.146 657.155C592.374 656.305 593.38 655.949 595.166 656.085C598.602 656.437 601.327 656.256 603.34 655.543C605.459 654.858 607.703 653.922 610.071 652.734C611.284 652.034 612.209 651.769 612.846 651.94C613.802 652.196 614.11 652.962 613.768 654.237L611.462 662.843C611.263 663.587 611.453 664.151 612.034 664.534C612.643 664.811 613.341 664.543 614.129 663.729Z" fill="white"/>
<path d="M651.494 751.464C646.393 750.098 642.28 747.174 639.154 742.692C636.027 738.21 634.068 732.56 633.275 725.743C632.617 718.847 633.384 711.309 635.577 703.128C637.826 694.734 641.026 687.677 645.178 681.956C649.33 676.236 654.015 672.139 659.234 669.665C664.452 667.191 669.664 666.652 674.87 668.047C681.139 669.727 685.488 673.682 687.918 679.913C690.483 686.067 690.214 694.935 687.111 706.516C686.171 710.022 684.373 711.42 681.717 710.708L651.435 702.594C649.31 702.025 647.92 702.962 647.265 705.406C644.248 716.668 643.631 725.557 645.416 732.071C647.201 738.585 650.643 742.525 655.743 743.891C659.781 744.973 663.459 744.421 666.778 742.236C670.097 740.05 673.464 735.771 676.88 729.398C677.512 728.315 678.359 727.915 679.421 728.2C680.696 728.542 680.89 729.732 680.002 731.772C675.768 740.773 671.279 746.688 666.535 749.516C661.82 752.239 656.806 752.888 651.494 751.464ZM652.025 698.481L668.122 702.795C673.222 704.161 676.484 702.188 677.907 696.876C679.758 689.969 680.36 684.322 679.713 679.936C679.067 675.549 677.043 672.9 673.643 671.989C669.499 670.878 665.352 672.33 661.202 676.342C657.159 680.383 653.53 686.7 650.317 695.291C649.649 696.934 650.218 697.997 652.025 698.481Z" fill="white"/>
<path d="M707.35 766.431C705.969 766.061 705.298 764.742 705.336 762.475L704.5 688.456C704.439 685.707 704.137 683.861 703.592 682.918C703.154 682.003 702.234 681.187 700.832 680.47L698.569 679.351C697.273 678.662 696.768 677.786 697.053 676.724C697.337 675.661 698.223 675.329 699.711 675.728L725.53 682.646C727.018 683.045 727.619 683.775 727.334 684.838C727.021 686.007 726.145 686.512 724.707 686.355L722.072 685.99C719.436 685.626 717.672 685.836 716.778 686.621C715.913 687.301 715.486 688.894 715.497 691.403L715.66 741.156C715.694 742.304 716.03 742.963 716.668 743.134C717.412 743.333 718.085 742.944 718.689 741.967L740.587 703.592C741.027 702.799 741.361 701.977 741.589 701.127C741.923 700.306 742.059 699.374 741.996 698.332C741.936 695.583 741.619 693.79 741.046 692.953C740.608 692.039 739.688 691.223 738.286 690.505L736.023 689.387C734.727 688.698 734.222 687.822 734.506 686.76C734.791 685.697 735.677 685.365 737.165 685.764L762.984 692.682C764.471 693.08 765.073 693.811 764.788 694.874C764.475 696.042 763.599 696.548 762.161 696.39L759.526 696.026C756.89 695.661 755.179 695.886 754.391 696.7C753.632 697.408 753.152 698.987 752.951 701.439L750.809 750.232C750.737 751.352 751.019 751.997 751.657 752.168C752.401 752.367 753.074 751.978 753.678 751.001L777.364 711.055C778.982 708.414 779.764 706.346 779.709 704.85C779.789 703.277 778.558 701.923 776.015 700.786L772.839 699.252C771.543 698.563 771.038 697.687 771.323 696.624C771.607 695.562 772.493 695.23 773.981 695.629L793.903 700.967C795.391 701.365 795.978 702.149 795.665 703.318C795.38 704.38 794.543 704.953 793.154 705.037L791.592 705.13C789.856 705.235 788.218 705.821 786.679 706.889C785.14 707.957 783.437 710.063 781.57 713.207L745.977 773.365C744.876 775.348 743.582 776.14 742.095 775.741C740.82 775.399 740.201 774.095 740.239 771.828L741.474 717.495C741.468 716.241 741.093 715.514 740.35 715.315C739.741 715.038 739.106 715.494 738.446 716.684L711.073 764.012C709.973 765.995 708.732 766.801 707.35 766.431Z" fill="white"/>
<path d="M508.696 710.811C508.061 712.052 508.165 712.867 509.009 713.254C505.868 712.232 503.471 709.773 501.817 705.876C500.1 701.658 500.281 695.67 502.359 687.914C502.843 686.107 503.723 685.375 504.998 685.717C506.379 686.087 506.842 687.122 506.387 688.822C505.191 693.285 504.921 696.629 505.578 698.855C506.262 700.974 507.295 702.219 508.677 702.589C510.332 703.033 511.703 702.083 512.789 699.74C512.577 700.415 512.372 701.056 512.172 701.664C510.935 705.432 509.776 708.481 508.696 710.811Z" fill="white"/>
<path fill-rule="evenodd" clip-rule="evenodd" d="M519.152 710.634C517.646 709.879 515.971 710.195 514.127 711.582C512.751 712.466 511.755 712.997 511.138 713.173C510.594 713.411 510.09 713.499 509.627 713.435C509.597 713.427 509.566 713.419 509.535 713.41C509.358 713.363 509.182 713.311 509.009 713.254C508.165 712.867 508.061 712.052 508.696 710.811C509.776 708.481 510.935 705.432 512.172 701.664L522.554 705.624C521.636 707.551 520.502 709.221 519.152 710.634Z" fill="white"/>
<path fill-rule="evenodd" clip-rule="evenodd" d="M514.127 711.582C515.971 710.195 517.646 709.879 519.152 710.634C518.592 711.221 517.994 711.763 517.36 712.261C515.246 713.837 512.669 714.228 509.627 713.435C510.09 713.499 510.594 713.411 511.138 713.173C511.755 712.997 512.751 712.466 514.127 711.582Z" fill="white"/>
<path d="M237.658 692.341C237.175 692.211 236.981 691.97 237.076 691.615C237.154 691.326 237.415 691.189 237.859 691.204L238.465 691.263C239.175 691.315 239.662 691.238 239.924 691.033C240.227 690.803 240.469 690.35 240.65 689.674L244.999 673.447C245.154 672.867 245.161 672.455 245.019 672.21C244.919 671.941 244.652 671.715 244.218 671.529L243.243 671.113C242.833 670.968 242.671 670.735 242.757 670.413C242.826 670.156 243.131 670.048 243.672 670.089C244.714 670.196 245.539 670.141 246.149 669.925C246.792 669.717 247.472 669.433 248.189 669.074C248.557 668.861 248.837 668.781 249.03 668.833C249.32 668.911 249.413 669.143 249.309 669.529L248.727 671.702C248.667 671.928 248.716 672.131 248.875 672.311C249.042 672.46 249.268 672.451 249.554 672.286C251.211 671.384 252.582 670.837 253.669 670.645C254.788 670.462 255.846 670.504 256.845 670.772C257.778 671.022 258.53 671.499 259.101 672.204C259.712 672.886 260.061 673.773 260.147 674.866C260.175 675.149 260.293 675.354 260.501 675.478C260.75 675.58 261.017 675.548 261.303 675.383C262.951 674.513 264.318 673.982 265.405 673.79C266.492 673.598 267.534 673.636 268.532 673.903C269.885 674.266 270.841 675.074 271.402 676.329C272.004 677.56 272.042 679.157 271.516 681.121L267.31 696.818C267.129 697.494 267.096 698.003 267.212 698.344C267.368 698.662 267.771 698.96 268.421 699.238L269.445 699.667C269.782 699.827 269.907 700.067 269.821 700.389C269.726 700.744 269.486 700.869 269.099 700.765L260.841 698.552C260.39 698.432 260.212 698.194 260.307 697.84C260.393 697.518 260.622 697.372 260.993 697.403L261.695 697.487C262.462 697.589 262.996 697.525 263.3 697.296C263.603 697.067 263.845 696.614 264.026 695.938L268.089 680.773C268.512 679.195 268.52 678.007 268.113 677.207C267.738 676.417 267.068 675.892 266.102 675.633C265.136 675.374 264.168 675.443 263.2 675.839C262.272 676.212 261.432 676.832 260.682 677.701C259.94 678.537 259.41 679.551 259.09 680.743L255.622 693.686C255.441 694.362 255.424 694.875 255.572 695.225C255.728 695.543 256.148 695.846 256.83 696.132L257.854 696.562C258.191 696.721 258.316 696.962 258.23 697.284C258.135 697.638 257.894 697.763 257.508 697.66L249.298 695.46C248.847 695.339 248.669 695.101 248.764 694.747C248.85 694.425 249.079 694.279 249.45 694.31L250.153 694.394C250.855 694.479 251.341 694.402 251.612 694.164C251.915 693.935 252.157 693.482 252.338 692.806L256.402 677.641C256.824 676.063 256.832 674.875 256.425 674.076C256.05 673.285 255.38 672.76 254.414 672.501C253.448 672.243 252.481 672.311 251.512 672.707C250.584 673.08 249.745 673.7 248.994 674.569C248.252 675.406 247.722 676.42 247.403 677.611L243.935 690.554C243.753 691.23 243.721 691.739 243.836 692.081C243.984 692.431 244.387 692.729 245.046 692.974L246.311 693.469C246.648 693.628 246.778 693.853 246.7 694.142C246.597 694.529 246.303 694.657 245.82 694.528L237.658 692.341ZM279.903 704.126C278.261 703.686 276.926 702.742 275.899 701.293C274.913 699.821 274.293 698.016 274.038 695.877C273.783 693.738 273.974 691.477 274.613 689.095C275.251 686.712 276.211 684.674 277.493 682.982C278.775 681.289 280.227 680.056 281.849 679.283C283.471 678.51 285.087 678.339 286.697 678.77C288.339 679.21 289.653 680.166 290.639 681.638C291.657 683.119 292.298 684.913 292.561 687.019C292.825 689.126 292.638 691.371 291.999 693.753C291.361 696.136 290.397 698.19 289.106 699.915C287.848 701.648 286.408 702.901 284.786 703.674C283.172 704.415 281.545 704.566 279.903 704.126ZM280.226 702.919C283.575 703.816 286.276 700.433 288.329 692.77C290.374 685.139 289.722 680.875 286.373 679.978C283.025 679.081 280.328 682.447 278.283 690.078C276.23 697.741 276.878 702.021 280.226 702.919ZM298.506 709.111C297.09 708.731 295.927 707.919 295.018 706.675C294.15 705.407 293.615 703.797 293.413 701.845C293.212 699.893 293.439 697.694 294.095 695.247C294.828 692.51 295.869 690.235 297.217 688.422C298.598 686.618 300.143 685.358 301.853 684.643C303.572 683.896 305.3 683.755 307.039 684.221C308.52 684.618 309.602 685.218 310.284 686.022C310.545 686.334 310.611 686.731 310.482 687.214L309 693.132C308.87 693.615 308.612 693.805 308.226 693.701C307.872 693.606 307.702 693.337 307.718 692.892C307.742 691.001 307.674 689.516 307.514 688.438C307.354 687.36 307.096 686.583 306.741 686.108C306.393 685.601 305.946 685.274 305.399 685.127C304.755 684.955 303.979 685.144 303.073 685.695C302.198 686.254 301.295 687.306 300.363 688.851C299.473 690.372 298.665 692.485 297.94 695.19C297.017 698.635 296.757 701.343 297.161 703.315C297.596 705.295 298.523 706.475 299.939 706.855C301.066 707.157 302.125 706.94 303.116 706.205C304.139 705.478 305.252 703.965 306.455 701.664C306.646 701.336 306.887 701.211 307.177 701.288C307.563 701.392 307.622 701.753 307.352 702.371C306.394 704.53 305.425 706.151 304.445 707.234C303.505 708.293 302.536 708.948 301.537 709.198C300.579 709.425 299.569 709.396 298.506 709.111ZM307.6 711.081C307.213 710.978 307.068 710.749 307.162 710.395C307.249 710.073 307.478 709.927 307.849 709.958L308.551 710.042C309.253 710.127 309.739 710.05 310.01 709.812C310.313 709.583 310.555 709.13 310.737 708.454L318.152 680.78C318.307 680.201 318.314 679.788 318.173 679.543C318.072 679.275 317.805 679.048 317.371 678.863L316.396 678.446C316.059 678.287 315.934 678.046 316.02 677.724C316.106 677.402 316.335 677.257 316.707 677.287C317.66 677.335 318.477 677.313 319.158 677.219C319.838 677.125 320.423 677.006 320.91 676.86C321.512 676.677 321.941 676.619 322.199 676.688C322.553 676.783 322.661 677.088 322.523 677.603L319.094 690.402C319.016 690.691 319.065 690.894 319.241 691.011C319.426 691.095 319.697 691.047 320.056 690.867C321.582 690.068 322.867 689.584 323.913 689.415C324.959 689.247 325.997 689.301 327.027 689.577C328.541 689.982 329.594 690.817 330.187 692.08C330.789 693.311 330.827 694.909 330.301 696.873L326.095 712.569C325.914 713.245 325.881 713.754 325.996 714.096C326.153 714.414 326.556 714.711 327.206 714.989L328.23 715.419C328.567 715.578 328.692 715.819 328.606 716.141C328.511 716.495 328.27 716.62 327.884 716.517L319.77 714.343C319.32 714.222 319.142 713.984 319.237 713.63C319.323 713.308 319.552 713.162 319.923 713.193L320.625 713.278C321.327 713.362 321.814 713.285 322.084 713.047C322.387 712.818 322.63 712.365 322.811 711.689L326.874 696.524C327.297 694.946 327.305 693.758 326.898 692.959C326.491 692.159 325.756 691.617 324.693 691.333C323.663 691.057 322.647 691.112 321.646 691.5C320.686 691.864 319.831 692.48 319.08 693.349C318.339 694.185 317.808 695.199 317.489 696.39L314.021 709.334C313.84 710.01 313.807 710.519 313.922 710.86C314.07 711.211 314.473 711.508 315.132 711.754L316.397 712.248C316.734 712.408 316.86 712.648 316.773 712.97C316.679 713.324 316.438 713.45 316.052 713.346L307.6 711.081ZM334.661 718.798C333.308 718.436 332.31 717.72 331.665 716.65C331.028 715.547 330.9 714.288 331.28 712.871C331.651 711.487 332.435 710.299 333.632 709.309C334.838 708.286 336.331 707.478 338.112 706.886C339.892 706.293 341.831 705.95 343.926 705.855C344.379 705.839 344.662 705.621 344.774 705.203L345.952 700.808C346.366 699.262 346.418 698.103 346.107 697.329C345.806 696.524 345.236 696.009 344.399 695.785C343.594 695.569 342.754 695.741 341.88 696.3C341.046 696.836 340.256 697.918 339.509 699.547C339.072 700.534 338.515 701.196 337.838 701.532C337.202 701.845 336.61 701.928 336.063 701.781C335.161 701.54 334.831 700.968 335.073 700.067C335.323 699.133 335.827 698.284 336.583 697.521C337.381 696.734 338.314 696.087 339.381 695.579C340.458 695.039 341.571 694.682 342.723 694.507C343.874 694.333 344.964 694.383 345.995 694.659C349.182 695.513 350.28 697.792 349.288 701.495L345.328 716.273C344.965 717.625 345.122 718.392 345.799 718.573C346.217 718.686 346.677 718.515 347.178 718.063C347.687 717.578 348.123 716.66 348.485 715.307C348.623 714.792 348.902 714.591 349.32 714.703C349.707 714.807 349.826 715.132 349.68 715.679C349.05 718.03 348.174 719.624 347.052 720.462C345.971 721.277 344.916 721.546 343.885 721.27C343.113 721.063 342.583 720.593 342.296 719.861C342.018 719.096 341.915 718.257 341.987 717.345C342.041 717.014 341.939 716.814 341.681 716.745C341.465 716.653 341.2 716.737 340.889 716.999C339.831 717.854 338.827 718.448 337.875 718.78C336.924 719.111 335.852 719.118 334.661 718.798ZM336.56 716.926C337.397 717.15 338.248 717.068 339.111 716.678C339.984 716.256 340.779 715.606 341.497 714.729C342.215 713.852 342.743 712.785 343.079 711.529L344.024 708.004C344.188 707.392 343.897 707.124 343.152 707.201C340.998 707.383 339.205 707.955 337.774 708.918C336.384 709.856 335.456 711.195 334.99 712.934C334.395 715.155 334.918 716.486 336.56 716.926Z" fill="white"/>
<path d="M388.278 717.119C387.022 716.782 385.911 716.226 384.946 715.449C384.022 714.65 383.125 713.874 382.256 713.124C381.42 712.382 380.47 711.869 379.408 711.584C378.603 711.369 377.838 711.388 377.114 711.643C376.399 711.865 375.784 712.356 375.27 713.116C375.038 713.467 374.761 713.6 374.439 713.514C374.02 713.402 373.924 713.117 374.15 712.66C374.903 711.137 375.887 710.106 377.101 709.569C378.347 709.04 379.565 708.935 380.757 709.254C381.98 709.582 383.075 710.134 384.04 710.91C385.005 711.687 385.918 712.466 386.778 713.249C387.679 714.008 388.629 714.521 389.627 714.788C390.432 715.004 391.192 715.001 391.907 714.778C392.631 714.523 393.25 714.016 393.764 713.257C394.028 712.914 394.306 712.781 394.595 712.859C395.014 712.971 395.11 713.255 394.884 713.712C394.14 715.204 393.156 716.234 391.934 716.804C390.72 717.342 389.501 717.446 388.278 717.119Z" fill="white"/>
<path d="M416.527 740.734C415.465 740.449 414.381 739.986 413.276 739.345C412.203 738.713 411.426 738.073 410.943 737.426C410.77 737.172 410.751 736.857 410.886 736.479L413.644 730.437C413.821 730.036 414.07 729.878 414.392 729.964C414.746 730.059 414.863 730.332 414.742 730.783L414.218 733.127C413.79 734.98 413.862 736.448 414.434 737.533C415.047 738.595 415.949 739.285 417.141 739.604C418.171 739.88 419.143 739.796 420.056 739.35C420.978 738.872 421.611 737.99 421.956 736.702C422.154 735.961 422.223 735.255 422.161 734.583C422.109 733.878 421.936 733.107 421.642 732.27C421.358 731.4 420.935 730.337 420.374 729.083C419.659 727.373 419.161 725.945 418.882 724.8C418.642 723.632 418.67 722.501 418.963 721.406C419.506 719.377 420.57 717.92 422.153 717.033C423.769 716.154 425.559 715.978 427.523 716.504C428.392 716.737 429.195 717.09 429.931 717.564C430.699 718.046 431.288 718.617 431.697 719.279C431.927 719.582 431.946 719.898 431.754 720.226L428.668 726.336C428.459 726.728 428.21 726.886 427.92 726.808C427.63 726.73 427.513 726.458 427.57 725.99L428.046 723.633C428.435 721.666 428.548 720.213 428.386 719.272C428.256 718.34 427.612 717.719 426.453 717.408C425.422 717.132 424.49 717.262 423.657 717.798C422.823 718.334 422.272 719.1 422.005 720.099C421.72 721.161 421.747 722.221 422.085 723.278C422.431 724.302 422.923 725.624 423.558 727.244C424.413 729.337 424.927 730.958 425.102 732.109C425.309 733.269 425.27 734.38 424.985 735.443C424.623 736.795 423.993 737.921 423.097 738.819C422.233 739.726 421.219 740.352 420.057 740.696C418.895 741.041 417.719 741.053 416.527 740.734ZM441.05 747.305C439.891 746.994 439.151 746.278 438.83 745.157C438.51 744.036 438.879 742.53 439.937 740.64L447.409 727.63C448.1 726.47 448.381 725.613 448.253 725.061C448.157 724.518 447.883 724.186 447.433 724.065C446.724 723.875 445.799 724.11 444.655 724.77C443.553 725.407 442.312 726.368 440.932 727.655C439.593 728.918 438.214 730.395 436.794 732.085C435.416 733.752 434.072 735.548 432.762 737.475C431.461 739.369 430.317 741.254 429.332 743.13C429.14 743.458 428.867 743.575 428.513 743.48L426.485 742.936C426.034 742.815 425.913 742.559 426.122 742.166L441.287 713.774C441.603 713.237 441.711 712.835 441.61 712.566C441.542 712.306 441.287 712.1 440.845 711.947L439.434 711.414C438.96 711.252 438.807 710.987 438.975 710.618C439.117 710.345 439.39 710.228 439.793 710.268C441.004 710.385 442.095 710.436 443.065 710.42C444.045 710.371 444.868 710.195 445.536 709.891C445.846 709.767 446.113 709.735 446.339 709.796C446.725 709.899 446.805 710.179 446.579 710.636L436.346 729.894C436.254 730.111 436.267 730.253 436.388 730.319C436.508 730.386 436.642 730.336 436.79 730.168C438.786 727.873 440.566 726.124 442.13 724.922C443.695 723.719 445.062 722.929 446.233 722.553C447.436 722.185 448.456 722.113 449.293 722.338C450.484 722.657 451.224 723.373 451.513 724.485C451.801 725.598 451.405 727.079 450.322 728.929L442.899 741.951C442.432 742.792 442.235 743.464 442.307 743.966C442.379 744.469 442.673 744.789 443.188 744.927C443.832 745.1 444.572 744.85 445.408 744.176C446.253 743.471 447.349 742.022 448.696 739.829C448.887 739.501 449.144 739.38 449.466 739.466C449.723 739.535 449.842 739.67 449.823 739.872C449.835 740.083 449.775 740.308 449.642 740.548C448.443 742.574 447.322 744.12 446.277 745.185C445.241 746.219 444.288 746.878 443.418 747.163C442.58 747.456 441.791 747.503 441.05 747.305ZM452.766 750.444C451.607 750.134 450.839 749.393 450.463 748.222C450.086 747.052 450.157 745.5 450.674 743.569C451.166 741.733 451.916 739.967 452.922 738.27C453.938 736.54 455.121 734.959 456.471 733.527C457.821 732.094 459.232 730.885 460.704 729.899C462.208 728.921 463.688 728.231 465.142 727.827C466.637 727.399 468.012 727.353 469.268 727.69C469.879 727.854 470.425 728.138 470.903 728.542C471.39 728.914 471.741 729.405 471.958 730.015C472.073 730.357 472.227 730.553 472.421 730.605C472.614 730.657 472.846 730.564 473.117 730.326C473.609 729.906 473.985 729.661 474.245 729.593C474.513 729.492 474.744 729.468 474.937 729.52C475.356 729.632 475.457 729.9 475.239 730.325L465.984 747.671C464.941 749.634 464.982 750.767 466.109 751.069C466.85 751.267 467.643 750.945 468.49 750.102C469.37 749.268 470.396 747.887 471.568 745.958C471.76 745.629 472.016 745.508 472.338 745.595C472.564 745.655 472.683 745.79 472.695 746.001C472.708 746.211 472.648 746.437 472.514 746.677C471.091 749.54 469.688 751.493 468.304 752.537C466.929 753.549 465.516 753.861 464.068 753.472C462.812 753.136 462.053 752.363 461.79 751.154C461.56 749.953 461.899 748.492 462.81 746.768L464.149 744.28C464.274 744.072 464.26 743.931 464.108 743.855C463.988 743.788 463.854 743.839 463.705 744.006C461.063 746.784 458.877 748.631 457.148 749.548C455.45 750.473 453.99 750.772 452.766 750.444ZM454.634 748.305C455.406 748.512 456.385 748.273 457.569 747.59C458.752 746.906 459.994 745.945 461.292 744.705C462.623 743.474 463.903 742.109 465.133 740.61C466.363 739.11 467.415 737.632 468.288 736.175C469.194 734.727 469.793 733.456 470.087 732.361C470.613 730.397 470.184 729.229 468.799 728.858C467.962 728.634 466.973 728.783 465.832 729.306C464.7 729.796 463.527 730.569 462.313 731.624C461.13 732.687 459.965 733.945 458.817 735.398C457.709 736.826 456.709 738.37 455.816 740.029C454.931 741.655 454.265 743.306 453.816 744.98C453.514 746.107 453.436 746.914 453.581 747.402C453.768 747.866 454.118 748.167 454.634 748.305ZM486.701 759.537C485.059 759.097 484.081 757.403 483.766 754.454L482.986 746.74C482.871 745.881 482.573 745.386 482.09 745.257C481.607 745.128 481.08 745.418 480.51 746.128C479.999 746.75 479.386 747.621 478.671 748.741C477.998 749.837 477.311 751.051 476.609 752.381L475.03 755.375C474.839 755.703 474.566 755.82 474.212 755.725L472.328 755.22C471.878 755.099 471.757 754.842 471.965 754.45L487.131 726.057C487.406 725.545 487.51 725.158 487.441 724.898C487.381 724.606 487.13 724.384 486.688 724.231L485.278 723.698C484.812 723.504 484.659 723.238 484.819 722.901C484.961 722.629 485.233 722.512 485.637 722.551C487.082 722.697 488.262 722.737 489.177 722.672C490.091 722.606 490.826 722.441 491.38 722.175C491.69 722.051 491.941 722.015 492.134 722.066C492.553 722.179 492.649 722.463 492.423 722.92L482.807 740.842C482.714 741.059 482.728 741.201 482.848 741.267C482.968 741.334 483.102 741.284 483.251 741.116L485.608 738.694C489.031 735.194 492.191 733.832 495.089 734.608C496.183 734.902 496.975 735.425 497.464 736.177C497.952 736.929 498.063 737.804 497.795 738.802C497.373 740.38 496.177 741.75 494.209 742.914C492.273 744.086 489.932 744.839 487.185 745.173C486.335 745.256 485.971 745.71 486.095 746.537L486.981 754.436C487.087 755.327 487.254 755.993 487.481 756.433C487.716 756.841 488.076 757.11 488.559 757.24C489.299 757.438 489.983 757.138 490.611 756.34C491.248 755.51 492.017 753.991 492.92 751.782C493.096 751.381 493.346 751.223 493.667 751.31C494.022 751.405 494.096 751.77 493.892 752.405C493.006 755.067 491.93 757.021 490.664 758.269C489.438 759.494 488.117 759.917 486.701 759.537ZM483.155 743.213C482.948 743.468 482.872 743.689 482.925 743.876C483.02 744.04 483.22 744.128 483.527 744.141C486.381 744.181 488.836 743.648 490.892 742.543C492.948 741.437 494.226 739.951 494.727 738.083C495.055 736.86 494.752 736.123 493.818 735.873C492.723 735.579 491.223 736.092 489.317 737.41C487.419 738.696 485.365 740.63 483.155 743.213ZM498.702 762.753C496.996 762.296 495.804 761.269 495.128 759.673C494.46 758.044 494.454 756.007 495.109 753.56C495.679 751.435 496.614 749.425 497.915 747.53C499.249 745.645 500.756 744.012 502.437 742.634C504.118 741.255 505.82 740.245 507.545 739.603C509.303 738.969 510.873 738.838 512.258 739.209C513.771 739.614 514.751 740.274 515.196 741.187C515.682 742.076 515.762 743.133 515.434 744.356C515.046 745.805 514.142 747.116 512.724 748.289C511.346 749.438 509.588 750.33 507.451 750.966C505.346 751.609 502.997 751.877 500.403 751.769C499.652 751.74 499.174 752.043 498.969 752.678C498.876 752.895 498.795 753.132 498.726 753.39C498.666 753.615 498.606 753.841 498.545 754.066C498.054 755.901 497.988 757.368 498.35 758.466C498.744 759.572 499.488 760.272 500.583 760.565C501.806 760.893 503.132 760.644 504.561 759.819C506.022 759.003 507.415 757.668 508.74 755.814C508.914 755.55 509.146 755.457 509.436 755.535C509.629 755.587 509.721 755.697 509.71 755.867C509.731 756.045 509.679 756.238 509.554 756.447C507.765 759.004 505.935 760.809 504.066 761.861C502.229 762.921 500.441 763.219 498.702 762.753ZM500.267 749.765C500.142 749.973 500.123 750.175 500.208 750.371C500.335 750.543 500.519 750.627 500.762 750.623C502.905 750.61 504.799 750.238 506.445 749.505C508.099 748.741 509.45 747.757 510.497 746.553C511.576 745.359 512.293 744.101 512.647 742.781C513.009 741.429 512.659 740.61 511.596 740.326C510.663 740.076 509.502 740.351 508.114 741.153C506.726 741.954 505.327 743.115 503.919 744.636C502.511 746.156 501.294 747.866 500.267 749.765ZM527.418 770.447C526.098 770.093 524.939 769.334 523.939 768.169C523.36 767.496 522.682 767.453 521.904 768.038C521.487 768.306 521.185 768.466 520.998 768.52C520.803 768.606 520.625 768.627 520.464 768.584C520.109 768.489 520.041 768.229 520.258 767.804C520.586 767.098 520.937 766.174 521.312 765.032C521.687 763.89 522.133 762.353 522.651 760.422L528.862 737.239C529.018 736.66 529.025 736.248 528.883 736.003C528.783 735.734 528.515 735.507 528.082 735.322L527.107 734.905C526.77 734.746 526.644 734.506 526.731 734.184C526.817 733.862 527.046 733.716 527.417 733.746C528.37 733.795 529.187 733.772 529.868 733.678C530.549 733.585 531.133 733.465 531.621 733.32C532.222 733.136 532.652 733.078 532.909 733.147C533.263 733.242 533.372 733.547 533.233 734.062L530.037 745.992C529.968 746.249 530.017 746.452 530.185 746.601C530.393 746.725 530.66 746.693 530.987 746.505C532.751 745.459 534.454 745.156 536.096 745.596C537.577 745.993 538.747 746.842 539.607 748.142C540.507 749.418 541.046 751.012 541.224 752.923C541.435 754.843 541.225 756.978 540.595 759.329C539.879 762.001 538.826 764.255 537.437 766.092C536.048 767.928 534.473 769.232 532.714 770.003C530.987 770.782 529.221 770.93 527.418 770.447ZM527.645 769.214C529.448 769.697 531.182 769.023 532.846 767.191C534.542 765.368 535.874 762.653 536.84 759.047C537.728 755.731 537.923 753.074 537.423 751.076C536.923 749.079 535.787 747.843 534.016 747.369C532.922 747.075 531.851 747.271 530.804 747.957C529.758 748.643 529.019 749.791 528.588 751.401L525.327 763.572C524.938 765.02 524.954 766.25 525.374 767.259C525.826 768.278 526.583 768.929 527.645 769.214ZM548.155 776.004C546.609 775.589 545.363 774.703 544.415 773.345C543.468 771.987 542.874 770.275 542.634 768.209C542.435 766.12 542.667 763.835 543.331 761.356C544.013 758.812 544.983 756.674 546.241 754.941C547.499 753.207 548.919 751.966 550.5 751.216C552.081 750.466 553.661 750.303 555.239 750.726C557.138 751.235 558.456 752.433 559.193 754.322C559.97 756.186 559.888 758.873 558.948 762.383C558.663 763.445 558.118 763.869 557.313 763.653L548.137 761.194C547.493 761.022 547.072 761.306 546.873 762.046C545.959 765.459 545.772 768.153 546.313 770.127C546.854 772.101 547.897 773.295 549.443 773.709C550.666 774.036 551.781 773.869 552.786 773.207C553.792 772.545 554.812 771.248 555.848 769.317C556.039 768.988 556.296 768.867 556.618 768.954C557.004 769.057 557.063 769.418 556.794 770.036C555.511 772.764 554.15 774.556 552.713 775.413C551.284 776.238 549.765 776.435 548.155 776.004ZM548.316 759.948L553.194 761.255C554.739 761.669 555.728 761.071 556.159 759.461C556.72 757.369 556.902 755.658 556.706 754.328C556.51 752.999 555.897 752.196 554.867 751.92C553.611 751.584 552.354 752.023 551.097 753.239C549.871 754.464 548.772 756.378 547.798 758.981C547.596 759.479 547.768 759.801 548.316 759.948ZM561.138 775.548L566.198 756.665C566.405 755.892 566.123 755.402 565.35 755.195L564.239 754.897C563.853 754.794 563.703 754.581 563.789 754.259C563.875 753.937 564.116 753.812 564.511 753.883C566.067 754.128 567.001 753.67 567.311 752.511L567.389 752.221C567.837 750.547 568.497 749.05 569.369 747.731C570.272 746.42 571.311 745.439 572.487 744.787C573.694 744.145 574.99 744.009 576.375 744.38C577.662 744.725 578.642 745.384 579.313 746.358C579.984 747.331 580.181 748.333 579.905 749.363C579.741 749.975 579.455 750.399 579.047 750.635C578.679 750.847 578.238 750.884 577.723 750.746C577.079 750.573 576.668 750.239 576.491 749.743C576.345 749.255 576.261 748.732 576.238 748.174C576.224 747.583 576.144 747.044 575.998 746.557C575.885 746.078 575.523 745.756 574.911 745.592C574.267 745.42 573.653 745.652 573.068 746.289C572.524 746.902 571.984 748.207 571.449 750.204L570.311 754.454C570.207 754.84 570.349 755.085 570.735 755.188L574.888 756.301C575.371 756.431 575.552 756.721 575.432 757.172C575.311 757.622 575.009 757.783 574.526 757.654L570.373 756.541C569.986 756.437 569.741 756.579 569.638 756.965L564.423 776.428C564.241 777.105 564.213 777.597 564.337 777.907C564.493 778.225 564.901 778.506 565.56 778.752L568.055 779.679C568.392 779.839 568.521 780.063 568.444 780.353C568.34 780.739 568.047 780.868 567.564 780.738L557.518 778.047C557.035 777.917 556.841 777.675 556.936 777.321C557.031 776.967 557.292 776.83 557.72 776.91L558.953 777.137C559.646 777.254 560.128 777.193 560.399 776.955C560.711 776.693 560.957 776.225 561.138 775.548ZM578.305 784.082C576.663 783.642 575.329 782.698 574.302 781.25C573.316 779.778 572.695 777.972 572.44 775.833C572.185 773.694 572.377 771.434 573.015 769.051C573.654 766.668 574.614 764.631 575.896 762.938C577.177 761.246 578.629 760.013 580.251 759.239C581.873 758.466 583.489 758.295 585.099 758.727C586.741 759.167 588.055 760.123 589.041 761.595C590.059 763.075 590.7 764.869 590.964 766.976C591.228 769.082 591.04 771.327 590.402 773.71C589.764 776.092 588.799 778.146 587.509 779.871C586.251 781.604 584.811 782.858 583.188 783.631C581.575 784.372 579.947 784.522 578.305 784.082ZM578.629 782.875C581.977 783.772 584.678 780.389 586.732 772.726C588.776 765.095 588.124 760.831 584.776 759.934C581.427 759.037 578.731 762.404 576.686 770.035C574.633 777.698 575.28 781.978 578.629 782.875ZM601.542 766.756C603.466 764.856 605.361 764.156 607.229 764.656C608.291 764.941 608.994 765.474 609.336 766.256C609.688 767.006 609.76 767.767 609.553 768.54C609.389 769.152 609.094 769.608 608.669 769.908C608.275 770.217 607.757 770.285 607.113 770.112C606.598 769.974 606.241 769.758 606.044 769.464C605.888 769.146 605.772 768.804 605.698 768.439C605.655 768.082 605.567 767.766 605.435 767.488C605.31 767.179 605.023 766.964 604.572 766.843C603.993 766.688 603.35 766.896 602.645 767.466C601.949 768.004 601.269 768.805 600.604 769.869C599.971 770.942 599.457 772.219 599.06 773.7L596.057 784.905C595.876 785.581 595.843 786.09 595.959 786.431C596.107 786.782 596.51 787.08 597.169 787.325L598.434 787.819C598.771 787.979 598.901 788.203 598.823 788.493C598.719 788.879 598.426 789.008 597.943 788.878L589.781 786.691C589.298 786.562 589.104 786.32 589.199 785.966C589.277 785.676 589.538 785.539 589.982 785.555L590.588 785.613C591.298 785.666 591.785 785.589 592.047 785.383C592.35 785.154 592.592 784.701 592.773 784.025L597.121 767.797C597.277 767.218 597.284 766.806 597.142 766.561C597.042 766.292 596.775 766.065 596.341 765.88L595.366 765.463C594.956 765.319 594.794 765.086 594.88 764.764C594.949 764.506 595.254 764.398 595.795 764.44C596.836 764.546 597.662 764.491 598.272 764.275C598.914 764.068 599.594 763.784 600.312 763.424C600.679 763.212 600.96 763.132 601.153 763.184C601.443 763.261 601.536 763.493 601.432 763.88L600.733 766.488C600.673 766.713 600.731 766.884 600.907 767C601.091 767.084 601.303 767.003 601.542 766.756ZM612.864 793.342C611.319 792.928 610.072 792.042 609.125 790.684C608.177 789.326 607.584 787.614 607.343 785.548C607.144 783.458 607.377 781.174 608.041 778.695C608.722 776.151 609.692 774.013 610.951 772.279C612.209 770.546 613.628 769.304 615.21 768.555C616.791 767.805 618.37 767.642 619.948 768.064C621.848 768.573 623.166 769.772 623.902 771.66C624.679 773.525 624.598 776.212 623.657 779.722C623.373 780.784 622.828 781.208 622.023 780.992L612.847 778.533C612.203 778.361 611.781 778.645 611.583 779.385C610.668 782.798 610.482 785.492 611.023 787.465C611.563 789.439 612.607 790.633 614.152 791.047C615.376 791.375 616.49 791.208 617.496 790.546C618.502 789.884 619.522 788.587 620.557 786.656C620.749 786.327 621.005 786.206 621.327 786.293C621.714 786.396 621.772 786.757 621.503 787.375C620.22 790.102 618.86 791.895 617.422 792.752C615.993 793.577 614.474 793.774 612.864 793.342ZM613.025 777.287L617.903 778.594C619.449 779.008 620.437 778.41 620.868 776.8C621.429 774.707 621.612 772.996 621.416 771.667C621.22 770.338 620.607 769.535 619.576 769.259C618.32 768.922 617.064 769.362 615.806 770.578C614.581 771.803 613.481 773.717 612.508 776.32C612.305 776.818 612.478 777.14 613.025 777.287ZM638.77 800.284C637.128 799.844 635.793 798.9 634.767 797.451C633.781 795.979 633.16 794.174 632.905 792.035C632.65 789.896 632.842 787.635 633.48 785.252C634.118 782.87 635.079 780.832 636.36 779.14C637.642 777.447 639.094 776.214 640.716 775.441C642.338 774.668 643.954 774.497 645.564 774.928C647.206 775.368 648.52 776.324 649.506 777.796C650.524 779.277 651.165 781.071 651.429 783.177C651.692 785.284 651.505 787.529 650.867 789.911C650.228 792.294 649.264 794.348 647.974 796.072C646.715 797.806 645.275 799.059 643.653 799.832C642.04 800.573 640.412 800.724 638.77 800.284ZM639.093 799.076C642.442 799.974 645.143 796.591 647.196 788.928C649.241 781.297 648.589 777.033 645.24 776.136C641.892 775.238 639.195 778.605 637.151 786.236C635.097 793.899 635.745 798.179 639.093 799.076ZM647.448 812.755C646.965 812.625 646.771 812.384 646.866 812.029C646.961 811.675 647.222 811.538 647.649 811.618L648.351 811.703C649.053 811.787 649.54 811.711 649.81 811.473C650.113 811.243 650.356 810.79 650.537 810.114L657.538 783.986C657.693 783.406 657.7 782.994 657.559 782.749C657.458 782.481 657.191 782.254 656.757 782.069L655.782 781.652C655.372 781.508 655.21 781.274 655.297 780.952C655.366 780.695 655.671 780.587 656.212 780.628C657.253 780.735 658.079 780.68 658.689 780.464C659.331 780.256 660.011 779.973 660.728 779.613C661.096 779.401 661.376 779.32 661.569 779.372C661.859 779.45 661.952 779.682 661.849 780.068L661.447 781.565C661.387 781.791 661.441 781.978 661.608 782.126C661.784 782.242 662.035 782.206 662.362 782.017L663.035 781.628C663.852 781.157 664.637 780.867 665.391 780.758C666.153 780.618 666.969 780.664 667.838 780.897C669.319 781.293 670.49 782.142 671.349 783.442C672.249 784.719 672.789 786.312 672.967 788.224C673.177 790.143 672.967 792.279 672.337 794.629C671.621 797.301 670.569 799.556 669.179 801.392C667.79 803.228 666.2 804.528 664.408 805.29C662.649 806.061 660.819 806.192 658.919 805.683C657.953 805.424 657.148 805.018 656.502 804.466C655.991 804.053 655.654 804.152 655.49 804.764L653.821 810.994C653.64 811.67 653.616 812.147 653.748 812.424C653.905 812.742 654.308 813.04 654.958 813.318L656.681 814.038C657.017 814.197 657.147 814.422 657.069 814.712C656.966 815.098 656.673 815.226 656.19 815.097L647.448 812.755ZM659.388 804.514C661.191 804.997 662.924 804.323 664.588 802.491C666.285 800.668 667.616 797.954 668.582 794.348C669.471 791.031 669.665 788.374 669.165 786.377C668.665 784.379 667.53 783.143 665.759 782.669C664.664 782.375 663.593 782.572 662.547 783.258C661.5 783.943 660.762 785.091 660.33 786.701L657.069 798.872C656.681 800.321 656.697 801.55 657.116 802.56C657.568 803.578 658.325 804.229 659.388 804.514ZM679.413 811.174C677.868 810.76 676.621 809.874 675.674 808.516C674.726 807.158 674.133 805.446 673.892 803.38C673.693 801.29 673.926 799.006 674.59 796.527C675.271 793.983 676.241 791.845 677.499 790.111C678.758 788.378 680.177 787.136 681.759 786.387C683.34 785.637 684.919 785.473 686.497 785.896C688.397 786.405 689.715 787.604 690.451 789.492C691.228 791.357 691.147 794.044 690.206 797.553C689.921 798.616 689.377 799.039 688.572 798.824L679.395 796.365C678.751 796.192 678.33 796.476 678.132 797.217C677.217 800.63 677.031 803.323 677.571 805.297C678.112 807.271 679.155 808.465 680.701 808.879C681.924 809.207 683.039 809.04 684.045 808.378C685.05 807.715 686.071 806.419 687.106 804.487C687.297 804.159 687.554 804.038 687.876 804.124C688.263 804.228 688.321 804.589 688.052 805.207C686.769 807.934 685.409 809.727 683.971 810.584C682.542 811.409 681.023 811.605 679.413 811.174ZM679.574 795.119L684.452 796.426C685.997 796.84 686.986 796.242 687.417 794.632C687.978 792.539 688.16 790.828 687.965 789.499C687.769 788.169 687.155 787.367 686.125 787.091C684.869 786.754 683.613 787.194 682.355 788.41C681.13 789.634 680.03 791.548 679.057 794.152C678.854 794.65 679.027 794.972 679.574 795.119ZM688.873 813.243C688.39 813.114 688.196 812.872 688.291 812.518C688.369 812.228 688.63 812.091 689.074 812.106L689.68 812.165C690.391 812.217 690.877 812.141 691.139 811.935C691.442 811.706 691.684 811.253 691.866 810.577L696.214 794.349C696.369 793.77 696.376 793.357 696.234 793.112C696.134 792.844 695.867 792.617 695.433 792.432L694.458 792.015C694.048 791.871 693.886 791.638 693.972 791.316C694.041 791.058 694.346 790.95 694.888 790.991C695.929 791.098 696.754 791.043 697.364 790.827C698.007 790.619 698.687 790.336 699.404 789.976C699.772 789.764 700.052 789.684 700.245 789.735C700.535 789.813 700.628 790.045 700.525 790.431L699.942 792.605C699.865 792.894 699.909 793.114 700.077 793.262C700.285 793.387 700.552 793.355 700.879 793.166C702.495 792.288 703.846 791.753 704.932 791.561C706.051 791.377 707.158 791.432 708.253 791.726C709.702 792.114 710.723 792.94 711.316 794.203C711.918 795.434 711.956 797.032 711.43 798.996L707.224 814.692C707.043 815.368 707.01 815.877 707.125 816.218C707.282 816.536 707.685 816.834 708.335 817.112L709.359 817.542C709.696 817.701 709.821 817.942 709.735 818.264C709.64 818.618 709.399 818.743 709.013 818.639L700.899 816.465C700.448 816.345 700.271 816.107 700.365 815.753C700.452 815.431 700.681 815.285 701.052 815.316L701.754 815.4C702.456 815.485 702.942 815.408 703.213 815.17C703.516 814.941 703.758 814.488 703.94 813.812L708.003 798.647C708.426 797.069 708.434 795.881 708.027 795.081C707.62 794.282 706.885 793.74 705.822 793.456C704.792 793.179 703.776 793.235 702.775 793.623C701.815 793.986 700.96 794.603 700.209 795.471C699.468 796.308 698.937 797.322 698.618 798.513L695.15 811.457C694.968 812.133 694.936 812.642 695.051 812.983C695.199 813.333 695.602 813.631 696.261 813.877L697.526 814.371C697.863 814.53 697.993 814.755 697.915 815.045C697.812 815.431 697.518 815.56 697.036 815.43L688.873 813.243ZM723.446 791.19C722.769 791.008 722.255 790.612 721.901 789.999C721.58 789.396 721.518 788.723 721.717 787.983C721.915 787.242 722.3 786.707 722.872 786.377C723.484 786.023 724.128 785.937 724.804 786.118C725.481 786.3 725.979 786.692 726.301 787.296C726.631 787.867 726.696 788.523 726.498 789.264C726.3 790.005 725.91 790.556 725.33 790.918C724.75 791.28 724.122 791.371 723.446 791.19ZM711.559 819.322C711.077 819.192 710.882 818.951 710.977 818.596C711.055 818.307 711.316 818.17 711.761 818.185L712.366 818.244C713.205 818.331 713.772 818.276 714.067 818.078C714.37 817.849 714.612 817.396 714.793 816.72L719.141 800.493C719.296 799.913 719.303 799.501 719.162 799.256C719.061 798.987 718.794 798.76 718.361 798.575L717.385 798.159C716.976 798.014 716.814 797.781 716.9 797.459C716.969 797.201 717.274 797.093 717.815 797.135C718.856 797.241 719.73 797.199 720.437 797.009C721.144 796.819 721.856 796.544 722.573 796.184C722.941 795.972 723.221 795.892 723.414 795.943C723.704 796.021 723.797 796.253 723.694 796.639L718.077 817.6C717.896 818.276 717.863 818.785 717.979 819.127C718.094 819.468 718.417 819.744 718.947 819.955L720.116 820.424C720.453 820.583 720.582 820.808 720.505 821.098C720.401 821.484 720.108 821.612 719.625 821.483L711.559 819.322ZM722.313 822.203C721.83 822.074 721.636 821.832 721.731 821.478C721.809 821.188 722.07 821.051 722.514 821.066L723.119 821.125C723.83 821.178 724.317 821.101 724.579 820.895C724.882 820.666 725.124 820.213 725.305 819.537L729.653 803.309C729.808 802.73 729.815 802.317 729.674 802.072C729.573 801.804 729.306 801.577 728.873 801.392L727.897 800.975C727.487 800.831 727.326 800.598 727.412 800.276C727.481 800.018 727.786 799.91 728.327 799.952C729.368 800.058 730.194 800.003 730.804 799.787C731.446 799.58 732.126 799.296 732.844 798.936C733.211 798.724 733.492 798.644 733.685 798.695C733.974 798.773 734.068 799.005 733.964 799.391L733.382 801.565C733.304 801.855 733.349 802.074 733.516 802.222C733.724 802.347 733.992 802.315 734.318 802.126C735.934 801.248 737.285 800.713 738.372 800.521C739.491 800.337 740.598 800.392 741.692 800.686C743.141 801.074 744.162 801.9 744.756 803.163C745.358 804.394 745.395 805.992 744.869 807.956L740.663 823.652C740.482 824.328 740.449 824.837 740.565 825.178C740.721 825.496 741.124 825.794 741.775 826.072L742.798 826.502C743.135 826.661 743.261 826.902 743.174 827.224C743.08 827.578 742.839 827.703 742.453 827.6L734.339 825.425C733.888 825.305 733.71 825.067 733.805 824.713C733.891 824.391 734.12 824.245 734.491 824.276L735.194 824.36C735.896 824.445 736.382 824.368 736.653 824.13C736.956 823.901 737.198 823.448 737.379 822.772L741.443 807.607C741.865 806.029 741.873 804.841 741.466 804.042C741.059 803.242 740.324 802.7 739.262 802.416C738.232 802.14 737.216 802.195 736.215 802.583C735.255 802.947 734.399 803.563 733.649 804.432C732.907 805.268 732.377 806.282 732.057 807.473L728.589 820.417C728.408 821.093 728.375 821.602 728.491 821.943C728.638 822.293 729.042 822.591 729.701 822.837L730.966 823.331C731.303 823.49 731.432 823.715 731.355 824.005C731.251 824.391 730.958 824.52 730.475 824.39L722.313 822.203ZM749.365 840.581C746.918 839.925 745.119 838.908 743.97 837.531C742.812 836.185 742.419 834.82 742.79 833.436C742.945 832.856 743.168 832.346 743.458 831.907C743.74 831.499 744.221 831.058 744.9 830.585C745.611 830.12 746.643 829.551 747.997 828.878C748.478 828.627 748.758 828.357 748.835 828.067C748.921 827.745 748.793 827.452 748.45 827.188C747.42 826.394 746.892 825.597 746.865 824.796C746.846 823.963 747.31 823.328 748.255 822.891L752.535 820.828C753.008 820.61 753.065 820.332 752.707 819.994C751.559 818.997 750.78 817.718 750.37 816.159C749.959 814.599 749.961 813.047 750.375 811.502C750.772 810.021 751.452 808.771 752.415 807.752C753.378 806.733 754.502 806.016 755.787 805.601C757.071 805.186 758.39 805.16 759.742 805.522C760.515 805.729 761.221 806.056 761.86 806.504C762.268 806.786 762.58 806.714 762.798 806.289C763.415 805.143 764.201 804.336 765.155 803.867C766.15 803.374 767.033 803.231 767.806 803.438C768.547 803.637 769.082 804.022 769.412 804.593C769.783 805.141 769.882 805.737 769.709 806.381C769.563 806.929 769.285 807.32 768.877 807.556C768.469 807.791 768.023 807.845 767.54 807.715C767.122 807.603 766.837 807.441 766.687 807.228C766.537 807.015 766.403 806.807 766.285 806.603C766.168 806.398 765.931 806.249 765.577 806.154C764.805 805.947 764.209 806.236 763.792 807.021C763.609 807.318 763.536 807.591 763.572 807.842C763.64 808.102 763.757 808.375 763.922 808.661C764.496 809.609 764.85 810.67 764.984 811.844C765.15 813.028 765.061 814.263 764.716 815.551C764.302 817.097 763.609 818.395 762.637 819.446C761.697 820.505 760.585 821.243 759.301 821.658C758.048 822.081 756.746 822.112 755.394 821.75C754.814 821.594 754.281 821.589 753.793 821.735C753.314 821.848 752.805 822.074 752.266 822.413L751.199 823.11C750.642 823.513 750.38 823.978 750.411 824.504C750.484 825.006 750.874 825.353 751.582 825.542L755.736 826.655C758.054 827.277 759.734 828.348 760.776 829.869C761.826 831.359 762.084 833.101 761.549 835.098C761.126 836.675 760.3 837.955 759.071 838.937C757.841 839.919 756.375 840.561 754.672 840.864C753.001 841.176 751.232 841.081 749.365 840.581ZM755.669 820.529C756.828 820.84 757.914 820.458 758.927 819.383C759.939 818.309 760.735 816.693 761.313 814.536C761.873 812.443 761.968 810.674 761.596 809.228C761.265 807.759 760.536 806.874 759.409 806.572C758.282 806.27 757.192 806.668 756.138 807.766C755.126 808.84 754.339 810.424 753.778 812.517C753.2 814.674 753.081 816.471 753.421 817.908C753.761 819.345 754.51 820.219 755.669 820.529ZM750.229 839.674C751.388 839.984 752.519 840.011 753.623 839.755C754.727 839.499 755.678 838.977 756.476 838.19C757.297 837.444 757.863 836.491 758.173 835.332C758.561 833.883 758.424 832.656 757.762 831.65C757.141 830.621 756.057 829.899 754.512 829.485L753.401 829.187C752.403 828.92 751.62 828.814 751.053 828.869C750.519 828.933 749.961 829.146 749.381 829.508C748.098 830.303 747.242 830.988 746.812 831.563C746.381 832.138 746.076 832.763 745.895 833.439C745.515 834.856 745.692 836.129 746.425 837.257C747.19 838.393 748.458 839.199 750.229 839.674Z" fill="white"/>
<path d="M30.8781 1144.97L142.467 1113.24C168.224 1105.92 195.937 1111.97 216.299 1129.36L237.136 1147.15C254.755 1162.2 278.032 1168.87 300.946 1165.43L372.776 1154.67C390.888 1151.95 409.383 1155.53 425.171 1164.81L473.231 1193.06C491.362 1203.72 512.96 1206.81 533.351 1201.66L612.05 1181.8C631.966 1176.77 653.053 1179.59 670.943 1189.69L814.001 1270.4" stroke="#AA7B54" stroke-width="107"/>
<mask id="mask0_64_7" style="mask-type:alpha" maskUnits="userSpaceOnUse" x="16" y="64" width="959" height="1448">
<path d="M637.43 1489.62C627.874 1525.28 481.307 1517 310.064 1471.12C138.821 1425.23 7.74918 1359.12 17.3058 1323.46L354.621 64.5781L974.745 230.74L637.43 1489.62Z" fill="#A48C78"/>
</mask>
<g mask="url(#mask0_64_7)">
<path d="M-48.7586 1186.02L62.8303 1154.3C88.5872 1146.97 116.3 1153.02 136.663 1170.41L157.499 1188.2C175.118 1203.25 198.396 1209.92 221.309 1206.49L293.139 1195.72C311.251 1193.01 329.746 1196.59 345.535 1205.87L393.595 1234.12C411.725 1244.78 433.323 1247.86 453.714 1242.72L532.413 1222.85C552.329 1217.82 573.416 1220.65 591.306 1230.74L734.364 1311.46" stroke="#95633A" stroke-width="107"/>
<path d="M14.1828 1272.5L125.772 1240.77C151.529 1233.45 179.241 1239.5 199.604 1256.89L220.441 1274.68C238.06 1289.73 261.337 1296.4 284.251 1292.96L356.081 1282.2C374.192 1279.48 392.687 1283.07 408.476 1292.35L456.536 1320.6C474.667 1331.25 496.264 1334.34 516.655 1329.19L593.127 1309.89C614.361 1304.53 636.864 1308.11 655.387 1319.79L740.585 1373.53" stroke="#714825" stroke-width="120"/>
<path d="M-52.6551 1429.84L58.9339 1398.11C84.6907 1390.79 112.403 1396.84 132.766 1414.23L153.603 1432.02C171.222 1447.07 194.499 1453.74 217.413 1450.3L289.243 1439.54C307.355 1436.82 325.849 1440.41 341.638 1449.69L389.698 1477.94C407.829 1488.59 429.427 1491.68 449.818 1486.53L526.289 1467.23C547.523 1461.87 570.026 1465.45 588.549 1477.13L673.747 1530.87" stroke="#493525" stroke-width="307"/>
</g>
<path d="M313.799 140.865C313.256 140.526 313.109 140.158 313.358 139.76C313.561 139.434 313.932 139.364 314.47 139.549L315.189 139.847C316.04 140.177 316.664 140.266 317.062 140.112C317.518 139.944 317.984 139.481 318.459 138.721L329.853 120.484C330.26 119.832 330.423 119.33 330.341 118.978C330.319 118.611 330.077 118.234 329.615 117.845L328.577 116.97C328.129 116.64 328.019 116.294 328.245 115.932C328.426 115.642 328.839 115.624 329.486 115.877C330.721 116.397 331.752 116.639 332.58 116.603C333.444 116.589 334.382 116.496 335.395 116.324C335.924 116.202 336.297 116.209 336.514 116.344C336.84 116.548 336.867 116.867 336.596 117.301L335.07 119.743C334.867 120.069 334.839 120.354 334.989 120.598C335.197 120.829 335.536 120.89 336.006 120.781C338.313 120.31 340.167 120.161 341.569 120.333C343.007 120.527 344.342 121.008 345.572 121.777C347.2 122.794 348.141 124.187 348.395 125.955C348.671 127.688 348.119 129.657 346.74 131.864L335.719 149.505C335.244 150.264 335.014 150.875 335.028 151.336C335.1 151.784 335.482 152.3 336.174 152.883L337.267 153.792C337.619 154.113 337.683 154.454 337.457 154.816C337.208 155.214 336.867 155.278 336.432 155.006L327.314 149.309C326.807 148.993 326.678 148.635 326.927 148.237C327.153 147.876 327.488 147.783 327.931 147.959L328.759 148.325C329.586 148.691 330.21 148.78 330.631 148.59C331.088 148.422 331.554 147.959 332.028 147.199L342.676 130.156C343.784 128.383 344.239 126.931 344.039 125.8C343.84 124.669 343.144 123.731 341.949 122.985C340.792 122.262 339.527 121.95 338.157 122.049C336.846 122.136 335.568 122.57 334.324 123.353C333.103 124.099 332.075 125.142 331.238 126.48L322.15 141.027C321.675 141.787 321.445 142.397 321.458 142.859C321.508 143.342 321.89 143.858 322.605 144.405L323.969 145.484C324.321 145.805 324.396 146.128 324.193 146.454C323.921 146.888 323.514 146.935 322.972 146.596L313.799 140.865ZM345.265 160.636C343.693 159.776 342.668 158.583 342.191 157.056C341.733 155.493 341.955 153.888 342.857 152.241C343.738 150.631 345.072 149.392 346.861 148.523C348.671 147.617 350.773 147.065 353.167 146.867C355.561 146.67 358.076 146.83 360.71 147.348C361.279 147.465 361.696 147.28 361.963 146.794L364.759 141.685C365.742 139.888 366.158 138.462 366.006 137.406C365.875 136.313 365.323 135.5 364.35 134.968C363.414 134.455 362.318 134.415 361.061 134.845C359.862 135.259 358.551 136.365 357.128 138.164C356.285 139.26 355.392 139.914 354.449 140.127C353.563 140.323 352.802 140.247 352.166 139.899C351.118 139.325 350.881 138.515 351.454 137.467C352.048 136.381 352.932 135.478 354.104 134.758C355.335 134.021 356.691 133.499 358.172 133.191C359.674 132.846 361.168 132.739 362.652 132.871C364.137 133.002 365.478 133.396 366.675 134.052C370.381 136.08 371.055 139.246 368.699 143.55L359.296 160.729C358.436 162.301 358.398 163.302 359.184 163.732C359.671 163.998 360.294 163.926 361.054 163.515C361.835 163.067 362.655 162.057 363.516 160.485C363.843 159.886 364.25 159.72 364.737 159.986C365.186 160.232 365.237 160.673 364.888 161.309C363.393 164.041 361.82 165.758 360.171 166.461C358.58 167.146 357.186 167.161 355.988 166.506C355.09 166.014 354.573 165.269 354.439 164.271C354.324 163.236 354.45 162.162 354.816 161.049C354.984 160.654 354.918 160.375 354.618 160.211C354.377 160.03 354.023 160.055 353.556 160.286C351.981 161.029 350.552 161.463 349.268 161.587C347.984 161.711 346.65 161.394 345.265 160.636ZM348.195 158.884C349.168 159.416 350.25 159.571 351.442 159.348C352.655 159.088 353.841 158.521 355 157.647C356.159 156.774 357.138 155.608 357.937 154.148L360.18 150.05C360.57 149.339 360.289 148.918 359.339 148.787C356.606 148.361 354.203 148.529 352.132 149.292C350.118 150.038 348.558 151.422 347.452 153.443C346.038 156.025 346.286 157.839 348.195 158.884ZM369.64 173.641C368.309 172.964 367.438 171.947 367.028 170.589C366.675 169.213 367.04 167.46 368.123 165.33L378.974 143.995C379.206 143.539 379.094 143.194 378.637 142.962L376.983 142.121C376.374 141.811 376.186 141.428 376.418 140.972C376.573 140.668 376.88 140.489 377.338 140.435C379.038 140.198 380.52 139.779 381.783 139.177C383.066 138.537 384.437 137.487 385.898 136.028C386.57 135.365 387.096 135.13 387.477 135.323C387.895 135.536 387.949 135.947 387.64 136.555L384.419 142.887C384.149 143.42 384.28 143.821 384.812 144.092L388.52 145.978C389.128 146.287 389.297 146.708 389.026 147.241C388.756 147.773 388.316 147.885 387.708 147.575L384 145.689C383.467 145.419 383.066 145.549 382.795 146.082L371.973 167.36C371.547 168.197 371.342 168.93 371.357 169.56C371.391 170.151 371.769 170.631 372.492 170.999C373.29 171.405 374.14 171.334 375.041 170.787C375.979 170.259 376.979 169.14 378.04 167.43C378.387 166.936 378.77 166.796 379.188 167.009C379.644 167.241 379.728 167.642 379.437 168.213C377.834 171.083 376.152 172.884 374.391 173.616C372.669 174.368 371.085 174.376 369.64 173.641ZM386.087 181.635C385.123 181.18 384.297 180.53 383.61 179.687C382.923 178.843 382.509 177.822 382.368 176.623C382.226 175.424 382.52 174.052 383.249 172.509L392.76 152.37C393.088 151.676 393.2 151.139 393.096 150.759C393.031 150.398 392.737 150.071 392.215 149.777L391.286 149.197C390.667 148.81 390.457 148.404 390.658 147.98C390.895 147.478 391.38 147.401 392.113 147.747L397.495 150.289C398.073 150.562 398.226 150.988 397.953 151.567L387.758 173.152C386.92 174.927 386.647 176.355 386.938 177.436C387.286 178.497 388.058 179.31 389.254 179.875C390.45 180.44 391.666 180.613 392.902 180.395C394.156 180.138 395.317 179.577 396.386 178.713C397.511 177.829 398.392 176.712 399.03 175.362L406.765 158.984C407.093 158.29 407.205 157.753 407.101 157.374C407.036 157.012 406.742 156.685 406.22 156.391L405.291 155.811C404.672 155.424 404.462 155.018 404.662 154.594C404.899 154.093 405.384 154.015 406.117 154.361L411.499 156.903C412.078 157.176 412.231 157.602 411.957 158.181L401.353 180.635C401.025 181.329 400.894 181.857 400.959 182.218C401.081 182.559 401.394 182.895 401.898 183.228L403.031 183.975C403.514 184.251 403.674 184.562 403.51 184.909C403.346 185.256 402.928 185.342 402.256 185.166C400.987 184.756 399.877 184.609 398.925 184.726C398.012 184.861 397.131 185.129 396.281 185.529C395.77 185.713 395.398 185.75 395.167 185.64C394.819 185.476 394.755 185.163 394.974 184.7L396.231 182.038C396.377 181.729 396.343 181.501 396.13 181.353C395.973 181.185 395.725 181.162 395.384 181.284C393.282 182.037 391.535 182.439 390.143 182.489C388.79 182.558 387.438 182.273 386.087 181.635ZM423.794 166.962C426.6 164.936 429.135 164.423 431.399 165.422C432.687 165.99 433.472 166.803 433.752 167.859C434.049 168.876 433.991 169.853 433.577 170.79C433.25 171.532 432.788 172.051 432.191 172.347C431.633 172.66 430.963 172.645 430.183 172.3C429.558 172.024 429.15 171.681 428.958 171.27C428.823 170.837 428.744 170.382 428.721 169.906C428.737 169.447 428.688 169.029 428.575 168.652C428.478 168.237 428.157 167.908 427.61 167.667C426.908 167.357 426.055 167.493 425.051 168.077C424.065 168.621 423.047 169.501 421.997 170.716C420.987 171.949 420.085 173.464 419.293 175.259L413.298 188.843C412.936 189.663 412.795 190.3 412.874 190.755C412.992 191.227 413.444 191.682 414.229 192.122L415.732 192.996C416.127 193.263 416.247 193.573 416.092 193.924C415.886 194.392 415.489 194.497 414.904 194.239L405.009 189.872C404.423 189.613 404.225 189.27 404.415 188.84C404.57 188.489 404.927 188.367 405.486 188.474L406.24 188.666C407.129 188.872 407.759 188.87 408.131 188.662C408.56 188.431 408.955 187.906 409.316 187.086L417.999 167.413C418.309 166.71 418.398 166.19 418.268 165.852C418.193 165.493 417.9 165.154 417.388 164.834L416.236 164.116C415.745 163.853 415.586 163.526 415.759 163.136C415.896 162.824 416.303 162.747 416.98 162.905C418.276 163.244 419.331 163.337 420.145 163.183C420.998 163.047 421.914 162.821 422.892 162.507C423.398 162.31 423.769 162.264 424.003 162.367C424.354 162.522 424.426 162.834 424.22 163.302L422.824 166.464C422.704 166.738 422.743 166.965 422.943 167.146C423.16 167.289 423.444 167.227 423.794 166.962ZM428.181 200.544C426.527 199.856 425.381 198.778 424.744 197.311C424.123 195.805 424.173 194.185 424.895 192.452C425.599 190.758 426.795 189.384 428.482 188.33C430.185 187.236 432.216 186.464 434.576 186.014C436.935 185.563 439.453 185.455 442.128 185.691C442.705 185.746 443.101 185.518 443.314 185.006L445.552 179.629C446.339 177.738 446.6 176.276 446.338 175.242C446.091 174.169 445.456 173.419 444.431 172.993C443.447 172.583 442.352 172.659 441.148 173.221C439.999 173.76 438.813 174.999 437.59 176.939C436.868 178.118 436.05 178.863 435.134 179.175C434.274 179.464 433.51 179.47 432.84 179.191C431.737 178.732 431.415 177.951 431.874 176.848C432.35 175.706 433.132 174.714 434.221 173.874C435.366 173.01 436.659 172.346 438.1 171.883C439.557 171.38 441.03 171.116 442.52 171.089C444.011 171.062 445.386 171.311 446.646 171.835C450.546 173.458 451.553 176.535 449.668 181.065L442.143 199.145C441.454 200.8 441.523 201.799 442.351 202.143C442.863 202.357 443.475 202.219 444.187 201.729C444.915 201.201 445.624 200.109 446.312 198.455C446.575 197.824 446.962 197.616 447.474 197.829C447.947 198.026 448.044 198.459 447.765 199.128C446.568 202.004 445.187 203.879 443.622 204.752C442.112 205.603 440.728 205.766 439.467 205.241C438.522 204.848 437.929 204.162 437.689 203.184C437.465 202.167 437.476 201.085 437.722 199.94C437.847 199.529 437.751 199.259 437.436 199.128C437.177 198.973 436.827 199.036 436.388 199.315C434.901 200.222 433.526 200.805 432.263 201.064C430.999 201.324 429.639 201.151 428.181 200.544ZM430.908 198.49C431.932 198.916 433.025 198.955 434.187 198.607C435.365 198.219 436.484 197.53 437.544 196.538C438.603 195.546 439.453 194.282 440.092 192.746L441.887 188.433C442.199 187.684 441.875 187.296 440.917 187.267C438.154 187.133 435.782 187.556 433.804 188.535C431.881 189.49 430.477 191.032 429.591 193.159C428.46 195.877 428.899 197.654 430.908 198.49ZM446.446 207.496C445.97 207.307 445.819 206.995 445.993 206.559C446.15 206.162 446.463 206.011 446.93 206.105L447.81 206.317C448.69 206.529 449.399 206.535 449.938 206.336C450.476 206.136 450.911 205.62 451.241 204.788L464.784 170.708C465.067 169.994 465.145 169.451 465.018 169.079C464.93 168.723 464.616 168.415 464.077 168.154L462.78 167.432C462.375 167.18 462.252 166.855 462.409 166.459C462.567 166.062 462.879 165.911 463.347 166.005C464.552 166.208 465.614 166.309 466.533 166.307C467.452 166.305 468.232 166.247 468.874 166.135C469.666 165.991 470.22 165.981 470.537 166.107C470.974 166.281 471.066 166.685 470.813 167.319L455.286 206.395C454.955 207.228 454.838 207.87 454.934 208.321C455.085 208.748 455.554 209.187 456.339 209.637L457.636 210.359C458.041 210.612 458.164 210.936 458.007 211.333C457.833 211.769 457.509 211.892 457.033 211.703L446.446 207.496ZM484.562 202.221C483.203 201.713 482.22 200.868 481.614 199.685C481.024 198.463 480.997 197.132 481.534 195.693C482.042 194.334 482.919 193.387 484.167 192.851C485.415 192.315 486.718 192.3 488.077 192.808C489.276 193.256 490.191 194.098 490.822 195.336C491.453 196.574 491.515 197.872 491.007 199.231C490.47 200.67 489.557 201.65 488.269 202.171C486.997 202.652 485.761 202.669 484.562 202.221ZM505.324 230.238C504.398 229.914 503.454 229.447 502.492 228.838C501.515 228.269 500.762 227.711 500.23 227.163C499.939 226.835 499.878 226.429 500.047 225.946L502.239 219.118C502.479 218.434 502.86 218.183 503.384 218.367C503.827 218.522 504.016 218.95 503.951 219.651C503.632 222.75 503.773 224.992 504.372 226.378C505.011 227.778 506.035 228.725 507.445 229.219C508.612 229.629 509.734 229.525 510.809 228.907C511.899 228.25 512.727 227.115 513.292 225.505C513.856 223.895 513.915 222.31 513.467 220.751C513.019 219.192 512.01 217.301 510.439 215.077C508.839 212.933 507.804 210.987 507.332 209.239C506.874 207.451 506.941 205.711 507.535 204.02C508.34 201.725 509.794 200.156 511.899 199.312C514.004 198.467 516.385 198.511 519.042 199.443C519.848 199.726 520.597 200.102 521.292 200.572C522 201.001 522.586 201.523 523.048 202.137C523.326 202.506 523.394 202.892 523.253 203.294L521.044 209.98C520.832 210.584 520.484 210.801 520.001 210.631C519.719 210.533 519.546 210.381 519.482 210.178C519.432 209.934 519.416 209.657 519.434 209.347C519.547 206.448 519.377 204.354 518.925 203.065C518.487 201.735 517.684 200.866 516.517 200.456C515.47 200.089 514.477 200.148 513.538 200.633C512.6 201.117 511.94 201.903 511.558 202.99C511.064 204.399 511.056 205.776 511.534 207.119C512.013 208.462 513.091 210.287 514.768 212.594C516.273 214.75 517.232 216.849 517.645 218.893C518.113 220.911 518.001 222.907 517.309 224.88C516.405 227.456 514.853 229.24 512.651 230.231C510.464 231.182 508.021 231.185 505.324 230.238ZM526.735 237.558C525.723 237.222 524.826 236.676 524.043 235.921C523.26 235.165 522.726 234.201 522.442 233.027C522.158 231.854 522.286 230.457 522.824 228.838L529.856 207.705C530.098 206.976 530.145 206.43 529.997 206.065C529.888 205.715 529.558 205.425 529.004 205.196L528.013 204.731C527.351 204.421 527.095 204.043 527.243 203.598C527.418 203.071 527.89 202.936 528.659 203.192L534.307 205.071C534.914 205.273 535.117 205.678 534.915 206.285L527.378 228.936C526.759 230.799 526.658 232.249 527.077 233.288C527.55 234.3 528.414 235.014 529.669 235.432C530.924 235.849 532.152 235.876 533.352 235.511C534.566 235.105 535.652 234.41 536.609 233.424C537.621 232.412 538.362 231.197 538.834 229.78L544.552 212.594C544.794 211.866 544.841 211.319 544.693 210.955C544.584 210.604 544.254 210.314 543.7 210.085L542.708 209.62C542.047 209.31 541.791 208.933 541.939 208.487C542.114 207.961 542.586 207.826 543.355 208.082L549.003 209.961C549.61 210.163 549.813 210.568 549.611 211.175L541.771 234.737C541.529 235.466 541.461 236.005 541.569 236.356C541.732 236.68 542.083 236.977 542.622 237.246L543.837 237.853C544.35 238.068 544.546 238.358 544.424 238.723C544.303 239.087 543.898 239.222 543.21 239.128C541.901 238.872 540.782 238.859 539.851 239.089C538.96 239.333 538.117 239.704 537.321 240.204C536.836 240.447 536.472 240.528 536.229 240.447C535.864 240.326 535.763 240.023 535.925 239.537L536.854 236.743C536.962 236.419 536.901 236.197 536.672 236.076C536.496 235.927 536.246 235.934 535.923 236.096C533.926 237.096 532.24 237.704 530.864 237.92C529.528 238.151 528.152 238.03 526.735 237.558ZM550.813 259.274C547.721 258.298 545.479 256.897 544.086 255.07C542.681 253.285 542.255 251.517 542.807 249.767C543.039 249.035 543.352 248.396 543.748 247.85C544.132 247.344 544.771 246.808 545.666 246.24C546.601 245.685 547.954 245.016 549.722 244.232C550.352 243.939 550.724 243.609 550.84 243.243C550.968 242.836 550.821 242.454 550.397 242.096C549.124 241.023 548.494 239.974 548.504 238.948C548.528 237.882 549.156 237.096 550.389 236.591L555.978 234.194C556.595 233.941 556.684 233.589 556.245 233.137C554.833 231.797 553.909 230.118 553.472 228.101C553.035 226.084 553.124 224.098 553.741 222.145C554.332 220.274 555.272 218.714 556.561 217.465C557.85 216.217 559.327 215.363 560.993 214.905C562.659 214.446 564.346 214.487 566.055 215.026C567.032 215.334 567.916 215.792 568.708 216.4C569.214 216.784 569.618 216.71 569.919 216.179C570.774 214.748 571.824 213.76 573.07 213.213C574.37 212.639 575.508 212.507 576.484 212.815C577.42 213.11 578.083 213.633 578.473 214.382C578.916 215.104 579.009 215.871 578.753 216.685C578.534 217.377 578.157 217.862 577.622 218.14C577.087 218.419 576.514 218.462 575.904 218.269C575.375 218.102 575.02 217.878 574.84 217.598C574.661 217.317 574.501 217.043 574.362 216.775C574.223 216.508 573.929 216.303 573.482 216.162C572.505 215.854 571.728 216.19 571.15 217.171C570.899 217.539 570.79 217.885 570.822 218.209C570.895 218.545 571.029 218.9 571.224 219.275C571.905 220.519 572.298 221.896 572.403 223.405C572.549 224.928 572.365 226.503 571.851 228.13C571.235 230.083 570.276 231.705 568.974 232.994C567.713 234.296 566.249 235.176 564.583 235.635C562.958 236.106 561.291 236.072 559.582 235.533C558.85 235.301 558.168 235.265 557.536 235.424C556.917 235.542 556.253 235.802 555.545 236.204L554.141 237.037C553.407 237.521 553.045 238.1 553.056 238.774C553.12 239.421 553.6 239.886 554.495 240.168L559.744 241.825C562.673 242.75 564.761 244.214 566.008 246.218C567.267 248.182 567.499 250.425 566.702 252.948C566.073 254.941 564.945 256.531 563.317 257.718C561.69 258.904 559.779 259.643 557.584 259.935C555.43 260.239 553.173 260.019 550.813 259.274ZM560.003 233.988C561.468 234.45 562.878 234.023 564.233 232.705C565.588 231.388 566.696 229.367 567.557 226.641C568.391 223.996 568.612 221.739 568.217 219.869C567.877 217.972 566.994 216.799 565.57 216.349C564.146 215.9 562.73 216.348 561.321 217.693C559.966 219.01 558.87 220.991 558.036 223.635C557.175 226.361 556.922 228.653 557.275 230.509C557.629 232.366 558.538 233.525 560.003 233.988ZM551.969 258.163C553.434 258.625 554.879 258.723 556.306 258.458C557.732 258.192 558.977 257.578 560.041 256.617C561.133 255.709 561.91 254.522 562.372 253.057C562.95 251.226 562.844 249.649 562.054 248.326C561.317 246.975 559.972 245.991 558.019 245.375L556.615 244.932C555.354 244.533 554.359 244.354 553.631 244.392C552.944 244.444 552.219 244.685 551.457 245.115C549.772 246.06 548.638 246.888 548.056 247.599C547.473 248.31 547.047 249.092 546.778 249.947C546.212 251.737 546.367 253.374 547.241 254.858C548.155 256.355 549.731 257.456 551.969 258.163ZM575.547 253.142C573.83 252.626 572.58 251.671 571.796 250.277C571.024 248.843 570.908 247.226 571.449 245.428C571.976 243.671 573.025 242.182 574.595 240.961C576.177 239.699 578.119 238.723 580.42 238.033C582.721 237.343 585.214 236.978 587.899 236.938C588.479 236.934 588.849 236.667 589.009 236.136L590.684 230.558C591.273 228.597 591.384 227.115 591.017 226.114C590.662 225.072 589.953 224.391 588.891 224.072C587.869 223.765 586.788 223.952 585.648 224.634C584.56 225.288 583.507 226.642 582.489 228.697C581.892 229.944 581.154 230.769 580.275 231.173C579.449 231.549 578.689 231.632 577.995 231.424C576.85 231.08 576.45 230.336 576.794 229.192C577.15 228.007 577.827 226.94 578.824 225.993C579.875 225.016 581.093 224.224 582.479 223.616C583.877 222.966 585.315 222.552 586.795 222.373C588.274 222.194 589.668 222.3 590.975 222.693C595.021 223.908 596.338 226.866 594.926 231.565L589.291 250.321C588.776 252.037 588.947 253.024 589.805 253.282C590.336 253.441 590.931 253.241 591.589 252.682C592.26 252.081 592.853 250.923 593.368 249.207C593.565 248.553 593.929 248.306 594.46 248.465C594.95 248.613 595.091 249.034 594.882 249.728C593.986 252.711 592.804 254.717 591.337 255.747C589.922 256.747 588.561 257.051 587.254 256.659C586.273 256.364 585.613 255.743 585.275 254.794C584.948 253.805 584.848 252.728 584.975 251.564C585.057 251.143 584.935 250.883 584.608 250.785C584.334 250.658 583.993 250.756 583.584 251.079C582.198 252.133 580.89 252.853 579.66 253.241C578.43 253.629 577.059 253.596 575.547 253.142ZM578.049 250.819C579.111 251.138 580.202 251.065 581.322 250.6C582.454 250.093 583.497 249.293 584.449 248.198C585.402 247.103 586.118 245.759 586.596 244.165L587.941 239.691C588.174 238.914 587.812 238.561 586.856 238.63C584.093 238.78 581.778 239.443 579.91 240.619C578.095 241.767 576.856 243.444 576.193 245.651C575.346 248.47 575.965 250.193 578.049 250.819ZM610.456 233.082C612.958 230.69 615.398 229.834 617.778 230.514C619.132 230.9 620.02 231.597 620.442 232.605C620.876 233.572 620.952 234.548 620.671 235.533C620.449 236.312 620.062 236.89 619.511 237.265C619.001 237.652 618.336 237.728 617.516 237.494C616.859 237.306 616.408 237.022 616.162 236.641C615.968 236.231 615.827 235.792 615.739 235.323C615.692 234.866 615.587 234.458 615.423 234.101C615.27 233.702 614.907 233.421 614.332 233.257C613.594 233.046 612.768 233.299 611.854 234.014C610.951 234.688 610.063 235.699 609.19 237.047C608.359 238.407 607.673 240.031 607.134 241.918L603.058 256.195C602.812 257.057 602.76 257.708 602.9 258.147C603.082 258.598 603.592 258.988 604.43 259.316L606.039 259.975C606.467 260.186 606.628 260.476 606.523 260.845C606.382 261.338 606.004 261.496 605.389 261.32L594.989 258.351C594.373 258.175 594.13 257.862 594.259 257.41C594.364 257.041 594.701 256.871 595.27 256.9L596.043 256.988C596.952 257.07 597.576 256.982 597.916 256.724C598.308 256.437 598.627 255.862 598.873 255.001L604.777 234.323C604.988 233.584 605.005 233.057 604.829 232.74C604.706 232.395 604.369 232.099 603.818 231.853L602.578 231.299C602.057 231.106 601.855 230.804 601.972 230.394C602.065 230.066 602.458 229.934 603.15 229.998C604.48 230.156 605.538 230.103 606.323 229.839C607.149 229.587 608.026 229.238 608.951 228.792C609.426 228.529 609.786 228.432 610.033 228.502C610.402 228.608 610.516 228.906 610.376 229.399L609.427 232.722C609.345 233.009 609.415 233.229 609.638 233.381C609.873 233.493 610.145 233.393 610.456 233.082ZM619.353 260.785L625.963 236.65C626.233 235.662 625.875 235.033 624.887 234.763L623.468 234.374C622.974 234.239 622.783 233.965 622.896 233.554C623.009 233.142 623.317 232.984 623.823 233.078C625.813 233.402 627.011 232.823 627.417 231.342L627.518 230.971C628.104 228.831 628.959 226.92 630.084 225.237C631.249 223.566 632.587 222.317 634.096 221.492C635.646 220.678 637.306 220.513 639.075 220.998C640.721 221.448 641.97 222.299 642.822 223.55C643.674 224.801 643.919 226.084 643.559 227.401C643.345 228.183 642.976 228.723 642.451 229.022C641.98 229.291 641.414 229.336 640.756 229.155C639.933 228.93 639.41 228.499 639.186 227.863C639.003 227.237 638.899 226.567 638.873 225.853C638.859 225.097 638.761 224.406 638.578 223.781C638.437 223.167 637.975 222.753 637.193 222.539C636.37 222.314 635.582 222.607 634.829 223.418C634.128 224.199 633.429 225.866 632.73 228.417L631.242 233.849C631.107 234.343 631.286 234.657 631.78 234.793L637.089 236.246C637.706 236.415 637.936 236.788 637.778 237.364C637.62 237.94 637.233 238.144 636.615 237.975L631.307 236.521C630.813 236.386 630.499 236.565 630.363 237.059L623.551 261.935C623.314 262.799 623.274 263.43 623.431 263.826C623.629 264.234 624.149 264.598 624.99 264.917L628.177 266.122C628.607 266.328 628.772 266.616 628.67 266.987C628.535 267.48 628.159 267.643 627.541 267.474L614.702 263.957C614.085 263.788 613.838 263.478 613.962 263.025C614.086 262.572 614.421 262.399 614.968 262.504L616.545 262.803C617.431 262.957 618.049 262.883 618.397 262.581C618.798 262.248 619.117 261.65 619.353 260.785ZM646.269 242.911C648.722 240.47 651.145 239.564 653.538 240.196C654.9 240.555 655.801 241.234 656.244 242.233C656.697 243.191 656.793 244.165 656.532 245.155C656.325 245.939 655.95 246.524 655.407 246.91C654.905 247.308 654.242 247.397 653.417 247.18C652.757 247.006 652.3 246.731 652.046 246.355C651.844 245.948 651.695 245.512 651.597 245.045C651.541 244.589 651.427 244.184 651.256 243.83C651.095 243.434 650.726 243.161 650.149 243.008C649.406 242.812 648.585 243.081 647.686 243.815C646.797 244.507 645.93 245.536 645.084 246.901C644.28 248.278 643.628 249.915 643.127 251.812L639.34 266.169C639.112 267.036 639.072 267.687 639.222 268.124C639.412 268.571 639.93 268.951 640.775 269.262L642.397 269.888C642.829 270.09 642.996 270.377 642.898 270.748C642.767 271.243 642.393 271.409 641.774 271.246L631.315 268.487C630.697 268.324 630.447 268.016 630.567 267.562C630.665 267.191 630.998 267.014 631.567 267.031L632.342 267.104C633.252 267.167 633.874 267.066 634.209 266.802C634.596 266.507 634.903 265.926 635.132 265.059L640.616 244.267C640.812 243.524 640.819 242.996 640.637 242.683C640.507 242.34 640.164 242.051 639.608 241.816L638.357 241.288C637.832 241.105 637.624 240.808 637.733 240.395C637.82 240.065 638.209 239.925 638.902 239.975C640.236 240.107 641.292 240.032 642.072 239.753C642.893 239.484 643.762 239.117 644.679 238.653C645.148 238.38 645.506 238.276 645.754 238.341C646.125 238.439 646.245 238.735 646.115 239.23L645.233 242.572C645.157 242.861 645.232 243.079 645.458 243.227C645.694 243.334 645.965 243.228 646.269 242.911ZM661.186 276.818C659.2 276.318 657.588 275.208 656.349 273.488C655.11 271.768 654.317 269.588 653.969 266.949C653.674 264.279 653.927 261.351 654.729 258.165C655.552 254.896 656.752 252.14 658.329 249.897C659.905 247.654 661.698 246.038 663.708 245.048C665.717 244.058 667.735 243.818 669.762 244.329C672.204 244.943 673.914 246.452 674.893 248.854C675.924 251.226 675.871 254.666 674.736 259.176C674.392 260.542 673.703 261.094 672.668 260.834L660.876 257.865C660.049 257.656 659.515 258.028 659.276 258.979C658.171 263.365 657.985 266.816 658.715 269.332C659.445 271.848 660.804 273.356 662.79 273.856C664.362 274.252 665.785 274.016 667.06 273.149C668.334 272.282 669.615 270.602 670.902 268.111C671.141 267.687 671.467 267.527 671.881 267.631C672.377 267.756 672.459 268.217 672.127 269.013C670.538 272.529 668.831 274.849 667.008 275.974C665.196 277.057 663.255 277.339 661.186 276.818ZM661.081 256.266L667.349 257.844C669.335 258.344 670.589 257.56 671.11 255.491C671.787 252.802 671.987 250.608 671.711 248.911C671.434 247.213 670.634 246.198 669.31 245.864C667.696 245.458 666.096 246.045 664.51 247.626C662.966 249.217 661.596 251.688 660.4 255.039C660.151 255.68 660.377 256.089 661.081 256.266ZM683.603 282.286C681.61 281.813 679.982 280.725 678.72 279.022C677.457 277.32 676.634 275.151 676.251 272.517C675.919 269.851 676.132 266.92 676.89 263.723C677.668 260.443 678.83 257.671 680.376 255.407C681.921 253.143 683.692 251.502 685.687 250.484C687.683 249.466 689.698 249.199 691.732 249.682C694.181 250.263 695.912 251.748 696.924 254.136C697.987 256.493 697.982 259.934 696.908 264.46C696.583 265.829 695.902 266.391 694.864 266.145L683.033 263.338C682.202 263.141 681.674 263.52 681.447 264.475C680.403 268.876 680.264 272.329 681.029 274.834C681.794 277.34 683.173 278.829 685.165 279.302C686.743 279.676 688.163 279.421 689.425 278.536C690.687 277.652 691.945 275.955 693.198 273.446C693.431 273.019 693.755 272.854 694.17 272.953C694.668 273.071 694.757 273.53 694.435 274.331C692.894 277.868 691.22 280.212 689.413 281.362C687.615 282.47 685.678 282.778 683.603 282.286ZM683.215 261.737L689.504 263.229C691.497 263.702 692.74 262.901 693.232 260.825C693.872 258.126 694.042 255.93 693.743 254.237C693.443 252.543 692.629 251.539 691.3 251.224C689.681 250.84 688.09 251.449 686.525 253.051C685.003 254.663 683.667 257.152 682.517 260.519C682.277 261.164 682.509 261.57 683.215 261.737ZM718.414 270.454C716.997 270.144 715.904 269.447 715.137 268.362C714.379 267.236 714.163 265.922 714.491 264.422C714.801 263.005 715.535 261.942 716.694 261.235C717.853 260.527 719.141 260.328 720.558 260.637C721.809 260.911 722.834 261.615 723.634 262.75C724.434 263.886 724.68 265.162 724.37 266.58C724.042 268.08 723.278 269.18 722.077 269.878C720.886 270.535 719.665 270.727 718.414 270.454ZM736.741 293.439C736.113 293.316 735.844 293.024 735.934 292.564C736.008 292.187 736.33 291.989 736.899 291.97L737.677 291.992C738.589 291.997 739.203 291.857 739.52 291.571C739.887 291.252 740.157 290.652 740.329 289.773L744.467 268.671C744.614 267.917 744.587 267.39 744.385 267.09C744.234 266.756 743.873 266.489 743.303 266.291L742.021 265.844C741.485 265.695 741.258 265.411 741.34 264.993C741.406 264.658 741.786 264.493 742.48 264.499C743.819 264.544 744.869 264.402 745.629 264.073C746.431 263.752 747.275 263.33 748.16 262.808C748.61 262.505 748.961 262.378 749.213 262.427C749.589 262.501 749.729 262.789 749.63 263.292L749.076 266.118C749.002 266.495 749.078 266.771 749.305 266.946C749.582 267.087 749.92 267.023 750.321 266.753C752.308 265.491 753.987 264.69 755.358 264.35C756.771 264.018 758.189 263.992 759.612 264.271C761.496 264.64 762.872 265.606 763.74 267.167C764.616 268.687 764.804 270.723 764.303 273.278L760.301 293.689C760.129 294.568 760.131 295.221 760.309 295.647C760.536 296.039 761.077 296.385 761.932 296.683L763.276 297.142C763.721 297.316 763.902 297.612 763.819 298.031C763.729 298.492 763.433 298.673 762.93 298.574L752.379 296.505C751.793 296.39 751.545 296.103 751.635 295.642C751.718 295.223 751.997 295.017 752.474 295.024L753.378 295.071C754.282 295.117 754.896 294.977 755.221 294.65C755.588 294.33 755.858 293.731 756.03 292.852L759.897 273.131C760.299 271.079 760.206 269.561 759.616 268.576C759.027 267.591 758.041 266.963 756.659 266.692C755.319 266.429 754.027 266.589 752.783 267.171C751.588 267.719 750.55 268.581 749.667 269.756C748.793 270.889 748.204 272.23 747.9 273.779L744.6 290.611C744.428 291.49 744.43 292.142 744.607 292.569C744.827 293.003 745.368 293.348 746.231 293.604L747.889 294.125C748.333 294.299 748.519 294.574 748.445 294.951C748.346 295.454 747.983 295.643 747.355 295.52L736.741 293.439ZM777.493 301.754C775.35 301.377 773.542 300.323 772.071 298.591C770.649 296.824 769.655 294.592 769.091 291.893C768.526 289.194 768.517 286.29 769.064 283.181C769.611 280.071 770.607 277.365 772.052 275.064C773.497 272.762 775.21 271.027 777.192 269.86C779.173 268.692 781.215 268.293 783.316 268.663C785.459 269.04 787.241 270.112 788.663 271.878C790.127 273.652 791.146 275.868 791.718 278.524C792.29 281.181 792.303 284.064 791.755 287.174C791.208 290.283 790.209 293.01 788.756 295.354C787.346 297.705 785.65 299.464 783.669 300.632C781.694 301.757 779.636 302.132 777.493 301.754ZM777.77 300.179C782.14 300.948 785.205 296.332 786.965 286.331C788.718 276.372 787.409 271.008 783.038 270.239C778.668 269.47 775.607 274.065 773.854 284.024C772.095 294.025 773.4 299.41 777.77 300.179ZM809.388 307.029C807.616 306.767 806.241 306.003 805.264 304.737C804.293 303.429 803.945 301.846 804.22 299.989C804.488 298.174 805.311 296.549 806.688 295.114C808.071 293.636 809.851 292.39 812.029 291.375C814.206 290.361 816.621 289.64 819.272 289.212C819.845 289.125 820.173 288.807 820.254 288.258L821.107 282.497C821.407 280.471 821.302 278.989 820.794 278.051C820.292 277.071 819.493 276.5 818.395 276.337C817.34 276.181 816.298 276.523 815.267 277.362C814.286 278.166 813.44 279.658 812.729 281.839C812.318 283.158 811.707 284.082 810.895 284.608C810.133 285.099 809.393 285.292 808.675 285.186C807.493 285.011 806.99 284.332 807.165 283.15C807.346 281.927 807.862 280.774 808.712 279.692C809.61 278.574 810.701 277.614 811.985 276.812C813.274 275.968 814.638 275.35 816.076 274.959C817.514 274.568 818.909 274.472 820.259 274.672C824.438 275.291 826.168 278.027 825.449 282.881L822.582 302.254C822.319 304.026 822.631 304.978 823.518 305.109C824.066 305.191 824.626 304.907 825.197 304.258C825.773 303.567 826.193 302.335 826.455 300.563C826.555 299.887 826.879 299.59 827.428 299.671C827.935 299.746 828.135 300.143 828.029 300.86C827.573 303.941 826.693 306.097 825.389 307.327C824.134 308.522 822.831 309.019 821.481 308.819C820.468 308.669 819.725 308.15 819.253 307.26C818.787 306.329 818.533 305.277 818.49 304.107C818.511 303.678 818.352 303.439 818.014 303.389C817.725 303.303 817.402 303.449 817.044 303.828C815.825 305.071 814.634 305.973 813.473 306.534C812.312 307.095 810.95 307.261 809.388 307.029ZM811.529 304.37C812.626 304.533 813.695 304.303 814.736 303.68C815.784 303.016 816.7 302.073 817.484 300.852C818.269 299.631 818.783 298.198 819.026 296.552L819.71 291.93C819.829 291.128 819.42 290.83 818.484 291.037C815.772 291.584 813.577 292.575 811.898 294.009C810.268 295.406 809.284 297.245 808.947 299.524C808.516 302.436 809.376 304.052 811.529 304.37ZM841.019 282.098C843.138 279.362 845.425 278.153 847.879 278.472C849.275 278.654 850.257 279.212 850.824 280.146C851.396 281.038 851.617 281.992 851.485 283.007C851.38 283.811 851.083 284.439 850.594 284.892C850.148 285.35 849.501 285.524 848.655 285.414C847.978 285.326 847.489 285.112 847.189 284.772C846.937 284.395 846.733 283.981 846.576 283.531C846.462 283.086 846.297 282.698 846.082 282.369C845.872 281.998 845.471 281.774 844.879 281.697C844.117 281.598 843.337 281.97 842.539 282.812C841.747 283.613 841.019 284.745 840.355 286.207C839.734 287.675 839.297 289.383 839.044 291.329L837.13 306.053C837.015 306.942 837.059 307.593 837.264 308.007C837.51 308.426 838.073 308.736 838.95 308.936L840.639 309.349C841.093 309.494 841.296 309.757 841.246 310.138C841.18 310.645 840.83 310.858 840.195 310.776L829.47 309.381C828.835 309.299 828.548 309.025 828.608 308.56C828.658 308.179 828.966 307.961 829.532 307.905L830.31 307.877C831.221 307.823 831.825 307.644 832.123 307.338C832.469 306.996 832.699 306.381 832.815 305.492L835.587 284.168C835.686 283.406 835.625 282.882 835.404 282.595C835.231 282.271 834.853 282.029 834.272 281.867L832.964 281.503C832.42 281.389 832.175 281.121 832.23 280.698C832.274 280.359 832.642 280.171 833.336 280.132C834.675 280.091 835.713 279.881 836.451 279.504C837.231 279.132 838.045 278.657 838.895 278.079C839.325 277.748 839.667 277.599 839.921 277.632C840.302 277.681 840.459 277.96 840.393 278.468L839.948 281.895C839.909 282.191 840.012 282.398 840.254 282.515C840.503 282.591 840.758 282.452 841.019 282.098ZM857.44 313.435C855.956 313.267 854.784 312.619 853.923 311.492C853.11 310.327 852.838 308.557 853.106 306.183L855.79 282.398C855.848 281.889 855.622 281.606 855.113 281.548L853.269 281.34C852.591 281.264 852.28 280.971 852.338 280.462C852.376 280.123 852.6 279.848 853.011 279.636C854.52 278.819 855.761 277.907 856.733 276.901C857.71 275.852 858.627 274.388 859.483 272.509C859.88 271.653 860.291 271.248 860.715 271.296C861.181 271.349 861.376 271.714 861.299 272.392L860.503 279.452C860.436 280.045 860.699 280.375 861.292 280.442L865.426 280.909C866.105 280.986 866.41 281.321 866.343 281.914C866.276 282.508 865.904 282.766 865.225 282.69L861.091 282.223C860.498 282.156 860.168 282.419 860.101 283.013L857.423 306.734C857.318 307.667 857.382 308.426 857.617 309.01C857.856 309.553 858.379 309.869 859.184 309.96C860.075 310.061 860.846 309.697 861.497 308.869C862.191 308.046 862.736 306.647 863.13 304.674C863.282 304.09 863.591 303.824 864.057 303.877C864.566 303.934 864.785 304.281 864.713 304.917C864.217 308.167 863.273 310.443 861.881 311.746C860.531 313.054 859.051 313.616 857.44 313.435ZM875.971 275.867C875.08 275.78 874.346 275.388 873.771 274.689C873.238 273.994 873.019 273.159 873.113 272.182C873.208 271.205 873.581 270.448 874.233 269.911C874.932 269.336 875.727 269.091 876.619 269.178C877.511 269.264 878.223 269.655 878.756 270.349C879.293 271.001 879.514 271.816 879.42 272.793C879.325 273.769 878.95 274.548 878.293 275.127C877.637 275.706 876.863 275.953 875.971 275.867ZM866.887 313.888C866.25 313.826 865.954 313.562 865.999 313.094C866.036 312.712 866.337 312.484 866.902 312.41L867.678 312.357C868.756 312.29 869.461 312.101 869.791 311.79C870.125 311.437 870.335 310.814 870.422 309.922L872.495 288.518C872.569 287.754 872.491 287.232 872.261 286.952C872.078 286.635 871.693 286.404 871.106 286.262L869.787 285.941C869.239 285.845 868.986 285.585 869.027 285.16C869.06 284.821 869.422 284.62 870.114 284.558C871.451 284.473 872.546 284.237 873.398 283.848C874.25 283.459 875.091 282.961 875.921 282.356C876.341 282.011 876.678 281.851 876.932 281.875C877.315 281.912 877.481 282.186 877.432 282.695L874.754 310.342C874.667 311.234 874.733 311.883 874.951 312.29C875.168 312.697 875.634 312.978 876.348 313.132L877.922 313.478C878.381 313.608 878.592 313.864 878.555 314.246C878.505 314.756 878.162 314.98 877.525 314.918L866.887 313.888ZM881.527 315.253C880.889 315.207 880.586 314.951 880.62 314.482C880.653 314.014 880.948 313.779 881.504 313.776L882.79 313.739C883.86 313.73 884.558 313.545 884.883 313.183C885.212 312.779 885.408 312.13 885.471 311.236L887.254 286.275C887.327 285.254 886.852 284.707 885.831 284.634L884.363 284.529C883.852 284.493 883.612 284.261 883.642 283.836C883.673 283.41 883.945 283.194 884.458 283.188C886.474 283.118 887.536 282.317 887.646 280.785L887.673 280.402C887.831 278.189 888.404 276.156 889.392 274.301C890.422 272.45 891.853 270.991 893.683 269.924C895.513 268.857 897.704 268.414 900.258 268.597C902.854 268.782 904.903 269.442 906.404 270.575C907.906 271.709 908.608 272.957 908.511 274.319C908.453 275.128 908.194 275.772 907.731 276.252C907.315 276.693 906.66 276.882 905.766 276.818C904.873 276.754 904.234 276.409 903.851 275.783C903.468 275.157 903.112 274.447 902.784 273.653C902.501 272.82 902.083 272.085 901.53 271.446C900.977 270.808 900.083 270.445 898.849 270.357C897.785 270.281 896.768 270.443 895.798 270.845C894.871 271.249 894.067 272.026 893.386 273.175C892.748 274.327 892.351 275.988 892.196 278.159L891.886 282.5C891.85 283.01 892.087 283.284 892.598 283.32L906.131 284.287C907.153 284.36 907.627 284.907 907.554 285.928L905.644 312.676C905.58 313.57 905.662 314.217 905.89 314.619C906.118 315.02 906.591 315.289 907.308 315.426L908.891 315.731C909.353 315.85 909.57 316.1 909.543 316.484C909.506 316.994 909.169 317.227 908.53 317.181L897.87 316.42C897.231 316.374 896.929 316.118 896.962 315.649C896.99 315.266 897.284 315.031 897.847 314.943L898.622 314.87C899.698 314.775 900.397 314.569 900.719 314.249C901.045 313.888 901.239 313.26 901.303 312.366L903.131 286.767C903.173 286.172 902.897 285.852 902.301 285.81L892.47 285.108C891.959 285.071 891.686 285.309 891.649 285.819L889.812 311.546C889.749 312.439 889.831 313.087 890.059 313.488C890.287 313.889 890.759 314.158 891.477 314.295L893.059 314.601C893.521 314.719 893.738 314.97 893.711 315.353C893.675 315.864 893.337 316.096 892.699 316.051L881.527 315.253ZM922.501 318.315C920.625 318.25 918.941 317.573 917.448 316.283C916 314.953 914.868 313.099 914.054 310.723C913.239 308.347 912.887 305.539 912.999 302.298C913.124 298.673 913.766 295.536 914.924 292.887C916.125 290.238 917.689 288.222 919.615 286.837C921.543 285.409 923.658 284.734 925.96 284.814C927.922 284.881 929.444 285.318 930.526 286.124C930.942 286.437 931.139 286.913 931.117 287.553L930.976 295.361C930.954 296 930.688 296.311 930.176 296.294C929.707 296.277 929.418 295.99 929.309 295.431C928.793 293.065 928.28 291.233 927.769 289.935C927.259 288.637 926.713 287.743 926.133 287.253C925.553 286.721 924.901 286.442 924.176 286.417C923.323 286.388 922.411 286.847 921.439 287.796C920.51 288.746 919.687 290.318 918.971 292.514C918.299 294.668 917.902 297.536 917.778 301.118C917.621 305.68 918.079 309.133 919.151 311.475C920.266 313.819 921.761 315.023 923.637 315.088C925.13 315.139 926.388 314.563 927.411 313.361C928.477 312.159 929.428 309.951 930.265 306.735C930.409 306.27 930.673 306.044 931.056 306.058C931.568 306.075 931.745 306.508 931.588 307.357C931.016 310.326 930.275 312.627 929.365 314.26C928.499 315.853 927.479 316.949 926.306 317.549C925.177 318.108 923.909 318.363 922.501 318.315ZM941.303 318.629C939.511 318.641 938.035 318.095 936.876 316.993C935.717 315.849 935.131 314.338 935.12 312.46C935.108 310.626 935.673 308.894 936.815 307.266C937.956 305.594 939.526 304.091 941.523 302.756C943.52 301.421 945.795 300.339 948.35 299.513C948.904 299.339 949.179 298.974 949.175 298.419L949.139 292.596C949.126 290.548 948.797 289.099 948.151 288.25C947.506 287.358 946.628 286.915 945.519 286.922C944.452 286.929 943.474 287.426 942.584 288.413C941.737 289.357 941.128 290.961 940.758 293.224C940.554 294.591 940.091 295.597 939.369 296.241C938.691 296.843 937.988 297.146 937.263 297.151C936.068 297.158 935.467 296.565 935.46 295.37C935.452 294.133 935.786 292.914 936.461 291.715C937.178 290.474 938.11 289.358 939.256 288.37C940.401 287.339 941.655 286.52 943.016 285.914C944.378 285.308 945.741 285.001 947.107 284.992C951.331 284.966 953.458 287.406 953.489 292.312L953.612 311.896C953.624 313.688 954.077 314.581 954.973 314.575C955.528 314.572 956.038 314.206 956.502 313.478C956.967 312.707 957.194 311.425 957.182 309.633C957.178 308.951 957.453 308.607 958.008 308.604C958.52 308.601 958.778 308.962 958.783 309.687C958.802 312.802 958.262 315.067 957.161 316.481C956.103 317.854 954.892 318.544 953.526 318.552C952.502 318.559 951.689 318.159 951.087 317.352C950.484 316.502 950.072 315.502 949.852 314.352C949.806 313.925 949.613 313.713 949.272 313.715C948.973 313.674 948.675 313.868 948.379 314.297C947.364 315.711 946.326 316.784 945.264 317.517C944.202 318.249 942.881 318.62 941.303 318.629ZM943.012 315.675C944.121 315.668 945.143 315.277 946.077 314.503C947.01 313.687 947.771 312.615 948.36 311.289C948.949 309.962 949.239 308.467 949.228 306.803L949.199 302.131C949.194 301.321 948.744 301.089 947.85 301.436C945.254 302.391 943.235 303.705 941.795 305.378C940.397 307.008 939.706 308.975 939.72 311.279C939.739 314.223 940.836 315.688 943.012 315.675ZM961.582 317.835C961.071 317.864 960.803 317.644 960.777 317.175C960.753 316.749 960.973 316.48 961.437 316.369L962.325 316.192C963.212 316.015 963.859 315.723 964.263 315.316C964.668 314.909 964.846 314.258 964.796 313.363L962.772 276.747C962.73 275.98 962.572 275.455 962.3 275.171C962.071 274.884 961.657 274.736 961.058 274.727L959.578 274.616C959.104 274.557 958.856 274.314 958.832 273.888C958.809 273.462 959.029 273.194 959.493 273.083C960.671 272.761 961.677 272.406 962.511 272.018C963.344 271.63 964.028 271.251 964.563 270.879C965.221 270.416 965.72 270.174 966.061 270.156C966.53 270.13 966.783 270.457 966.821 271.139L969.142 313.123C969.191 314.018 969.354 314.65 969.631 315.019C969.948 315.343 970.558 315.545 971.459 315.623L972.94 315.733C973.413 315.793 973.661 316.035 973.685 316.461C973.711 316.93 973.468 317.178 972.957 317.207L961.582 317.835Z" fill="white"/>
</g>
<defs>
<clipPath id="clip0_64_7">
<rect width="642" height="1437" fill="white" transform="translate(371.924) rotate(15)"/>
</clipPath>
</defs>
</svg>
