<svg width="370" height="470" viewBox="0 0 370 470" fill="none" xmlns="http://www.w3.org/2000/svg">
<g clip-path="url(#clip0_51_33)">
<path d="M45.8058 309.202C46.4078 309.22 46.2319 309.215 46.8243 309.417C48.0821 310.927 48.1575 314.64 48.7013 316.907C49.1618 318.767 49.7253 320.6 50.3897 322.397C56.1578 338.45 68.4111 361.172 83.6573 370.395C88.4983 373.324 94.7356 373.457 98.919 375.46L99.2755 375.63C98.1622 375.925 96.8478 376.045 95.6915 376.192C95.1236 376.115 93.8523 375.857 93.3185 375.702C89.0679 374.47 81.917 372.937 78.2081 370.707C72.8836 367.507 65.3582 357.602 61.5489 352.319C58.709 347.819 55.9776 343.179 53.2394 338.622C50.9314 334.78 48.7242 330.845 46.9015 326.747C44.928 322.312 42.1556 316.677 43.0597 311.705C43.2999 310.385 44.7593 309.737 45.8058 309.202Z" fill="#4D2504"/>
<path d="M76.3888 325.478C78.6101 325.811 82.9075 332.308 84.5265 334.19C86.2584 336.205 88.0892 338.155 89.9063 340.095C93.763 344.217 96.9706 348.65 101.779 351.715C102.229 352.68 102.444 352.965 102.499 353.997L102.148 354.345L101.45 354.263C95.4343 351.583 87.6118 343.59 82.9181 338.702C81.1318 336.844 74.2525 329.295 74.3272 327.027C74.8337 326.193 75.5151 325.955 76.3888 325.478Z" fill="#4D2504"/>
<path d="M250.484 290.725C251.129 290.862 251.387 290.965 251.739 291.552C252.574 292.934 254.847 311.617 254.93 314.657C254.975 316.307 254.831 317.902 254.321 319.482C253.164 323.07 251.799 326.488 250.986 330.192C250.019 334.607 249.757 339.762 248.162 343.947L248.008 344.357C247.895 344.649 247.762 344.971 247.609 345.292C247.457 345.613 247.285 345.932 247.093 346.218C246.997 346.361 246.897 346.496 246.791 346.618C246.686 346.74 246.576 346.849 246.461 346.942C246.404 346.989 246.345 347.032 246.285 347.07C246.225 347.108 246.164 347.142 246.102 347.17C246.083 347.157 246.065 347.142 246.047 347.126C245.994 347.078 245.946 347.019 245.903 346.947C245.847 346.852 245.799 346.736 245.76 346.603C245.602 346.069 245.574 345.255 245.623 344.334C245.648 343.873 245.692 343.386 245.747 342.895C245.858 341.912 246.018 340.911 246.17 340.066C246.322 339.222 246.466 338.535 246.549 338.18L246.628 337.426C247.526 329.608 250.891 320.96 251.645 313.217C252.027 309.301 244.505 293.09 250.484 290.725Z" fill="#4D2504"/>
<path d="M232.838 320.255C233.675 322.377 234.538 326.648 232.195 328.073C229.513 325.146 229.009 322.283 232.211 319.695L232.838 320.255Z" fill="#4D2504"/>
<path fill-rule="evenodd" clip-rule="evenodd" d="M262.055 202.339C262.767 202.236 263.297 202.202 264.02 202.322C264.66 202.416 265.472 202.714 265.755 203.361C266.427 204.897 264.775 207.413 263.622 208.224C261.405 209.786 259.097 210.916 256.887 212.517C253.402 215.042 250.307 218.024 246.667 220.306C244.04 221.905 240.56 223.178 237.747 224.63C234.06 226.534 230.877 229.02 227.145 230.79C224.127 232.22 220.717 233.191 217.662 234.498C215.727 235.276 213.3 237.331 211.305 237.858C201.592 240.426 192.779 244.045 183.579 247.933C180.379 249.285 175.444 250.228 171.951 251.33C165.172 253.468 158.181 255.408 151.202 256.748C139.069 258.896 126.787 260.275 114.528 261.473C110.579 261.858 106.494 263.173 102.349 263.535C97.3624 263.968 93.0103 263.131 88.1017 263.028C84.8377 262.958 81.1815 263.653 77.836 263.418C74.0848 263.153 69.8989 262.018 66.172 262.396C66.172 262.396 55.1332 262.188 52.3888 262.19C48.6569 262.193 45.5856 262.401 41.9425 261.341C38.2316 260.118 32.909 257.848 38.461 252.573C39.7287 251.371 45.5774 253.14 47.5001 253.695C51.5511 251.24 59.2964 244.093 63.1739 240.811C69.9654 235.063 76.8217 234.053 84.6954 230.415C88.0807 228.852 91.3165 227.31 94.7872 225.931C99.9766 223.869 105.212 222.489 110.495 220.776C114.396 219.509 118.194 217.836 122.2 216.895C136.372 213.564 150.892 210.777 165.355 209.101C171.444 208.395 177.76 208.663 183.867 208.381C187.362 208.22 190.78 207.781 194.265 207.671C196.835 207.633 199.952 208.25 202.55 208.367C207.175 208.576 211.827 208.801 216.452 209.017C226.175 209.469 236.28 209.325 245.952 210.173C250.912 204.836 254.73 203.456 262.055 202.339ZM204.777 220.635C202.15 220.617 198.492 220.043 195.922 220.353C187.045 221.192 178.227 222.476 169.355 223.329C163.052 223.935 156.558 223.922 150.345 225.172C143.407 226.567 136.298 230.008 128.879 231.613C122.932 232.898 116.41 232.851 110.664 234.771C105.496 236.498 101.284 240.223 96.1817 242.018C93.2371 243.053 89.9884 242.958 87.0968 243.993C86.1212 244.341 73.9805 251.772 73.4405 252.478C73.0708 252.963 72.754 253.493 72.4415 254.016C80.0212 254.271 87.6034 254.453 95.1866 254.558C101.818 254.718 106.259 253.218 112.499 252.723C130.049 251.333 146.636 247.093 163.809 243.506C170.692 242.071 175.187 240.045 181.664 237.378L201.162 229.4C204.99 227.833 216.035 223.572 219.02 221.668C213.682 220.703 210.215 220.672 204.777 220.635Z" fill="#4D2504"/>
<path fill-rule="evenodd" clip-rule="evenodd" d="M212.675 173.36C217.398 172.864 231.227 175.531 236.22 176.287C239.51 176.795 244.52 176.255 247.58 177.151C256.498 179.763 265.75 180.83 274.452 184.308C283.2 187.803 286.255 198.015 289.27 206.059C293.59 203.167 298.83 201.068 303.162 198.224C306.257 196.19 309.257 192.888 312.43 190.907C313.617 190.163 314.902 189.586 316.247 189.193C326.365 186.194 329.168 186.564 339.148 189.25C350.772 192.38 351.27 195.506 356.172 205.952C358.174 210.221 362.6 214.593 363.73 219.599C365.822 227.106 366.14 235.425 367.297 243.024C368.729 252.417 370.825 260.175 369.46 269.817C369.178 271.812 369.897 275.477 369.742 277.752C369.295 281.342 369.175 288.537 367.712 291.805C365.455 296.847 361.985 307.458 358.117 311.075C354.94 314.048 347.978 319.85 344.228 321.335C336.225 324.505 328.845 328.72 320.502 330.72C312.072 332.667 303.757 332.052 295.569 335.305C293.355 336.184 291.31 332.11 287.862 333.029C287.422 333.467 287.1 334.595 287.087 335.185C286.977 340.34 285.624 343.047 283.677 347.595C279.867 356.587 274.327 364.977 269.005 373.154C266.085 377.642 262.347 378.52 260.6 384.692L260.635 384.825C261.57 388.493 263.965 391.925 264.9 395.33C266.272 400.318 266.895 409.075 264.33 413.75C259.725 422.14 251.588 430.87 243.273 435.688C241.785 436.725 237.125 437.459 235.895 438.462C230.32 443.007 224.692 444.82 217.975 447.072C216.215 447.662 213.937 449.643 211.984 450.29C208.792 451.352 205.397 451.158 202.135 451.928C199.33 452.675 196.472 453.807 193.63 454.585L168.121 461.553C163.891 462.055 159.856 464.337 155.606 465.297C144.639 467.774 133.225 468.617 122.041 469.607C119.994 469.787 116.177 469.293 114.067 468.99C105.705 467.795 96.9711 466.162 91.8419 458.74C90.9094 457.405 88.9156 455.832 87.9161 454.319C83.7367 447.994 82.664 439.499 83.4845 432.087C84.0248 427.877 87.0341 425.757 90.1085 423.505C86.1902 417.857 80.5553 416.677 75.6778 412.902C69.3416 408 62.931 402.325 56.9483 396.982C54.9997 395.058 51.501 393.612 49.6212 391.79C42.7594 385.138 35.1859 378.269 30.3536 369.962C28.2155 366.285 27.1037 362.817 25.4737 359.005C24.2005 356.025 22.1865 353.514 21.0353 350.479C18.7903 344.347 17.1955 337.922 15.1476 331.72C13.8286 326.92 10.1617 321.977 9.01768 317.22C7.24995 309.867 6.61392 301.927 4.58799 294.518C4.16374 292.968 4.22158 288.707 4.08408 286.895C3.38309 277.657 2.72947 267.904 5.2042 258.877C2.88407 256.312 0.113721 252.145 0.0977556 248.66C0.0545061 238.928 14.1463 233.055 21.0196 229.24C29.3011 224.642 36.6071 220.09 44.9161 216.218C56.6208 210.764 68.3261 206.773 80.5587 202.861C87.2558 200.766 93.5211 198.821 99.794 195.533C101.979 194.388 104.008 193.049 106.273 192.074C112.599 189.838 119.253 188.322 125.664 186.32C130.189 184.997 134.476 182.775 139.105 181.819C143.592 180.893 148.35 180.756 152.841 179.908C156.605 179.197 160.372 178.147 164.141 177.367C170.613 176.034 177.17 175.152 183.765 174.728C191.04 174.274 197.843 176.031 205.108 174.295C207.27 173.778 210.475 173.499 212.675 173.36ZM146.531 431.192C146.307 430.477 142.811 430.847 142.188 430.895C135.856 431.202 130.973 431.905 124.557 431.688C120.043 437.297 116.727 442.217 121.481 449.3C125.639 451.36 128.593 449.829 131.739 450.899C132.511 452.019 132.806 452.95 133.086 454.29C139.225 454.288 145.39 454.457 151.449 453.438C150.657 452.045 148.748 449.037 148.469 447.617C147.43 442.327 148.152 436.34 146.531 431.192ZM263.534 192.083C255.584 188.172 238.373 184.96 229.563 185.604C225.038 185.973 220.5 186.498 215.97 186.775C210.96 187.083 205.915 187.128 200.938 187.814C197.973 188.224 195.062 188.96 192.112 189.462C189.395 189.925 186.64 190.176 183.935 190.724C180.78 191.362 177.674 192.246 174.498 192.779C168.364 193.808 162.084 194.294 156.009 195.62C153.163 196.242 150.415 197.168 147.591 197.86C144.425 198.637 141.13 199.119 138.03 200.13C134.707 201.214 131.552 202.768 128.228 203.853C125.291 204.81 122.269 205.5 119.314 206.399C116.692 207.197 114.163 208.263 111.57 209.145C109.625 209.806 107.615 210.273 105.675 210.949C102.779 211.958 99.9953 213.302 97.1241 214.383C93.9698 215.57 90.6842 216.316 87.5099 217.426C85.1709 218.244 82.936 219.369 80.5851 220.144C74.7231 222.076 68.2533 221.583 62.3126 223.262C59.3273 224.106 56.5426 225.66 53.6495 226.779C48.617 228.726 43.3923 230.363 38.4601 232.535C34.4379 234.308 13.5421 244.407 11.5812 246.777C10.424 248.177 9.79614 250.28 9.32041 252.015C11.8622 254.927 17.9427 259.908 17.3907 263.848C16.8677 267.462 15.589 270.58 15.506 274.282C15.3602 280.76 17.1508 286.765 17.9698 293.075C19.2486 302.925 20.5504 312.805 23.3565 322.372C24.204 325.262 25.61 328.137 26.6095 330.987C28.0075 334.975 29.2101 339.023 30.7306 342.96C34.0806 350.897 39.4959 360.409 44.8858 367.172C49.9716 373.552 55.4138 380.135 60.7315 386.33C63.0001 388.975 66.8006 392.075 69.3438 394.747C70.9231 396.407 73.8323 400.938 75.1358 402.098C80.9126 407.243 88.466 412.797 95.3175 416.399C97.2406 417.412 99.9709 418.957 101.929 419.515C106.388 420.785 110.579 420.772 114.667 423.265C113.647 424.345 112.905 425.195 111.686 426.075C107.355 427.188 102.179 426.305 99.3849 430.803C96.5626 435.343 97.6938 440.285 98.0978 445.13C98.4757 449.662 109.983 455.005 112.373 452.71C112.674 450.405 111.308 447.99 110.983 445.745C110.109 439.685 113.382 433.06 118.042 429.438C116.809 425.892 115.2 423.875 119.166 421.97C122.378 423.187 125.326 424.117 128.778 424.282C149.283 425.26 200.405 409.992 219.817 401.215C226.607 398.145 233.08 389.822 240.14 388.444C241.17 388.242 242.337 388.372 243.382 388.425C246.494 384.65 248.695 382.959 252.282 379.792C253.75 378.497 256.098 375.55 257.335 373.95C261.633 368.4 266.189 361.265 269.007 354.84C271.262 349.7 273.137 343.14 275.109 337.79C276.557 333.86 278.38 329.133 279.018 325.08C280.14 317.925 279.465 311.332 279.282 304.197C279.167 299.64 279.912 294.442 279.449 289.837C279.024 285.635 277.717 281.51 277.595 277.25C277.475 273.13 278.632 268.32 278.23 264.27C277.905 261.025 277.242 257.282 276.734 254.002C276.182 250.442 276.029 247.717 275.757 244.202C275.452 240.257 276.61 237.062 276.34 233.45C276.237 232.098 273.742 229.387 272.965 227.476C273.007 227.393 273.049 227.309 273.092 227.227C273.879 225.747 274.952 224.444 276.002 223.144C281.722 216.047 282.07 215.274 279.478 206.372C278.01 201.336 275.182 198.951 270.742 196.517C268.287 195.17 266.007 193.299 263.534 192.083ZM186.675 424.314C182.41 425.202 178.404 426.45 174.142 427.388C169.481 428.415 160.66 428.789 156.469 430.109C155.619 432.342 154.343 435.892 155.674 437.982C157.923 441.515 160.159 444.115 162.142 447.922C162.631 448.929 163.136 450.028 163.654 451.013C167.607 449.958 187.623 446.85 189.15 445.022C190.842 442.99 189.367 430.742 188.645 428.01C188.337 426.84 187.922 425.342 187.157 424.402L186.675 424.314ZM223.002 411.825C219.256 412.825 200.309 418.417 199.159 421.032C198.677 422.127 199.407 425.222 199.574 426.462C200.259 431.527 200.12 436.407 200.48 441.46C201.507 441.205 202.822 440.92 203.81 440.615C208.94 439.325 216.652 437.08 220.81 433.827C223.567 425.11 225.265 424.332 229.148 417.205L228.965 413.973C227.92 413.603 223.69 411.94 223.002 411.825ZM252.362 393.465C249.747 394.925 245.203 399.483 242.545 401.473C240.323 403.138 237.493 404.42 235.853 406.342C236.8 411.549 237.112 419.809 238.404 424.172L238.855 424.63C245.402 424.062 257.727 398.725 252.362 393.465ZM328.957 197.598C320.655 198.492 314.707 202.409 307.497 206.335C301.15 209.791 294.91 213.852 291.023 220.127C289.133 223.197 289.317 226.637 289.234 230.082C289.199 231.695 288.862 233.198 289.122 234.825C291.755 235.81 296.53 229.444 299.037 227.962C301.927 226.255 304.802 225.727 308.242 225.604C310.98 225.505 321.837 225.677 324.1 226.501C327.33 227.676 334.555 234.47 336.125 237.83C339.285 244.552 339.568 251.74 340.268 258.987C340.593 262.337 341.592 264.995 341.407 268.694C340.77 281.554 332.2 295.715 320.747 301.742C316.922 303.755 311.865 304.447 307.755 305.729C304.56 306.627 301.36 307.818 298.242 308.91C296.202 309.483 292.474 310.387 290.65 311.052C289.947 313.894 289.868 316.742 290.045 319.617C290.19 321.99 289.645 326.634 293.02 326.302C296.18 325.989 299.1 325.169 302.25 324.837C306.5 324.25 309.605 324.597 313.699 324.427C314.684 324.379 315.665 324.25 316.627 324.037C320.057 323.257 323.372 321.083 326.637 319.915C332.967 317.65 344.524 314.794 349.047 309.729C360.107 297.345 361.453 280.905 359.96 265.09C359.63 261.597 359.962 258.197 359.725 254.712C359.307 249.669 355.382 233.237 352.68 229.649C351.247 230.239 349.835 230.887 348.452 231.587C349.795 229.97 351.007 228.754 352.497 227.26C350.742 219.421 348.257 218.003 344.452 211.335C341.475 206.113 340.997 202.816 334.822 199.546C332.602 198.371 331.807 197.418 328.957 197.598ZM323.805 234.85C319.427 233.482 315.852 233.907 311.284 234.06C302.347 235.625 297.572 240.175 292.404 247.535C291.287 249.12 290.195 250.722 289.125 252.337C289.798 257.667 289.945 263.412 290.265 268.797C290.587 274.202 291.35 279.997 291.367 285.367C291.387 291.047 290.985 295.35 291.59 301.103C296.667 299.855 300.312 298.852 305.182 296.592C313.944 292.339 317.47 289.613 323.393 281.91C325.4 279.295 327.875 276.79 328.895 273.232C330.672 267.042 332.837 254.355 330.04 248.237C329.525 247.11 328.53 245.45 327.96 244.107C326.59 240.88 326.377 237.265 323.805 234.85Z" fill="#4D2504"/>
<path fill-rule="evenodd" clip-rule="evenodd" d="M62.1456 50.1182C64.0169 50.1012 70.5113 49.7467 71.8995 50.4707C74.6989 51.9309 81.1706 56.0144 83.6144 57.9248C85.1004 59.0868 88.3935 65.3037 88.4298 67.084C88.5213 71.5914 88.4626 76.6393 88.6446 81.25C88.7667 83.1574 84.6266 87.2924 83.4981 89.2686C80.6807 94.203 78.1092 98.6168 76.3302 104.099C68.6 103.522 67.5353 104.35 64.6085 96.8369C64.0785 95.6584 63.2527 94.2772 62.1632 93.5234C56.6542 89.7116 48.0803 89.8827 43.9708 95.4629C37.4629 104.35 41.115 112.341 44.0997 121.425C47.1629 130.748 50.4003 136.816 55.9894 144.828C58.011 147.726 59.851 151.729 61.7257 154.841C63.8207 158.318 65.8303 162.189 67.5763 165.848C71.1029 173.602 71.9394 182.082 72.9679 190.439C73.5238 197.683 72.4884 198.62 65.5753 197.598C64.2708 194.174 63.6938 191.127 61.6593 187.791C56.8413 179.891 50.3811 173.157 43.7657 166.773C39.6757 162.827 36.2674 158.627 31.7081 155.045C30.361 153.986 27.7144 150.027 26.4425 148.486C22.2947 143.463 17.7479 137.652 14.6339 131.921C13.4942 129.823 12.2355 125.028 11.1583 122.641C8.5583 116.878 7.18776 112.905 6.74326 106.614C5.93421 95.1625 12.1958 86.1729 18.8897 77.5293C20.2637 75.755 23.28 71.662 24.754 70.1553C31.6045 63.152 40.3555 54.2454 49.879 51.2246C52.174 50.4967 59.4771 50.2529 62.1456 50.1182ZM78.503 62.4121C72.7381 57.1082 61.8515 55.4904 54.3692 56.3408C53.5042 56.4281 51.3607 56.6189 50.6534 56.9639C45.6878 59.3874 39.0475 64.7235 35.5665 68.9102C34.571 70.1077 30.8376 74.8091 30.2394 75.7656C28.186 79.0482 23.0598 90.2622 22.6808 93.7344C22.1693 98.4178 22.7484 108.782 23.2481 113.717C24.1084 121.592 25.0869 128.987 28.8106 136.134C30.0826 138.575 30.8581 140.854 32.4591 143.286C34.8026 146.847 37.9348 149.988 39.8663 153.761C41.902 157.737 45.3077 159.379 48.3526 162.347C50.7919 164.845 52.8139 168.367 55.2921 170.891C56.8078 172.503 59.4731 173.636 61.0519 175.121C62.2668 176.264 63.6019 181.201 65.0948 181.683C68.2193 178.809 60.0883 164.331 58.2716 161.329C56.4671 158.029 54.372 153.657 52.3165 150.61C48.6876 145.232 45.5722 140.876 42.9737 134.829C41.8646 132.248 38.5294 128.976 37.255 126.305C34.045 119.486 31.3752 110.62 33.2667 103.089C34.0567 99.9426 36.1443 97.967 37.2071 95.5244C39.9394 89.2439 42.2675 86.4057 48.4112 83.0752C52.5212 80.8472 56.8831 79.6423 61.545 81.3828C64.3883 82.3798 68.8843 83.812 71.129 86.0752C72.0126 86.9663 72.8983 88.5968 74.0616 89.7842C74.6624 89.2192 76.3643 87.6314 76.7667 86.9902C79.1502 83.0175 82.08 77.3309 82.4298 72.7119C82.6693 69.5507 80.7703 64.4984 78.503 62.4121Z" fill="#4D2504"/>
<path fill-rule="evenodd" clip-rule="evenodd" d="M128.149 0.361328C132.451 0.674175 140.607 7.32653 143.577 10.4658C145.181 12.1598 146.63 14.0983 148.263 15.8428C150.251 17.9673 153.245 19.6029 154.6 22.2852C156.285 26.3766 158.32 31.5638 159.261 35.8857C159.838 38.5387 159.855 41.6895 160.29 44.4082C160.998 48.8312 161.925 53.1789 162.24 57.6299C162.35 61.1896 161.188 67.1724 160.616 70.8574C159.559 75.7771 160.024 82.1838 158.4 86.9199C155.581 95.1447 151.213 102.555 148.963 111.129C148.1 114.415 145.958 118.319 144.919 121.705C143.667 125.785 140.592 129.664 139.564 133.909C136.48 145.664 132.854 157.975 139.17 169.35C138.59 171.82 137.79 175.063 135.067 175.896C134.15 175.84 133.842 175.687 133.065 175.215C121.928 168.45 121.717 164.765 118.802 152.562C116.501 142.486 118.455 137.584 120.18 127.636C120.988 124.567 120.615 119.9 121.538 117.069C124.323 108.529 126.42 101.343 127.034 92.292C127.301 88.3683 129.641 82.9685 130.125 78.7393C130.98 71.2795 130.942 62.768 129.471 55.375C126.414 43.1929 124.123 45.8588 115.931 40.9453L115.545 40.7109C113.687 41.0337 109.394 42.1498 108.047 43.2412C104.206 46.3526 108.589 58.1028 108.134 61.1875C107.594 62.1659 106.786 62.5285 105.82 63.1475C98.1801 59.6533 95.2665 48.4897 94.6007 40.8672C94.1242 35.4129 94.8411 32.0535 96.2208 26.8623C96.7206 24.9821 96.1931 21.8439 97.1466 19.9121C98.9075 16.3766 101.215 12.94 103.585 9.78613C108.523 3.63076 120.643 0.908749 128.149 0.361328ZM124.197 13.8223C118.068 14.8085 116.635 17.4234 111.925 20.9102C110.091 22.2677 107.361 22.4132 105.621 24.8975C103.498 27.928 101.415 33.5485 101.223 37.251C101.246 37.338 101.268 37.4254 101.291 37.5127C103.516 38.3477 107.207 34.1673 108.793 33.123C111.437 31.3826 115.75 29.6988 118.764 28.7988C125.133 31.3878 131.13 40.3407 134.409 46.2988C135.265 47.854 135.849 50.9737 136.63 52.7246C139.092 57.8572 138.45 61.7876 138.55 67.0498C138.683 74.0725 138.158 78.6163 136.104 85.3623C134.714 89.9245 133.936 95.2838 132.466 99.8945C129.477 109.42 126.23 118.027 125.812 128.122C125.661 131.759 125.179 134.167 125.541 138.006C125.883 139.87 126.119 141.752 126.248 143.643C126.452 146.671 126.069 152.775 127.67 155.119C128.395 155.302 128.028 155.309 128.799 154.972C129.738 153.583 129.202 150.809 129.216 149.099C129.247 145.752 129.763 142.428 130.747 139.229C132.529 133.32 135.359 127.225 137.466 121.358C139.233 116.439 140.479 111.43 142.177 106.552C143.699 102.178 145.715 98.3899 146.951 93.7402C148.232 88.9196 148.551 84.5988 149.44 79.6836C150.017 76.4867 151.986 71.7883 152.382 68.6709C153.672 58.5041 151.654 46.3351 150.479 36.2158C150.049 32.5188 145.169 20.5593 142.234 18.9512C138.752 17.0449 128.275 13.532 124.197 13.8223Z" fill="#4D2504"/>
<path fill-rule="evenodd" clip-rule="evenodd" d="M220.603 28.8408C226.835 27.9381 233.822 30.662 238.47 34.6572C241.91 37.6152 245.578 39.8307 246.013 44.875C246.643 52.1913 244.223 59.5751 242.063 66.4727C241.238 68.5831 240.67 72.3854 239.345 74.209C236.99 77.4522 233.927 80.087 231.35 83.291C223.585 84.8846 217.867 80.7897 210.652 79.127C206.493 78.0888 205.012 81.8686 202.452 83.6123C193.753 89.5429 192.035 100.877 189.308 110.52C186.015 122.155 186.072 137.818 189.39 149.415C189.957 151.402 191.882 154.176 193.175 155.804C195.347 158.312 196.552 159.895 198.175 162.779C196.007 163.364 193.073 164.952 190.91 165.954C186.398 162.716 183.46 153.578 180.718 149.174C176.136 141.815 175.779 139.46 174.774 131.015C174.357 127.518 171.599 122.344 171.291 118.337C170.876 112.926 171.399 107.917 171.707 102.539C172.26 98.5406 170.526 91.1156 171.367 87.4209C172.444 82.6918 174.424 76.6344 175.414 71.6953C176.492 66.3198 181.06 60.7845 183.947 56.2793C185.835 53.3351 187.285 49.979 189.478 47.2168C199.775 34.4298 204.138 30.9811 220.603 28.8408ZM230.74 42.0342C227.26 40.2604 221.657 39.1502 217.817 39.5635C214.53 40.1595 212.45 41.1377 209.475 42.1182C202.42 44.4419 199.313 46.1876 195.04 52.4561C192.625 55.9985 190.733 59.8127 188.545 63.6289C187.06 66.2173 183.746 70.5246 182.758 73.2979C178.141 86.2641 175.64 102.583 177.548 116.261C177.677 117.188 178.49 120.578 179.213 121.268C179.273 121.304 179.333 121.341 179.393 121.378C179.96 120.568 179.816 117.664 180.128 116.269C181.098 111.914 182.288 108.254 183.021 103.805C183.931 98.8637 185.43 97.0814 187.51 92.6621C189.912 87.5597 191.11 83.9791 195.178 79.8193C196.618 78.3474 197.82 76.7768 199.638 75.6309C202.42 73.8761 208.503 70.8048 211.773 71.7295C218.943 73.7572 220.625 76.4767 228.49 77.417C235.03 66.6241 236.383 60.1738 233.745 47.2568C233.383 45.4759 232.393 42.8773 230.74 42.0342Z" fill="#4D2504"/>
</g>
<defs>
<clipPath id="clip0_51_33">
<rect width="370" height="470" fill="white"/>
</clipPath>
</defs>
</svg>
