<svg width="682" height="866" viewBox="0 0 682 866" fill="none" xmlns="http://www.w3.org/2000/svg">
<g clip-path="url(#clip0_51_33)">
<path d="M84.4309 570.374C85.5406 570.406 85.2163 570.397 86.3083 570.77C88.6266 573.552 88.7657 580.393 89.768 584.571C90.6168 587.998 91.6554 591.375 92.8802 594.687C103.512 624.265 126.098 666.132 154.201 683.124C163.124 688.523 174.62 688.768 182.332 692.458L182.989 692.771C180.937 693.314 178.514 693.536 176.382 693.807C175.336 693.664 172.992 693.19 172.008 692.904C164.174 690.633 150.993 687.809 144.156 683.7C134.342 677.804 120.471 659.553 113.449 649.82C108.215 641.529 103.18 632.979 98.1328 624.582C93.8786 617.502 89.8103 610.252 86.4505 602.702C82.8129 594.53 77.7028 584.148 79.3691 574.986C79.812 572.554 82.5019 571.36 84.4309 570.374Z" fill="#A4642F"/>
<path d="M140.803 600.363C144.897 600.976 152.818 612.948 155.803 616.416C158.995 620.129 162.37 623.721 165.719 627.295C172.828 634.891 178.74 643.059 187.604 648.706C188.432 650.484 188.829 651.01 188.931 652.911L188.283 653.552L186.997 653.401C175.908 648.463 161.49 633.735 152.838 624.73C149.545 621.307 136.865 607.396 137.003 603.218C137.936 601.68 139.192 601.242 140.803 600.363Z" fill="#A4642F"/>
<path d="M461.704 536.328C462.892 536.582 463.367 536.77 464.017 537.852C465.556 540.4 469.745 574.824 469.897 580.426C469.98 583.466 469.716 586.405 468.776 589.316C466.642 595.926 464.126 602.223 462.629 609.05C460.846 617.185 460.363 626.683 457.423 634.394L457.139 635.15C456.931 635.687 456.685 636.281 456.404 636.872C456.123 637.463 455.805 638.051 455.452 638.577C455.275 638.841 455.09 639.09 454.896 639.315C454.702 639.54 454.499 639.741 454.287 639.913C454.181 639.999 454.074 640.078 453.963 640.148C453.853 640.218 453.74 640.28 453.625 640.332C453.59 640.308 453.557 640.28 453.524 640.251C453.426 640.163 453.338 640.053 453.26 639.922C453.155 639.746 453.068 639.532 452.995 639.286C452.704 638.304 452.653 636.803 452.743 635.107C452.788 634.258 452.869 633.36 452.972 632.454C453.176 630.643 453.471 628.799 453.751 627.243C454.031 625.688 454.297 624.421 454.449 623.767L454.595 622.378C456.251 607.974 462.454 592.038 463.842 577.771C464.546 570.557 450.682 540.686 461.704 536.328Z" fill="#A4642F"/>
<path d="M429.177 590.739C430.721 594.65 432.31 602.52 427.992 605.145C423.048 599.751 422.118 594.476 428.021 589.708L429.177 590.739Z" fill="#A4642F"/>
<path fill-rule="evenodd" clip-rule="evenodd" d="M483.03 373.473C484.344 373.284 485.321 373.221 486.652 373.442C487.832 373.615 489.33 374.165 489.851 375.357C491.09 378.187 488.044 382.822 485.92 384.316C481.832 387.195 477.578 389.276 473.505 392.226C467.081 396.878 461.377 402.373 454.667 406.578C449.824 409.525 443.41 411.871 438.226 414.545C431.429 418.054 425.562 422.634 418.683 425.896C413.121 428.531 406.835 430.319 401.204 432.728C397.638 434.16 393.163 437.948 389.486 438.92C371.583 443.65 355.339 450.319 338.381 457.482C332.483 459.974 323.386 461.71 316.948 463.742C304.452 467.68 291.565 471.256 278.702 473.725C256.338 477.682 233.698 480.224 211.103 482.43C203.825 483.14 196.294 485.562 188.653 486.23C179.462 487.027 171.44 485.485 162.392 485.297C156.376 485.168 149.637 486.447 143.47 486.014C136.556 485.526 128.84 483.435 121.971 484.13C121.971 484.13 101.624 483.748 96.5649 483.753C89.6861 483.757 84.0251 484.14 77.3099 482.187C70.4697 479.935 60.6591 475.752 70.8927 466.032C73.2293 463.817 84.0099 467.077 87.5539 468.1C95.0209 463.576 109.297 450.407 116.445 444.359C128.963 433.769 141.601 431.907 156.114 425.205C162.354 422.324 168.318 419.483 174.716 416.942C184.281 413.143 193.931 410.6 203.669 407.445C210.86 405.109 217.861 402.027 225.245 400.293C251.366 394.156 278.131 389.021 304.788 385.932C316.012 384.631 327.655 385.125 338.912 384.606C345.354 384.309 351.653 383.5 358.077 383.297C362.814 383.228 368.561 384.364 373.348 384.58C381.873 384.966 390.449 385.38 398.974 385.777C416.895 386.61 435.521 386.345 453.35 387.907C462.492 378.074 469.529 375.531 483.03 373.473ZM377.454 407.184C372.611 407.151 365.869 406.093 361.132 406.664C344.768 408.211 328.515 410.577 312.161 412.149C300.545 413.265 288.574 413.241 277.122 415.544C264.335 418.115 251.23 424.455 237.555 427.413C226.593 429.78 214.572 429.692 203.981 433.23C194.455 436.413 186.691 443.276 177.286 446.583C171.858 448.49 165.87 448.316 160.54 450.223C158.742 450.863 136.364 464.557 135.368 465.856C134.687 466.75 134.103 467.727 133.527 468.69C147.498 469.16 161.474 469.495 175.452 469.689C187.675 469.984 195.861 467.22 207.363 466.308C239.712 463.747 270.285 455.935 301.939 449.325C314.627 446.681 322.912 442.949 334.851 438.034L370.791 423.335C377.846 420.447 398.204 412.596 403.706 409.088C393.868 407.31 387.477 407.252 377.454 407.184Z" fill="#A4642F"/>
<path fill-rule="evenodd" clip-rule="evenodd" d="M392.011 320.078C400.716 319.164 426.208 324.077 435.41 325.471C441.475 326.408 450.71 325.413 456.35 327.064C472.787 331.876 489.841 333.841 505.882 340.249C522.006 346.69 527.637 365.507 533.194 380.327C541.157 374.999 550.816 371.132 558.801 365.89C564.506 362.144 570.036 356.059 575.884 352.41C578.073 351.039 580.441 349.975 582.92 349.252C601.569 343.726 606.736 344.406 625.131 349.356C646.558 355.124 647.475 360.883 656.511 380.131C660.202 387.995 668.359 396.051 670.442 405.275C674.299 419.107 674.884 434.435 677.017 448.438C679.658 465.744 683.521 480.039 681.005 497.806C680.484 501.481 681.81 508.234 681.525 512.426C680.7 519.04 680.478 532.298 677.782 538.319C673.621 547.61 667.226 567.16 660.097 573.825C654.24 579.302 641.407 589.993 634.495 592.73C619.744 598.57 606.14 606.336 590.763 610.022C575.225 613.61 559.898 612.477 544.806 618.47C540.724 620.09 536.954 612.583 530.6 614.277C529.789 615.083 529.194 617.161 529.171 618.248C528.968 627.747 526.475 632.736 522.885 641.115C515.863 657.683 505.652 673.142 495.841 688.209C490.459 696.478 483.569 698.096 480.348 709.469L480.413 709.714C482.137 716.471 486.551 722.796 488.274 729.07C490.804 738.259 491.952 754.395 487.225 763.009C478.736 778.468 463.737 794.554 448.41 803.43C445.669 805.342 437.078 806.695 434.811 808.542C424.535 816.917 414.162 820.257 401.78 824.407C398.536 825.494 394.338 829.143 390.739 830.336C384.854 832.294 378.597 831.935 372.583 833.354C367.413 834.731 362.146 836.817 356.907 838.25L309.888 851.088C302.09 852.014 294.654 856.218 286.819 857.987C266.605 862.552 245.565 864.105 224.951 865.929C221.179 866.261 214.142 865.35 210.254 864.792C194.839 862.59 178.741 859.581 169.287 845.906C167.568 843.446 163.893 840.547 162.05 837.76C154.347 826.106 152.37 810.454 153.882 796.796C154.878 789.039 160.425 785.133 166.092 780.983C158.869 770.577 148.483 768.403 139.492 761.447C127.813 752.414 115.997 741.958 104.969 732.114C101.378 728.567 94.9286 725.905 91.4636 722.547C78.8157 710.289 64.8558 697.634 55.9488 682.327C52.0077 675.552 49.9583 669.163 46.954 662.138C44.6071 656.648 40.8948 652.022 38.7728 646.43C34.6348 635.131 31.6952 623.292 27.9203 611.864C25.4891 603.02 18.7301 593.913 16.6215 585.147C13.3631 571.6 12.1907 556.97 8.45647 543.317C7.67447 540.461 7.78109 532.611 7.52764 529.271C6.23554 512.251 5.03076 494.281 9.59229 477.647C5.31573 472.921 0.209299 465.243 0.179871 458.822C0.100151 440.89 26.0747 430.07 38.744 423.04C54.0088 414.568 67.4755 406.179 82.791 399.046C104.366 388.996 125.941 381.644 148.489 374.436C160.833 370.575 172.382 366.991 183.944 360.933C187.972 358.823 191.712 356.356 195.886 354.56C207.547 350.44 219.813 347.647 231.629 343.958C239.97 341.519 247.872 337.426 256.403 335.665C264.674 333.957 273.445 333.706 281.723 332.143C288.661 330.834 295.603 328.898 302.551 327.461C314.48 325.005 326.566 323.38 338.723 322.598C352.132 321.762 364.672 325 378.063 321.8C382.049 320.849 387.956 320.333 392.011 320.078ZM270.093 795.148C269.678 793.83 263.234 794.511 262.086 794.599C250.415 795.166 241.416 796.461 229.588 796.06C221.267 806.397 215.156 815.462 223.918 828.512C231.584 832.307 237.027 829.487 242.827 831.459C244.249 833.523 244.793 835.237 245.31 837.706C256.625 837.702 267.989 838.015 279.158 836.135C277.698 833.57 274.179 828.028 273.664 825.411C271.749 815.664 273.079 804.632 270.093 795.148ZM485.758 354.576C471.104 347.37 439.378 341.452 423.139 342.637C414.799 343.318 406.435 344.285 398.085 344.796C388.85 345.363 379.551 345.446 370.377 346.711C364.912 347.465 359.547 348.821 354.11 349.746C349.101 350.6 344.022 351.063 339.036 352.071C333.221 353.248 327.497 354.877 321.642 355.859C310.336 357.755 298.761 358.649 287.562 361.093C282.316 362.238 277.251 363.945 272.046 365.221C266.21 366.651 260.137 367.54 254.423 369.403C248.298 371.4 242.482 374.264 236.354 376.262C230.942 378.027 225.37 379.298 219.924 380.955C215.092 382.425 210.43 384.388 205.651 386.013C202.066 387.232 198.361 388.093 194.784 389.338C189.446 391.197 184.315 393.673 179.023 395.665C173.209 397.853 167.153 399.226 161.302 401.271C156.99 402.779 152.871 404.851 148.538 406.279C137.732 409.84 125.807 408.931 114.857 412.024C109.354 413.58 104.221 416.444 98.8888 418.506C89.6127 422.092 79.9823 425.108 70.8909 429.111C63.4771 432.377 24.9612 450.986 21.3466 455.353C19.2137 457.933 18.0563 461.807 17.1795 465.003C21.8645 470.37 33.0725 479.546 32.055 486.806C31.0909 493.467 28.7339 499.211 28.5809 506.032C28.3123 517.968 31.6128 529.033 33.1224 540.659C35.4794 558.808 37.879 577.012 43.0515 594.641C44.6136 599.966 47.2051 605.263 49.0474 610.515C51.6242 617.862 53.841 625.32 56.6436 632.575C62.8185 647.2 72.8002 664.726 82.7352 677.187C92.1095 688.942 102.141 701.072 111.943 712.487C116.124 717.36 123.13 723.071 127.817 727.995C130.728 731.054 136.091 739.402 138.493 741.539C149.141 751.019 163.064 761.253 175.693 767.891C179.238 769.756 184.27 772.604 187.879 773.631C196.099 775.971 203.824 775.948 211.359 780.54C209.478 782.53 208.111 784.098 205.864 785.719C197.881 787.769 188.34 786.143 183.19 794.43C177.988 802.795 180.073 811.901 180.818 820.828C181.514 829.18 202.725 839.024 207.131 834.795C207.685 830.548 205.167 826.098 204.569 821.962C202.957 810.796 208.991 798.589 217.58 791.914C215.307 785.382 212.341 781.665 219.652 778.155C225.571 780.398 231.006 782.111 237.37 782.415C275.165 784.216 369.395 756.085 405.177 739.913C417.692 734.256 429.623 718.92 442.636 716.382C444.534 716.009 446.686 716.249 448.612 716.346C454.349 709.391 458.405 706.276 465.017 700.44C467.722 698.054 472.05 692.624 474.331 689.676C482.252 679.45 490.652 666.302 495.845 654.464C500.001 644.994 503.458 632.906 507.093 623.049C509.761 615.808 513.122 607.097 514.297 599.63C516.366 586.447 515.121 574.299 514.785 561.152C514.573 552.755 515.945 543.178 515.093 534.693C514.309 526.95 511.9 519.35 511.675 511.501C511.453 503.909 513.586 495.046 512.845 487.583C512.245 481.605 511.024 474.708 510.089 468.665C509.07 462.106 508.789 457.085 508.287 450.608C507.725 443.34 509.859 437.453 509.361 430.797C509.173 428.305 504.574 423.311 503.141 419.789C503.219 419.636 503.296 419.481 503.375 419.33C504.826 416.604 506.803 414.203 508.739 411.807C519.282 398.73 519.924 397.306 515.145 380.904C512.44 371.625 507.228 367.23 499.044 362.745C494.518 360.265 490.315 356.817 485.758 354.576ZM344.087 782.475C336.226 784.11 328.841 786.41 320.985 788.137C312.395 790.031 296.136 790.72 288.41 793.152C286.844 797.266 284.492 803.808 286.945 807.659C291.09 814.167 295.212 818.957 298.866 825.973C299.768 827.829 300.699 829.853 301.655 831.668C308.94 829.724 345.835 823.998 348.648 820.63C351.768 816.885 349.049 794.318 347.718 789.284C347.151 787.128 346.386 784.369 344.976 782.637L344.087 782.475ZM411.047 759.463C404.143 761.306 369.218 771.609 367.099 776.427C366.21 778.445 367.555 784.146 367.864 786.432C369.126 795.764 368.869 804.757 369.532 814.066C371.426 813.596 373.85 813.072 375.671 812.51C385.126 810.133 399.342 805.995 407.006 800.002C412.088 783.94 415.218 782.508 422.374 769.375L422.038 763.419C420.112 762.738 412.314 759.675 411.047 759.463ZM465.165 725.633C460.345 728.323 451.968 736.721 447.069 740.388C442.973 743.455 437.757 745.817 434.734 749.359C436.48 758.954 437.055 774.174 439.437 782.212L440.267 783.056C452.335 782.01 475.053 735.325 465.165 725.633ZM606.348 364.737C591.044 366.385 580.082 373.602 566.792 380.836C555.092 387.204 543.591 394.687 536.425 406.248C532.941 411.905 533.281 418.243 533.129 424.591C533.065 427.562 532.443 430.332 532.922 433.331C537.775 435.145 546.576 423.416 551.198 420.685C556.525 417.54 561.825 416.567 568.165 416.339C573.211 416.158 593.224 416.476 597.394 417.993C603.348 420.158 616.666 432.676 619.56 438.867C625.384 451.254 625.906 464.497 627.196 477.851C627.795 484.023 629.637 488.919 629.296 495.736C628.121 519.432 612.325 545.523 591.215 556.629C584.165 560.337 574.843 561.613 567.267 563.976C561.378 565.629 555.479 567.823 549.733 569.836C545.973 570.891 539.101 572.557 535.737 573.782C534.443 579.02 534.296 584.267 534.623 589.564C534.89 593.936 533.885 602.494 540.106 601.881C545.931 601.305 551.314 599.795 557.12 599.182C564.953 598.1 570.676 598.74 578.224 598.426C580.039 598.339 581.846 598.1 583.62 597.708C589.942 596.271 596.053 592.265 602.071 590.113C613.739 585.94 635.042 580.678 643.378 571.346C663.764 548.526 666.245 518.235 663.494 489.095C662.885 482.66 663.498 476.394 663.06 469.973C662.29 460.681 649.738 419.391 649.738 419.391C649.738 419.391 641.922 402.334 634.909 390.049C629.421 380.427 628.541 374.352 617.159 368.327C613.067 366.162 611.601 364.406 606.348 364.737ZM596.851 433.376C588.782 430.856 582.191 431.639 573.772 431.92C557.299 434.804 548.497 443.189 538.972 456.75C536.913 459.669 534.9 462.622 532.928 465.597C534.167 475.418 534.438 486.003 535.028 495.925C535.623 505.884 537.028 516.563 537.06 526.457C537.097 536.923 536.356 544.851 537.471 555.45C546.83 553.152 553.548 551.303 562.524 547.139C578.675 539.304 585.175 534.28 596.091 520.087C599.791 515.269 604.352 510.653 606.233 504.098C609.509 492.693 613.5 469.315 608.344 458.043C607.395 455.966 605.561 452.907 604.51 450.434C601.985 444.487 601.592 437.825 596.851 433.376Z" fill="#A4642F"/>
</g>
<defs>
<clipPath id="clip0_51_33">
<rect width="682" height="866" fill="white"/>
</clipPath>
</defs>
</svg>
