<svg width="682" height="866" viewBox="0 0 682 866" fill="none" xmlns="http://www.w3.org/2000/svg">
<path d="M87.1018 478.757C88.0364 479.356 87.7632 479.181 88.5072 480.064C89.0614 483.642 85.6573 489.578 84.3646 493.675C83.3271 497.05 82.4781 500.48 81.8222 503.949C75.7019 534.778 73.4989 582.298 88.8354 611.337C93.7035 620.56 103.432 626.692 108.141 633.826L108.543 634.433C106.504 633.842 104.314 632.783 102.347 631.919C101.523 631.257 99.7592 629.643 99.0628 628.892C93.5167 622.91 83.6731 613.7 79.9293 606.657C74.5535 596.549 72.0634 573.76 71.0579 561.801C70.8412 551.998 70.9289 542.077 70.9276 532.279C70.9275 524.02 71.1745 515.709 72.1831 507.508C73.2737 498.63 74.2407 487.098 80.3878 480.103C82.02 478.247 84.9406 478.609 87.1018 478.757Z" fill="#A4642F"/>
<path d="M119.977 533.496C123.17 536.131 123.794 550.472 124.566 554.982C125.39 559.809 126.433 564.626 127.463 569.415C129.644 579.587 130.505 589.633 135.194 599.039C134.988 600.989 135.058 601.644 134.166 603.327L133.28 603.542L132.257 602.75C125.295 592.806 120.521 572.756 117.743 560.581C116.684 555.951 112.979 537.497 115.249 533.987C116.841 533.149 118.143 533.421 119.977 533.496Z" fill="#A4642F"/>
<path d="M428.023 643.884C428.911 644.713 429.221 645.12 429.22 646.382C429.228 649.358 415.089 681.023 412.334 685.903C410.84 688.551 409.099 690.935 406.794 692.946C401.561 697.513 396.161 701.615 391.361 706.695C385.643 712.749 380.337 720.643 373.846 725.738L373.213 726.239C372.758 726.593 372.242 726.975 371.697 727.337C371.151 727.699 370.576 728.039 370.002 728.309C369.714 728.444 369.428 728.562 369.145 728.655C368.863 728.747 368.585 728.815 368.316 728.854C368.181 728.873 368.047 728.886 367.917 728.889C367.786 728.892 367.657 728.886 367.532 728.872C367.514 728.833 367.5 728.792 367.487 728.75C367.449 728.625 367.43 728.485 367.43 728.332C367.431 728.127 367.466 727.899 367.53 727.651C367.787 726.659 368.516 725.346 369.467 723.938C369.943 723.234 370.475 722.507 371.029 721.783C372.137 720.336 373.34 718.906 374.381 717.717C375.423 716.529 376.303 715.58 376.77 715.097L377.611 713.982C386.449 702.488 399.973 692.023 408.511 680.509C412.83 674.688 416.33 641.943 428.023 643.884Z" fill="#A4642F"/>
<path d="M372.118 673.771C371.427 677.918 368.736 685.482 363.683 685.509C362.223 678.339 364.143 673.338 371.658 672.292L372.118 673.771Z" fill="#A4642F"/>
<path fill-rule="evenodd" clip-rule="evenodd" d="M530.18 515.274C531.403 515.788 532.273 516.237 533.3 517.113C534.222 517.869 535.223 519.112 535.056 520.401C534.661 523.466 529.662 525.869 527.072 526.056C522.085 526.419 517.367 526.012 512.356 526.442C504.454 527.122 496.734 528.894 488.818 529.042C483.149 529.074 476.442 527.781 470.621 527.404C462.988 526.91 455.6 527.815 448.023 527.067C441.899 526.461 435.59 524.757 429.523 523.922C425.728 523.313 419.942 524.254 416.289 523.194C398.507 518.028 381.148 515.378 362.923 512.784C356.584 511.882 347.892 508.685 341.327 507.111C328.588 504.051 315.7 500.478 303.403 495.97C282.195 487.843 261.48 478.362 240.976 468.616C234.371 465.475 226.668 463.673 219.775 460.31C211.486 456.26 205.404 450.807 197.746 445.985C192.656 442.776 186.22 440.401 181.157 436.854C175.482 432.875 169.945 427.108 163.699 424.166C163.699 424.166 146.454 413.359 142.116 410.758C136.217 407.219 131.168 404.631 126.418 399.499C121.715 394.045 115.46 385.406 129.237 382.346C132.381 381.651 139.943 389.998 142.454 392.7C151.184 392.668 170.204 388.733 179.446 387.229C195.63 384.6 207.422 389.512 223.314 391.242C230.146 391.987 236.722 392.623 243.514 393.74C253.67 395.411 263.251 398.201 273.224 400.512C280.59 402.213 288.179 403.177 295.401 405.493C320.952 413.687 346.539 423.07 370.98 434.152C381.271 438.818 390.996 445.237 400.912 450.59C406.587 453.654 412.404 456.204 418.014 459.339C422.11 461.72 426.451 465.653 430.443 468.304C437.552 473.026 444.69 477.798 451.792 482.528C466.724 492.472 482.827 501.839 497.304 512.36C510.205 508.639 517.547 510.085 530.18 515.274ZM422.321 489.794C418.187 487.271 412.952 482.892 408.598 480.942C393.775 473.84 378.624 467.497 363.797 460.421C353.265 455.395 343.016 449.209 332.014 445.285C319.729 440.903 305.23 439.588 291.986 435.08C281.37 431.464 271.111 425.197 260.211 422.774C250.406 420.597 240.216 422.48 230.451 420.471C224.817 419.311 219.773 416.078 214.223 414.967C212.352 414.59 186.117 414.801 184.595 415.403C183.55 415.818 182.546 416.355 181.557 416.883C193.29 424.482 205.097 431.967 216.979 439.332C227.305 445.881 235.744 447.727 246.073 452.87C275.121 467.335 305.35 476.386 335.887 487.023C348.125 491.292 357.149 492.359 369.914 494.296L408.291 500.206C415.826 501.364 437.32 505.12 443.843 504.947C436.326 498.356 430.877 495.014 422.321 489.794Z" fill="#A4642F"/>
<path fill-rule="evenodd" clip-rule="evenodd" d="M479.662 422.628C487.594 426.327 506.914 443.668 514.084 449.602C518.8 453.528 527.229 457.432 531.213 461.752C542.824 474.343 556.43 484.811 566.879 498.565C577.382 512.39 572.518 531.419 569.649 546.985C579.218 546.519 589.489 548.179 599.034 547.799C605.853 547.526 613.727 545.158 620.619 545.042C623.202 544.994 625.779 545.303 628.277 545.959C647.108 550.828 651.187 554.072 664.405 567.789C679.801 583.768 677.621 589.177 675.453 610.33C674.566 618.972 677.409 630.078 674.444 639.058C670.626 652.901 663.233 666.34 657.849 679.442C651.199 695.637 647.148 709.879 635.841 723.812C633.501 726.695 631.161 733.166 628.757 736.612C624.643 741.857 617.625 753.107 612.213 756.879C603.861 762.7 588.31 776.164 578.766 778.205C570.925 779.884 554.419 782.438 547.085 781.224C531.433 778.633 515.772 778.283 500.693 773.522C485.526 768.595 472.972 759.73 456.949 757.094C452.615 756.38 453.251 748.004 446.932 746.184C445.822 746.457 444.241 747.931 443.662 748.851C438.596 756.889 433.889 759.881 426.497 765.214C411.943 775.8 395.229 783.792 379.06 791.654C370.188 795.969 363.449 793.808 354.83 801.897L354.76 802.141C352.757 808.82 353.283 816.515 351.529 822.78C348.964 831.96 341.638 846.383 333.149 851.332C317.911 860.211 296.769 866.274 279.06 865.988C275.726 866.215 267.666 862.951 264.771 863.366C251.649 865.252 241.038 862.773 228.287 859.953C224.946 859.214 219.468 860.179 215.769 859.348C209.716 857.996 204.537 854.465 198.652 852.584C193.511 851.102 187.922 850.177 182.693 848.707L135.778 835.495C128.617 832.273 120.077 832.046 112.45 829.527C92.7727 823.029 73.938 813.524 55.329 804.471C51.9244 802.812 46.3621 798.407 43.3166 795.926C31.2379 786.1 18.9887 775.23 17.928 758.638C17.7216 755.644 16.0646 751.267 15.9207 747.929C15.3197 733.972 21.6865 719.537 30.0171 708.608C34.8659 702.473 41.6321 701.981 48.6271 701.343C47.7958 688.703 40.0126 681.49 35.8888 670.898C30.5301 657.14 25.7871 642.091 21.4045 627.973C20.1525 623.083 15.9961 617.48 14.7553 612.817C10.2271 595.796 4.77886 577.759 5.02776 560.05C5.13935 552.213 6.67315 545.681 7.71578 538.113C8.53206 532.197 7.73234 526.32 8.79357 520.434C11.0662 508.618 14.6437 496.956 17.294 485.216C19.7651 476.383 18.6619 465.096 21.3692 456.496C25.5536 443.205 32.0835 430.061 35.9145 416.435C36.7151 413.584 40.8497 406.91 42.3525 403.917C50.0111 388.662 58.2336 372.638 70.7105 360.73C69.4788 354.477 69.0562 345.265 72.338 339.746C81.5056 324.334 109.343 328.437 123.823 328.937C141.271 329.537 157.135 329.282 173.937 331.055C197.606 333.553 219.887 338.363 242.926 343.797C255.496 346.846 267.241 349.722 280.272 350.484C284.811 350.75 289.287 350.562 293.79 351.172C305.907 353.646 317.86 357.569 329.889 360.493C338.294 362.699 347.175 363.26 355.395 366.144C363.364 368.941 371.012 373.242 378.912 376.166C385.534 378.617 392.482 380.533 399.177 382.88C410.667 386.919 421.864 391.751 432.687 397.341C444.612 403.532 453.692 412.765 466.818 416.92C470.725 418.157 476.055 420.757 479.662 422.628ZM130.478 767.049C130.802 765.706 124.927 762.971 123.898 762.455C113.602 756.929 105.221 753.404 95.289 746.969C82.8331 751.544 72.9254 756.167 73.715 771.865C78.3308 779.067 84.4492 779.454 88.4055 784.131C88.5616 786.632 88.144 788.382 87.3156 790.764C97.0169 796.588 106.596 802.709 117.138 806.851C117.208 803.9 117.046 797.337 117.952 794.829C121.331 785.488 128.153 776.717 130.478 767.049ZM542.25 500.481C533.401 486.756 509.255 465.344 494.725 457.996C487.225 454.284 479.558 450.805 472.137 446.943C463.93 442.672 455.916 437.954 447.4 434.313C442.327 432.145 437.031 430.544 431.893 428.537C427.16 426.689 422.569 424.47 417.775 422.766C412.184 420.78 406.439 419.228 400.915 417.055C390.247 412.857 379.865 407.661 369.007 403.989C363.92 402.268 358.699 401.123 353.581 399.535C347.842 397.756 342.179 395.39 336.322 394.044C330.043 392.601 323.583 392.06 317.301 390.617C311.753 389.342 306.322 387.562 300.8 386.177C295.901 384.948 290.894 384.23 285.961 383.162C282.26 382.36 278.64 381.19 274.934 380.415C269.4 379.259 263.727 378.739 258.165 377.72C252.055 376.602 246.156 374.659 240.087 373.399C235.616 372.471 231.017 372.125 226.567 371.118C215.472 368.605 205.718 361.684 194.738 358.696C189.221 357.195 183.346 357.006 177.713 356.027C167.914 354.324 158.106 351.949 148.252 350.698C140.215 349.679 97.6156 345.793 92.2682 347.674C89.1114 348.787 86.1242 351.511 83.7262 353.8C84.9782 360.813 89.8588 374.451 85.2477 380.15C80.9909 385.363 76.0122 389.072 72.3675 394.841C65.9902 404.933 63.1202 416.118 58.4261 426.861C51.0992 443.631 43.7802 460.471 39.1347 478.246C37.7311 483.615 37.2239 489.49 36.0985 494.94C34.5232 502.565 32.5821 510.1 31.2478 517.762C29.0082 533.479 28.5374 553.643 30.6359 569.44C32.6167 584.345 34.9679 599.908 37.4908 614.741C38.5649 621.072 41.6283 629.575 43.1103 636.211C44.0302 640.332 44.3272 650.249 45.2859 653.318C49.5305 666.928 56.1937 682.871 63.6001 695.066C65.6778 698.49 68.5251 703.523 71.0895 706.262C76.9297 712.501 83.5637 716.461 87.6569 724.278C85.0197 725.015 83.0409 725.654 80.2791 725.886C72.3813 723.532 65.0404 717.224 56.3579 721.675C47.5905 726.166 44.6875 735.046 40.728 743.081C37.0239 750.599 50.1349 769.961 56.0893 768.605C58.7518 765.251 58.8854 760.139 60.5033 756.286C64.872 745.885 76.3311 738.529 87.1313 737.231C88.5474 730.462 87.9197 725.747 95.994 726.504C99.9127 731.475 103.689 735.743 108.987 739.281C140.456 760.291 235.715 784.71 274.716 789.276C288.357 790.874 306.482 783.873 318.944 788.4C320.763 789.058 322.484 790.372 324.085 791.447C332.585 788.439 337.665 787.859 346.339 786.262C349.887 785.61 356.393 783.184 359.866 781.832C371.923 777.146 385.894 770.203 396.443 762.73C404.883 756.753 414.071 748.173 422.265 741.596C428.281 736.763 435.648 731.027 440.501 725.232C449.065 714.997 454.254 703.944 460.737 692.501C464.88 685.194 470.989 677.692 474.628 669.98C477.945 662.939 479.794 655.184 483.643 648.34C487.363 641.719 493.757 635.22 496.964 628.441C499.53 623.008 502.035 616.467 504.346 610.805C506.851 604.659 509.196 600.21 512.101 594.4C515.363 587.88 520.224 583.933 523.226 577.972C524.347 575.738 522.978 569.089 523.563 565.332C523.709 565.241 523.855 565.148 524 565.059C526.649 563.47 529.58 562.43 532.473 561.373C548.245 555.595 549.529 554.704 553.88 538.184C556.341 528.837 554.136 522.385 549.431 514.326C546.83 509.869 545.003 504.748 542.25 500.481ZM200.431 794.296C192.85 791.648 185.336 789.817 177.712 787.251C169.374 784.45 155.082 776.667 147.207 774.772C143.746 777.492 138.36 781.888 138.479 786.452C138.681 794.166 139.746 800.395 139.266 808.29C139.083 810.346 138.838 812.56 138.723 814.608C145.968 816.694 180.543 830.788 184.689 829.351C189.292 827.747 198.584 807.004 200.036 802.002C200.66 799.862 201.426 797.103 201.109 794.893L200.431 794.296ZM269.679 809.057C262.811 807.081 227.569 797.926 223.27 800.964C221.469 802.235 219.686 807.816 218.773 809.933C215.049 818.583 210.197 826.159 205.971 834.48C207.836 835.053 210.184 835.852 212.034 836.308C221.363 839.14 235.68 842.915 245.335 841.725C257.964 830.575 261.385 830.959 274.283 823.388L277.062 818.11C275.762 816.533 270.656 809.892 269.679 809.057ZM333.491 807.932C327.974 807.756 316.467 810.64 310.38 811.26C305.289 811.779 299.601 811.118 295.186 812.597C291.741 821.72 284.395 835.062 282.297 843.179L282.574 844.33C293.457 849.65 336.975 821.333 333.491 807.932ZM640.383 571.299C626.416 564.83 613.302 565.37 598.185 564.726C584.877 564.158 571.164 564.649 559.068 570.868C553.168 573.922 550.195 579.53 546.795 584.894C545.21 587.407 543.25 589.461 542.117 592.278C545.341 596.333 558.927 590.812 564.295 590.851C570.481 590.899 575.525 592.795 581.077 595.865C585.496 598.309 602.486 608.888 605.28 612.337C609.268 617.259 614.236 634.849 613.528 641.646C612.141 655.263 605.767 666.883 599.995 678.994C597.33 684.593 596.387 689.739 592.584 695.407C579.373 715.112 552.394 729.341 528.58 727.988C520.627 727.536 511.979 723.828 504.269 721.952C498.369 720.336 492.183 719.178 486.22 717.944C482.454 716.912 475.706 714.801 472.192 714.119C468.384 717.941 465.556 722.364 463.108 727.073C461.086 730.957 455.817 737.775 461.465 740.454C466.754 742.961 472.146 744.438 477.438 746.903C484.71 750.01 489.286 753.506 495.917 757.125C497.518 757.985 499.19 758.711 500.913 759.289C507.072 761.313 514.373 761.026 520.64 762.281C532.79 764.713 553.761 771.176 565.713 767.469C594.94 758.408 612.667 733.721 625.317 707.327C628.11 701.497 631.862 696.442 634.794 690.713C638.92 682.352 649.426 640.494 649.426 640.494C649.426 640.494 651.512 621.848 651.828 607.705C652.079 596.632 654.454 590.971 647.801 579.944C645.408 575.981 645.056 573.721 640.383 571.299ZM596.891 625.242C591.272 618.927 585.22 616.204 577.859 612.108C562.253 606.096 550.39 608.75 535.241 615.468C531.972 616.91 528.725 618.404 525.503 619.939C521.507 628.995 516.288 638.208 511.683 647.017C507.063 655.86 502.769 665.737 497.7 674.234C492.341 683.224 487.623 689.638 483.119 699.298C492.325 702.148 499.036 704.023 508.875 705.077C526.755 706.679 534.913 705.72 551.58 699.178C557.233 696.953 563.52 695.345 568.508 690.695C577.19 682.606 592.652 664.624 594.038 652.306C594.294 650.037 594.297 646.47 594.67 643.809C595.569 637.411 598.663 631.499 596.891 625.242Z" fill="#A4642F"/>
</svg>
