<svg width="682" height="866" viewBox="0 0 682 866" fill="none" xmlns="http://www.w3.org/2000/svg">
<g clip-path="url(#clip0_53_137)">
<path d="M82.7533 567.994C83.8623 568.046 83.5382 568.031 84.6235 568.423C86.8929 571.245 86.9126 578.088 87.8418 582.282C88.6307 585.724 89.6103 589.118 90.7771 592.451C100.891 622.21 122.743 664.464 150.545 681.945C159.372 687.499 170.863 687.944 178.508 691.768L179.16 692.092C177.099 692.6 174.672 692.778 172.537 693.013C171.492 692.852 169.158 692.336 168.179 692.034C160.385 689.626 147.256 686.573 140.492 682.346C130.782 676.279 117.231 657.789 110.381 647.934C105.292 639.553 100.407 630.917 95.5071 622.433C91.3771 615.28 87.4359 607.96 84.2084 600.352C80.714 592.118 75.7858 581.649 77.6118 572.517C78.0971 570.093 80.8074 568.946 82.7533 567.994Z" fill="#A4642F"/>
<path d="M138.593 598.962C142.676 599.647 150.387 611.755 153.311 615.275C156.438 619.043 159.749 622.693 163.036 626.326C170.011 634.044 175.78 642.314 184.544 648.115C185.34 649.907 185.728 650.439 185.797 652.343L185.137 652.972L183.855 652.798C172.854 647.667 158.694 632.69 150.201 623.535C146.969 620.055 134.533 605.926 134.744 601.751C135.704 600.229 136.968 599.813 138.593 598.962Z" fill="#A4642F"/>
<path d="M460.563 540.538C461.747 540.812 462.218 541.009 462.849 542.102C464.343 544.676 467.931 579.168 467.986 584.772C468.016 587.813 467.7 590.747 466.709 593.641C464.461 600.212 461.835 606.465 460.219 613.265C458.294 621.367 457.645 630.855 454.571 638.514L454.274 639.264C454.057 639.798 453.801 640.387 453.509 640.973C453.218 641.56 452.89 642.142 452.528 642.662C452.346 642.923 452.157 643.168 451.959 643.39C451.761 643.611 451.554 643.809 451.34 643.977C451.232 644.061 451.123 644.139 451.012 644.207C450.9 644.275 450.786 644.334 450.67 644.385C450.636 644.36 450.603 644.332 450.571 644.302C450.475 644.213 450.388 644.101 450.312 643.968C450.21 643.79 450.127 643.575 450.059 643.328C449.784 642.341 449.76 640.839 449.88 639.145C449.94 638.297 450.036 637.401 450.154 636.497C450.391 634.69 450.717 632.851 451.025 631.3C451.332 629.75 451.62 628.488 451.784 627.837L451.954 626.45C453.86 612.077 460.34 596.252 461.978 582.012C462.808 574.811 449.466 544.703 460.563 540.538Z" fill="#A4642F"/>
<path d="M427.091 594.373C428.567 598.31 430.018 606.206 425.656 608.756C420.806 603.276 419.969 597.986 425.954 593.322L427.091 594.373Z" fill="#A4642F"/>
<path fill-rule="evenodd" clip-rule="evenodd" d="M484.729 378.08C486.045 377.914 487.023 377.867 488.35 378.112C489.527 378.306 491.015 378.881 491.515 380.082C492.705 382.934 489.578 387.514 487.428 388.971C483.291 391.779 479.001 393.785 474.877 396.663C468.373 401.203 462.574 406.597 455.792 410.684C450.898 413.547 444.444 415.78 439.214 418.364C432.357 421.753 426.411 426.231 419.476 429.371C413.868 431.909 407.553 433.587 401.881 435.897C398.29 437.268 393.75 440.976 390.056 441.884C372.074 446.301 355.715 452.685 338.635 459.551C332.694 461.94 323.569 463.518 317.096 465.436C304.534 469.156 291.586 472.506 278.682 474.75C256.252 478.316 233.571 480.463 210.941 482.274C203.651 482.857 196.079 485.148 188.428 485.682C179.225 486.319 171.231 484.637 162.188 484.29C156.175 484.056 149.414 485.218 143.256 484.678C136.351 484.069 128.673 481.843 121.793 482.419C121.793 482.419 101.455 481.682 96.3973 481.598C89.5194 481.482 83.8525 481.766 77.1725 479.696C70.3727 477.325 60.6365 472.971 71.0382 463.432C73.4131 461.258 84.1352 464.706 87.6608 465.79C95.2056 461.398 109.71 448.48 116.961 442.557C129.663 432.187 142.331 430.546 156.959 424.098C163.248 421.327 169.261 418.59 175.702 416.161C185.332 412.53 195.025 410.156 204.817 407.171C212.047 404.961 219.101 402.001 226.514 400.396C252.738 394.717 279.589 390.05 306.296 387.426C317.541 386.321 329.173 387.018 340.438 386.695C346.884 386.511 353.197 385.812 359.623 385.722C364.36 385.735 370.086 386.972 374.869 387.271C383.386 387.805 391.954 388.369 400.47 388.915C418.374 390.061 437.002 390.121 454.8 391.994C464.113 382.321 471.193 379.902 484.729 378.08ZM378.58 409.943C373.738 409.825 367.015 408.65 362.269 409.138C345.881 410.399 329.589 412.481 313.211 413.767C301.576 414.681 289.607 414.448 278.117 416.551C265.287 418.898 252.073 425.009 238.349 427.727C227.347 429.903 215.33 429.605 204.678 432.957C195.098 435.974 187.216 442.7 177.755 445.843C172.295 447.655 166.311 447.376 160.948 449.19C159.139 449.799 136.525 463.099 135.507 464.381C134.81 465.263 134.209 466.23 133.617 467.183C147.577 467.896 161.545 468.475 175.518 468.913C187.734 469.421 195.966 466.8 207.483 466.089C239.872 464.093 270.576 456.817 302.341 450.76C315.073 448.338 323.422 444.751 335.445 440.045L371.636 425.975C378.74 423.211 399.232 415.716 404.795 412.305C394.989 410.355 388.6 410.186 378.58 409.943Z" fill="#A4642F"/>
<path fill-rule="evenodd" clip-rule="evenodd" d="M394.655 323.105C403.375 322.342 428.777 327.7 437.953 329.254C444 330.296 453.252 329.463 458.862 331.212C475.213 336.31 492.23 338.573 508.156 345.26C524.165 351.981 529.467 370.893 534.765 385.808C542.819 380.62 552.544 376.922 560.62 371.821C566.39 368.174 572.025 362.186 577.935 358.64C580.148 357.307 582.534 356.286 585.026 355.605C603.768 350.406 608.922 351.176 627.229 356.446C648.552 362.587 649.368 368.361 658.067 387.764C661.62 395.692 669.635 403.889 671.556 413.148C675.171 427.045 675.489 442.381 677.378 456.419C679.716 473.769 683.328 488.128 680.503 505.849C679.918 509.515 681.126 516.289 680.767 520.475C679.827 527.074 679.374 540.326 676.574 546.299C672.251 555.516 665.515 574.952 658.271 581.492C652.32 586.866 639.302 597.331 632.344 599.946C617.493 605.529 603.756 613.056 588.316 616.472C572.718 619.789 557.413 618.388 542.219 624.117C538.109 625.666 534.471 618.094 528.088 619.677C527.264 620.469 526.632 622.536 526.59 623.623C526.222 633.116 523.642 638.061 519.906 646.376C512.596 662.82 502.117 678.098 492.045 692.992C486.519 701.165 479.602 702.662 476.183 713.978L476.243 714.223C477.849 721.01 482.152 727.411 483.765 733.714C486.134 742.946 487.001 759.1 482.124 767.63C473.367 782.938 458.089 798.759 442.61 807.367C439.835 809.231 431.223 810.434 428.923 812.241C418.503 820.435 408.073 823.593 395.621 827.527C392.358 828.557 388.097 832.132 384.478 833.263C378.56 835.117 372.31 834.649 366.272 835.963C361.079 837.249 355.776 839.244 350.513 840.584L303.277 852.6C295.464 853.39 287.956 857.464 280.091 859.096C259.8 863.307 238.737 864.493 218.094 865.957C214.316 866.223 207.296 865.189 203.419 864.563C188.045 862.093 172.002 858.803 162.787 844.965C161.112 842.476 157.488 839.513 155.695 836.694C148.195 824.908 146.492 809.223 148.242 795.594C149.373 787.855 154.987 784.047 160.726 779.996C153.686 769.466 143.339 767.111 134.472 759.999C122.952 750.764 111.32 740.102 100.466 730.068C96.9364 726.459 90.5349 723.684 87.1291 720.266C74.697 707.79 60.9602 694.893 52.3217 679.433C48.4995 672.59 46.5619 666.166 43.6806 659.091C41.4299 653.56 37.7989 648.87 35.7748 643.242C31.8347 631.872 29.1021 619.984 25.5272 608.492C23.2507 599.606 16.6518 590.383 14.6964 581.582C11.675 567.98 10.7581 553.332 7.26266 539.615C6.53062 536.746 6.77424 528.899 6.57911 525.556C5.58426 508.515 4.69325 490.527 9.54438 473.975C5.35095 469.176 0.379316 461.41 0.461954 454.989C0.695211 437.058 26.8547 426.693 39.6447 419.885C55.0551 411.681 68.6661 403.529 84.1038 396.663C105.85 386.992 127.551 380.017 150.221 373.204C162.631 369.559 174.241 366.177 185.907 360.322C189.971 358.283 193.753 355.881 197.958 354.158C209.689 350.242 222.002 347.664 233.881 344.182C242.263 341.888 250.235 337.934 258.796 336.322C267.095 334.759 275.869 334.661 284.173 333.243C291.133 332.055 298.108 330.24 305.08 328.925C317.05 326.678 329.162 325.264 341.331 324.693C354.753 324.092 367.234 327.548 380.679 324.583C384.681 323.701 390.596 323.289 394.655 323.105ZM264.464 795.974C264.073 794.649 257.618 795.218 256.468 795.285C244.789 795.648 235.768 796.786 223.95 796.179C215.45 806.369 209.181 815.326 217.714 828.527C225.312 832.456 230.804 829.731 236.569 831.804C237.955 833.892 238.468 835.616 238.942 838.094C250.255 838.286 261.612 838.798 272.812 837.114C271.397 834.523 267.976 828.92 267.507 826.295C265.762 816.516 267.284 805.509 264.464 795.974ZM487.785 359.233C473.259 351.772 441.642 345.302 425.385 346.203C417.034 346.738 408.654 347.559 400.296 347.925C391.053 348.33 381.754 348.25 372.559 349.355C367.082 350.014 361.694 351.276 356.241 352.107C351.218 352.872 346.132 353.247 341.13 354.168C335.295 355.243 329.543 356.772 323.672 357.652C312.335 359.35 300.745 360.042 289.506 362.29C284.24 363.344 279.146 364.962 273.92 366.147C268.06 367.475 261.973 368.257 256.227 370.02C250.068 371.91 244.203 374.672 238.041 376.563C232.599 378.233 227.006 379.407 221.531 380.968C216.674 382.354 211.979 384.235 207.173 385.777C203.566 386.933 199.847 387.729 196.249 388.912C190.879 390.677 185.706 393.063 180.38 394.962C174.529 397.049 168.449 398.316 162.564 400.259C158.227 401.691 154.072 403.691 149.714 405.043C138.848 408.415 126.941 407.298 115.938 410.2C110.409 411.659 105.227 414.433 99.8595 416.401C90.5222 419.825 80.8406 422.673 71.6808 426.517C64.2111 429.653 25.3762 447.587 21.686 451.89C19.5084 454.432 18.2836 458.285 17.3511 461.466C21.9418 466.913 32.9879 476.284 31.8439 483.525C30.7637 490.168 28.3068 495.87 28.0348 502.688C27.5579 514.616 30.6648 525.738 31.9713 537.389C34.0112 555.576 36.0927 573.819 40.9567 591.535C42.4257 596.886 44.9243 602.228 46.6747 607.511C49.1229 614.902 51.2091 622.398 53.8847 629.701C59.8034 644.431 69.4778 662.129 79.1938 674.761C88.3615 686.678 98.1796 698.981 107.781 710.565C111.877 715.511 118.781 721.343 123.382 726.349C126.239 729.458 131.455 737.898 133.82 740.077C144.301 749.741 158.043 760.216 170.554 767.074C174.066 769.001 179.048 771.935 182.639 773.025C190.816 775.509 198.541 775.62 205.994 780.344C204.079 782.3 202.685 783.844 200.409 785.426C192.392 787.336 182.881 785.544 177.587 793.739C172.24 802.012 174.166 811.154 174.754 820.092C175.305 828.455 196.341 838.667 200.82 834.516C201.448 830.28 199.008 825.787 198.483 821.64C197.065 810.448 203.311 798.348 212.016 791.824C209.857 785.254 206.956 781.485 214.327 778.103C220.207 780.449 225.611 782.257 231.968 782.672C269.726 785.133 364.433 758.651 400.492 743.104C413.104 737.667 425.3 722.542 438.355 720.232C440.26 719.892 442.407 720.17 444.331 720.3C450.189 713.445 454.298 710.402 461.012 704.682C463.758 702.344 468.18 696.99 470.512 694.083C478.61 683.996 487.238 670.997 492.637 659.252C496.958 649.855 500.625 637.83 504.432 628.037C507.226 620.844 510.738 612.193 512.044 604.748C514.342 591.603 513.31 579.435 513.203 566.285C513.137 557.885 514.677 548.333 513.972 539.834C513.324 532.079 511.048 524.438 510.959 516.586C510.871 508.992 513.158 500.167 512.547 492.693C512.052 486.705 510.951 479.788 510.121 473.729C509.218 467.153 509.024 462.128 508.635 455.644C508.2 448.367 510.436 442.518 510.055 435.855C509.91 433.36 505.399 428.286 504.027 424.739C504.108 424.588 504.188 424.435 504.269 424.285C505.768 421.584 507.787 419.218 509.764 416.856C520.534 403.966 521.2 402.553 516.709 386.07C514.166 376.745 509.031 372.26 500.927 367.633C496.445 365.074 492.303 361.553 487.785 359.233ZM338.668 784.594C330.779 786.092 323.356 788.263 315.471 789.853C306.849 791.596 290.58 792.001 282.813 794.298C281.175 798.384 278.71 804.884 281.095 808.777C285.127 815.357 289.164 820.218 292.695 827.296C293.565 829.168 294.46 831.208 295.384 833.039C302.702 831.223 339.691 826.141 342.563 822.824C345.747 819.134 343.423 796.523 342.18 791.465C341.65 789.3 340.934 786.528 339.554 784.772L338.668 784.594ZM406.019 762.754C399.084 764.476 363.985 774.169 361.782 778.949C360.858 780.951 362.103 786.675 362.372 788.965C363.472 798.318 363.057 807.305 363.558 816.625C365.46 816.188 367.893 815.706 369.723 815.176C379.219 812.964 393.505 809.075 401.271 803.217C406.634 787.246 409.788 785.869 417.172 772.863L416.94 766.902C415.026 766.187 407.283 762.988 406.019 762.754ZM460.72 729.874C455.854 732.479 447.331 740.73 442.369 744.311C438.22 747.306 432.963 749.577 429.879 753.066C431.458 762.689 431.767 777.917 434.008 785.996L434.823 786.854C446.908 786.019 470.437 739.737 460.72 729.874ZM608.18 371.497C592.85 372.878 581.763 379.903 568.349 386.903C556.539 393.066 544.909 400.347 537.543 411.782C533.961 417.376 534.19 423.72 533.928 430.064C533.811 433.034 533.141 435.792 533.568 438.799C538.388 440.698 547.393 429.124 552.062 426.474C557.443 423.422 562.759 422.542 569.102 422.425C574.151 422.332 594.155 422.999 598.298 424.589C604.213 426.857 617.311 439.606 620.096 445.847C625.703 458.333 625.993 471.583 627.05 484.958C627.542 491.139 629.298 496.067 628.839 502.877C627.25 526.548 611 552.36 589.7 563.096C582.586 566.68 573.243 567.793 565.628 570.023C559.71 571.574 553.774 573.664 547.994 575.577C544.216 576.566 537.316 578.111 533.932 579.278C532.545 584.492 532.308 589.736 532.542 595.039C532.733 599.414 531.579 607.953 537.809 607.449C543.643 606.975 549.052 605.559 554.868 605.047C562.719 604.102 568.43 604.841 575.982 604.66C577.798 604.604 579.609 604.397 581.39 604.036C587.736 602.71 593.915 598.81 599.97 596.764C611.709 592.795 633.101 587.906 641.599 578.721C662.38 556.26 665.389 526.017 663.146 496.834C662.651 490.389 663.372 484.135 663.046 477.707C662.439 468.403 650.609 426.9 650.609 426.9C647.627 412.402 643.093 409.709 636.295 397.303C630.975 387.588 630.201 381.498 618.926 375.275C614.873 373.039 613.438 371.258 608.18 371.497ZM597.486 439.96C589.462 437.3 582.859 437.967 574.437 438.101C557.915 440.697 548.968 448.927 539.208 462.32C537.098 465.203 535.034 468.12 533.01 471.06C534.078 480.901 534.165 491.49 534.581 501.421C535.002 511.389 536.221 522.09 536.08 531.983C535.935 542.448 535.055 550.362 535.985 560.979C545.382 558.845 552.131 557.113 561.179 553.107C577.465 545.554 584.051 540.644 595.213 526.645C598.997 521.892 603.638 517.356 605.632 510.835C609.107 499.489 613.506 476.184 608.547 464.824C607.634 462.73 605.854 459.64 604.846 457.149C602.425 451.159 602.149 444.492 597.486 439.96Z" fill="#A4642F"/>
<path fill-rule="evenodd" clip-rule="evenodd" d="M142.97 202.703C141.902 202.715 141.004 202.725 140.383 202.72C139.764 202.741 139.01 202.762 138.156 202.786C132.219 202.953 121.459 203.256 117.741 204.364C100.092 209.623 83.6781 225.75 70.8276 238.431C68.6711 240.559 64.7349 245.556 61.8785 249.181C61.0726 250.204 60.3527 251.118 59.7829 251.827C47.1683 267.536 35.3393 283.896 36.4621 305.019C37.079 316.622 39.4771 323.986 44.0835 334.686C45.0911 337.027 53.4155 342.896 61.349 348.489C68.4421 353.49 75.2226 358.27 76.1822 360.112C69.5493 346.826 67.9837 333.172 66.6516 318.635C65.8893 309.527 65.1554 290.415 66.2485 281.804C67.0586 275.419 76.8667 254.925 80.7565 248.943C81.8898 247.201 88.9215 238.659 90.7947 236.485C97.3447 228.884 109.754 219.267 118.984 214.962C120.203 214.393 123.699 214.109 125.472 213.965C125.61 213.954 125.737 213.943 125.852 213.934C139.668 212.608 159.68 215.938 170.134 225.895C174.245 229.812 177.583 239.18 177.04 244.997C176.247 253.495 170.664 263.877 166.144 271.119C165.413 272.239 162.455 274.922 161.219 276.043L161.069 276.179C159.952 274.999 158.983 273.592 158.08 272.281C157.281 271.121 156.534 270.036 155.783 269.252C152.04 265.345 144.753 262.675 139.556 260.771C139.111 260.608 138.682 260.451 138.271 260.299C129.735 256.943 121.658 259.022 114.012 262.994C102.582 268.932 98.1999 274.086 92.9625 285.569C92.1633 287.32 91.0758 288.935 89.9551 290.598C88.219 293.175 86.4034 295.871 85.4572 299.378C81.7291 313.191 86.3643 329.611 92.0609 342.276C93.1593 344.684 95.148 347.37 97.1282 350.043C99.2274 352.877 101.317 355.699 102.326 358.164C97.1176 341.333 93.1501 301.836 105.43 285.673C113.183 275.525 128.99 275.485 139.02 282.685C141.004 284.109 142.481 286.68 143.42 288.868C148.014 301.291 150.093 301.454 160.572 302.272C161.846 302.372 163.246 302.481 164.789 302.623C168.122 292.937 172.781 285.106 177.909 276.486C178.098 276.17 178.287 275.852 178.476 275.533C179.209 274.3 180.6 272.613 182.106 270.786C185.003 267.272 188.327 263.241 188.219 260.926C188.104 255.717 188.161 250.208 188.217 244.811C188.253 241.402 188.288 238.037 188.279 234.821C188.269 231.541 182.4 219.981 179.698 217.793C175.256 214.195 163.46 206.464 158.348 203.683C156.269 202.553 147.84 202.648 142.97 202.703Z" fill="#A4642F"/>
<path fill-rule="evenodd" clip-rule="evenodd" d="M273.438 163.116C281.357 163.831 296.173 176.349 301.547 182.228C303.024 183.843 304.426 185.575 305.836 187.316C307.194 188.994 308.561 190.682 310.01 192.284C311.285 193.695 312.796 194.997 314.323 196.313C317.099 198.705 319.926 201.14 321.481 204.357C324.455 211.949 328.039 221.57 329.634 229.563C330.192 232.358 330.409 235.445 330.624 238.513C330.787 240.83 330.949 243.135 331.257 245.297C331.57 247.502 331.914 249.697 332.256 251.889C333.183 257.819 334.106 263.723 334.426 269.717C334.498 275.124 332.241 287.532 330.789 295.52C330.492 297.15 330.23 298.596 330.027 299.76C330.448 296.917 326.707 295.832 322.966 294.747C319.229 293.662 315.491 292.578 315.902 289.741C318.172 274.058 316.193 255.704 314.41 239.166C314.069 235.996 313.734 232.893 313.438 229.888C312.766 223.063 304.156 200.874 298.798 197.817C292.442 194.193 273.246 187.384 265.723 187.788C257.256 188.999 253.595 191.97 248.615 196.013C246.932 197.379 245.098 198.867 242.877 200.451C241.625 201.344 240.156 201.935 238.637 202.546C236.003 203.606 233.216 204.727 231.132 207.594C227.122 213.108 223.101 223.396 222.628 230.211L222.746 230.695C225.766 231.889 230.36 228.028 233.74 225.189C234.918 224.199 235.948 223.334 236.713 222.85C241.642 219.728 249.644 216.765 255.227 215.204C266.882 220.178 277.647 236.865 283.499 247.947C284.338 249.536 285.01 251.994 285.675 254.424C286.221 256.417 286.761 258.392 287.385 259.856C290.744 267.183 290.016 283.976 289.504 295.761C289.429 297.497 289.359 299.124 289.307 300.597C288.767 294.172 285.198 287.92 281.614 281.643C278.393 276 275.16 270.336 274.105 264.509C270.197 247.699 266.807 246.115 259.14 242.533C256.526 241.312 253.414 239.858 249.616 237.49L248.912 237.046C245.477 237.581 237.53 239.499 235.012 241.466C230.178 245.243 232.092 256.359 233.57 264.947C234.287 269.111 234.902 272.68 234.595 274.531C233.743 276.012 232.565 276.706 231.16 277.533C230.872 277.703 230.575 277.878 230.269 278.067C216.3 271.384 211.29 250.724 210.308 236.66C209.605 226.596 211.034 220.43 213.744 210.911C214.149 209.489 214.238 207.666 214.332 205.768C214.464 203.065 214.605 200.209 215.673 198.137C219.032 191.68 223.395 185.423 227.865 179.689C237.164 168.508 259.588 163.883 273.438 163.116Z" fill="#A4642F"/>
<path fill-rule="evenodd" clip-rule="evenodd" d="M472.119 191.763C463.682 184.253 450.892 179.01 439.377 180.472C408.964 183.886 400.813 190.099 381.424 213.325C378.877 216.42 376.842 219.941 374.819 223.444C373.562 225.619 372.309 227.787 370.94 229.842C369.721 231.673 368.345 233.596 366.92 235.589C361.958 242.525 356.396 250.302 354.718 257.968C353.725 262.507 355.84 267.143 357.932 271.729C360.02 276.307 362.086 280.835 361.019 285.17C362.928 280.092 376.357 248.251 379.177 243.53C380.441 241.413 381.654 239.295 382.86 237.191C385.617 232.38 388.331 227.643 391.507 223.156C399.582 211.745 405.365 208.629 418.442 204.575C419.993 204.094 421.414 203.61 422.79 203.142C426.306 201.947 429.531 200.85 433.899 200.137C440.99 199.499 451.28 201.725 457.636 205.104C460.654 206.711 462.395 211.53 463.006 214.822C467.452 238.704 464.752 250.544 452.352 270.217C443.835 269.048 439.288 266.811 434.304 264.36C430.824 262.648 427.131 260.832 421.724 259.201C415.728 257.392 404.42 262.855 399.235 265.998C396.681 267.546 394.765 269.55 392.818 271.585C392.183 272.248 391.545 272.915 390.881 273.571C386.719 277.679 387.615 282.858 388.544 288.231C389.318 292.708 390.115 297.319 388.028 301.557C389.568 300.547 392.586 296.984 396.225 292.688C403.868 283.664 414.251 271.407 419.422 272.793C423.61 273.835 427.514 275.32 431.349 276.779C439.642 279.934 447.613 282.967 457.433 281.13C459.586 278.548 461.912 276.175 464.222 273.819C467.117 270.865 469.987 267.937 472.459 264.656C474.069 262.52 475.127 258.863 476.101 255.498C476.639 253.637 477.151 251.866 477.717 250.491C477.861 250.057 478.006 249.622 478.151 249.186C482.235 236.925 486.585 223.865 485.691 210.829C485.145 202.872 480.176 198.648 474.843 194.115C473.939 193.346 473.024 192.569 472.119 191.763Z" fill="#A4642F"/>
</g>
<defs>
<clipPath id="clip0_53_137">
<rect width="682" height="866" fill="white"/>
</clipPath>
</defs>
</svg>
