<svg width="682" height="866" viewBox="0 0 682 866" fill="none" xmlns="http://www.w3.org/2000/svg">
<path d="M85.4302 482.159C86.3752 482.742 86.0989 482.572 86.8582 483.441C87.4748 487.01 84.1748 493.004 82.9538 497.123C81.9753 500.515 81.1863 503.959 80.5911 507.44C75.0098 538.371 73.6364 585.922 89.4773 614.689C94.5057 623.826 104.34 629.786 109.173 636.837L109.585 637.437C107.537 636.881 105.328 635.861 103.346 635.031C102.511 634.384 100.719 632.801 100.01 632.062C94.36 626.178 84.3571 617.142 80.4909 610.165C74.9396 600.152 72.0521 577.411 70.8381 565.471C70.4504 555.673 70.3649 545.752 70.1925 535.956C70.0483 527.697 70.1502 519.384 71.0155 511.166C71.9511 502.27 72.7167 490.724 78.7407 483.623C80.3403 481.738 83.2668 482.049 85.4302 482.159Z" fill="#A4642F"/>
<path d="M119.256 536.316C122.495 538.895 123.369 553.223 124.219 557.719C125.127 562.53 126.254 567.329 127.367 572.099C129.726 582.231 130.762 592.261 135.615 601.583C135.443 603.537 135.524 604.191 134.661 605.889L133.78 606.119L132.742 605.346C125.608 595.525 120.485 575.561 117.495 563.436C116.355 558.825 112.329 540.438 114.537 536.889C116.115 536.024 117.421 536.273 119.256 536.316Z" fill="#A4642F"/>
<path d="M429.181 641.311C430.084 642.125 430.401 642.526 430.422 643.788C430.481 646.763 416.897 678.671 414.228 683.597C412.78 686.272 411.082 688.685 408.812 690.736C403.659 695.393 398.332 699.589 393.621 704.753C388.01 710.906 382.843 718.89 376.441 724.098L375.817 724.61C375.368 724.972 374.859 725.363 374.32 725.735C373.781 726.106 373.212 726.456 372.642 726.736C372.357 726.876 372.073 726.999 371.792 727.096C371.512 727.194 371.235 727.267 370.966 727.31C370.831 727.331 370.698 727.346 370.568 727.352C370.437 727.357 370.308 727.354 370.183 727.342C370.165 727.303 370.15 727.263 370.136 727.221C370.095 727.096 370.074 726.957 370.072 726.804C370.069 726.599 370.1 726.37 370.16 726.121C370.399 725.125 371.105 723.799 372.032 722.375C372.495 721.663 373.014 720.926 373.556 720.193C374.639 718.727 375.816 717.276 376.836 716.069C377.857 714.863 378.721 713.899 379.179 713.408L380 712.278C388.636 700.631 401.976 689.932 410.311 678.271C414.528 672.375 417.457 639.574 429.181 641.311Z" fill="#A4642F"/>
<path d="M373.806 672.169C373.188 676.328 370.63 683.937 365.578 684.052C363.993 676.909 365.825 671.876 373.321 670.699L373.806 672.169Z" fill="#A4642F"/>
<path fill-rule="evenodd" clip-rule="evenodd" d="M529.078 510.938C530.31 511.431 531.188 511.864 532.23 512.722C533.165 513.462 534.188 514.687 534.043 515.979C533.701 519.05 528.746 521.541 526.159 521.773C521.179 522.222 516.455 521.898 511.452 522.415C503.563 523.233 495.875 525.139 487.963 525.426C482.295 525.557 475.567 524.381 469.74 524.105C462.099 523.745 454.729 524.779 447.14 524.163C441.006 523.664 434.668 522.07 428.587 521.341C424.782 520.798 419.014 521.841 415.343 520.844C397.474 515.99 380.071 513.642 361.804 511.367C355.449 510.576 346.703 507.532 340.112 506.072C327.321 503.235 314.373 499.887 301.999 495.594C280.653 487.839 259.775 478.721 239.104 469.334C232.446 466.309 224.712 464.642 217.761 461.4C209.403 457.494 203.227 452.148 195.486 447.461C190.34 444.341 183.864 442.08 178.74 438.622C172.996 434.742 167.36 429.073 161.063 426.24C161.063 426.24 143.633 415.735 139.249 413.21C133.29 409.775 128.196 407.276 123.357 402.227C118.559 396.856 112.155 388.328 125.877 385.028C129.008 384.277 136.714 392.491 139.272 395.149C148 394.965 166.949 390.698 176.163 389.034C192.299 386.122 204.174 390.828 220.094 392.281C226.938 392.906 233.524 393.427 240.335 394.426C250.518 395.918 260.147 398.541 270.158 400.678C277.553 402.25 285.157 403.081 292.419 405.271C318.109 413.018 343.856 421.953 368.487 432.606C378.857 437.092 388.693 443.341 398.702 448.52C404.429 451.484 410.289 453.933 415.953 456.969C420.09 459.278 424.499 463.135 428.537 465.716C435.727 470.312 442.947 474.959 450.131 479.565C465.234 489.247 481.497 498.331 496.157 508.598C508.991 504.653 516.356 505.97 529.078 510.938ZM420.791 487.344C416.613 484.894 411.303 480.607 406.915 478.733C391.971 471.891 376.712 465.813 361.764 458.997C351.145 454.156 340.79 448.149 329.721 444.418C317.361 440.251 302.842 439.19 289.52 434.913C278.843 431.483 268.477 425.396 257.536 423.164C247.694 421.158 237.539 423.219 227.741 421.381C222.087 420.318 216.988 417.174 211.418 416.16C209.541 415.816 183.314 416.485 181.803 417.113C180.765 417.546 179.771 418.101 178.791 418.647C190.655 426.039 202.591 433.317 214.599 440.474C225.038 446.841 233.508 448.54 243.926 453.501C273.221 467.458 303.604 475.98 334.322 486.082C346.633 490.136 355.673 491.047 368.47 492.76L406.945 498C414.499 499.026 436.055 502.406 442.574 502.119C434.943 495.66 429.437 492.414 420.791 487.344Z" fill="#A4642F"/>
<path fill-rule="evenodd" clip-rule="evenodd" d="M476.951 419.187C484.947 422.748 504.566 439.749 511.839 445.557C516.623 449.4 525.118 453.156 529.177 457.406C541.006 469.792 554.793 480.021 565.48 493.591C576.223 507.231 571.691 526.342 569.094 541.955C578.654 541.323 588.952 542.803 598.489 542.257C605.303 541.865 613.135 539.359 620.023 539.123C622.604 539.03 625.187 539.294 627.696 539.906C646.609 544.445 650.744 547.618 664.2 561.102C679.872 576.811 677.787 582.257 675.988 603.444C675.252 612.101 678.288 623.155 675.48 632.185C671.904 646.092 664.747 659.659 659.593 672.853C653.227 689.161 649.425 703.472 638.362 717.6C636.074 720.523 633.846 727.034 631.503 730.521C627.481 735.837 620.661 747.208 615.316 751.074C607.066 757.04 591.753 770.773 582.246 772.981C574.435 774.796 557.976 777.638 550.622 776.552C534.927 774.235 519.263 774.158 504.103 769.661C488.852 764.999 476.145 756.355 460.079 753.999C455.733 753.361 456.223 744.974 449.873 743.265C448.767 743.558 447.213 745.06 446.649 745.99C441.725 754.114 437.071 757.188 429.773 762.65C415.406 773.487 398.834 781.77 382.805 789.913C374.009 794.383 367.234 792.339 358.757 800.578L358.691 800.822C356.805 807.536 357.465 815.22 355.821 821.515C353.417 830.739 346.344 845.287 337.942 850.383C322.862 859.527 301.829 865.957 284.118 865.982C280.787 866.266 272.672 863.143 269.784 863.609C256.698 865.723 246.045 863.43 233.246 860.833C229.893 860.152 224.433 861.213 220.72 860.447C214.645 859.2 209.405 855.761 203.488 853.983C198.322 852.59 192.717 851.764 187.464 850.385L140.325 837.993C133.109 834.896 124.567 834.819 116.897 832.433C97.1086 826.28 78.1109 817.105 59.3468 808.378C55.9137 806.779 50.2754 802.471 47.1871 800.044C34.9387 790.43 22.5017 779.775 21.1516 763.205C20.8929 760.215 19.1598 755.867 18.9577 752.532C18.1131 738.588 24.2271 724.044 32.3657 712.972C37.1067 706.752 43.8632 706.143 50.846 705.382C49.7943 692.76 41.8864 685.683 37.5783 675.164C31.9804 661.502 26.9755 646.538 22.3472 632.499C21.01 627.632 16.7564 622.101 15.4345 617.461C10.6099 600.521 4.84764 582.582 4.78744 564.873C4.76223 557.034 6.18179 550.477 7.09217 542.891C7.8051 536.963 6.90294 531.101 7.86128 525.197C9.92733 513.342 13.3008 501.62 15.7457 489.835C18.0623 480.961 16.7623 469.694 19.3191 461.048C23.2709 447.687 29.5704 434.431 33.163 420.74C33.9138 417.876 37.9312 411.131 39.3815 408.112C46.7728 392.725 54.7144 376.561 66.9815 364.436C65.6409 358.205 65.0576 349.003 68.2426 343.427C77.1398 327.857 105.045 331.474 119.531 331.721C136.987 332.016 152.844 331.485 169.674 332.965C193.383 335.049 215.745 339.469 238.875 344.501C251.497 347.329 263.29 350 276.332 350.535C280.875 350.722 285.347 350.455 289.86 350.986C302.019 353.249 314.038 356.963 326.116 359.677C334.559 361.735 343.448 362.141 351.717 364.881C359.734 367.538 367.455 371.706 375.405 374.491C382.069 376.826 389.049 378.621 395.784 380.851C407.344 384.688 418.623 389.324 429.542 394.725C441.573 400.706 450.813 409.779 464.01 413.704C467.938 414.873 473.312 417.38 476.951 419.187ZM133.831 769.65C134.131 768.302 128.21 765.67 127.172 765.171C116.781 759.827 108.34 756.448 98.2972 750.188C85.923 754.979 76.0975 759.774 77.1609 775.456C81.9016 782.576 88.0259 782.856 92.0633 787.464C92.263 789.962 91.876 791.719 91.0893 794.115C100.891 799.769 110.576 805.722 121.188 809.679C121.207 806.727 120.93 800.168 121.792 797.645C125.007 788.246 131.675 779.357 133.831 769.65ZM540.888 495.936C531.801 482.368 507.285 461.381 492.629 454.288C485.066 450.707 477.338 447.362 469.851 443.63C461.571 439.503 453.476 434.926 444.898 431.434C439.788 429.355 434.464 427.847 429.293 425.93C424.528 424.164 419.898 422.026 415.076 420.406C409.452 418.518 403.68 417.066 398.119 414.989C387.379 410.978 376.908 405.965 365.987 402.482C360.871 400.851 355.632 399.796 350.486 398.299C344.717 396.62 339.014 394.353 333.134 393.109C326.831 391.776 320.362 391.348 314.056 390.015C308.486 388.837 303.026 387.152 297.48 385.864C292.561 384.721 287.542 384.09 282.591 383.108C278.876 382.371 275.237 381.264 271.517 380.554C265.964 379.494 260.283 379.074 254.704 378.153C248.575 377.141 242.644 375.302 236.554 374.147C232.066 373.297 227.463 373.032 222.996 372.102C211.858 369.783 201.985 363.034 190.955 360.238C185.412 358.833 179.534 358.747 173.885 357.866C164.059 356.334 154.211 354.131 144.336 353.052C136.282 352.174 93.6218 349.032 88.3081 351.006C85.1712 352.174 82.232 354.95 79.8743 357.28C81.2485 364.27 86.3664 377.821 81.8554 383.599C77.6903 388.886 72.7771 392.682 69.2337 398.513C63.0334 408.715 60.3591 419.948 55.8532 430.772C48.82 447.667 41.7961 464.632 37.4614 482.485C36.1518 487.878 35.7472 493.761 34.7171 499.23C33.2751 506.881 31.4658 514.449 30.2654 522.133C28.3005 537.886 28.1817 558.056 30.5556 573.814C32.7962 588.682 35.4186 604.202 38.2 618.988C39.3844 625.3 42.5958 633.748 44.1934 640.357C45.185 644.461 45.6551 654.371 46.6672 657.424C51.1487 670.958 58.0891 686.782 65.7072 698.845C67.8444 702.233 70.7791 707.215 73.3909 709.909C79.3391 716.045 86.0412 719.888 90.2702 727.633C87.6462 728.416 85.6789 729.089 82.9216 729.37C74.9839 727.154 67.534 720.975 58.9305 725.577C50.2428 730.22 47.4952 739.149 43.6766 747.253C40.1043 754.833 53.5512 773.964 59.481 772.504C62.0845 769.104 62.1289 763.991 63.6793 760.11C67.8658 749.634 79.1948 742.079 89.9707 740.593C91.2684 733.8 90.5585 729.097 98.6449 729.713C102.65 734.615 106.5 738.817 111.859 742.262C143.69 762.719 239.361 785.472 278.435 789.357C292.102 790.716 310.102 783.4 322.641 787.708C324.471 788.335 326.215 789.619 327.834 790.665C336.281 787.51 341.35 786.841 349.995 785.093C353.531 784.379 359.993 781.84 363.443 780.428C375.416 775.532 389.264 768.346 399.68 760.69C408.015 754.567 417.052 745.827 425.129 739.108C431.061 734.171 438.326 728.308 443.077 722.429C451.461 712.046 456.457 700.904 462.739 689.35C466.754 681.972 472.731 674.364 476.235 666.589C479.428 659.492 481.142 651.706 484.871 644.795C488.475 638.11 494.754 631.501 497.843 624.667C500.313 619.19 502.704 612.607 504.915 606.906C507.313 600.716 509.58 596.227 512.383 590.367C515.531 583.791 520.322 579.76 523.219 573.748C524.302 571.495 522.816 564.87 523.336 561.103C523.48 561.01 523.625 560.915 523.768 560.823C526.388 559.188 529.301 558.097 532.175 556.99C547.844 550.937 549.112 550.024 553.175 533.431C555.472 524.042 553.155 517.63 548.31 509.654C545.631 505.243 543.715 500.155 540.888 495.936ZM204.249 795.672C196.623 793.157 189.078 791.457 181.411 789.025C173.025 786.37 158.599 778.837 150.692 777.08C147.279 779.86 141.971 784.349 142.17 788.911C142.506 796.62 143.68 802.829 143.338 810.732C143.19 812.791 142.985 815.008 142.905 817.058C150.186 819.017 185.001 832.506 189.121 830.996C193.695 829.313 202.625 808.41 203.989 803.384C204.576 801.234 205.293 798.462 204.938 796.257L204.249 795.672ZM273.744 809.223C266.843 807.367 231.446 798.828 227.201 801.94C225.423 803.243 223.737 808.854 222.862 810.987C219.289 819.701 214.569 827.36 210.489 835.754C212.364 836.294 214.726 837.051 216.583 837.475C225.961 840.144 240.341 843.669 249.974 842.311C262.407 830.942 265.834 831.266 278.597 823.471L281.284 818.145C279.957 816.591 274.735 810.04 273.744 809.223ZM337.526 806.984C332.007 806.904 320.553 809.988 314.478 810.714C309.396 811.323 303.698 810.76 299.309 812.316C296.024 821.499 288.912 834.967 286.956 843.119L287.252 844.265C298.227 849.394 341.244 820.322 337.526 806.984ZM640.242 565.031C626.165 558.807 613.062 559.575 597.936 559.195C584.62 558.86 570.918 559.59 558.932 566.02C553.087 569.176 550.212 574.835 546.906 580.257C545.364 582.798 543.441 584.885 542.357 587.722C545.652 591.72 559.139 585.963 564.507 585.908C570.693 585.848 575.769 587.655 581.374 590.629C585.835 592.995 603.007 603.276 605.86 606.675C609.934 611.527 615.208 629.027 614.619 635.836C613.47 649.475 607.3 661.205 601.74 673.414C599.173 679.059 598.32 684.221 594.617 689.954C581.751 709.887 555.025 724.584 531.191 723.648C523.231 723.334 514.52 719.777 506.778 718.036C500.851 716.523 494.646 715.474 488.663 714.344C484.879 713.378 478.095 711.385 474.569 710.764C470.829 714.652 468.078 719.124 465.713 723.875C463.759 727.794 458.609 734.703 464.303 737.283C469.635 739.697 475.053 741.08 480.387 743.452C487.712 746.432 492.349 749.847 499.041 753.35C500.658 754.182 502.342 754.878 504.074 755.426C510.268 757.343 517.563 756.928 523.85 758.074C536.041 760.294 557.122 766.389 569.007 762.475C598.072 752.905 615.365 727.912 627.553 701.301C630.244 695.424 633.907 690.304 636.738 684.524C640.717 676.092 650.492 634.058 650.492 634.058C654.912 619.932 652.252 615.378 652.321 601.232C652.379 590.156 654.654 584.454 647.81 573.545C645.348 569.625 644.957 567.371 640.242 565.031ZM597.698 619.725C591.97 613.509 585.871 610.892 578.44 606.925C562.731 601.186 550.916 604.047 535.887 611.028C532.643 612.527 529.424 614.077 526.228 615.668C522.392 624.793 517.334 634.096 512.883 642.984C508.419 651.906 504.297 661.856 499.378 670.441C494.177 679.523 489.57 686.018 485.236 695.755C494.491 698.444 501.233 700.202 511.089 701.084C528.994 702.374 537.134 701.272 553.684 694.44C559.298 692.117 565.556 690.4 570.462 685.664C579.002 677.424 594.147 659.175 595.318 646.835C595.534 644.561 595.475 640.995 595.802 638.328C596.589 631.915 599.58 625.95 597.698 619.725Z" fill="#A4642F"/>
<path fill-rule="evenodd" clip-rule="evenodd" d="M315.194 191.862C314.253 191.355 313.464 190.929 312.923 190.623C312.372 190.341 311.702 189.994 310.943 189.601C305.669 186.869 296.111 181.917 292.323 181.083C274.337 177.127 252.163 183.274 234.775 188.135C231.857 188.951 225.992 191.413 221.736 193.199C220.536 193.703 219.463 194.153 218.621 194.497C199.972 202.121 181.695 210.695 172.436 229.714C167.35 240.161 165.877 247.765 164.719 259.356C164.465 261.892 168.901 271.061 173.128 279.799C176.907 287.611 180.52 295.08 180.466 297.156C181.106 282.32 186.357 269.619 192.239 256.259C195.988 247.923 204.612 230.852 209.743 223.85C213.547 218.659 232.061 205.489 238.363 202.143C240.199 201.168 250.49 197.107 253.182 196.114C262.596 192.641 278.112 190.246 288.271 190.955C289.614 191.049 292.809 192.495 294.43 193.229C294.555 193.286 294.672 193.338 294.777 193.386C307.504 198.925 323.392 211.539 327.708 225.316C329.405 230.734 327.782 240.547 324.487 245.37C319.674 252.418 309.758 258.792 302.293 262.935C301.111 263.56 297.223 264.473 295.599 264.854L295.401 264.9C294.996 263.327 294.831 261.626 294.677 260.042C294.541 258.64 294.414 257.329 294.137 256.279C292.757 251.047 287.678 245.179 284.056 240.995C283.746 240.637 283.446 240.291 283.161 239.959C277.322 232.885 269.25 230.787 260.636 230.555C247.761 230.207 241.43 232.59 231.282 240.094C229.734 241.239 228 242.123 226.213 243.035C223.446 244.447 220.551 245.924 218.023 248.533C208.066 258.806 204.159 275.415 203.001 289.254C202.794 291.893 203.232 295.206 203.668 298.504C204.13 302.001 204.589 305.482 204.277 308.127C207.881 290.881 223.56 254.412 242.136 246.229C253.836 241.112 267.681 248.741 272.963 259.901C274.008 262.108 274.053 265.073 273.814 267.442C271.808 280.535 273.548 281.684 282.316 287.481C283.383 288.186 284.554 288.96 285.835 289.832C293.445 282.977 301.317 278.386 309.981 273.333C310.3 273.148 310.619 272.961 310.94 272.774C312.179 272.051 314.213 271.25 316.416 270.382C320.653 268.714 325.514 266.799 326.542 264.722C328.967 260.11 331.688 255.32 334.354 250.627C336.037 247.662 337.699 244.737 339.25 241.92C340.832 239.045 341.303 226.09 340.001 222.866C337.861 217.565 331.292 205.085 328.168 200.175C326.898 198.179 319.479 194.175 315.194 191.862Z" fill="#A4642F"/>
<path fill-rule="evenodd" clip-rule="evenodd" d="M448.495 220.491C455.075 224.955 461.965 243.087 463.815 250.834C464.324 252.963 464.71 255.157 465.099 257.363C465.474 259.49 465.851 261.628 466.341 263.732C466.773 265.585 467.463 267.456 468.16 269.346C469.429 272.784 470.721 276.285 470.521 279.852C469.442 287.934 467.912 298.087 465.432 305.851C464.565 308.566 463.258 311.371 461.959 314.159C460.978 316.264 460.002 318.359 459.223 320.399C458.429 322.479 457.664 324.566 456.901 326.649C454.837 332.285 452.782 337.896 450.156 343.294C447.597 348.057 439.608 357.816 434.465 364.098C433.416 365.38 432.485 366.517 431.743 367.437C433.489 365.155 430.744 362.392 427.998 359.629C425.255 356.869 422.512 354.108 424.247 351.826C433.835 339.211 441.003 322.198 447.461 306.87C448.699 303.931 449.911 301.055 451.109 298.283C453.829 291.988 457.057 268.407 453.853 263.135C450.051 256.885 436.563 241.623 429.787 238.329C421.795 235.283 417.152 236.107 410.836 237.228C408.702 237.607 406.377 238.02 403.666 238.328C402.138 238.502 400.567 238.307 398.942 238.105C396.125 237.755 393.143 237.384 389.93 238.881C383.75 241.761 375.245 248.809 371.528 254.54L371.396 255.021C373.459 257.529 379.349 256.38 383.681 255.535C385.191 255.24 386.512 254.983 387.416 254.93C393.24 254.59 401.676 255.878 407.316 257.219C415.097 267.22 416.423 287.034 416.168 299.563C416.131 301.36 415.528 303.835 414.932 306.283C414.443 308.291 413.958 310.28 413.793 311.863C413.179 319.9 404.401 334.234 398.24 344.294C397.333 345.776 396.482 347.165 395.723 348.427C398.365 342.547 398.275 335.348 398.184 328.12C398.102 321.623 398.02 315.102 399.923 309.494C404.654 292.897 402.457 289.869 397.488 283.019C395.794 280.683 393.777 277.903 391.603 273.99L391.203 273.261C387.939 272.063 380.059 269.888 376.903 270.388C370.843 271.348 367.128 281.998 364.258 290.226C362.866 294.215 361.673 297.635 360.508 299.105C359.045 299.987 357.677 300.023 356.048 300.066C355.714 300.075 355.369 300.084 355.01 300.1C346.032 287.483 351.666 266.984 357.626 254.207C361.89 245.065 366.129 240.365 373.114 233.353C374.158 232.305 375.12 230.754 376.122 229.139C377.549 226.84 379.056 224.41 380.995 223.116C387.064 219.097 393.913 215.74 400.602 212.892C414.155 207.621 436.01 214.447 448.495 220.491Z" fill="#A4642F"/>
<path fill-rule="evenodd" clip-rule="evenodd" d="M608.378 341.868C604.639 331.209 595.995 320.423 585.215 316.12C556.96 304.36 546.819 305.843 518.601 316.757C514.872 318.229 511.386 320.323 507.918 322.405C505.764 323.698 503.617 324.987 501.424 326.121C499.469 327.131 497.334 328.146 495.122 329.198C487.419 332.859 478.784 336.964 473.6 342.856C470.531 346.344 470.133 351.423 469.739 356.45C469.346 361.465 468.957 366.428 465.923 369.701C470.054 366.186 497.237 344.848 501.992 342.086C504.124 340.847 506.212 339.583 508.286 338.327C513.03 335.455 517.7 332.628 522.653 330.244C535.248 324.179 541.817 324.257 555.219 327.051C556.809 327.382 558.286 327.648 559.717 327.906C563.371 328.565 566.724 329.169 570.89 330.663C577.401 333.543 585.322 340.478 589.243 346.515C591.104 349.384 590.29 354.443 589.228 357.619C581.538 380.661 573.437 389.707 553.054 400.902C546.171 395.75 543.279 391.59 540.108 387.03C537.894 383.846 535.545 380.466 531.607 376.419C527.239 371.93 514.701 371.225 508.642 371.461C505.658 371.577 503.01 372.4 500.321 373.236C499.444 373.509 498.563 373.783 497.664 374.034C492.032 375.61 490.305 380.574 488.513 385.723C487.019 390.014 485.481 394.434 481.601 397.128C483.437 396.992 487.804 395.338 493.07 393.345C504.13 389.158 519.153 383.471 523.004 387.191C526.162 390.133 528.856 393.324 531.503 396.46C537.227 403.24 542.727 409.756 552.207 412.911C555.342 411.696 558.527 410.748 561.689 409.807C565.654 408.628 569.583 407.458 573.336 405.787C575.78 404.699 578.478 402.014 580.961 399.542C582.334 398.176 583.641 396.875 584.802 395.947C585.138 395.637 585.476 395.327 585.814 395.016C595.331 386.272 605.467 376.958 611.005 365.124C614.385 357.899 612.086 351.796 609.62 345.246C609.202 344.135 608.779 343.012 608.378 341.868Z" fill="#A4642F"/>
</svg>
