<svg width="682" height="866" viewBox="0 0 682 866" fill="none" xmlns="http://www.w3.org/2000/svg">
<g clip-path="url(#clip0_53_142)">
<path d="M83.7827 485.677C84.7377 486.243 84.4586 486.077 85.2329 486.933C85.9117 490.49 82.7168 496.541 81.5678 500.681C80.6488 504.09 79.9199 507.547 79.3855 511.038C74.3449 542.061 73.8016 589.629 90.1422 618.115C95.3293 627.163 105.266 632.951 110.221 639.917L110.644 640.509C108.586 639.989 106.36 639.008 104.364 638.213C103.518 637.58 101.698 636.029 100.976 635.302C95.2246 629.517 85.0655 620.657 81.0782 613.749C75.353 603.834 72.069 581.147 70.6468 569.23C70.0882 559.44 69.8295 549.522 69.4863 539.731C69.1979 531.476 69.1548 523.162 69.8765 514.93C70.6566 506.02 71.2206 494.461 77.1198 487.256C78.6863 485.344 81.6177 485.604 83.7827 485.677Z" fill="#A4642F"/>
<path d="M118.548 539.235C121.832 541.756 122.956 556.067 123.884 560.548C124.876 565.342 126.086 570.12 127.283 574.87C129.818 584.96 131.029 594.97 136.044 604.207C135.906 606.163 135.999 606.815 135.165 608.528L134.288 608.774L133.237 608.018C125.933 598.323 120.462 578.452 117.261 566.381C116.041 561.791 111.694 543.477 113.84 539.89C115.402 538.997 116.713 539.223 118.548 539.235Z" fill="#A4642F"/>
<path d="M430.259 638.805C431.175 639.603 431.499 639.998 431.543 641.259C431.654 644.233 418.629 676.373 416.046 681.346C414.645 684.045 412.989 686.487 410.755 688.578C405.685 693.325 400.431 697.613 395.812 702.857C390.308 709.107 385.281 717.181 378.972 722.5L378.357 723.023C377.914 723.392 377.412 723.792 376.879 724.173C376.347 724.553 375.784 724.914 375.22 725.203C374.937 725.348 374.655 725.476 374.375 725.579C374.097 725.681 373.822 725.759 373.554 725.806C373.419 725.83 373.286 725.848 373.156 725.855C373.026 725.863 372.897 725.862 372.771 725.852C372.752 725.814 372.737 725.774 372.722 725.732C372.679 725.608 372.655 725.469 372.65 725.316C372.644 725.111 372.671 724.882 372.727 724.632C372.948 723.631 373.631 722.294 374.533 720.854C374.984 720.134 375.49 719.388 376.019 718.645C377.076 717.161 378.227 715.69 379.227 714.465C380.226 713.241 381.073 712.262 381.523 711.763L382.324 710.619C390.755 698.824 403.906 687.893 412.037 676.089C416.151 670.12 418.506 637.273 430.259 638.805Z" fill="#A4642F"/>
<path d="M375.431 670.625C374.885 674.794 372.46 682.447 367.411 682.65C365.702 675.535 367.446 670.471 374.92 669.163L375.431 670.625Z" fill="#A4642F"/>
<path fill-rule="evenodd" clip-rule="evenodd" d="M527.865 506.708C529.105 507.179 529.991 507.598 531.048 508.437C531.996 509.16 533.04 510.367 532.917 511.662C532.629 514.738 527.718 517.315 525.135 517.592C520.165 518.128 515.435 517.886 510.442 518.491C502.568 519.446 494.915 521.486 487.009 521.911C481.344 522.141 474.597 521.083 468.766 520.909C461.12 520.682 453.769 521.844 446.17 521.361C440.028 520.969 433.664 519.486 427.571 518.863C423.757 518.387 418.008 519.53 414.32 518.597C396.369 514.056 378.928 512.013 360.624 510.056C354.257 509.376 345.459 506.485 338.843 505.14C326.005 502.527 313 499.406 300.553 495.33C279.075 487.948 258.041 479.195 237.209 470.171C230.499 467.263 222.738 465.731 215.731 462.611C207.306 458.852 201.038 453.614 193.216 449.063C188.016 446.033 181.502 443.885 176.318 440.517C170.508 436.738 164.773 431.168 158.428 428.446C158.428 428.446 140.817 418.247 136.39 415.798C130.372 412.468 125.235 410.058 120.309 405.094C115.418 399.808 108.865 391.393 122.528 387.854C125.646 387.049 133.494 395.127 136.098 397.74C144.822 397.403 163.693 392.807 172.876 390.982C188.959 387.789 200.915 392.287 216.858 393.461C223.712 393.967 230.306 394.374 237.133 395.253C247.341 396.568 257.014 399.022 267.061 400.983C274.482 402.426 282.099 403.125 289.398 405.188C315.219 412.485 341.118 420.969 365.931 431.191C376.379 435.495 386.322 441.571 396.419 446.575C402.197 449.438 408.099 451.785 413.816 454.722C417.992 456.958 422.468 460.738 426.55 463.248C433.819 467.718 441.119 472.238 448.383 476.718C463.653 486.135 480.072 494.933 494.908 504.943C507.671 500.774 515.059 501.963 527.865 506.708ZM419.183 485.008C414.963 482.631 409.579 478.437 405.159 476.64C390.097 470.059 374.735 464.249 359.67 457.695C348.968 453.04 338.51 447.215 327.377 443.677C314.947 439.727 300.411 438.919 287.017 434.876C276.282 431.632 265.811 425.727 254.832 423.686C244.957 421.852 234.84 424.09 225.011 422.424C219.339 421.46 214.186 418.405 208.6 417.489C206.717 417.177 180.506 418.304 179.005 418.958C177.976 419.409 176.991 419.981 176.021 420.544C188.012 427.728 200.073 434.797 212.205 441.743C222.753 447.927 231.252 449.478 241.754 454.257C271.289 467.7 301.815 475.69 332.705 485.255C345.085 489.094 354.14 489.846 366.965 491.336L405.525 495.903C413.095 496.798 434.707 499.801 441.22 499.4C433.478 493.075 427.916 489.926 419.183 485.008Z" fill="#A4642F"/>
<path fill-rule="evenodd" clip-rule="evenodd" d="M474.144 415.881C482.201 419.301 502.115 435.957 509.488 441.638C514.338 445.397 522.897 449.004 527.03 453.182C539.073 465.36 553.036 475.347 563.959 488.729C574.938 502.179 570.741 521.366 568.417 537.022C577.964 536.223 588.287 537.523 597.812 536.81C604.618 536.3 612.405 533.658 619.289 533.302C621.868 533.164 624.454 533.382 626.974 533.951C645.963 538.159 650.152 541.259 663.842 554.506C679.786 569.939 677.796 575.42 676.367 596.636C675.783 605.304 679.011 616.304 676.361 625.381C673.028 639.349 666.109 653.039 661.186 666.321C655.106 682.737 651.554 697.112 640.74 711.431C638.502 714.394 636.389 720.943 634.107 724.47C630.179 729.856 623.557 741.344 618.281 745.303C610.137 751.411 595.065 765.41 585.599 767.784C577.821 769.734 561.414 772.863 554.042 771.905C538.309 769.863 522.645 770.06 507.409 765.828C492.08 761.433 479.224 753.011 463.119 750.936C458.763 750.374 459.106 741.98 452.727 740.382C451.627 740.694 450.099 742.223 449.551 743.162C444.769 751.372 440.17 754.526 432.968 760.114C418.793 771.201 402.368 779.772 386.483 788.193C377.767 792.816 370.957 790.891 362.625 799.276L362.564 799.522C360.795 806.267 361.589 813.939 360.055 820.262C357.812 829.526 350.994 844.196 342.683 849.437C327.764 858.843 306.847 865.639 289.138 865.973C285.814 866.315 277.645 863.334 274.766 863.851C261.718 866.193 251.027 864.086 238.185 861.713C234.821 861.091 229.38 862.247 225.654 861.545C219.558 860.405 214.259 857.057 208.312 855.383C203.122 854.081 197.504 853.352 192.227 852.065L144.879 840.498C137.61 837.528 129.068 837.6 121.358 835.348C101.465 829.541 82.3101 820.699 63.3965 812.301C59.9361 810.762 54.2235 806.553 51.0933 804.181C38.679 794.782 26.0579 784.345 24.4188 767.801C24.108 764.816 22.2992 760.499 22.039 757.169C20.9512 743.241 26.8104 728.592 34.7546 717.38C39.3863 711.079 46.1311 710.352 53.0996 709.469C51.8277 696.867 43.7976 689.929 39.3065 679.487C33.471 665.925 28.2057 651.051 23.3331 637.095C21.9111 632.251 17.5617 626.796 16.159 622.179C11.0395 605.327 4.96507 587.491 4.59581 569.785C4.4338 561.948 5.73871 555.367 6.51657 547.766C7.12591 541.826 6.12158 535.981 6.97674 530.061C8.83559 518.172 12.0039 506.393 14.2429 494.568C16.4042 485.654 14.9078 474.412 17.3133 465.723C21.0313 452.294 27.0985 438.931 30.4516 425.179C31.1522 422.302 35.0514 415.488 36.4488 412.444C43.5704 396.931 51.2286 380.63 63.2823 368.293C61.8332 362.087 61.0893 352.896 64.1766 347.266C72.8007 331.543 100.764 334.672 115.253 334.666C132.711 334.657 148.556 333.849 165.41 335.034C189.152 336.704 211.587 340.734 234.802 345.361C247.471 347.969 259.309 350.433 272.358 350.74C276.904 350.848 281.371 350.503 285.892 350.956C298.089 353.005 310.171 356.509 322.294 359.012C330.772 360.922 339.667 361.173 347.983 363.769C356.044 366.285 363.837 370.317 371.835 372.964C378.538 375.182 385.549 376.855 392.321 378.967C403.946 382.602 415.304 387.04 426.316 392.25C438.449 398.02 447.847 406.931 461.11 410.625C465.058 411.725 470.474 414.138 474.144 415.881ZM137.194 772.279C137.47 770.925 131.504 768.397 130.457 767.917C119.975 762.754 111.476 759.524 101.325 753.44C89.0368 758.446 79.2965 763.412 80.6334 779.073C85.4977 786.109 91.6259 786.282 95.7431 790.819C95.9863 793.313 95.6301 795.076 94.8853 797.486C104.784 802.968 114.571 808.751 125.251 812.522C125.218 809.57 124.827 803.017 125.645 800.479C128.696 791.026 135.208 782.022 137.194 772.279ZM539.412 491.502C530.089 478.095 505.211 457.539 490.433 450.703C482.808 447.254 475.024 444.045 467.473 440.444C459.122 436.462 450.948 432.027 442.311 428.686C437.165 426.696 431.816 425.281 426.612 423.454C421.817 421.772 417.151 419.715 412.301 418.18C406.644 416.39 400.848 415.039 395.252 413.06C384.444 409.237 373.886 404.407 362.907 401.115C357.763 399.573 352.506 398.611 347.335 397.203C341.537 395.625 335.795 393.458 329.894 392.317C323.569 391.094 317.094 390.779 310.766 389.556C305.176 388.476 299.687 386.886 294.12 385.695C289.181 384.638 284.152 384.095 279.185 383.199C275.457 382.527 271.8 381.484 268.068 380.839C262.498 379.877 256.81 379.555 251.216 378.731C245.07 377.827 239.107 376.091 232.998 375.044C228.497 374.272 223.889 374.087 219.407 373.235C208.23 371.111 198.241 364.535 187.164 361.932C181.597 360.624 175.719 360.641 170.055 359.859C160.203 358.499 150.318 356.467 140.426 355.561C132.358 354.823 89.6497 352.426 84.3713 354.493C81.2553 355.715 78.3649 358.542 76.0482 360.913C77.5442 367.878 82.8979 381.338 78.4884 387.194C74.4161 392.552 69.5699 396.433 66.1288 402.325C60.1076 412.634 57.6297 423.912 53.3134 434.813C46.5762 451.829 39.8494 468.914 35.827 486.839C34.6117 492.254 34.3098 498.144 33.3753 503.63C32.0671 511.305 30.3901 518.903 29.324 526.607C27.6343 542.392 27.8675 562.56 30.5161 578.275C33.0158 593.101 35.9087 608.573 38.9477 623.309C40.2422 629.599 43.6004 637.99 45.3131 644.569C46.3762 648.656 47.0192 658.557 48.0844 661.591C52.8014 675.044 60.0169 690.745 67.8444 702.673C70.0404 706.024 73.0616 710.953 75.72 713.602C81.7744 719.633 88.5425 723.359 92.906 731.028C90.2962 731.857 88.3409 732.565 85.5889 732.893C77.6138 730.816 70.0572 724.768 61.5353 729.52C52.9299 734.314 50.3386 743.289 46.662 751.458C43.2225 759.1 57.0013 777.993 62.9047 776.43C65.4485 772.985 65.4036 767.872 66.886 763.964C70.8891 753.417 82.0845 745.666 92.8329 743.992C94.0118 737.177 93.22 732.487 101.316 732.962C105.406 737.794 109.328 741.927 114.746 745.278C146.93 765.177 242.983 786.257 282.12 789.459C295.808 790.579 313.678 782.95 326.29 787.039C328.131 787.633 329.896 788.887 331.534 789.905C339.924 786.603 344.981 785.845 353.594 783.947C357.117 783.171 363.534 780.52 366.958 779.047C378.844 773.944 392.564 766.517 402.846 758.681C411.073 752.413 419.956 743.517 427.915 736.658C433.759 731.618 440.921 725.629 445.569 719.668C453.77 709.14 458.57 697.912 464.65 686.251C468.535 678.804 474.379 671.092 477.747 663.258C480.815 656.106 482.393 648.291 486.001 641.317C489.488 634.57 495.651 627.852 498.62 620.965C500.994 615.446 503.269 608.822 505.381 603.083C507.67 596.852 509.859 592.324 512.559 586.416C515.591 579.787 520.312 575.673 523.104 569.61C524.147 567.339 522.546 560.741 523 556.966C523.142 556.87 523.285 556.773 523.427 556.678C526.018 554.997 528.911 553.856 531.766 552.699C547.327 546.373 548.578 545.439 552.351 528.777C554.483 519.35 552.055 512.979 547.072 505.088C544.317 500.725 542.312 495.671 539.412 491.502ZM208.055 797.068C200.386 794.687 192.813 793.118 185.104 790.82C176.673 788.312 162.118 781.032 154.182 779.414C150.818 782.252 145.589 786.834 145.867 791.391C146.338 799.093 147.62 805.281 147.416 813.188C147.304 815.249 147.137 817.47 147.093 819.521C154.407 821.353 189.453 834.232 193.546 832.651C198.09 830.888 206.653 809.832 207.929 804.783C208.479 802.623 209.147 799.839 208.754 797.641L208.055 797.068ZM277.776 809.404C270.844 807.668 235.303 799.748 231.113 802.935C229.357 804.268 227.77 809.907 226.932 812.056C223.512 820.83 218.927 828.571 214.994 837.034C216.878 837.542 219.253 838.258 221.117 838.649C230.54 841.154 244.979 844.428 254.587 842.901C266.82 831.317 270.251 831.582 282.877 823.565L285.47 818.193C284.116 816.663 278.781 810.203 277.776 809.404ZM341.51 806.052C335.99 806.068 324.591 809.352 318.529 810.184C313.459 810.881 307.752 810.418 303.391 812.051C300.267 821.289 293.391 834.879 291.577 843.065L291.894 844.205C302.956 849.141 345.459 819.324 341.51 806.052ZM639.956 558.853C625.773 552.875 612.686 553.872 597.555 553.756C584.235 553.654 570.548 554.622 558.676 561.26C552.887 564.518 550.111 570.226 546.9 575.705C545.403 578.273 543.517 580.394 542.482 583.249C545.846 587.188 559.231 581.197 564.597 581.049C570.781 580.88 575.888 582.599 581.544 585.474C586.045 587.762 603.395 597.742 606.307 601.091C610.464 605.871 616.043 623.276 615.573 630.094C614.662 643.751 608.697 655.587 603.352 667.891C600.884 673.58 600.121 678.756 596.518 684.553C584.003 704.708 557.537 719.869 533.69 719.348C525.726 719.173 516.954 715.77 509.183 714.164C503.23 712.755 497.008 711.814 491.006 710.789C487.206 709.889 480.388 708.014 476.852 707.455C473.18 711.408 470.508 715.927 468.226 720.718C466.341 724.671 461.313 731.669 467.05 734.149C472.424 736.469 477.865 737.758 483.24 740.037C490.616 742.888 495.311 746.222 502.064 749.607C503.694 750.411 505.39 751.078 507.132 751.596C513.358 753.404 520.645 752.862 526.951 753.898C539.179 755.904 560.363 761.631 572.178 757.51C601.072 747.434 617.926 722.143 629.647 695.323C632.235 689.4 635.808 684.217 638.539 678.389C642.37 669.889 650.721 639.9 649.569 631.704C646.733 631.375 643.877 631.156 641.023 631.049C644.632 629.642 647.672 628.767 651.409 627.69C655.582 613.489 652.843 608.983 652.665 594.838C652.53 583.762 654.705 578.022 647.672 567.234C645.142 563.357 644.712 561.11 639.956 558.853ZM598.373 614.281C592.538 608.166 586.394 605.655 578.894 601.819C563.088 596.355 551.325 599.421 536.42 606.664C533.203 608.22 530.011 609.826 526.844 611.472C523.167 620.662 518.272 630.052 513.978 639.016C509.669 648.015 505.722 658.035 500.953 666.705C495.911 675.876 491.419 682.451 487.256 692.262C496.556 694.789 503.327 696.429 513.197 697.139C531.122 698.116 539.242 696.873 555.67 689.753C561.243 687.332 567.47 685.506 572.292 680.685C580.687 672.298 595.512 653.786 596.467 641.428C596.644 639.151 596.522 635.586 596.802 632.914C597.477 626.488 600.363 620.472 598.373 614.281Z" fill="#A4642F"/>
<path fill-rule="evenodd" clip-rule="evenodd" d="M341.561 82.7558C344.593 84.4006 355.38 89.6329 356.971 92.0403C360.18 96.895 366.965 109.259 369.198 114.521C370.556 117.722 370.311 130.684 368.78 133.585C364.901 140.931 360.297 149.013 356.472 156.606C354.965 159.789 344.596 162.753 341.012 164.929C332.062 170.363 323.974 175.178 316.209 182.423C304.262 174.585 301.806 174.968 303.799 160.246C303.997 157.873 303.899 154.909 302.816 152.721C297.34 141.655 283.365 134.269 271.755 139.589C253.325 148.095 252.074 164.237 248.771 181.543C245.382 199.304 245.181 211.976 247.033 229.883C247.703 236.36 247.095 244.454 247.337 251.145C247.608 258.62 247.39 266.654 246.937 274.111C245.695 289.759 239.469 304.171 233.661 318.559C228.087 330.729 225.58 331.314 215.349 323.489C216.304 316.806 218.095 311.38 217.796 304.186C217.086 287.148 212.686 270.524 207.724 254.325C204.656 244.31 202.912 234.496 198.762 224.649C197.536 221.74 196.806 212.994 196.132 209.374C193.933 197.572 191.793 184.145 191.893 172.126C191.929 167.727 194.183 158.875 194.579 154.065C195.535 142.455 196.875 134.827 201.778 124.292C210.703 105.114 228.828 96.2231 247.341 88.2754C251.141 86.644 259.66 82.7433 263.382 81.6323C280.682 76.4681 302.746 69.9348 320.797 73.5772C325.148 74.4551 337.139 80.5883 341.561 82.7558ZM356.95 117.185C352.394 103.486 336.288 91.1506 323.466 85.8347C321.994 85.2023 318.367 83.5943 316.919 83.5182C306.749 82.9864 291.277 85.6519 281.925 89.2881C279.251 90.3283 269.032 94.5686 267.214 95.5754C260.971 99.0305 242.689 112.521 238.977 117.778C233.969 124.869 225.644 142.088 222.041 150.488C216.393 163.948 211.365 176.74 210.984 191.584C210.854 196.654 210.069 201.02 210.477 206.371C211.074 214.203 213.318 222.063 213.061 229.87C212.791 238.098 216.815 243.786 219.073 251.29C220.774 257.495 220.887 264.978 222.628 271.26C223.631 275.214 226.916 279.421 228.134 283.225C229.072 286.152 226.815 295.301 228.791 297.412C236.395 295.573 236.22 264.975 235.972 258.514C236.011 251.584 236.54 242.665 235.947 235.919C234.901 224.009 233.769 214.206 234.982 202.138C235.5 196.987 233.046 188.734 233.378 183.29C234.294 169.433 237.91 152.759 247.686 142.313C251.771 137.949 256.901 136.63 260.796 133.644C270.811 125.964 277.1 123.471 289.979 123.594C298.596 123.676 306.704 125.632 312.665 132.603C316.358 136.751 322.327 143.076 323.924 148.73C324.552 150.955 324.524 154.374 325.338 157.327C326.812 156.954 330.974 155.916 332.195 155.242C339.586 150.97 349.389 144.424 354.079 137.293C357.289 132.412 358.741 122.573 356.95 117.185Z" fill="#A4642F"/>
<path fill-rule="evenodd" clip-rule="evenodd" d="M492.414 61.5527C499.071 65.9019 506.277 83.9102 508.261 91.6239C509.333 95.7865 509.938 100.206 511.012 104.476C512.32 109.677 515.685 114.988 515.473 120.521C514.534 128.62 513.182 138.799 510.838 146.604C509.399 151.395 506.611 156.488 504.884 161.258C502.074 169.018 499.685 176.853 496.218 184.308C493.214 190.142 485.997 198.746 481.783 204.173C475.684 211.157 470.711 221.897 463.863 228.079C451.971 238.814 438.309 246.852 427.023 258.659C422.697 263.183 415.756 267.561 411.056 272.089C405.393 277.545 396.971 281.049 391.52 286.97C376.049 303.157 359.205 319.758 359.227 343.732C356.085 347.194 351.898 351.707 346.764 350.615C345.337 349.705 344.976 349.183 344.145 347.728C332.235 326.874 335.186 320.748 341.388 298.476C346.679 280.184 354.207 274.029 365.875 259.539C369.92 255.316 373.487 247.462 377.504 243.724C389.622 232.449 399.421 222.744 408.497 208.706C412.432 202.621 421.028 196.01 425.587 189.628C433.629 178.37 441.17 164.619 445.403 151.391C451.357 129.028 445.283 131.276 436.464 116.037L436.052 115.315C432.767 114.174 424.851 112.137 421.704 112.692C412.732 114.274 409.302 137.126 405.813 141.691C404.068 142.785 402.441 142.647 400.332 142.782C391.136 130.323 396.411 109.729 402.147 96.8501C406.251 87.6346 410.408 82.8615 417.269 75.7286C419.755 73.1451 421.708 67.6164 424.97 65.3554C430.968 61.2314 437.757 57.7551 444.395 54.7906C457.855 49.2839 479.825 55.7278 492.414 61.5527ZM474.02 79.7146C463.258 75.8269 458.612 78.7602 447.903 80.17C443.734 80.7188 439.204 78.5141 434.179 80.9626C428.05 83.9494 419.67 91.1448 416.053 96.9401C416.012 97.1007 415.971 97.262 415.93 97.423C418.77 100.756 428.455 97.3182 431.945 97.0528C437.763 96.611 446.219 97.7515 451.882 98.9942C459.837 108.858 461.508 128.645 461.472 141.177C461.462 144.448 459.616 149.997 459.312 153.517C458.696 163.988 454.151 169.749 449.611 178.318C443.552 189.754 438.647 196.608 429.309 205.643C422.993 211.754 416.951 219.695 410.463 225.812C397.136 238.491 384.212 249.46 374.52 265.355C371.028 271.082 368.101 274.531 365.255 281.041C364.14 284.351 362.839 287.594 361.359 290.757C358.982 295.82 352.912 305.313 353.4 310.522C354.406 311.465 353.807 311.148 355.351 311.294C358.105 309.896 359.72 304.946 361.27 302.202C364.31 296.837 368.11 291.941 372.554 287.666C380.705 279.735 390.714 272.441 399.35 264.87C406.593 258.521 413.077 251.562 420.171 245.218C426.533 239.53 433.167 235.227 439.313 228.838C445.684 222.215 450.058 215.537 455.881 208.409C459.668 203.774 467.039 197.961 470.462 193.291C481.624 178.061 489.24 156.646 496.385 139.288C498.995 132.946 501.811 109.312 498.515 104.097C494.605 97.9141 480.852 82.8904 474.02 79.7146Z" fill="#A4642F"/>
<path fill-rule="evenodd" clip-rule="evenodd" d="M616.023 190.067C626.877 194.182 635.708 204.816 639.631 215.407C642.535 223.248 646.469 230.096 642.664 238.614C637.144 250.967 626.647 260.704 617.003 269.889C613.788 272.553 609.476 278.173 605.711 279.928C599.017 283.05 591.726 284.559 584.709 287.42C570.767 283.049 565.208 271.34 555.061 262.213C549.283 256.823 543.52 261.591 537.835 262.114C518.512 263.897 505.619 280.628 492.608 293.73C476.907 309.537 463.007 334.83 457.996 356.484C457.136 360.193 457.761 366.384 458.391 370.162C459.653 376.145 460.181 379.774 460.22 385.872C456.204 384.877 450.054 384.813 445.673 384.496C441.291 375.245 444.718 357.895 444.231 348.346C443.419 332.392 444.946 328.278 450.869 313.77C453.321 307.762 453.497 296.961 456.58 290.227C460.744 281.136 466.063 273.532 471.363 265.14C475.826 259.191 479.663 245.676 484.32 240.473C490.28 233.814 498.882 225.822 504.891 218.747C511.43 211.048 523.739 206.209 532.419 201.529C538.092 198.471 543.428 194.359 549.43 191.867C577.453 180.462 587.567 178.803 616.023 190.067ZM620.58 220.388C616.555 214.42 608.514 207.624 601.954 204.858C596.122 202.881 591.894 202.599 586.222 201.52C572.773 198.961 566.204 198.997 553.717 205.281C546.659 208.832 540.201 213.287 533.266 217.482C528.559 220.326 519.368 224.306 515.299 227.892C496.273 244.662 477.664 268.727 468.521 292.473C467.902 294.082 466.183 300.271 466.733 302.029C466.797 302.142 466.86 302.255 466.924 302.368C468.562 301.57 470.924 296.761 472.674 294.791C478.127 288.64 483.315 283.806 488.471 277.29C494.352 270.141 498.361 268.608 505.662 263.345C514.093 257.269 519.223 252.57 529.496 249.501C533.132 248.415 536.474 246.959 540.427 246.736C546.481 246.395 559.03 246.881 563.475 251.293C573.223 260.968 573.507 266.855 585.346 275.398C605.53 263.849 613.473 254.663 620.759 231.49C621.766 228.296 622.491 223.224 620.58 220.388Z" fill="#A4642F"/>
</g>
<defs>
<clipPath id="clip0_53_142">
<rect width="682" height="866" fill="white"/>
</clipPath>
</defs>
</svg>
