<svg width="993" height="1555" viewBox="0 0 993 1555" fill="none" xmlns="http://www.w3.org/2000/svg">
<path d="M637.428 1489.62C627.872 1525.28 481.305 1517 310.062 1471.12C138.819 1425.23 7.74722 1359.12 17.3039 1323.46L354.619 64.5781L974.744 230.74L637.428 1489.62Z" fill="#3DB2B1"/>
<ellipse cx="664.682" cy="147.66" rx="321" ry="66.8569" transform="rotate(15 664.682 147.66)" fill="#C7CFDC"/>
<path d="M349.789 403.843L347.017 414.188L337.348 411.597L327.184 449.529L315.487 446.395L325.651 408.463L315.982 405.872L318.754 395.527L349.789 403.843ZM342.391 453.604L355.798 403.569L367.495 406.703L361.353 429.624C363.597 427.472 366.845 426.168 372.254 427.617C381.179 430.009 384.748 435.893 382.519 444.21L377.483 463.007L365.785 459.872L370.115 443.712C371.13 439.926 370.755 436.999 366.495 435.858C362.573 434.807 359.107 438.009 358.454 440.443L354.088 456.738L342.391 453.604ZM396.106 453.793C395.304 457.056 396.852 459.935 400.233 460.841C404.019 461.855 405.711 461.222 406.718 459.897L417.063 462.669C414.429 466.819 408.885 472.363 397.458 469.301C386.505 466.366 383.238 456.65 385.394 448.603C387.55 440.557 395.869 433.583 406.755 436.5C418.925 439.761 421.737 449.283 419.345 458.208C419.2 458.749 419.037 459.357 418.825 459.88L396.106 453.793ZM408.853 450.034C409.158 448.086 408.101 445.267 404.518 444.307C400.934 443.346 398.61 445.26 398.035 447.135L408.853 450.034Z" fill="white"/>
<path d="M306.456 580.631L279.565 573.425L309.132 463.078L336.024 470.283L306.456 580.631ZM355.042 556.048C352.805 564.393 357.632 570.49 366.75 572.934C375.25 575.211 379.962 574.32 384.19 572.14L377.813 595.941C373.328 597.224 366.977 598.669 354.613 595.356C330.504 588.896 323.377 567.275 328.305 548.884C333.233 530.493 350.257 515.177 374.366 521.637C383.794 524.163 390.941 528.397 395.04 531.649L388.828 554.831C385.698 551.673 382.878 548.599 373.914 546.197C364.796 543.754 357.278 547.702 355.042 556.048ZM418.98 578.315C417.146 585.775 420.684 592.354 428.411 594.425C437.066 596.744 440.933 595.295 443.235 592.268L466.881 598.604C460.861 608.089 448.189 620.761 422.07 613.763C397.034 607.054 389.567 584.845 394.495 566.454C399.423 548.063 418.437 532.12 443.319 538.788C471.138 546.242 477.564 568.006 472.098 588.407C471.766 589.643 471.394 591.034 470.908 592.229L418.98 578.315ZM448.116 569.723C448.812 565.272 446.398 558.827 438.207 556.632C430.016 554.438 424.702 558.812 423.388 563.097L448.116 569.723ZM556.468 525.044L580.114 531.38L549.47 645.746L525.824 639.41L527.025 634.928C522.808 636.448 515.21 638.222 504.082 635.241C480.436 628.905 473.619 607.366 478.546 588.975C483.474 570.584 500.148 555.34 523.794 561.676C536.467 565.072 540.512 569.137 543.631 572.954L556.468 525.044ZM505.758 595.604C503.605 603.64 508.47 612.067 516.506 614.22C524.543 616.373 532.969 611.509 535.122 603.472C537.276 595.436 532.411 587.009 524.374 584.856C516.338 582.703 507.911 587.567 505.758 595.604Z" fill="white"/>
<path d="M292.127 612.779L270.413 606.96L265.734 624.424L287.448 630.243L286.164 635.034L264.45 629.215L258.156 652.707L279.87 658.525L278.607 663.239L252.179 656.157L266.963 600.984L293.39 608.065L292.127 612.779ZM330.365 615.819L334.692 616.978L319.37 674.161L315.042 673.002L316.347 668.133C312.422 670.726 307.458 671.632 302.59 670.328C293.472 667.884 288.041 658.478 290.485 649.36C292.928 640.242 302.334 634.811 311.452 637.254C316.32 638.559 320.166 641.825 322.269 646.033L330.365 615.819ZM294.791 650.597C292.99 657.32 297.006 664.276 303.729 666.078C310.452 667.879 317.408 663.863 319.21 657.14C321.011 650.417 316.995 643.46 310.272 641.659C303.549 639.858 296.593 643.874 294.791 650.597ZM341.872 645.985L333.32 677.899L328.916 676.719L337.467 644.805L341.872 645.985ZM344.551 637.841C344.157 639.309 342.61 640.137 341.142 639.743C339.674 639.35 338.748 637.86 339.141 636.391C339.556 634.846 341.103 634.018 342.571 634.411C344.039 634.805 344.965 636.295 344.551 637.841ZM352.71 653.527L348.383 652.368L349.542 648.04L353.87 649.2L357.617 635.213L361.945 636.373L358.197 650.359L365.692 652.368L364.533 656.695L357.037 654.687L349.646 682.273L345.318 681.114L352.71 653.527ZM378.471 655.792L369.92 687.706L365.515 686.526L374.066 654.611L378.471 655.792ZM381.15 647.648C380.757 649.116 379.21 649.944 377.742 649.55C376.273 649.157 375.348 647.666 375.741 646.198C376.155 644.653 377.702 643.825 379.17 644.218C380.639 644.612 381.564 646.102 381.15 647.648ZM415.393 682.829C412.949 691.947 403.543 697.378 394.425 694.935C385.307 692.491 379.876 683.085 382.319 673.967C384.763 664.849 394.169 659.418 403.287 661.861C412.405 664.305 417.836 673.711 415.393 682.829ZM386.626 675.204C384.825 681.927 388.841 688.883 395.564 690.685C402.287 692.486 409.243 688.47 411.045 681.747C412.846 675.024 408.83 668.067 402.107 666.266C395.384 664.465 388.427 668.481 386.626 675.204ZM419.857 701.087L428.409 669.172L432.736 670.332L431.535 674.814C433.182 672.688 436.915 671.12 442.169 672.528C451.133 674.93 453.97 681.653 452.002 688.994L446.805 708.39L442.401 707.21L447.204 689.282C448.84 683.178 447.192 678.512 441.01 676.856C434.21 675.034 430.334 679.296 429.051 684.087L424.185 702.246L419.857 701.087Z" fill="white"/>
<rect width="323" height="67.9718" transform="translate(476.379 657.236) rotate(15)" fill="#3DA6CF"/>
<path d="M497.017 689.68C496.641 691.083 497.566 692.244 500.688 693.618C508.009 696.761 510.559 702.277 509.028 707.99C507.35 714.253 500.862 718.422 490.941 715.764C485.58 714.327 481.123 710.716 478.474 707.375L482.866 700.604C485.33 703.036 488.477 705.92 491.483 706.726C494.089 707.424 495.717 707.162 496.106 705.709C496.455 704.406 495.307 703.078 492.335 701.744C485.378 698.645 483.089 693.36 484.646 687.547C486.19 681.785 492.194 677.218 500.511 679.446C506.324 681.004 510.662 683.455 513.368 686.382L508.895 693.454C506.903 691.47 503.554 689.337 499.996 688.384C498.643 688.022 497.299 688.628 497.017 689.68Z" fill="white"/>
<path d="M529.601 687.456L523.345 710.805C522.848 712.659 523.846 713.947 525.549 714.403C527.253 714.86 528.811 714.257 529.308 712.403L535.564 689.053L547.038 692.128L540.527 716.43C538.379 724.447 530.243 726.348 522.877 724.375C515.412 722.374 509.467 716.7 511.615 708.683L518.127 684.381L529.601 687.456Z" fill="white"/>
<path d="M566.331 706.427C562.072 705.286 558.632 709.305 557.383 713.965C556.094 718.775 557.097 724.253 561.757 725.502C564.212 726.159 565.375 725.827 566.232 725.036L567.118 721.729L563.109 720.655L564.895 713.99L580.378 718.139L577.048 730.565C573.709 733.806 566.81 736.307 559.394 734.32C546.516 730.87 542.623 719.945 545.08 710.776C547.537 701.606 556.394 694.205 568.721 697.508C577.489 699.858 581.062 705.165 582.427 709.29L570.47 710.221C570.067 708.717 569.337 707.233 566.331 706.427Z" fill="white"/>
<path d="M598.726 705.978L612.054 709.549L613.792 748.359L602.468 745.325L602.097 739.694L592.327 737.076L589.19 741.767L577.816 738.719L598.726 705.978ZM601.349 722.845L596.866 729.754L601.677 731.042L601.349 722.845Z" fill="white"/>
<path d="M650.605 732.23C648.994 738.243 646.094 740.044 642.338 740.434L647.013 757.261L633.785 753.716L630.93 740.921L627.922 752.145L616.197 749.004L625.783 713.228L641.818 717.524C648.532 719.323 652.686 724.464 650.605 732.23ZM633.789 730.249L635.693 730.759C637.297 731.189 638.604 730.519 639.047 728.865C639.477 727.262 638.693 725.978 637.09 725.548L635.186 725.038L633.789 730.249Z" fill="white"/>
<path d="M682.6 728.452L680.21 737.371L668.636 734.269L667.119 739.931L678.092 742.872L675.702 751.79L664.729 748.85L661.44 761.126L649.965 758.052L659.551 722.276L682.6 728.452Z" fill="white"/>
<path d="M710.791 748.357C709.18 754.37 706.281 756.171 702.525 756.561L707.199 773.388L693.971 769.843L691.116 757.048L688.109 768.272L676.384 765.131L685.97 729.355L702.004 733.651C708.718 735.45 712.872 740.591 710.791 748.357ZM693.976 746.376L695.88 746.886C697.483 747.316 698.791 746.645 699.234 744.992C699.663 743.389 698.88 742.104 697.276 741.675L695.372 741.165L693.976 746.376Z" fill="white"/>
<path d="M742.787 744.579L740.397 753.498L728.822 750.396L727.587 755.006L738.561 757.946L736.157 766.915L725.184 763.975L724.029 768.284L735.604 771.386L733.201 780.355L710.152 774.179L719.738 738.403L742.787 744.579Z" fill="white"/>
<path d="M769.895 751.842L767.505 760.761L755.931 757.66L754.696 762.27L765.669 765.21L763.266 774.179L752.292 771.239L751.138 775.548L762.712 778.649L760.309 787.618L737.26 781.442L746.846 745.666L769.895 751.842Z" fill="white"/>
<path d="M208.951 1230.28L202.196 1255.49L98.7449 1227.77L109.111 1189.09C114.08 1170.54 130.317 1159.21 150.601 1164.64C166.104 1168.8 174.641 1180.4 175.543 1193.84L222.81 1178.56L215.434 1206.09L170.7 1220.03L208.951 1230.28ZM148.387 1214.05L151.377 1202.9C153.318 1195.65 149.97 1191.34 143.885 1189.71C137.799 1188.08 132.366 1190.97 130.657 1197.35L127.668 1208.5L148.387 1214.05ZM203.224 1138.06C210.218 1139.78 216.386 1136.46 218.327 1129.22C220.501 1121.1 219.143 1117.48 216.305 1115.32L222.245 1093.15C231.137 1098.8 243.018 1110.68 236.456 1135.16C230.167 1158.64 209.346 1165.63 192.104 1161.01C174.863 1156.39 159.917 1138.57 166.167 1115.24C173.155 1089.16 193.56 1083.14 212.685 1088.26C213.844 1088.57 215.148 1088.92 216.269 1089.38L203.224 1138.06ZM195.169 1110.75C190.996 1110.09 184.954 1112.36 182.897 1120.04C180.839 1127.71 184.94 1132.7 188.958 1133.93L195.169 1110.75ZM153.283 1009.17L159.223 986.997L266.441 1015.73L260.501 1037.89L256.299 1036.77C257.724 1040.72 259.387 1047.85 256.592 1058.28C250.652 1080.45 230.46 1086.84 213.218 1082.22C195.976 1077.6 181.685 1061.97 187.625 1039.8C190.809 1027.92 194.62 1024.12 198.199 1021.2L153.283 1009.17ZM219.433 1056.71C226.967 1058.72 234.866 1054.16 236.885 1046.63C238.904 1039.1 234.343 1031.2 226.809 1029.18C219.275 1027.16 211.375 1031.72 209.356 1039.25C207.338 1046.79 211.898 1054.69 219.433 1056.71ZM212.315 915.198C224.486 918.459 229.117 924.359 230.037 930.196C235.469 920.936 245.35 915.353 260.129 919.313C280.124 924.671 286.394 941.259 281.386 959.95L270.477 1000.66L167.026 972.944L176.305 938.315C181.313 919.625 195.653 910.733 212.315 915.198ZM213.626 958.409L214.907 953.628C216.615 947.253 214.002 942.515 207.482 940.768C201.397 939.138 195.896 941.701 194.188 948.076L192.907 952.858L213.626 958.409ZM257.962 970.289L260.873 959.423C262.737 952.468 259.933 946.126 251.674 943.913C243.705 941.778 237.671 945.752 235.808 952.706L232.896 963.573L257.962 970.289ZM233.2 873.187L271.595 883.475C277.826 885.145 281.694 882.299 283.13 876.938C284.528 871.722 282.746 867.362 276.371 865.654L237.975 855.366L244.691 830.3L284.391 840.938C302.647 845.829 309.362 861.916 303.849 882.49C298.337 903.064 284.439 913.782 266.183 908.891L226.483 898.253L233.2 873.187ZM322.239 807.483L315.484 832.694L208.266 803.965L215.021 778.755L322.239 807.483ZM334.106 763.196L327.351 788.407L220.133 759.678L226.888 734.467L334.106 763.196Z" fill="white"/>
<path d="M355.163 63.5832C355.09 63.8097 355.021 64.0375 354.96 64.2677C345.403 99.9336 476.476 166.043 647.718 211.927C818.961 257.811 965.527 266.095 975.084 230.429C975.146 230.199 975.2 229.968 975.25 229.735L975.269 229.74L955.857 302.184C946.301 337.85 799.734 329.567 628.491 283.683C457.249 237.798 326.176 171.688 335.733 136.023L355.145 63.5781L355.163 63.5832Z" fill="#3DA6CF"/>
<path d="M485.276 186.802C484.63 188.474 485.611 190.019 489.261 192.115C497.828 196.934 500.23 204.037 497.6 210.843C494.717 218.305 486.21 222.566 474.39 217.999C468.002 215.532 463.01 210.516 460.2 206.068L466.479 198.34C469.181 201.647 472.662 205.6 476.244 206.983C479.349 208.183 481.38 208.076 482.049 206.344C482.648 204.792 481.415 203.012 477.944 200.985C469.818 196.268 467.706 189.482 470.381 182.557C473.033 175.692 480.999 170.879 490.909 174.708C497.834 177.383 502.833 180.961 505.768 184.907L499.35 192.994C497.167 190.298 493.339 187.242 489.101 185.604C487.489 184.981 485.76 185.548 485.276 186.802ZM524.934 187.453L515.262 215.665C514.494 217.905 515.613 219.574 517.671 220.28C519.729 220.985 521.698 220.375 522.466 218.135L532.139 189.923L546.003 194.676L535.935 224.039C532.614 233.725 522.44 235.379 513.54 232.327C504.52 229.234 497.682 221.748 501.003 212.062L511.071 182.7L524.934 187.453ZM568.443 213.118C563.249 211.499 558.808 216.282 557.037 221.964C555.209 227.83 556.172 234.633 561.854 236.404C564.848 237.338 566.299 236.985 567.394 236.053L568.651 232.02L563.763 230.497L566.296 222.37L585.176 228.255L580.453 243.408C576.175 247.237 567.545 249.977 558.502 247.158C542.799 242.263 538.544 228.602 542.03 217.42C545.515 206.239 556.802 197.557 571.833 202.242C582.525 205.575 586.665 212.296 588.142 217.449L573.356 218.001C572.935 216.127 572.109 214.261 568.443 213.118ZM607.955 213.619L624.332 218.268L625.767 266.177L611.853 262.227L611.498 255.274L599.492 251.866L595.537 257.596L581.562 253.628L607.955 213.619ZM610.883 234.475L605.227 242.916L611.137 244.594L610.883 234.475ZM671.521 246.097C669.586 253.529 666.025 255.777 661.394 256.291L667.31 277.009L650.959 272.753L647.324 256.993L643.713 270.867L629.219 267.095L640.73 222.872L660.549 228.031C668.849 230.191 674.019 236.497 671.521 246.097ZM650.757 243.801L653.111 244.413C655.093 244.929 656.7 244.091 657.232 242.047C657.748 240.065 656.77 238.488 654.788 237.972L652.434 237.359L650.757 243.801ZM710.699 240.483L708.03 251.558L693.658 248.095L691.964 255.126L705.589 258.409L702.921 269.484L689.295 266.201L685.621 281.444L671.373 278.011L682.078 233.586L710.699 240.483ZM746.104 263.276C744.473 270.781 741.006 273.171 736.4 273.873L743.154 294.334L726.643 290.746L722.37 275.147L719.326 289.156L704.691 285.976L714.394 241.322L734.407 245.671C742.788 247.492 748.21 253.582 746.104 263.276ZM725.264 261.826L727.641 262.342C729.642 262.777 731.214 261.874 731.662 259.81C732.097 257.809 731.056 256.273 729.054 255.838L726.678 255.322L725.264 261.826ZM784.884 255.771L782.762 266.963L768.237 264.21L767.14 269.995L780.911 272.605L778.777 283.861L765.006 281.25L763.981 286.658L778.507 289.411L776.373 300.667L747.448 295.184L755.959 250.287L784.884 255.771ZM818.316 260.999L816.58 272.257L801.969 270.004L801.071 275.823L814.923 277.96L813.176 289.282L799.324 287.145L798.485 292.584L813.096 294.838L811.35 306.16L782.254 301.672L789.221 256.51L818.316 260.999Z" fill="white"/>
</svg>
