<svg width="993" height="1555" viewBox="0 0 993 1555" fill="none" xmlns="http://www.w3.org/2000/svg">
<path d="M637.428 1489.62C627.872 1525.28 481.305 1517 310.062 1471.12C138.819 1425.23 7.74723 1359.12 17.3039 1323.46L354.619 64.5781L974.744 230.74L637.428 1489.62Z" fill="black"/>
<ellipse cx="664.682" cy="147.66" rx="321" ry="66.8569" transform="rotate(15 664.682 147.66)" fill="#C7CFDC"/>
<g clip-path="url(#clip0_49_73)">
<path d="M565.862 494.186C563.13 488.747 560.887 483.439 558.513 478.619C557.797 477.381 555.746 475.262 554.15 475.357C547.894 475.25 542.912 472.346 538.549 469.085C532.85 464.943 526.368 463.729 519.72 465.086C516.396 465.764 515.873 467.716 516.066 470.906C516.94 477.417 517.07 476.928 511.854 480.761C510.484 481.963 509.473 483.784 508.95 485.736C508.427 487.688 509.012 489.414 508.977 491.497C509.197 500.447 505.874 501.126 498.51 501.245C489.061 501.328 483.225 505.517 480.872 514.301L476.426 530.893C475.642 533.821 476.227 535.547 478.277 537.665C482.51 541.414 483.68 544.866 480.418 549.222C476.405 554.423 472.035 559.006 467.666 563.588C464.796 566.48 461.926 569.372 461.238 573.895C460.976 574.871 460.584 576.335 459.345 577.049C456.606 579.454 456.572 581.536 458.361 584.631C461.713 589.713 461.024 594.236 457.632 599.08C454.108 604.412 452.801 609.292 454.652 616.064C455.918 621.111 455.457 626.741 454.996 632.37C454.631 639.595 456.971 646.498 459.311 653.401C460.839 657.472 461.747 661.9 461.678 666.065C461.513 668.636 459.132 671.659 457.501 673.837C454.631 676.73 451.273 679.491 448.403 682.383C445.664 684.787 443.772 687.941 441.033 690.346C438.913 692.393 437.282 694.571 438.583 697.535C442.388 704.831 439.842 710.425 435.699 716.114C432.306 720.958 431.618 725.481 435.327 731.182C439.395 737.502 438.576 742.513 433.552 749.535C427.516 758.378 422.328 767.971 416.781 776.946L405.426 795.87C400.498 804.487 399.611 813.664 399.7 823.102C399.5 827.756 400.409 832.183 399.721 836.706C399.555 839.277 398.413 841.586 397.271 843.895C395.998 846.692 393.878 848.739 392.116 851.405C391.366 852.25 390.974 853.714 391.332 854.333C392.598 859.38 390.086 862.891 387.085 866.271C383.335 870.496 382.289 874.4 382.936 879.804C382.998 883.482 381.952 887.386 381.036 890.801C379.729 895.681 377.444 900.299 375.517 905.536C370.652 917.831 369.206 931.043 368.25 944.385C367.823 947.932 368.993 951.383 369.055 955.061C369.833 959.977 366.832 963.357 363.962 966.249C361.843 968.296 362.07 969.403 363.274 970.772C364.836 972.76 365.291 974.973 362.455 975.783C360.108 976.723 357.535 976.556 357.342 973.367C357.473 972.879 357.115 972.26 356.626 972.129C352.036 967.761 352.236 963.107 355.628 958.263C359.021 953.419 358.244 948.503 355.869 943.683C352.064 936.387 353.048 928.805 354.032 921.223C355.216 908.988 357.377 897.014 358.56 884.779C359.221 874.496 359.262 864.569 359.304 854.643C359.6 851.584 358.299 848.62 357.487 845.788C356.221 840.741 356.289 836.575 360.886 833.1C363.495 831.184 364.768 828.387 363.598 824.935C362.655 822.59 361.843 819.758 361.877 817.675C361.685 814.485 361.981 811.426 363.254 808.629C363.908 806.189 366.027 804.142 366.681 801.702C368.085 798.417 367.892 795.227 364.995 792.359C361.74 788.872 358.258 784.277 360.315 778.553C361.458 776.244 363.577 774.196 365.208 772.018C371.209 765.258 377.568 759.116 383.211 751.737C387.974 745.691 387.623 737.228 388.965 730.266C389.784 725.255 390.96 720.863 392.268 715.983C393.052 713.055 392.729 710.353 391.298 707.878C390.093 706.509 389.02 704.652 388.923 703.057C388.469 700.843 388.634 698.273 390.004 697.071C395.743 691.286 398.193 684.097 397.712 676.123C397.484 675.016 397.877 673.552 398.627 672.707C401.792 666.756 401.407 660.376 401.999 654.259C402.66 643.975 402.701 634.049 402.742 624.122C402.749 616.279 400.409 609.376 397.712 601.853C394.883 594.819 394.89 586.976 398.317 580.049C403.148 569.837 408.468 559.756 413.657 550.162C415.942 545.544 419.204 541.188 422.466 536.832C424.228 534.166 424.393 531.595 423.711 528.274C423.615 526.68 423.649 524.597 424.4 523.752C430.043 516.372 429.203 507.779 429.829 499.578C429.864 497.496 427.455 494.758 426.512 492.413C426.155 491.794 425.308 491.045 424.462 490.295C419.644 484.82 418.963 481.499 423.595 475.941C430.249 466.74 423.189 455.957 415.763 452.398C404.332 446.197 392.282 440.353 380.59 435.128C376.323 433.462 371.534 433.748 367.005 433.058C365.54 432.665 363.324 433.117 361.858 432.724C359.903 432.201 358.699 430.832 357.006 429.332C357.887 427.999 358.899 426.178 360.268 424.976C364.246 421.858 369.428 420.108 374.575 420.441C384.74 421.596 394.581 420.048 404.911 418.632C414.132 417.442 423.189 418.823 431.461 423.131C436.085 425.416 440.517 424.512 444.46 423.476C453.586 420.691 462.222 417.775 470.99 414.371C475.064 412.848 476.53 413.24 477.569 417.18C477.927 417.799 478.154 418.906 478.023 419.394C478.408 425.773 482.641 429.522 488.373 431.581C494.106 433.64 500.196 436.318 506.06 437.89C509.48 438.806 511.531 440.925 513.451 443.531C516.217 446.888 518.66 447.542 522.734 446.019C525.7 444.721 528.405 444.4 531.729 443.722C535.053 443.043 538.865 442.496 541.962 440.71C546.917 437.854 551.349 436.949 556.331 439.853C560.825 442.626 565.484 442.829 570.177 440.948C578.326 437.901 586.308 437.425 595.365 438.806C604.421 440.186 613.154 438.865 621.695 434.354C626.519 431.986 628.473 432.51 630.848 437.33C631.921 439.187 632.864 441.531 634.068 442.9C636.477 445.638 638.755 448.863 642.044 450.267C645.692 452.291 648.231 454.54 649.759 458.611C651.644 463.3 654.672 465.681 658.808 467.835C664.768 471.001 665.773 477.023 662.249 482.356C661.499 483.201 661.953 485.414 662.931 485.676C665.243 486.819 667.555 487.961 669.998 488.616C673.418 489.533 676.089 491.294 676.15 494.972C676.212 498.65 672.758 499.816 669.792 501.113C668.553 501.827 666.468 501.792 665.002 501.399C658.746 501.292 653.695 502.554 651.018 508.636C648.472 514.23 643.028 516.955 638.92 520.561C634.811 524.168 630.572 528.262 626.464 531.869C623.725 534.273 623.917 537.463 624.11 540.652C624.433 543.354 623.78 545.794 624.103 548.496C624.427 551.198 622.926 552.888 621.295 555.066C616.795 560.136 616.629 562.707 619.719 568.765C621.151 571.241 621.963 574.073 622.286 576.775C622.383 578.37 621.729 580.81 620.229 582.5C612.858 590.463 612.459 599.77 613.395 609.958C614.007 617.445 615.108 625.062 609.727 631.466C608.096 633.644 605.845 636.179 603.368 637.607C598.282 640.952 595.64 644.951 595.536 651.199C595.371 653.77 594.456 657.186 593.314 659.495C591.16 663.625 587.67 666.874 586.005 671.135C584.601 674.42 584.663 678.098 584.725 681.776C584.78 693.297 585.812 705.08 585.379 716.471C585.537 721.743 583.968 727.599 582.172 732.348C581.387 735.276 578.648 737.68 576.171 739.108C567.63 743.619 561.402 749.273 557.321 758.64C553.633 766.543 548.478 774.053 541.5 780.552C534.522 787.05 531.191 795.572 531.28 805.011C531.57 809.795 531.501 813.961 526.904 817.436C526.284 817.793 525.761 819.745 526.119 820.364C527.743 826.03 526.436 830.91 523.662 835.397C519.877 841.705 518.047 848.537 518.659 856.023C518.721 859.701 517.579 862.01 514.97 863.926C510.862 867.533 509.197 871.793 508.247 877.292C507.786 882.922 505.239 888.516 503.801 893.884C501.22 901.561 495.577 908.94 496.417 917.533C496.802 923.913 498.784 930.197 500.897 935.994C503.952 944.135 503.56 945.599 496.355 950.99C494.366 952.549 492.246 954.597 492.928 957.917C493.347 962.214 490.966 965.237 489.562 968.522C485.516 975.806 482.804 983.971 478.139 991.612C475.104 997.075 473.046 1002.8 471.966 1008.79C470.624 1015.75 466.708 1022.55 461.23 1027.35C457.61 1031.09 453.763 1033.72 449.655 1037.33C448.154 1039.02 447.012 1041.33 445.512 1043.02C444.631 1044.35 442.773 1045.42 442.023 1046.27C440.818 1044.9 438.637 1043.27 438.54 1041.67C437.405 1036.14 439.332 1030.9 442.236 1025.93C447.033 1017.8 452.676 1010.42 454.672 1001.02C457.748 985.626 458.119 970.557 451.616 955.739C450.088 951.669 449.669 947.372 453.516 944.742C460.721 939.35 463.171 932.161 462.331 923.568C461.877 921.354 463.15 918.557 463.315 915.986C463.611 912.927 463.776 910.356 463.942 907.786C464.334 906.322 464.01 903.62 465.249 902.906C468.25 899.526 469.654 896.241 469.495 890.968C469.303 887.778 471.326 884.136 472.73 880.851C474.753 877.209 475.799 873.305 474.271 869.235C472.289 862.95 473.37 856.964 474.939 851.108C476.9 843.788 479.708 837.218 482.158 830.029C484.346 823.816 483.603 816.818 480.383 811.247C476.804 805.058 478.731 799.821 482.254 794.489C489.921 783.468 497.945 773.065 505.123 761.913C508.777 756.093 511.227 748.904 514.035 742.334C515.308 739.537 517.558 737.002 518.831 734.205C518.962 733.717 519.582 733.36 520.201 733.003C525.287 729.658 527.214 724.421 527.317 718.173C527.324 710.329 527.331 702.486 527.207 695.13C527.11 693.535 527.145 691.452 526.56 689.727C524.578 683.442 526.147 677.586 528.693 671.992C530.847 667.862 531.535 663.34 533.201 659.079C535.747 653.485 537.674 648.248 541.067 643.404C544.102 637.94 544.625 635.988 541.893 630.549C540.461 628.074 538.899 626.086 537.956 623.741C536.559 619.183 537.247 614.66 540.379 610.792C545.533 603.281 547.137 595.343 546.917 586.392C546.958 576.466 548.823 567.551 555.085 559.815C558.967 555.102 561.609 551.102 553.048 542.009C549.793 538.522 549.373 534.225 549.084 529.441C549.119 527.358 550.13 525.537 552.966 524.727C554.693 524.144 556.193 522.454 556.716 520.502C558.12 517.217 558.678 513.182 559.593 509.766C559.855 508.79 560.116 507.814 560.866 506.969C564.225 504.208 563.282 501.863 560.742 499.614C560.384 498.995 560.908 497.043 561.3 495.579C563.385 495.615 564.624 494.901 565.862 494.186Z" fill="url(#paint0_linear_49_73)"/>
<path d="M715.286 673.348C716.002 674.586 716.717 675.824 717.564 676.573C722.512 681.56 723.778 686.607 720.124 692.427C717.089 697.89 713.208 702.603 710.173 708.066C704.495 717.529 704.454 727.455 708.583 737.453C711.054 743.868 712.905 750.64 713.648 757.639C714.102 759.853 711.852 762.388 711.198 764.828C710.283 768.244 708.748 772.017 707.833 775.433C706.883 780.931 703.621 785.287 699.513 788.894C692.665 794.904 687.999 802.546 683.333 810.187C681.441 813.341 681.73 818.125 681.792 821.803C681.985 824.993 683.154 828.445 683.836 831.765C685.329 837.919 683.271 843.644 679.39 848.357C676.389 851.737 672.9 854.986 669.9 858.367C665.53 862.949 665.2 868.091 665.716 873.982C666.005 878.767 666.782 883.682 666.094 888.205C665.798 891.264 663.906 894.418 661.917 895.977C657.939 899.096 656.405 902.869 656.694 907.653C656.756 911.331 655.482 914.128 653.59 917.282C652.09 918.972 651.924 921.543 651.401 923.495C651.236 926.066 651.429 929.256 651.752 931.958C652.303 935.766 651.161 938.075 648.422 940.479C639.682 949.644 630.942 958.809 623.179 968.235C620.048 972.103 617.763 976.721 615.609 980.852C612.443 986.803 612.567 994.158 607.447 999.585C606.078 1000.79 603.731 1001.73 601.515 1002.18C600.896 1002.54 598.845 1000.42 599.106 999.443C599.471 992.218 600.455 984.636 600.82 977.412C600.958 969.08 603.896 962.022 607.943 954.738C614.012 943.812 616.043 932.327 611.948 920.246C609.835 914.45 610.881 910.546 616.944 907.463C624.734 903.797 626.207 896.346 629.504 889.907C632.181 883.825 632.642 878.196 630.791 871.423C630.206 869.698 631.609 866.413 632.848 865.698C641.912 859.236 645.504 849.738 648.738 839.621C650.307 833.765 651.388 827.778 653.446 822.053C656.811 811.448 661.023 801.593 664.388 790.989C666.315 785.752 666.907 779.634 667.368 774.004C667.567 769.351 666.79 764.435 666.012 759.519C664.002 747.475 667.01 736.251 674.284 726.693C680.058 718.826 679.088 710.721 676.521 702.711C674.215 693.724 672.398 684.869 672.309 675.431C672.213 673.836 672.866 671.396 674.236 670.194C677.856 666.457 678.902 662.553 679.101 657.899C679.267 655.328 681.028 652.662 683.148 650.615C685.398 648.08 685.791 646.616 684.49 643.652C682.701 640.558 681.269 638.082 679.969 635.118C678.668 632.155 679.322 629.715 682.419 627.93C685.515 626.144 688.481 624.847 691.578 623.062C693.436 621.99 694.806 620.788 696.306 619.098C700.057 614.873 700.318 613.897 697.944 609.076C697.001 606.732 696.547 604.518 698.178 602.34C699.547 601.138 700.559 599.317 702.059 597.627C703.69 595.449 704.833 593.14 704.64 589.95C704.578 586.272 705.624 582.368 707.028 579.083C709.12 571.275 712.059 564.217 714.151 556.41C715.458 551.53 712.203 548.042 708.687 545.531C705.789 542.663 702.142 540.639 698.625 538.128C696.802 537.116 694.359 536.462 692.143 536.914C683.898 538.366 678.2 534.224 673.514 528.261C670.747 524.905 667.719 522.524 662.572 522.191C659.021 521.763 654.754 520.096 651.595 518.204C648.436 516.311 648.34 514.717 651.568 512.443C654.176 510.527 657.761 508.873 660.727 507.575L665.063 505.076C668.421 502.314 672.007 500.66 676.273 502.326C682.495 504.516 688.262 504.493 694.552 502.517C698.626 500.993 703.285 501.196 707.324 501.755C711.364 502.314 713.841 500.886 715.734 497.732C719.65 490.936 724.735 487.591 732.945 488.222C736.496 488.651 740.212 486.508 743.309 484.723C749.014 481.021 753.281 482.688 754.155 489.198C754.348 492.388 757.245 495.256 760.927 495.197C768.91 494.721 772.13 500.291 774.112 506.575C775.64 510.646 777.429 513.74 781.565 515.895C784.235 517.656 784.559 520.358 782.797 523.024L782.666 523.512C778.262 530.177 778.262 530.177 783.568 535.783C787.896 541.127 788.316 545.424 783.816 550.494C779.934 555.207 779.865 559.373 782.597 564.812C784.614 569.014 784.71 570.609 780.505 572.62C773.334 575.929 770.527 582.499 768.207 589.2C766.673 592.973 764.422 595.508 760.837 597.162C758.49 598.103 756.109 601.126 754.478 603.304C751.085 608.148 747.562 613.48 744.658 618.455C743.908 619.3 743.777 619.788 743.515 620.764C742.208 625.644 739.696 629.155 735.491 631.167C730.048 633.892 726.297 638.118 727.66 644.759C728.926 649.806 726.283 653.805 724.618 658.066C724.356 659.042 722.987 660.244 723.214 661.351C722.133 667.337 718.287 669.968 715.286 673.348Z" fill="url(#paint1_linear_49_73)"/>
<path d="M565.862 494.186C563.13 488.747 560.887 483.439 558.513 478.619C557.797 477.381 555.746 475.262 554.15 475.357C547.894 475.25 542.912 472.346 538.549 469.085C532.85 464.943 526.368 463.729 519.72 465.086C516.396 465.764 515.873 467.716 516.066 470.906C516.94 477.417 517.07 476.928 511.854 480.761C510.484 481.963 509.473 483.784 508.95 485.736C508.427 487.688 509.012 489.414 508.977 491.497C509.197 500.447 505.874 501.126 498.51 501.245C489.061 501.328 483.225 505.517 480.872 514.301L476.426 530.893C475.642 533.821 476.227 535.547 478.277 537.665C482.51 541.414 483.68 544.866 480.418 549.222C476.405 554.423 472.035 559.006 467.666 563.588C464.796 566.48 461.926 569.372 461.238 573.895C460.976 574.871 460.584 576.335 459.345 577.049C456.606 579.454 456.572 581.536 458.361 584.631C461.713 589.713 461.024 594.236 457.632 599.08C454.108 604.412 452.801 609.292 454.652 616.064C455.918 621.111 455.457 626.741 454.996 632.37C454.631 639.595 456.971 646.498 459.311 653.401C460.839 657.472 461.747 661.9 461.678 666.065C461.513 668.636 459.132 671.659 457.501 673.837C454.631 676.73 451.273 679.491 448.403 682.383C445.664 684.787 443.772 687.941 441.033 690.346C438.913 692.393 437.282 694.571 438.583 697.535C442.388 704.831 439.842 710.425 435.699 716.114C432.306 720.958 431.618 725.481 435.327 731.182C439.395 737.502 438.576 742.513 433.552 749.535C427.516 758.378 422.328 767.971 416.781 776.946L405.426 795.87C400.498 804.487 399.611 813.664 399.7 823.102C399.5 827.756 400.409 832.183 399.721 836.706C399.555 839.277 398.413 841.586 397.271 843.895C395.998 846.692 393.878 848.739 392.116 851.405C391.366 852.25 390.974 853.714 391.332 854.333C392.598 859.38 390.086 862.891 387.085 866.271C383.335 870.496 382.289 874.4 382.936 879.804C382.998 883.482 381.952 887.386 381.036 890.801C379.729 895.681 377.444 900.299 375.517 905.536C370.652 917.831 369.206 931.043 368.25 944.385C367.823 947.932 368.993 951.383 369.055 955.061C369.833 959.977 366.832 963.357 363.962 966.249C361.843 968.296 362.07 969.403 363.274 970.772C364.836 972.76 365.291 974.973 362.455 975.783C360.108 976.723 357.535 976.556 357.342 973.367C357.473 972.879 357.115 972.26 356.626 972.129C352.036 967.761 352.236 963.107 355.628 958.263C359.021 953.419 358.244 948.503 355.869 943.683C352.064 936.387 353.048 928.805 354.032 921.223C355.216 908.988 357.377 897.014 358.56 884.779C359.221 874.496 359.262 864.569 359.304 854.643C359.6 851.584 358.299 848.62 357.487 845.788C356.221 840.741 356.289 836.575 360.886 833.1C363.495 831.184 364.768 828.387 363.598 824.935C362.655 822.59 361.843 819.758 361.877 817.675C361.685 814.485 361.981 811.426 363.254 808.629C363.908 806.189 366.027 804.142 366.681 801.702C368.085 798.417 367.892 795.227 364.995 792.359C361.74 788.872 358.258 784.277 360.315 778.553C361.458 776.244 363.577 774.196 365.208 772.018C371.209 765.258 377.568 759.116 383.211 751.737C387.974 745.691 387.623 737.228 388.965 730.266C389.784 725.255 390.96 720.863 392.268 715.983C393.052 713.055 392.729 710.353 391.298 707.878C390.093 706.509 389.02 704.652 388.923 703.057C388.469 700.843 388.634 698.273 390.004 697.071C395.743 691.286 398.193 684.097 397.712 676.123C397.484 675.016 397.877 673.552 398.627 672.707C401.792 666.756 401.407 660.376 401.999 654.259C402.66 643.975 402.701 634.049 402.742 624.122C402.749 616.279 400.409 609.376 397.712 601.853C394.883 594.819 394.89 586.976 398.317 580.049C403.148 569.837 408.468 559.756 413.657 550.162C415.942 545.544 419.204 541.188 422.466 536.832C424.228 534.166 424.393 531.595 423.711 528.274C423.615 526.68 423.649 524.597 424.4 523.752C430.043 516.372 429.203 507.779 429.829 499.578C429.864 497.496 427.455 494.758 426.512 492.413C426.155 491.794 425.308 491.045 424.462 490.295C419.644 484.82 418.963 481.499 423.595 475.941C430.249 466.74 423.189 455.957 415.763 452.398C404.332 446.197 392.282 440.353 380.59 435.128C376.323 433.462 371.534 433.748 367.005 433.058C365.54 432.665 363.324 433.117 361.858 432.724C359.903 432.201 358.699 430.832 357.006 429.332C357.887 427.999 358.899 426.178 360.268 424.976C364.246 421.858 369.428 420.108 374.575 420.441C384.74 421.596 394.581 420.048 404.911 418.632C414.132 417.442 423.189 418.823 431.461 423.131C436.085 425.416 440.517 424.512 444.46 423.476C453.586 420.691 462.222 417.775 470.99 414.371C475.064 412.848 476.53 413.24 477.569 417.18C477.927 417.799 478.154 418.906 478.023 419.394C478.408 425.773 482.641 429.522 488.373 431.581C494.106 433.64 500.196 436.318 506.06 437.89C509.48 438.806 511.531 440.925 513.451 443.531C516.217 446.888 518.66 447.542 522.734 446.019C525.7 444.721 528.405 444.4 531.729 443.722C535.053 443.043 538.865 442.496 541.962 440.71C546.917 437.854 551.349 436.949 556.331 439.853C560.825 442.626 565.484 442.829 570.177 440.948C578.326 437.901 586.308 437.425 595.365 438.806C604.421 440.186 613.154 438.865 621.695 434.354C626.519 431.986 628.473 432.51 630.848 437.33C631.921 439.187 632.864 441.531 634.068 442.9C636.477 445.638 638.755 448.863 642.044 450.267C645.692 452.291 648.231 454.54 649.759 458.611C651.644 463.3 654.672 465.681 658.808 467.835C664.768 471.001 665.773 477.023 662.249 482.356C661.499 483.201 661.953 485.414 662.931 485.676C665.243 486.819 667.555 487.961 669.998 488.616C673.418 489.533 676.089 491.294 676.15 494.972C676.212 498.65 672.758 499.816 669.792 501.113C668.553 501.827 666.468 501.792 665.002 501.399C658.746 501.292 653.695 502.554 651.018 508.636C648.472 514.23 643.028 516.955 638.92 520.561C634.811 524.168 630.572 528.262 626.464 531.869C623.725 534.273 623.917 537.463 624.11 540.652C624.433 543.354 623.78 545.794 624.103 548.496C624.427 551.198 622.926 552.888 621.295 555.066C616.795 560.136 616.629 562.707 619.719 568.765C621.151 571.241 621.963 574.073 622.286 576.775C622.383 578.37 621.729 580.81 620.229 582.5C612.858 590.463 612.459 599.77 613.395 609.958C614.007 617.445 615.108 625.062 609.727 631.466C608.096 633.644 605.845 636.179 603.368 637.607C598.282 640.952 595.64 644.951 595.536 651.199C595.371 653.77 594.456 657.186 593.314 659.495C591.16 663.625 587.67 666.874 586.005 671.135C584.601 674.42 584.663 678.098 584.725 681.776C584.78 693.297 585.812 705.08 585.379 716.471C585.537 721.743 583.968 727.599 582.172 732.348C581.387 735.276 578.648 737.68 576.171 739.108C567.63 743.619 561.402 749.273 557.321 758.64C553.633 766.543 548.478 774.053 541.5 780.552C534.522 787.05 531.191 795.572 531.28 805.011C531.57 809.795 531.501 813.961 526.904 817.436C526.284 817.793 525.761 819.745 526.119 820.364C527.743 826.03 526.436 830.91 523.662 835.397C519.877 841.705 518.047 848.537 518.659 856.023C518.721 859.701 517.579 862.01 514.97 863.926C510.862 867.533 509.197 871.793 508.247 877.292C507.786 882.922 505.239 888.516 503.801 893.884C501.22 901.561 495.577 908.94 496.417 917.533C496.802 923.913 498.784 930.197 500.897 935.994C503.952 944.135 503.56 945.599 496.355 950.99C494.366 952.549 492.246 954.597 492.928 957.917C493.347 962.214 490.966 965.237 489.562 968.522C485.516 975.806 482.804 983.971 478.139 991.612C475.104 997.075 473.046 1002.8 471.966 1008.79C470.624 1015.75 466.708 1022.55 461.23 1027.35C457.61 1031.09 453.763 1033.72 449.655 1037.33C448.154 1039.02 447.012 1041.33 445.512 1043.02C444.631 1044.35 442.773 1045.42 442.023 1046.27C440.818 1044.9 438.637 1043.27 438.54 1041.67C437.405 1036.14 439.332 1030.9 442.236 1025.93C447.033 1017.8 452.676 1010.42 454.672 1001.02C457.748 985.626 458.119 970.557 451.616 955.739C450.088 951.669 449.669 947.372 453.516 944.742C460.721 939.35 463.171 932.161 462.331 923.568C461.877 921.354 463.15 918.557 463.315 915.986C463.611 912.927 463.776 910.356 463.942 907.786C464.334 906.322 464.01 903.62 465.249 902.906C468.25 899.526 469.654 896.241 469.495 890.968C469.303 887.778 471.326 884.136 472.73 880.851C474.753 877.209 475.799 873.305 474.271 869.235C472.289 862.95 473.37 856.964 474.939 851.108C476.9 843.788 479.708 837.218 482.158 830.029C484.346 823.816 483.603 816.818 480.383 811.247C476.804 805.058 478.731 799.821 482.254 794.489C489.921 783.468 497.945 773.065 505.123 761.913C508.777 756.093 511.227 748.904 514.035 742.334C515.308 739.537 517.558 737.002 518.831 734.205C518.962 733.717 519.582 733.36 520.201 733.003C525.287 729.658 527.214 724.421 527.317 718.173C527.324 710.329 527.331 702.486 527.207 695.13C527.11 693.535 527.145 691.452 526.56 689.727C524.578 683.442 526.147 677.586 528.693 671.992C530.847 667.862 531.535 663.34 533.201 659.079C535.747 653.485 537.674 648.248 541.067 643.404C544.102 637.94 544.625 635.988 541.893 630.549C540.461 628.074 538.899 626.086 537.956 623.741C536.559 619.183 537.247 614.66 540.379 610.792C545.533 603.281 547.137 595.343 546.917 586.392C546.958 576.466 548.823 567.551 555.085 559.815C558.967 555.102 561.609 551.102 553.048 542.009C549.793 538.522 549.373 534.225 549.084 529.441C549.119 527.358 550.13 525.537 552.966 524.727C554.693 524.144 556.193 522.454 556.716 520.502C558.12 517.217 558.678 513.182 559.593 509.766C559.855 508.79 560.116 507.814 560.866 506.969C564.225 504.208 563.282 501.863 560.742 499.614C560.384 498.995 560.908 497.043 561.3 495.579C563.385 495.615 564.624 494.901 565.862 494.186Z" fill="#00FF01"/>
<path d="M715.286 673.348C716.002 674.586 716.717 675.824 717.564 676.573C722.512 681.56 723.778 686.607 720.124 692.427C717.089 697.89 713.208 702.603 710.173 708.066C704.495 717.529 704.454 727.455 708.583 737.453C711.054 743.868 712.905 750.64 713.648 757.639C714.102 759.853 711.852 762.388 711.198 764.828C710.283 768.244 708.748 772.017 707.833 775.433C706.883 780.931 703.621 785.287 699.513 788.894C692.665 794.904 687.999 802.546 683.333 810.187C681.441 813.341 681.73 818.125 681.792 821.803C681.985 824.993 683.154 828.445 683.836 831.765C685.329 837.919 683.271 843.644 679.39 848.357C676.389 851.737 672.9 854.986 669.9 858.367C665.53 862.949 665.2 868.091 665.716 873.982C666.005 878.767 666.782 883.682 666.094 888.205C665.798 891.264 663.906 894.418 661.917 895.977C657.939 899.096 656.405 902.869 656.694 907.653C656.756 911.331 655.482 914.128 653.59 917.282C652.09 918.972 651.924 921.543 651.401 923.495C651.236 926.066 651.429 929.256 651.752 931.958C652.303 935.766 651.161 938.075 648.422 940.479C639.682 949.644 630.942 958.809 623.179 968.235C620.048 972.103 617.763 976.721 615.609 980.852C612.443 986.803 612.567 994.158 607.447 999.585C606.078 1000.79 603.731 1001.73 601.515 1002.18C600.896 1002.54 598.845 1000.42 599.106 999.443C599.471 992.218 600.455 984.636 600.82 977.412C600.958 969.08 603.896 962.022 607.943 954.738C614.012 943.812 616.043 932.327 611.948 920.246C609.835 914.45 610.881 910.546 616.944 907.463C624.734 903.797 626.207 896.346 629.504 889.907C632.181 883.825 632.642 878.196 630.791 871.423C630.206 869.698 631.609 866.413 632.848 865.698C641.912 859.236 645.504 849.738 648.738 839.621C650.307 833.765 651.388 827.778 653.446 822.053C656.811 811.448 661.023 801.593 664.388 790.989C666.315 785.752 666.907 779.634 667.368 774.004C667.567 769.351 666.79 764.435 666.012 759.519C664.002 747.475 667.01 736.251 674.284 726.693C680.058 718.826 679.088 710.721 676.521 702.711C674.215 693.724 672.398 684.869 672.309 675.431C672.213 673.836 672.866 671.396 674.236 670.194C677.856 666.457 678.902 662.553 679.101 657.899C679.267 655.328 681.028 652.662 683.148 650.615C685.398 648.08 685.791 646.616 684.49 643.652C682.701 640.558 681.269 638.082 679.969 635.118C678.668 632.155 679.322 629.715 682.419 627.93C685.515 626.144 688.481 624.847 691.578 623.062C693.436 621.99 694.806 620.788 696.306 619.098C700.057 614.873 700.318 613.897 697.944 609.076C697.001 606.732 696.547 604.518 698.178 602.34C699.547 601.138 700.559 599.317 702.059 597.627C703.69 595.449 704.833 593.14 704.64 589.95C704.578 586.272 705.624 582.368 707.028 579.083C709.12 571.275 712.059 564.217 714.151 556.41C715.458 551.53 712.203 548.042 708.687 545.531C705.789 542.663 702.142 540.639 698.625 538.128C696.802 537.116 694.359 536.462 692.143 536.914C683.898 538.366 678.2 534.224 673.514 528.261C670.747 524.905 667.719 522.524 662.572 522.191C659.021 521.763 654.754 520.096 651.595 518.204C648.436 516.311 648.34 514.717 651.568 512.443C654.176 510.527 657.761 508.873 660.727 507.575L665.063 505.076C668.421 502.314 672.007 500.66 676.273 502.326C682.495 504.516 688.262 504.493 694.552 502.517C698.626 500.993 703.285 501.196 707.324 501.755C711.364 502.314 713.841 500.886 715.734 497.732C719.65 490.936 724.735 487.591 732.945 488.222C736.496 488.651 740.212 486.508 743.309 484.723C749.014 481.021 753.281 482.688 754.155 489.198C754.348 492.388 757.245 495.256 760.927 495.197C768.91 494.721 772.13 500.291 774.112 506.575C775.64 510.646 777.429 513.74 781.565 515.895C784.235 517.656 784.559 520.358 782.797 523.024L782.666 523.512C778.262 530.177 778.262 530.177 783.568 535.783C787.896 541.127 788.316 545.424 783.816 550.494C779.934 555.207 779.865 559.373 782.597 564.812C784.614 569.014 784.71 570.609 780.505 572.62C773.334 575.929 770.527 582.499 768.207 589.2C766.673 592.973 764.422 595.508 760.837 597.162C758.49 598.103 756.109 601.126 754.478 603.304C751.085 608.148 747.562 613.48 744.658 618.455C743.908 619.3 743.777 619.788 743.515 620.764C742.208 625.644 739.696 629.155 735.491 631.167C730.048 633.892 726.297 638.118 727.66 644.759C728.926 649.806 726.283 653.805 724.618 658.066C724.356 659.042 722.987 660.244 723.214 661.351C722.133 667.337 718.287 669.968 715.286 673.348Z" fill="#00FF01"/>
</g>
<path d="M184.843 1164.7C182.304 1164.02 180.576 1161.44 181.332 1158.62C181.483 1158.05 192.068 1118.55 196.131 1104.52C188.39 1109.7 177.616 1118.31 172.491 1123.89C172.829 1124.89 173.449 1125.96 173.655 1126.32L177.187 1131.2L171.428 1132.37C168.868 1132.9 167.099 1132.73 165.895 1132.71L165.33 1132.56C163.542 1133.59 162.055 1133.49 161.209 1133.27C158.669 1132.58 157.505 1130.16 157.037 1128.52C154.316 1121.74 151.803 1115.32 149.495 1109.26C148.483 1106.27 147.395 1103.55 146.513 1101.2C143.489 1112.49 139.008 1130.34 138.478 1132.32C138.382 1133.8 137.516 1134.78 136.367 1135.68C135.218 1136.58 133.656 1136.77 132.245 1136.39C129.987 1135.79 128.466 1133.56 128.506 1131.16C128.375 1130.52 127.343 1128.73 126.647 1127.94C125.257 1126.35 124.864 1124.43 125.111 1122.38C125.434 1120.05 126.961 1117.74 129.183 1116.22C131.37 1112.57 137.398 1091.2 137.459 1087.59C137.479 1086.38 137.349 1085.74 137.575 1084.9C137.596 1083.69 137.671 1083.41 136.432 1081.26L133.182 1076.46L139.148 1075.64C140.71 1075.45 142.988 1074.85 145.19 1074.54C146.47 1074.27 148.108 1073.81 149.67 1073.62L151.872 1073.3L153.262 1074.88C156.457 1078.76 165.817 1103.65 169.137 1112.71C177.048 1105.75 189.48 1095.48 197.406 1091.85C197.764 1091.65 198.046 1091.72 198.404 1091.52C198.555 1090.95 198.782 1090.11 199.498 1089.69C200.874 1087.94 203.151 1087.34 205.691 1088.03C207.102 1088.4 208.361 1089.35 209.263 1090.49C211.762 1093.58 214.619 1096.47 216.574 1098.2C220.071 1100.95 219.032 1103.7 218.523 1104.47C217.788 1106.09 215.999 1107.12 213.872 1107.15L213.494 1108.56C204.215 1142.07 203.04 1148.71 202.944 1150.19C203.075 1150.83 203 1151.12 203.13 1151.76C203.579 1154.6 204.007 1158.64 199.018 1160.33C198.02 1160.67 196.74 1160.93 195.385 1161.48C194.105 1161.74 192.392 1162.49 191.394 1162.83C188.814 1164.55 186.818 1165.23 184.843 1164.7ZM628.477 1279.94C626.784 1279.49 625.6 1278.26 624.003 1276.32C618.516 1269.71 615.725 1258.68 613.066 1248.29C610.93 1240.46 608.608 1231.07 605.731 1229.39C602.854 1227.71 605.731 1229.39 605.448 1229.31C603.755 1228.86 600.556 1229.52 599.482 1230.14C598.293 1233.45 596.63 1239.65 595.117 1245.3L592.244 1256.02C591.282 1258.48 588.777 1259.93 586.238 1259.25C584.262 1258.72 582.59 1257.06 582.272 1254.86C581.935 1253.86 579.512 1250.49 578.479 1248.7C576.524 1246.97 575.773 1245.25 575.738 1243.13C575.572 1240.36 577.306 1238.41 579.321 1236.53C581.075 1233.37 586.856 1214.05 588.368 1208.41C585.622 1207.37 583.894 1204.79 584.575 1202.25C584.953 1200.84 585.895 1199.58 587.251 1199.03C588.324 1198.41 589.528 1198.43 590.939 1198.81C591.861 1198.76 594.139 1198.16 600.407 1196.21C601.047 1196.08 601.405 1195.87 602.045 1195.74C603.043 1195.4 603.889 1195.63 605.018 1195.93C605.582 1196.08 608.686 1196.91 609.774 1199.63L611.11 1200.29C612.107 1199.95 612.672 1200.1 613.312 1199.97C613.876 1200.12 614.234 1199.91 615.08 1200.14C616.209 1200.44 617.62 1200.82 619.237 1201.56C621.495 1202.16 623.676 1203.05 625.934 1203.65L628.473 1204.33C629.678 1204.35 631.164 1204.45 632.086 1204.39C633.29 1204.41 634.495 1204.43 635.623 1204.74L636.188 1204.89C638.934 1205.93 640.098 1208.36 640.848 1210.07L641.468 1211.14C641.675 1211.5 641.805 1212.14 642.294 1212.57C643.589 1215.64 642.888 1219.39 640.439 1221.75L640.081 1221.96C638.857 1223.14 637.632 1224.33 636.009 1228.13L635.047 1230.59L632.356 1230.48C630.23 1230.51 627.463 1230.68 624.979 1230.92C626.445 1232.22 627.12 1234.21 626.571 1237.39C626.999 1241.44 636.042 1264.13 641.08 1267.9C643.599 1269.78 646.325 1272.02 645.136 1275.33C644.476 1276.67 643.1 1278.42 639.563 1278.07C637.512 1277.83 634.236 1278.76 633.163 1279.38C631.883 1279.65 630.17 1280.4 628.477 1279.94ZM609.31 1210.39C606.957 1211.27 604.019 1213.2 601.494 1215.86C600.703 1216.55 600.043 1217.89 599.589 1219.58C600.511 1219.52 601.791 1219.26 603.353 1219.08L603.918 1219.23C607.248 1219.21 611.294 1218.78 614.343 1218.69C616.469 1218.66 618.032 1218.47 619.236 1218.49C621.362 1218.46 623.02 1216.78 623.625 1214.53L620.239 1213.62C619.675 1213.47 617.982 1213.01 617.342 1213.15C617.059 1213.07 616.702 1213.28 616.419 1213.2C615.497 1213.26 614.5 1213.59 612.731 1213.42L612.167 1213.27C610.983 1212.05 609.723 1211.1 609.31 1210.39ZM521.847 1241.09C519.872 1240.56 518.482 1238.98 518.089 1237.06C517.393 1236.27 515.081 1234.74 513.821 1233.8C512.768 1233.21 512.073 1232.42 511.302 1231.91C508.782 1230.03 508.747 1227.9 508.768 1226.7C508.959 1223.72 511.257 1221.92 513.122 1220.6C513.858 1218.99 516.01 1213.21 521.625 1191.13L522.079 1189.43C519.972 1188.27 518.809 1185.84 519.413 1183.58C520.018 1181.32 522.392 1179.24 526.136 1179.94C529.315 1180.49 531.744 1179.32 534.097 1178.44C535.453 1177.9 536.808 1177.35 538.088 1177.09L538.37 1177.17C539.01 1177.04 539.575 1177.19 540.139 1177.34C542.678 1178.02 544.764 1180.39 544.799 1182.52C548.261 1183.14 551.929 1184.13 552.494 1184.28C555.033 1184.96 558.419 1185.87 560.243 1186.96L561.09 1187.19C561.654 1187.34 562.576 1187.28 563.216 1187.15C564.138 1187.1 565.343 1187.12 566.471 1187.42C568.729 1188.02 571.097 1190.47 572.054 1192.54C573.218 1194.97 573.102 1197.66 572.759 1201.2C572.814 1202.12 572.512 1203.25 572.491 1204.45L572.416 1204.74C572.32 1206.22 571.735 1207.28 570.586 1208.18C569.155 1209 567.517 1209.47 565.542 1208.94C563.567 1208.41 562.101 1207.11 561.708 1205.19C560.64 1201.28 559.607 1199.49 557.295 1197.96C555.753 1196.95 552.724 1195.83 549.338 1194.92C544.824 1193.71 541.004 1193.3 539.236 1193.12C538.142 1194.95 536.368 1199.31 535.97 1201.93C537.869 1202.74 540.973 1203.57 544.359 1204.48L548.31 1205.54C548.743 1205.05 550.683 1203.45 553.505 1204.21L553.787 1204.28C556.326 1204.96 557.359 1206.75 557.697 1207.75C558.034 1208.75 558.427 1210.67 556.618 1212.9L556.542 1213.19C555.676 1214.16 554.506 1216.27 554.355 1216.83C553.675 1219.37 551.095 1221.1 548.555 1220.42C546.016 1219.74 544.57 1217.24 544.968 1214.62C539.889 1213.26 535.581 1212.41 533.737 1212.52C531.776 1215.32 529.467 1226.19 529.764 1229.6C531.306 1230.62 534.748 1232.45 540.391 1233.96C546.034 1235.47 551.265 1236.27 553.391 1236.23C557.644 1236.16 558.793 1235.26 560.113 1232.59C561.207 1230.77 563.56 1229.89 565.535 1230.41C568.075 1231.09 569.239 1233.52 568.558 1236.06C568.483 1236.35 567.273 1240.86 565.519 1244.02C564.274 1246.41 559.885 1250.37 555.653 1249.24L555.37 1249.16C553.753 1248.43 553.058 1247.64 552.362 1246.85C545.363 1245.88 536.898 1243.61 533.512 1242.7L527.304 1241.04C526.74 1240.89 526.176 1240.74 525.969 1240.38C525.46 1241.15 523.823 1241.62 521.847 1241.09ZM466.391 1226.83C464.415 1226.3 462.949 1225 462.556 1223.08C462.35 1222.73 461.241 1221.22 457.18 1218.32C455.15 1216.87 454.681 1215.23 454.419 1213.95C453.971 1211.11 456.138 1208.66 457.156 1207.12C457.232 1206.84 457.665 1206.35 457.665 1206.35C459.419 1203.19 466.541 1180 467.791 1173.07C466.456 1172.41 464.198 1171.81 461.659 1171.13C457.991 1170.15 455.582 1170.1 455.018 1169.95C452.816 1170.27 451.46 1170.81 448.578 1173.67C447.277 1175.14 445.358 1175.53 443.1 1174.93C441.125 1174.4 439.659 1173.1 439.19 1171.46C438.646 1170.1 439.1 1168.41 439.967 1167.43C440.4 1166.94 440.909 1166.17 441.418 1165.4C443.454 1162.32 444.623 1160.21 446.13 1159.1C447.637 1158 452.116 1157.08 454.374 1157.68C455.785 1158.06 456.48 1158.85 457.251 1159.36C458.022 1159.87 458.51 1160.3 459.921 1160.68L498.297 1170.97C500.836 1171.65 501.758 1171.59 502.963 1171.61C503.603 1171.48 504.167 1171.63 505.371 1171.65C505.653 1171.73 505.653 1171.73 506.011 1171.52C506.651 1171.39 507.498 1171.62 508.344 1171.84C510.037 1172.3 510.732 1173.09 511.841 1174.59L512.33 1175.03C514.209 1177.04 513.811 1179.66 513.392 1183.48C513.372 1184.68 513.145 1185.53 513.2 1186.45L513.125 1186.73C513.029 1188.22 512.369 1189.55 511.22 1190.46C510.071 1191.36 508.151 1191.75 506.458 1191.3C504.483 1190.77 502.81 1189.11 502.417 1187.19C502.21 1186.83 502.362 1186.27 502.155 1185.91C501.893 1184.63 501.762 1183.99 499.807 1182.26C498.548 1181.31 495.519 1180.2 492.133 1179.29C489.029 1178.46 486.696 1178.14 485.492 1178.12C482.624 1184.31 476.102 1209.78 473.683 1218.81L472.246 1224.17C471.717 1226.14 468.93 1227.51 466.391 1226.83ZM241.574 1183.23C239.413 1181.14 238.325 1178.43 238.723 1175.81L239.464 1169.66L242.755 1172.05C242.981 1171.21 243.717 1169.59 244.115 1166.97L242.987 1166.67C240.241 1165.63 238.85 1164.05 238.608 1161.57L238.684 1161.28C238.76 1161 238.477 1160.93 237.5 1160.06C223.891 1147.64 221.338 1126.69 225.889 1113.1C226.343 1111.4 226.343 1111.4 225.517 1109.97L225.104 1109.26L222.005 1103.89L228.102 1103.71C229.024 1103.65 231.866 1103.2 239.773 1100.79C240.488 1100.37 241.41 1100.32 242.257 1100.54C243.95 1101 245.34 1102.58 246.449 1104.09L246.862 1104.8L258.149 1107.83L258.224 1107.55L258.507 1107.62L258.96 1105.93L260.397 1100.57C259.213 1099.34 258.951 1098.06 259.178 1097.22C259.067 1095.37 259.032 1093.24 260.332 1091.78C261.123 1091.08 262.197 1090.46 263.401 1090.48C264.041 1090.35 264.887 1090.58 266.016 1090.88C267.145 1091.18 268.556 1091.56 269.326 1092.07L270.455 1092.37C271.019 1092.53 271.659 1092.39 272.224 1092.55C274.199 1093.07 275.383 1094.3 275.72 1095.3C276.96 1097.44 276.073 1099.63 275.261 1101.53L274.808 1103.22C274.052 1106.04 273.013 1108.79 272.051 1111.25C272.615 1111.4 273.179 1111.55 273.95 1112.06C275.361 1112.44 276.696 1113.1 278.107 1113.48L278.389 1113.55C279.518 1113.86 281.005 1113.95 282.133 1114.25C283.62 1114.35 285.031 1114.73 286.442 1115.11C287.57 1115.41 288.417 1115.64 288.905 1116.07C293.324 1118.76 298.267 1124.02 299.28 1127.01C300.217 1130.29 297.561 1132.3 296.412 1133.2C295.621 1133.9 294.623 1134.23 294.321 1135.36C294.169 1135.93 293.282 1138.11 292.753 1140.08C288.786 1152.63 286.634 1158.41 283.696 1160.34C278.33 1163.44 272.928 1164.41 266.962 1165.23C264.478 1165.47 261.918 1166 259.076 1166.44C258.209 1167.42 256.778 1168.25 255.216 1168.43L254.46 1171.26C254.309 1171.82 254.213 1173.31 254.268 1174.23C254.283 1177.56 254.222 1181.17 251.849 1183.26C250.982 1184.24 249.118 1185.55 246.014 1184.72L244.038 1184.19L242.043 1184.87L241.574 1183.23ZM268.971 1121.61C267.651 1124.29 267.101 1127.46 266.779 1129.8C266.305 1132.69 265.342 1135.16 264.379 1137.62C263.644 1139.24 262.908 1140.86 262.736 1142.63C261.905 1145.73 261.148 1148.55 260.599 1151.73C265.567 1151.25 272.063 1148.45 273.645 1147.06C274.381 1145.44 275.364 1141.78 276.8 1136.41C277.405 1134.16 279.069 1127.95 278.6 1126.31C278.469 1125.67 276.872 1123.73 269.047 1121.33C269.329 1121.41 268.971 1121.61 268.971 1121.61ZM243.198 1116.22C240.103 1123.25 242.344 1137.46 247.715 1146.77L248.471 1143.95C249.227 1141.12 250.265 1138.38 250.87 1136.12C251.647 1132.09 253.138 1127.65 254.555 1123.5C255.084 1121.52 255.895 1119.62 256.425 1117.65L255.86 1117.5C255.296 1117.35 254.449 1117.12 253.961 1116.69C253.885 1116.97 253.603 1116.89 253.527 1117.17C252.378 1118.08 250.514 1119.39 248.105 1119.35L246.977 1119.05C245.153 1117.95 243.893 1117.01 243.198 1116.22ZM346.75 1194.78C344.493 1194.17 342.689 1191.87 343.521 1188.77C343.899 1187.36 344.201 1186.23 344.786 1185.18C345.088 1184.05 345.673 1182.99 345.9 1182.15C346.278 1180.74 346.58 1179.61 346.374 1179.25C344.308 1175.67 326.649 1151.28 318.663 1141.58C317.151 1147.23 315.996 1152.66 314.484 1158.31C312.876 1165.44 310.986 1172.49 309.02 1179.83C308.415 1182.08 306.042 1184.17 302.938 1183.34C301.527 1182.96 299.703 1181.87 299.255 1179.03L299.048 1178.67L299.124 1178.39C298.993 1177.75 298.58 1177.03 298.167 1176.31C297.134 1174.53 295.895 1172.38 296.651 1169.56C297.256 1167.3 298.556 1165.83 299.78 1164.65C299.856 1164.37 300.138 1164.44 300.214 1164.16C300.647 1163.67 301.61 1161.21 303.671 1152.39L304.579 1149C305.864 1144.2 307.149 1139.41 308.152 1134.53L308.304 1133.97C308.757 1132.28 309.156 1129.66 308.254 1128.51L302.258 1122.67L310.557 1122.17C314.246 1121.95 316.447 1121.63 318.876 1120.47L326.163 1116.98L324.575 1122.9C329.986 1129.8 335.04 1136.9 340.093 1144L344.32 1149.67C345.429 1151.17 346.331 1152.32 347.439 1153.83C348.754 1155.69 350.069 1157.56 351.459 1159.14L355.391 1144.47L359.701 1128.38L360.079 1126.97L360.608 1125C360.759 1124.43 360.553 1124.08 360.14 1123.36C359.726 1122.65 358.9 1121.21 359.429 1119.24C360.11 1116.7 362.766 1114.69 366.152 1115.6C367.562 1115.97 368.54 1116.84 368.953 1117.56L369.16 1117.91L369.648 1118.35C370.681 1120.14 371.996 1122 373.462 1123.3L373.669 1123.66C374.364 1124.45 376.037 1126.11 375.357 1128.65C375.13 1129.49 374.243 1131.68 371.119 1132.05L358.19 1180.3C358.114 1180.58 358.169 1181.5 358.3 1182.14C358.562 1183.42 358.749 1184.99 358.295 1186.68C357.69 1188.94 356.541 1189.84 355.186 1190.38C353.83 1190.93 352.963 1191.9 351.814 1192.81L351.457 1193.01C350.156 1194.48 348.443 1195.23 346.75 1194.78ZM380.615 1216.25C378.922 1215.8 374.482 1214.3 373.319 1211.88C372.981 1210.88 373.001 1209.67 373.153 1209.11C371.762 1207.53 370.447 1205.66 369.132 1203.8C367.817 1201.93 366.296 1199.71 364.698 1197.77C363.101 1195.83 363.066 1193.7 364.235 1191.6C365.762 1189.29 368.755 1188.27 371.577 1189.03C373.552 1189.56 375.094 1190.58 376.409 1192.44C377.931 1194.66 380.223 1197.39 381.896 1199.05C382.385 1199.49 382.591 1199.84 383.08 1200.28C383.569 1200.71 384.622 1201.29 385.468 1201.52C386.315 1201.75 387.519 1201.77 389.081 1201.58C393.43 1200.03 405.172 1184.42 408.775 1176.62C408.926 1176.05 409.002 1175.77 408.72 1175.69L395.74 1172.22C393.049 1172.1 392.052 1172.44 391.694 1172.64C390.187 1173.75 388.267 1174.15 386.292 1173.62C384.035 1173.01 382.644 1171.43 382.045 1169.15C381.783 1167.87 380.901 1165.52 380.095 1162.88C378.745 1158.89 377.188 1154.54 376.665 1151.98C376.251 1151.27 375.501 1149.55 376.67 1147.45C377.839 1145.34 379.966 1145.31 380.888 1145.25C381.81 1145.2 381.886 1144.91 383.165 1144.65C383.805 1144.52 384.521 1144.11 385.519 1143.77C386.874 1143.23 388.078 1143.25 389.207 1143.55C390.618 1143.93 391.595 1144.79 392.084 1145.23C392.084 1145.23 392.366 1145.3 392.291 1145.59C392.573 1145.66 393.213 1145.53 393.495 1145.61L393.777 1145.68C395.339 1145.49 398.594 1145.76 402.207 1145.82C405.462 1146.09 410.562 1146.25 411.842 1145.98L412.482 1145.85C414.401 1145.46 416.321 1145.07 418.296 1145.6C419.707 1145.98 420.76 1146.56 422.227 1147.86C423.486 1148.8 424.388 1149.95 425.572 1151.18C427.376 1153.47 429.537 1155.57 432.208 1156.89C434.314 1158.05 435.478 1160.48 434.591 1162.67C433.628 1165.13 430.917 1166.22 428.377 1165.54L427.249 1165.23C426.967 1165.16 426.685 1165.08 426.478 1164.73C425.425 1164.14 423.807 1163.41 422.679 1163.1L422.114 1162.95C421.192 1163.01 420.628 1162.86 419.706 1162.91C417.297 1162.87 415.171 1162.91 409.81 1161.47C408.399 1161.09 406.499 1160.28 403.189 1159.09C401.289 1158.28 399.107 1157.39 398.543 1157.24L397.132 1156.86C397.525 1158.78 398.2 1160.78 398.744 1162.13L415.392 1166.59C416.803 1166.97 417.725 1166.92 419.081 1166.37C420.361 1166.11 421.565 1166.13 422.694 1166.43C424.951 1167.04 426.906 1168.77 427.788 1171.13C428.332 1172.48 429.44 1173.99 431.395 1175.72C433.143 1177.1 433.894 1178.81 433.722 1180.58C433.682 1182.99 431.742 1184.58 430.951 1185.28C430.593 1185.49 430.517 1185.77 430.235 1185.69L429.802 1186.18C421.567 1195.47 400.931 1221.69 380.615 1216.25Z" fill="#969897"/>
<path d="M213.257 1101.54C210.737 1099.66 207.75 1096.14 205.175 1093.33C203.578 1091.39 200.585 1092.4 201.129 1093.76C201.466 1094.76 199.113 1095.64 197.833 1095.9C189.549 1099.73 175.968 1110.91 167.547 1118.63C166.832 1119.05 165.91 1119.1 165.366 1117.75C164.615 1116.03 152.086 1081.53 149.099 1078C145.259 1078.79 141.419 1079.57 138.577 1080.02C141.414 1084.11 140.265 1085.01 140.355 1088.06C140.728 1091.18 133.47 1118.27 130.889 1120C128.667 1121.52 127.065 1124.12 128.868 1126.41C129.977 1127.92 131.554 1131.07 131.609 1131.99C131.362 1134.04 133.77 1134.08 134.149 1132.67C134.396 1130.62 143.791 1094.42 144.32 1092.45C144.623 1091.32 145.883 1092.26 146.895 1095.26C149.973 1101.83 154.361 1114.8 159.671 1127.71C160.346 1129.71 160.966 1130.78 162.472 1129.67C164.695 1128.15 165.163 1129.79 170.001 1128.67C168.892 1127.16 167.184 1123.37 167.693 1122.6C173.761 1115.76 191.428 1101.74 199.148 1097.76C200.579 1096.94 200.896 1099.14 200.367 1101.12C199.48 1103.3 185.266 1156.35 184.434 1159.45C184.056 1160.86 186.314 1161.46 187.049 1159.85C187.558 1159.08 193.676 1157.69 196.029 1156.81C198.664 1156 198.12 1154.65 197.692 1150.6C197.395 1147.2 208.545 1107.84 209.15 1105.59C209.528 1104.17 210.394 1103.2 211.805 1103.58C214.063 1104.18 215.212 1103.28 213.257 1101.54ZM638.479 1270.83C631.974 1265.76 622.276 1239.87 622.75 1236.97C623.224 1234.08 622.735 1233.64 620.629 1232.47C616.981 1230.29 613.429 1226.61 613.429 1226.61C613.429 1226.61 612.038 1225.03 614.578 1225.71C617.117 1226.39 618.886 1226.56 620.71 1227.66C624.832 1226.95 629.16 1226.6 632.491 1226.58C634.416 1221.65 636.356 1220.06 637.657 1218.59C638.881 1217.41 639.411 1215.43 638.66 1213.72L638.04 1212.64C637.007 1210.85 636.614 1208.93 634.715 1208.12C633.586 1207.82 630.744 1208.27 627.847 1207.8C623.463 1207.23 614.454 1203.6 613.25 1203.58C611.123 1203.62 601.635 1207.43 601.937 1206.3C602.315 1204.89 602.542 1204.04 603.409 1203.06C604.406 1202.72 605.48 1202.1 606.76 1201.84L606.195 1201.69C607.626 1200.86 604.185 1199.04 602.905 1199.3C603.263 1199.09 591.93 1203.01 590.313 1202.27C587.849 1201.31 587.451 1203.93 589.708 1204.53C591.683 1205.06 592.791 1206.57 592.187 1208.83C592.035 1209.39 584.062 1236.89 582.046 1238.77C579.239 1241.34 578.145 1243.17 581.36 1245.84C581.36 1245.84 585.794 1251.87 586.186 1253.79C586.373 1255.35 588.272 1256.16 589.008 1254.55C590.954 1248.42 594.472 1233.03 596.831 1227.61C597.567 1225.99 605.115 1223.78 608.199 1225.82C616.266 1230.7 617.659 1261.62 627.448 1273.62C629.947 1276.71 630.023 1276.42 631.812 1275.39C632.885 1274.77 637.158 1273.5 640.413 1273.77C642.953 1274.45 640.998 1272.71 638.479 1270.83ZM603.931 1222.56C599.169 1223.4 594.916 1223.47 595.012 1221.98C595.108 1220.5 595.905 1215.27 598.636 1212.97C601.876 1209.91 605.887 1207.35 609.163 1206.42C612.08 1205.69 611.042 1208.43 613.582 1209.11C614.993 1209.49 615.784 1208.8 617.346 1208.61C618.55 1208.63 620.525 1209.16 621.372 1209.39C623.629 1209.99 625.887 1210.6 627.071 1211.82C627.766 1212.61 627.463 1213.74 627.312 1214.31C626.309 1219.18 622.938 1221.6 619.249 1221.82C616.559 1221.71 609.388 1222.51 603.931 1222.56ZM563.987 1233.93C561.648 1238.14 559.22 1239.31 554.045 1239.43C548.23 1239.69 531.713 1235.87 527.107 1231.61C524.946 1229.52 528.959 1210.03 532.592 1208.89C534.663 1207.93 546.232 1211.03 548.489 1211.63C550.182 1212.09 549.426 1214.91 549.275 1215.47C548.897 1216.88 550.796 1217.69 551.25 1216C551.553 1214.87 553.155 1212.28 554.455 1210.81C555.398 1209.55 555.06 1208.55 553.725 1207.89C551.75 1207.37 552.349 1209.64 549.094 1209.38C547.608 1209.28 534.91 1205.88 533.162 1204.5C531.338 1203.41 536.095 1190.17 538.373 1189.57C541.648 1188.63 555.062 1191.62 560.251 1194.82C563.899 1197.01 565.401 1200.44 566.469 1204.35C566.655 1205.92 569.703 1205.82 569.724 1204.62C569.805 1199.8 570.354 1196.62 569.397 1194.55C568.571 1193.12 566.898 1191.46 566.051 1191.24C564.358 1190.78 562.212 1192.02 558.977 1190.55C555.742 1189.08 543.327 1185.75 539.638 1185.97C537.869 1185.8 539.17 1184.34 540.807 1183.87C541.805 1183.53 540.359 1181.03 538.515 1181.14C536.031 1181.38 531.435 1184.99 525.434 1183.68C522.254 1183.13 522.42 1185.9 524.753 1186.22C526.804 1186.47 526.502 1187.6 525.897 1189.85C525.292 1192.11 517.917 1221.89 515.771 1223.13C512.908 1224.78 511.533 1226.53 513.694 1228.62C516.214 1230.51 521.61 1234.07 521.796 1235.63C521.982 1237.19 523.958 1237.72 524.336 1236.31C525.016 1233.77 526.125 1235.28 529.153 1236.39C533.592 1237.88 546.29 1241.29 554.493 1242.27C556.826 1242.6 555.037 1243.63 557.219 1244.52C559.194 1245.05 561.925 1242.75 562.943 1241.21C564.188 1238.82 565.171 1235.16 565.549 1233.75C565.927 1232.33 564.496 1233.16 563.987 1233.93ZM509.879 1177.4C507.793 1175.02 508.358 1175.17 505.591 1175.34C502.261 1175.35 502.109 1175.92 496.466 1174.41C489.205 1172.16 466.198 1166.6 459.426 1164.78C455.758 1163.8 455.289 1162.16 453.878 1161.79C452.467 1161.41 449.192 1162.34 448.834 1162.55C447.328 1163.66 444.48 1168.64 443.462 1170.18C442.52 1171.44 445.83 1172.63 446.697 1171.66C450.089 1168.03 452.084 1167.35 455.284 1166.7C459.406 1165.99 469.977 1169.43 472.214 1171.23C473.962 1172.61 463.197 1206.02 461.594 1208.61C460.5 1210.44 456.696 1213.35 459.779 1215.38C462.299 1217.27 466.491 1220.81 466.677 1222.37C466.732 1223.3 468.99 1223.9 469.216 1223.05C471.938 1212.9 481.43 1175.22 484.065 1174.41C486.983 1173.68 498.703 1176.22 502.971 1179.48C506.956 1182.66 506.502 1184.35 507.178 1186.35C507.364 1187.91 510.337 1188.1 510.433 1186.62C509.778 1183.42 510.781 1178.54 509.879 1177.4ZM296.925 1127.9C296.381 1126.54 292.491 1121.87 288.148 1118.89C286.606 1117.87 281.789 1117.79 278.685 1116.96C275.017 1115.98 271.293 1114.07 267.832 1113.45L267.907 1113.16L268.134 1112.32L268.699 1112.47L272.494 1101.69C273.834 1097.82 275.286 1095.79 271.109 1095.57C270.544 1095.42 266.181 1093.65 264.619 1093.83C263.697 1093.89 264.145 1096.73 264.069 1097.01C263.767 1098.14 265.762 1097.47 265.515 1099.52C265.117 1102.13 262.491 1110.81 262.395 1112.29L262.113 1112.22L262.037 1112.5C259.291 1111.46 244.749 1108.17 245.671 1108.11C244.487 1106.89 242.835 1104.03 241.837 1104.36C238.128 1105.79 231.935 1107.46 229.169 1107.62C230.408 1109.77 231.31 1110.92 230.045 1114.51C225.645 1127.55 228.934 1146.88 240.663 1157.28C245.062 1161.18 241.374 1161.4 245.173 1163.02C246.79 1163.76 247.919 1164.06 249.123 1164.08C248.326 1169.31 246.471 1178.49 242.899 1176.02C242.728 1177.79 243.554 1179.22 244.531 1180.09C245.887 1179.54 247.146 1180.49 248.275 1180.79C249.122 1181.02 250.044 1180.96 250.553 1180.19C252.286 1178.23 251.465 1172.27 252.146 1169.73L253.582 1164.37C255.915 1164.69 257.195 1164.43 257.931 1162.81C267.324 1160.49 275.32 1161.12 282.552 1156.71C285.847 1154.57 290.555 1135.87 291.876 1133.2C293.347 1129.96 297.111 1129.46 296.925 1127.9ZM254.331 1136.74C253.252 1141.9 250.288 1149.57 249.21 1154.73C240.206 1146.57 234.156 1122.87 240.491 1112.77C240.924 1112.29 242.638 1111.53 244.331 1111.99C245.384 1112.57 246.416 1114.36 247.903 1114.46C250.311 1114.5 251.783 1111.26 254.323 1111.94C255.734 1112.32 258.968 1113.79 260.944 1114.32C260.641 1115.45 260.056 1116.5 259.83 1117.35C258.297 1124.2 255.918 1130.82 254.331 1136.74ZM276.727 1149.1C275.483 1151.49 262.21 1157 255.72 1155.26C256.929 1150.75 257.781 1146.44 258.991 1141.93C260.125 1137.69 262.388 1133.76 263.24 1129.45C263.79 1126.27 264.415 1122.81 265.735 1120.14C266.395 1118.81 266.698 1117.68 266.718 1116.47C269.822 1117.31 280.544 1120.18 282.308 1124.89C283.189 1127.24 281.753 1132.6 280.467 1137.4C279.106 1142.48 277.821 1147.27 276.727 1149.1ZM370.861 1126.23C368.906 1124.5 367.666 1122.35 366.427 1120.21C366.22 1119.85 366.014 1119.49 365.45 1119.34C364.321 1119.04 363.53 1119.73 363.378 1120.3C363.152 1121.14 364.976 1122.24 364.708 1125.49L355.106 1161.33C355.031 1161.61 354.31 1166.56 353.181 1166.26C352.617 1166.1 351.921 1165.31 351.432 1164.88C347.749 1160.57 344.782 1155.84 341.663 1151.68C334.806 1142.28 327.949 1132.88 321.016 1123.77C317.872 1125.34 315.106 1125.51 311.341 1126.01C313.992 1128.54 312.858 1132.77 312.177 1135.31C311.229 1141.1 309.359 1146.95 307.847 1152.6C307.318 1154.57 304.596 1164.73 303.578 1166.27C302.636 1167.53 301.129 1168.64 300.751 1170.05C300.071 1172.59 303.154 1174.63 303.527 1177.75C303.733 1178.11 303.789 1179.03 304.635 1179.26C305.482 1179.48 305.991 1178.71 306.066 1178.43C309.847 1164.32 313.063 1150.06 316.919 1135.67C316.994 1135.39 317.297 1134.26 318.143 1134.49C320.118 1135.02 348.036 1173.04 350.439 1177.62C351.265 1179.05 350.509 1181.87 350.207 1183C349.602 1185.26 348.432 1187.36 347.828 1189.62C347.752 1189.9 347.525 1190.75 348.372 1190.98C348.936 1191.13 350.009 1190.51 350.085 1190.23C351.309 1189.04 352.534 1187.86 354.247 1187.11C354.963 1186.69 355.321 1186.49 355.548 1185.64C356.077 1183.67 354.913 1181.24 355.442 1179.26L368.447 1130.73C368.598 1130.16 369.052 1128.47 369.974 1128.42C370.896 1128.36 372.025 1128.66 372.251 1127.82C372.12 1127.18 371.349 1126.67 370.861 1126.23ZM428.456 1177.66C426.501 1175.92 424.622 1173.91 423.74 1171.55C423.271 1169.92 421.165 1168.75 419.528 1169.21C417.532 1169.89 415.97 1170.08 413.713 1169.47C411.173 1168.79 398.964 1165.82 395.654 1164.63C393.568 1162.26 392.127 1155.22 391.941 1153.66C391.699 1151.17 395.085 1152.08 398.472 1152.99C399.882 1153.37 407.763 1156.69 410.02 1157.29C416.792 1159.11 417.866 1158.49 421.685 1158.91C423.812 1158.87 427.177 1160.98 428.306 1161.28C430.13 1162.38 431.506 1160.63 430.246 1159.69C425.47 1157.2 422.502 1152.47 419.494 1150.15C417.05 1147.99 415.695 1148.53 412.495 1149.18C409.295 1149.84 397.273 1148.43 394.149 1148.8C393.226 1148.86 391.307 1149.25 390.536 1148.74C388.712 1147.65 388.45 1146.37 386.736 1147.12C383.31 1148.62 383.31 1148.62 381.108 1148.94C378.624 1149.18 380.165 1150.2 380.221 1151.12C381.289 1155.04 384.664 1165.01 385.601 1168.29C386.2 1170.57 388.685 1170.33 389.476 1169.63C390.982 1168.52 393.184 1168.2 396.082 1168.68L409.344 1172.23C411.601 1172.84 413.329 1175.42 411.933 1178.37C408.688 1185.97 396.134 1203.47 390.148 1205.5C386.157 1206.85 382 1205.43 380.196 1203.13C379.012 1201.91 375.818 1198.03 373.601 1195.01C370.971 1191.29 366.471 1193.41 367.993 1195.63C371.187 1199.51 373.666 1203.8 376.371 1207.25C377.762 1208.83 376.82 1210.09 377.157 1211.09C377.288 1211.73 380.034 1212.77 382.009 1213.3C400.068 1218.14 420.423 1191.83 427.226 1183.37C427.831 1181.12 431.313 1180.54 428.456 1177.66Z" fill="white"/>
<path d="M158.326 1202.01L174.551 1206.36L175.938 1201.18L159.714 1196.83L161.564 1189.93L189.526 1197.42L190.913 1192.24L154.666 1182.53L146.434 1213.25L183.026 1223.06L184.598 1217.19L156.291 1209.6L158.326 1202.01Z" fill="url(#paint2_linear_49_73)"/>
<path d="M261.222 1228.1C260.945 1229.14 260.482 1230.86 260.18 1233.37C259.169 1231.62 258.066 1230.21 256.963 1228.81L236.572 1204.1L231.049 1202.62L222.816 1233.35L230.411 1235.38L234.851 1218.81C235.128 1217.78 235.498 1216.4 235.801 1213.89C236.559 1215.2 237.41 1216.17 238.26 1217.14L259.409 1243.15L264.932 1244.63L273.164 1213.91L265.57 1211.87L261.222 1228.1Z" fill="url(#paint3_linear_49_73)"/>
<path d="M317.812 1244.74L334.383 1249.18L335.77 1244L319.2 1239.56L321.05 1232.66L349.357 1240.24L350.745 1235.07L314.152 1225.26L305.92 1255.99L342.857 1265.88L344.43 1260.01L315.778 1252.34L317.812 1244.74Z" fill="url(#paint4_linear_49_73)"/>
<path d="M415.734 1272.83C421.258 1274.31 424.137 1273.23 425.247 1269.09L427.189 1261.84C428.299 1257.7 426.345 1255.32 420.822 1253.84L390.443 1245.71L382.211 1276.43L390.496 1278.65L393.641 1266.91L401.581 1269.04L412.935 1284.66L424.672 1287.81L411.247 1271.63L415.734 1272.83ZM394.683 1261.64L396.996 1253.01L415.637 1258.01C418.054 1258.65 419.342 1259.37 418.787 1261.44L417.769 1265.24C417.214 1267.31 416.086 1267.38 413.325 1266.64L394.683 1261.64Z" fill="url(#paint5_linear_49_73)"/>
<path d="M500.911 1275.3L476.401 1268.74C469.842 1266.98 467.056 1267.71 465.483 1273.58L461.136 1289.81C459.563 1295.67 461.265 1297.61 468.169 1299.46L492.679 1306.03C499.238 1307.79 502.024 1307.05 503.597 1301.18L506.464 1290.48L484.716 1284.65L483.328 1289.83L496.792 1293.44L494.942 1300.34L469.051 1293.41L474.231 1274.08L500.122 1281.01L499.197 1284.46L507.506 1285.21L507.691 1284.52C509.171 1279 507.125 1276.97 500.911 1275.3Z" fill="url(#paint6_linear_49_73)"/>
<path d="M578.928 1296.21L563.7 1304.71L554.418 1289.64L543.371 1286.68L557.48 1308.59L553.873 1322.06L562.158 1324.28L565.858 1310.47L588.939 1298.89L578.928 1296.21Z" fill="url(#paint7_linear_49_73)"/>
<defs>
<linearGradient id="paint0_linear_49_73" x1="290.501" y1="675.639" x2="604.666" y2="759.819" gradientUnits="userSpaceOnUse">
<stop stop-color="#C9D93D"/>
<stop offset="1" stop-color="#019E49"/>
</linearGradient>
<linearGradient id="paint1_linear_49_73" x1="592.943" y1="721.169" x2="731.502" y2="758.296" gradientUnits="userSpaceOnUse">
<stop stop-color="#C9D93D"/>
<stop offset="1" stop-color="#019E49"/>
</linearGradient>
<linearGradient id="paint2_linear_49_73" x1="150.511" y1="1197.73" x2="187.341" y2="1207.6" gradientUnits="userSpaceOnUse">
<stop stop-color="#C9D93D"/>
<stop offset="1" stop-color="#019E49"/>
</linearGradient>
<linearGradient id="paint3_linear_49_73" x1="226.808" y1="1218.18" x2="268.755" y2="1229.42" gradientUnits="userSpaceOnUse">
<stop stop-color="#C9D93D"/>
<stop offset="1" stop-color="#019E49"/>
</linearGradient>
<linearGradient id="paint4_linear_49_73" x1="310.228" y1="1240.53" x2="347.056" y2="1250.39" gradientUnits="userSpaceOnUse">
<stop stop-color="#C9D93D"/>
<stop offset="1" stop-color="#019E49"/>
</linearGradient>
<linearGradient id="paint5_linear_49_73" x1="386.15" y1="1260.87" x2="428.442" y2="1272.2" gradientUnits="userSpaceOnUse">
<stop stop-color="#C9D93D"/>
<stop offset="1" stop-color="#019E49"/>
</linearGradient>
<linearGradient id="paint6_linear_49_73" x1="463.22" y1="1281.53" x2="505.512" y2="1292.86" gradientUnits="userSpaceOnUse">
<stop stop-color="#C9D93D"/>
<stop offset="1" stop-color="#019E49"/>
</linearGradient>
<linearGradient id="paint7_linear_49_73" x1="539.362" y1="1301.92" x2="584.702" y2="1314.07" gradientUnits="userSpaceOnUse">
<stop stop-color="#C9D93D"/>
<stop offset="1" stop-color="#019E49"/>
</linearGradient>
<clipPath id="clip0_49_73">
<rect width="450" height="641" fill="white" transform="translate(373.529 364.928) rotate(15)"/>
</clipPath>
</defs>
</svg>
