<svg width="993" height="1555" viewBox="0 0 993 1555" fill="none" xmlns="http://www.w3.org/2000/svg">
<path d="M637.428 1489.62C627.872 1525.28 481.305 1517 310.062 1471.12C138.819 1425.23 7.74723 1359.12 17.3039 1323.46L354.619 64.5781L974.744 230.74L637.428 1489.62Z" fill="black"/>
<ellipse cx="664.682" cy="147.66" rx="321" ry="66.8569" transform="rotate(15 664.682 147.66)" fill="#C7CFDC"/>
<path d="M387.181 513.269C380.351 538.759 354.239 553.835 328.749 547.005C303.258 540.174 288.182 514.063 295.013 488.572C301.843 463.081 327.954 448.006 353.445 454.836C378.936 461.666 394.011 487.778 387.181 513.269ZM316.644 494.234C313.01 507.795 321.008 521.647 334.569 525.281C348.131 528.915 361.983 520.917 365.617 507.356C369.251 493.794 361.253 479.942 347.692 476.309C334.13 472.675 320.278 480.672 316.644 494.234ZM401.461 522.209L394.429 520.325L399.24 502.368L406.272 504.252L410.781 487.426L432.504 493.247L427.996 510.073L440.176 513.337L435.365 531.294L423.184 528.03L412.518 567.836L390.795 562.015L401.461 522.209ZM432.446 573.175L457.344 480.253L479.068 486.074L467.662 528.642C471.828 524.644 477.861 522.223 487.906 524.915C504.481 529.356 511.109 540.284 506.97 555.729L497.617 590.638L475.893 584.817L483.935 554.806C485.819 547.774 485.122 542.338 477.211 540.218C469.928 538.267 463.49 544.213 462.278 548.734L454.169 578.996L432.446 573.175ZM532.203 573.526C530.713 579.587 533.588 584.933 539.866 586.616C546.898 588.5 550.04 587.323 551.91 584.863L571.122 590.011C566.231 597.718 555.936 608.014 534.714 602.328C514.372 596.877 508.305 578.832 512.309 563.889C516.313 548.946 531.762 535.993 551.979 541.41C574.582 547.467 579.803 565.15 575.361 581.726C575.092 582.73 574.789 583.86 574.395 584.831L532.203 573.526ZM555.876 566.545C556.442 562.929 554.48 557.692 547.825 555.909C541.17 554.126 536.853 557.68 535.785 561.162L555.876 566.545ZM576.571 611.793L592.048 554.031L613.772 559.852L612.695 563.87C615.88 562.032 621.208 560.229 628.24 562.113C632.132 563.157 634.191 564.516 635.839 565.899L631.431 582.349C629.933 581.409 628.092 580.243 624.2 579.2C617.293 577.349 608.658 578.939 606.168 588.231L598.295 617.614L576.571 611.793Z" fill="white"/>
<path d="M311.317 573.536L284.175 566.263L278.325 588.093L305.468 595.366L303.863 601.355L276.721 594.082L268.853 623.446L295.995 630.719L294.416 636.611L261.382 627.76L279.861 558.793L312.896 567.644L311.317 573.536ZM307.603 640.145L318.292 600.252L323.701 601.701L322.2 607.304C324.258 604.646 328.924 602.687 335.492 604.446C346.697 607.449 350.243 615.853 347.784 625.029L341.288 649.274L335.782 647.799L341.786 625.389C343.831 617.758 341.77 611.926 334.043 609.856C325.543 607.578 320.699 612.906 319.094 618.895L313.012 641.594L307.603 640.145ZM373.031 652.603C379.503 654.337 384.562 652.069 388.109 648.879L392.162 653.07C387.918 657.317 380.539 660.516 371.556 658.109C359.578 654.9 353.214 643.877 356.424 631.899C359.659 619.825 370.656 613.558 382.633 616.767C396.156 620.391 400.509 632.738 397.843 642.687C397.351 644.522 396.925 645.34 396.152 645.133L361.476 635.841C360.63 642.862 364.338 650.274 373.031 652.603ZM392.624 638.597C393.442 633.226 390.431 624.758 381.158 622.273C371.402 619.659 364.554 625.899 362.97 630.651L392.624 638.597ZM401.334 665.26L412.023 625.367L417.432 626.816L416.267 631.163C418.1 628.962 421.425 627.369 425.289 628.404C429.249 629.465 431.792 631.182 433.585 634.147L429.89 637.505C428.823 636.08 427.703 634.848 424.033 633.865C419.493 632.648 415.025 635.799 414.197 638.89L406.743 666.709L401.334 665.26ZM478.767 643.251L484.273 644.726L473.842 683.653C470.426 696.403 460.255 701.132 448.375 697.949C437.46 695.024 431.014 687.396 432.305 679.874L437.714 681.323C437.452 685.394 441.227 690.236 449.824 692.539C459.387 695.102 465.878 691.354 468.337 682.178L469.708 677.058C464.802 680.299 458.598 681.432 452.512 679.801C441.115 676.747 434.326 664.99 437.38 653.592C440.434 642.194 452.192 635.405 463.59 638.46C469.675 640.09 474.482 644.173 477.111 649.433L478.767 643.251ZM442.764 655.138C440.512 663.541 445.532 672.237 453.936 674.489C462.34 676.74 471.035 671.72 473.287 663.316C475.539 654.913 470.518 646.217 462.115 643.965C453.711 641.714 445.015 646.734 442.764 655.138ZM505.571 679.317L525.059 655.655L530.758 657.182L489.033 707.808L483.334 706.281L501.139 684.652L492.217 646.855L498.303 648.486L505.571 679.317ZM562.974 702.256L578.332 706.371C593.69 710.486 607.949 702.091 612.556 684.897C617.189 667.607 609.013 653.303 593.654 649.188L578.296 645.073L562.974 702.256ZM618.545 686.502C613.136 706.69 595.782 717.362 578.492 712.729L555.503 706.569L573.983 637.602L596.972 643.762C614.262 648.395 623.954 666.314 618.545 686.502ZM620.176 723.898L630.866 684.006L636.275 685.455L635.11 689.802C636.942 687.601 640.268 686.007 644.132 687.043C648.092 688.104 650.634 689.82 652.428 692.786L648.733 696.144C647.665 694.719 646.546 693.487 642.875 692.504C638.335 691.287 633.868 694.438 633.039 697.529L625.586 725.348L620.176 723.898ZM669.501 694.358L658.812 734.251L653.306 732.775L663.995 692.883L669.501 694.358ZM672.85 684.178C672.358 686.013 670.425 687.048 668.589 686.556C666.754 686.064 665.597 684.201 666.089 682.366C666.606 680.434 668.54 679.399 670.375 679.891C672.21 680.383 673.368 682.246 672.85 684.178ZM672.843 738.01L683.533 698.118L688.942 699.567L687.441 705.169C689.499 702.512 694.165 700.552 700.733 702.312C711.938 705.315 715.483 713.719 713.025 722.895L706.528 747.14L701.023 745.665L707.027 723.255C709.072 715.624 707.011 709.792 699.284 707.722C690.784 705.444 685.94 710.772 684.335 716.761L678.253 739.46L672.843 738.01ZM731.259 727.574L751.074 716.215L758.125 718.105L736.009 730.71L752.458 759.343L744.731 757.273L731.154 733.758L729.369 734.625L724.736 751.915L719.327 750.466L738.48 678.987L743.889 680.437L731.259 727.574Z" fill="white"/>
<path d="M421.412 1093.4L361.525 1077.35L380.367 1007.04L402.39 1012.94C423.64 1018.63 440.655 1010.77 447.488 985.266C453.596 962.47 447.864 951.41 429.704 946.544C411.545 941.678 402.954 950.557 396.571 966.653L329.729 948.743C342.786 910.831 380.889 872.175 446.958 889.879C516.891 908.617 535.771 957.158 524.694 998.499C509.89 1053.75 474.251 1078.57 428.659 1066.36L421.412 1093.4ZM416.019 1142.89C410.532 1163.37 389.467 1175.53 368.989 1170.05C348.512 1164.56 336.349 1143.49 341.836 1123.01C347.323 1102.54 368.389 1090.38 388.866 1095.86C409.344 1101.35 421.506 1122.41 416.019 1142.89Z" fill="white"/>
</svg>
