<svg width="993" height="1555" viewBox="0 0 993 1555" fill="none" xmlns="http://www.w3.org/2000/svg">
<g clip-path="url(#clip0_22_30)">
<path d="M637.428 1489.62C627.872 1525.28 481.305 1517 310.062 1471.12C138.819 1425.23 7.74722 1359.12 17.3039 1323.46L354.619 64.5781L974.744 230.74L637.428 1489.62Z" fill="black"/>
<ellipse cx="664.682" cy="147.66" rx="321" ry="66.8569" transform="rotate(15 664.682 147.66)" fill="#C7CFDC"/>
<g clip-path="url(#clip1_22_30)">
<path d="M385.443 401.718C381.305 417.163 366.937 429.598 345.715 423.911C324.494 418.225 317.892 400.171 322.03 384.726C326.102 369.532 340.914 356.947 362.135 362.633C383.356 368.319 389.515 386.524 385.443 401.718ZM341.837 390.168C340.087 396.697 344.04 403.544 350.57 405.293C357.35 407.11 363.946 403.09 365.695 396.561C367.445 390.031 363.743 383.252 356.962 381.435C350.433 379.685 343.586 383.638 341.837 390.168ZM402.747 394.78L395.715 392.895L400.527 374.939L407.559 376.823L412.067 359.997L433.791 365.818L429.282 382.644L441.463 385.908L436.651 403.864L424.471 400.601L413.805 440.406L392.081 434.585L402.747 394.78ZM433.732 445.746L458.631 352.824L480.354 358.645L468.948 401.213C473.115 397.215 479.147 394.794 489.193 397.486C505.768 401.927 512.396 412.855 508.257 428.3L498.903 463.208L477.18 457.388L485.221 427.376C487.105 420.344 486.408 414.909 478.498 412.789C471.214 410.837 464.776 416.784 463.565 421.304L455.456 451.567L433.732 445.746ZM533.489 446.097C532 452.158 534.874 457.504 541.153 459.186C548.185 461.07 551.326 459.894 553.197 457.434L572.409 462.582C567.518 470.288 557.222 480.584 536.001 474.898C515.658 469.447 509.592 451.403 513.596 436.46C517.6 421.517 533.049 408.564 553.265 413.981C575.868 420.037 581.089 437.721 576.648 454.296C576.379 455.301 576.076 456.431 575.681 457.402L533.489 446.097ZM557.163 439.116C557.728 435.499 555.767 430.263 549.111 428.48C542.456 426.697 538.139 430.25 537.072 433.733L557.163 439.116ZM577.858 484.364L593.335 426.602L615.059 432.423L613.982 436.441C617.166 434.602 622.494 432.8 629.526 434.684C633.419 435.727 635.477 437.086 637.125 438.47L632.718 454.92C631.22 453.98 629.379 452.814 625.486 451.771C618.58 449.92 609.944 451.509 607.455 460.801L599.581 490.185L577.858 484.364Z" fill="white"/>
<path d="M323.613 524.944L329.023 526.393L309.87 597.872L304.461 596.422L306.091 590.337C301.186 593.578 294.981 594.71 288.896 593.08C277.498 590.026 270.709 578.268 273.764 566.87C276.818 555.472 288.575 548.684 299.973 551.738C306.058 553.369 310.865 557.452 313.494 562.711L323.613 524.944ZM279.147 568.416C276.895 576.82 281.916 585.515 290.319 587.767C298.723 590.019 307.418 584.998 309.67 576.595C311.922 568.191 306.901 559.496 298.498 557.244C290.094 554.992 281.399 560.013 279.147 568.416ZM320.933 600.836L331.622 560.943L337.031 562.393L335.867 566.739C337.699 564.538 341.024 562.945 344.888 563.98C348.848 565.041 351.391 566.758 353.184 569.723L349.489 573.081C348.422 571.656 347.302 570.425 343.632 569.441C339.092 568.225 334.624 571.376 333.796 574.467L326.342 602.285L320.933 600.836ZM370.258 571.296L359.568 611.188L354.063 609.713L364.752 569.82L370.258 571.296ZM373.607 561.115C373.115 562.951 371.181 563.985 369.346 563.494C367.511 563.002 366.353 561.139 366.845 559.304C367.363 557.372 369.296 556.337 371.132 556.829C372.967 557.321 374.124 559.184 373.607 561.115ZM373.6 614.948L384.289 575.055L389.698 576.505L388.197 582.107C390.255 579.449 394.921 577.49 401.49 579.25C412.694 582.252 416.24 590.656 413.781 599.833L407.285 624.077L401.779 622.602L407.784 600.193C409.828 592.562 407.768 586.73 400.04 584.659C391.54 582.382 386.696 587.709 385.091 593.698L379.009 616.397L373.6 614.948ZM432.015 604.511L451.83 593.153L458.881 595.042L436.765 607.648L453.215 636.281L445.488 634.21L431.911 610.695L430.126 611.563L425.493 628.853L420.084 627.403L439.236 555.925L444.646 557.374L432.015 604.511ZM504.844 638.727L526.353 611.775L531.504 645.87L552.193 620.045L557.505 621.468L528.269 657.944L523.04 624.139L501.609 650.801L494.527 604.593L499.84 606.017L504.844 638.727ZM570.989 625.081L560.3 664.974L554.794 663.499L565.483 623.606L570.989 625.081ZM574.338 614.901C573.846 616.737 571.913 617.771 570.077 617.28C568.242 616.788 567.085 614.925 567.577 613.09C568.094 611.158 570.028 610.123 571.863 610.615C573.698 611.106 574.856 612.969 574.338 614.901ZM584.537 634.509L579.128 633.06L580.577 627.651L585.987 629.1L590.671 611.617L596.08 613.066L591.396 630.549L600.765 633.06L599.316 638.469L589.946 635.959L580.707 670.442L575.297 668.993L584.537 634.509ZM599.674 675.524L618.827 604.046L624.236 605.495L614.22 642.877C617.206 639.846 621.698 638.151 627.397 639.678C638.312 642.603 641.49 651.219 639.109 660.105L632.586 684.447L627.177 682.997L633.622 658.946C635.045 653.633 634.061 647.261 626.044 645.113C618.606 643.12 613.029 647.32 611.735 652.15L605.083 676.974L599.674 675.524ZM250.628 655.917C253.864 643.842 264.86 637.575 276.838 640.784C282.633 642.337 285.503 644.763 288.411 647.82L286.548 654.774C284.252 651.364 280.965 647.791 275.363 646.29C266.669 643.961 258.463 648.698 256.134 657.392C253.805 666.085 258.542 674.291 267.236 676.62C272.645 678.07 277.471 676.671 281.216 674.672L279.327 681.724C276.201 682.957 272.136 683.834 265.76 682.126C253.783 678.917 247.419 667.894 250.628 655.917ZM307.737 693.374C296.339 690.32 289.551 678.562 292.605 667.164C295.659 655.766 307.416 648.978 318.814 652.032C324.803 653.637 329.61 657.72 332.264 662.883L333.895 656.797L339.304 658.247L328.615 698.14L323.205 696.69L324.81 690.701C319.93 693.846 313.822 695.004 307.737 693.374ZM298.084 668.736C295.833 677.139 300.853 685.835 309.257 688.087C317.66 690.339 326.356 685.318 328.608 676.915C330.859 668.511 325.839 659.815 317.435 657.564C309.032 655.312 300.336 660.332 298.084 668.736ZM352.731 667.642L347.322 666.193L348.771 660.784L354.181 662.233L360.392 639.051C361.686 634.221 365.407 630.767 371.396 632.371C373.811 633.018 375.304 633.626 377.178 634.749L375.78 639.965C374.293 638.945 372.658 638.093 371.499 637.782C368.698 637.032 366.655 637.313 365.543 641.466L359.59 663.682L369.056 666.219L367.606 671.628L358.14 669.092L348.9 703.575L343.491 702.126L352.731 667.642ZM380.369 675.048L374.96 673.599L376.41 668.189L381.819 669.639L388.031 646.457C389.325 641.627 393.046 638.172 399.034 639.777C401.449 640.424 402.943 641.031 404.816 642.154L403.418 647.37C401.932 646.351 400.296 645.499 399.137 645.188C396.336 644.437 394.294 644.718 393.181 648.872L387.228 671.088L396.694 673.625L395.245 679.034L385.779 676.497L376.539 710.981L371.13 709.531L380.369 675.048ZM415.877 716.449C422.349 718.183 427.408 715.915 430.955 712.724L435.008 716.916C430.765 721.162 423.385 724.362 414.402 721.955C402.425 718.745 396.061 707.722 399.27 695.745C402.505 683.671 413.502 677.404 425.48 680.613C439.002 684.236 443.355 696.584 440.689 706.533C440.197 708.368 439.771 709.185 438.999 708.978L404.322 699.687C403.476 706.707 407.184 714.119 415.877 716.449ZM435.47 702.442C436.288 697.071 433.277 688.603 424.004 686.119C414.248 683.505 407.4 689.745 405.816 694.497L435.47 702.442ZM461.244 690.921L450.555 730.813L445.049 729.338L455.739 689.445L461.244 690.921ZM464.593 680.741C464.102 682.576 462.168 683.611 460.333 683.119C458.497 682.627 457.34 680.764 457.832 678.929C458.349 676.997 460.283 675.962 462.118 676.454C463.954 676.946 465.111 678.809 464.593 680.741ZM464.587 734.573L475.276 694.68L480.685 696.13L479.184 701.732C481.242 699.074 485.908 697.115 492.476 698.875C503.681 701.878 507.227 710.282 504.768 719.458L498.272 743.703L492.766 742.227L498.77 719.818C500.815 712.187 498.754 706.355 491.027 704.284C482.527 702.007 477.683 707.335 476.078 713.323L469.996 736.023L464.587 734.573ZM530.015 747.032C536.487 748.766 541.546 746.498 545.093 743.307L549.146 747.499C544.902 751.746 537.523 754.945 528.54 752.538C516.562 749.328 510.198 738.306 513.408 726.328C516.643 714.254 527.64 707.987 539.617 711.196C553.14 714.819 557.493 727.167 554.827 737.116C554.335 738.951 553.909 739.769 553.136 739.562L518.46 730.27C517.614 737.29 521.322 744.702 530.015 747.032ZM549.608 733.026C550.426 727.654 547.415 719.186 538.142 716.702C528.386 714.088 521.538 720.328 519.954 725.08L549.608 733.026ZM592.708 736.189C593.381 733.677 595.927 732.289 598.342 732.936C600.854 733.609 602.268 736.058 601.595 738.57C600.948 740.985 598.473 742.495 595.961 741.822C593.546 741.175 592.061 738.603 592.708 736.189ZM585.539 762.945C586.186 760.53 588.758 759.045 591.173 759.692C593.684 760.365 595.073 762.911 594.426 765.326C593.753 767.837 591.303 769.252 588.792 768.579C586.377 767.932 584.866 765.456 585.539 762.945ZM609.107 756.94L624.85 751.116L614.128 738.201L615.577 732.792L632.578 753.187L607.657 762.349L609.107 756.94Z" fill="white"/>
</g>
</g>
<defs>
<clipPath id="clip0_22_30">
<rect width="642" height="1437" fill="white" transform="translate(371.924) rotate(15)"/>
</clipPath>
<clipPath id="clip1_22_30">
<rect width="546" height="949.231" fill="white" transform="translate(336.357 318.197) rotate(15)"/>
</clipPath>
</defs>
</svg>
