<svg width="993" height="1555" viewBox="0 0 993 1555" fill="none" xmlns="http://www.w3.org/2000/svg">
<path d="M637.428 1489.62C627.872 1525.28 481.305 1517 310.062 1471.12C138.82 1425.23 7.74747 1359.12 17.3041 1323.46L354.619 64.5781L974.744 230.74L637.428 1489.62Z" fill="black"/>
<ellipse cx="664.681" cy="147.66" rx="321" ry="66.8569" transform="rotate(15 664.681 147.66)" fill="#C7CFDC"/>
<path d="M387.179 513.269C380.349 538.759 354.238 553.835 328.747 547.005C303.256 540.174 288.181 514.063 295.011 488.572C301.841 463.081 327.953 448.006 353.443 454.836C378.934 461.666 394.01 487.778 387.179 513.269ZM316.643 494.234C313.009 507.795 321.006 521.647 334.568 525.281C348.129 528.915 361.981 520.917 365.615 507.356C369.249 493.794 361.251 479.942 347.69 476.309C334.128 472.675 320.276 480.672 316.643 494.234ZM401.459 522.209L394.427 520.325L399.238 502.368L406.27 504.252L410.779 487.426L432.503 493.247L427.994 510.073L440.174 513.337L435.363 531.294L423.183 528.03L412.517 567.836L390.793 562.015L401.459 522.209ZM432.444 573.175L457.342 480.253L479.066 486.074L467.66 528.642C471.827 524.644 477.859 522.223 487.904 524.915C504.48 529.356 511.107 540.284 506.969 555.729L497.615 590.638L475.891 584.817L483.933 554.806C485.817 547.774 485.12 542.338 477.209 540.218C469.926 538.267 463.488 544.213 462.277 548.734L454.168 578.996L432.444 573.175ZM532.201 573.526C530.712 579.587 533.586 584.933 539.864 586.616C546.896 588.5 550.038 587.323 551.908 584.863L571.121 590.011C566.229 597.718 555.934 608.014 534.712 602.328C514.37 596.877 508.304 578.832 512.308 563.889C516.312 548.946 531.76 535.993 551.977 541.41C574.58 547.467 579.801 565.15 575.36 581.726C575.09 582.73 574.788 583.86 574.393 584.831L532.201 573.526ZM555.875 566.545C556.44 562.929 554.478 557.692 547.823 555.909C541.168 554.126 536.851 557.68 535.783 561.162L555.875 566.545ZM576.569 611.793L592.047 554.031L613.77 559.852L612.694 563.87C615.878 562.032 621.206 560.229 628.238 562.113C632.131 563.157 634.189 564.516 635.837 565.899L631.429 582.349C629.932 581.409 628.091 580.243 624.198 579.2C617.292 577.349 608.656 578.939 606.166 588.231L598.293 617.614L576.569 611.793Z" fill="white"/>
<path d="M311.316 573.536L284.173 566.263L278.324 588.093L305.466 595.366L303.862 601.355L276.719 594.082L268.851 623.446L295.993 630.719L294.415 636.611L261.38 627.76L279.86 558.793L312.894 567.644L311.316 573.536ZM307.601 640.145L318.29 600.252L323.699 601.701L322.198 607.304C324.256 604.646 328.922 602.687 335.491 604.446C346.695 607.449 350.241 615.853 347.782 625.029L341.286 649.274L335.78 647.799L341.785 625.389C343.829 617.758 341.769 611.926 334.041 609.856C325.541 607.578 320.697 612.906 319.092 618.895L313.01 641.594L307.601 640.145ZM373.029 652.603C379.501 654.337 384.56 652.069 388.107 648.879L392.16 653.07C387.917 657.317 380.537 660.516 371.554 658.109C359.577 654.9 353.213 643.877 356.422 631.899C359.657 619.825 370.654 613.558 382.632 616.767C396.154 620.391 400.507 632.738 397.841 642.687C397.35 644.522 396.923 645.34 396.151 645.133L361.474 635.841C360.628 642.862 364.336 650.274 373.029 652.603ZM392.622 638.597C393.44 633.226 390.429 624.758 381.156 622.273C371.4 619.659 364.552 625.899 362.968 630.651L392.622 638.597ZM401.332 665.26L412.021 625.367L417.43 626.816L416.266 631.163C418.098 628.962 421.424 627.369 425.287 628.404C429.248 629.465 431.79 631.182 433.584 634.147L429.889 637.505C428.821 636.08 427.702 634.848 424.031 633.865C419.491 632.648 415.023 635.799 414.195 638.89L406.741 666.709L401.332 665.26ZM478.765 643.251L484.271 644.726L473.841 683.653C470.424 696.403 460.254 701.132 448.373 697.949C437.458 695.024 431.013 687.396 432.303 679.874L437.713 681.323C437.45 685.394 441.225 690.236 449.822 692.539C459.385 695.102 465.876 691.354 468.335 682.178L469.707 677.058C464.801 680.299 458.596 681.432 452.511 679.801C441.113 676.747 434.325 664.99 437.379 653.592C440.433 642.194 452.19 635.405 463.588 638.46C469.674 640.09 474.48 644.173 477.109 649.433L478.765 643.251ZM442.762 655.138C440.51 663.541 445.531 672.237 453.934 674.489C462.338 676.74 471.033 671.72 473.285 663.316C475.537 654.913 470.516 646.217 462.113 643.965C453.709 641.714 445.014 646.734 442.762 655.138ZM505.569 679.317L525.057 655.655L530.756 657.182L489.032 707.808L483.333 706.281L501.137 684.652L492.216 646.855L498.301 648.486L505.569 679.317ZM562.972 702.256L578.331 706.371C593.689 710.486 607.948 702.091 612.555 684.897C617.187 667.607 609.011 653.303 593.653 649.188L578.294 645.073L562.972 702.256ZM618.543 686.502C613.134 706.69 595.78 717.362 578.49 712.729L555.501 706.569L573.981 637.602L596.97 643.762C614.26 648.395 623.953 666.314 618.543 686.502ZM620.175 723.898L630.864 684.006L636.273 685.455L635.108 689.802C636.94 687.601 640.266 686.007 644.13 687.043C648.09 688.104 650.633 689.82 652.426 692.786L648.731 696.144C647.664 694.719 646.544 693.487 642.874 692.504C638.334 691.287 633.866 694.438 633.038 697.529L625.584 725.348L620.175 723.898ZM669.499 694.358L658.81 734.251L653.304 732.775L663.994 692.883L669.499 694.358ZM672.848 684.178C672.357 686.013 670.423 687.048 668.588 686.556C666.752 686.064 665.595 684.201 666.087 682.366C666.604 680.434 668.538 679.399 670.373 679.891C672.209 680.383 673.366 682.246 672.848 684.178ZM672.842 738.01L683.531 698.118L688.94 699.567L687.439 705.169C689.497 702.512 694.163 700.552 700.731 702.312C711.936 705.315 715.482 713.719 713.023 722.895L706.527 747.14L701.021 745.665L707.025 723.255C709.07 715.624 707.009 709.792 699.282 707.722C690.782 705.444 685.938 710.772 684.333 716.761L678.251 739.46L672.842 738.01ZM731.257 727.574L751.072 716.215L758.123 718.105L736.007 730.71L752.457 759.343L744.729 757.273L731.153 733.758L729.367 734.625L724.735 751.915L719.325 750.466L738.478 678.987L743.887 680.437L731.257 727.574Z" fill="white"/>
<path d="M421.411 1093.4L361.524 1077.35L380.366 1007.04L402.389 1012.94C423.64 1018.63 440.655 1010.77 447.488 985.266C453.596 962.47 447.863 951.41 429.704 946.544C411.544 941.678 402.953 950.557 396.57 966.653L329.728 948.743C342.785 910.831 380.888 872.175 446.958 889.879C516.891 908.617 535.771 957.158 524.693 998.499C509.889 1053.75 474.25 1078.57 428.658 1066.36L421.411 1093.4ZM416.019 1142.89C410.532 1163.37 389.466 1175.53 368.988 1170.05C348.511 1164.56 336.349 1143.49 341.835 1123.01C347.322 1102.54 368.388 1090.38 388.866 1095.86C409.343 1101.35 421.506 1122.41 416.019 1142.89Z" fill="white"/>
<path d="M36.734 1250.62C36.6609 1250.85 36.592 1251.08 36.5303 1251.31C26.9738 1286.97 158.046 1353.08 329.289 1398.97C500.531 1444.85 647.098 1453.13 656.655 1417.47C656.716 1417.24 656.771 1417.01 656.821 1416.77L656.839 1416.78L637.428 1489.22C627.871 1524.89 481.304 1516.61 310.062 1470.72C138.819 1424.84 7.74701 1358.73 17.3037 1323.06L36.7151 1250.62L36.734 1250.62Z" fill="#3DA6CF"/>
<path d="M166.847 1373.84C166.201 1375.51 167.182 1377.06 170.832 1379.15C179.399 1383.97 181.8 1391.08 179.171 1397.88C176.288 1405.34 167.781 1409.61 155.961 1405.04C149.573 1402.57 144.581 1397.55 141.771 1393.11L148.05 1385.38C150.751 1388.69 154.233 1392.64 157.815 1394.02C160.919 1395.22 162.951 1395.11 163.619 1393.38C164.219 1391.83 162.986 1390.05 159.515 1388.02C151.389 1383.31 149.276 1376.52 151.952 1369.6C154.604 1362.73 162.57 1357.92 172.48 1361.75C179.405 1364.42 184.403 1368 187.338 1371.95L180.921 1380.03C178.738 1377.34 174.91 1374.28 170.671 1372.64C169.06 1372.02 167.331 1372.59 166.847 1373.84ZM206.505 1374.49L196.832 1402.7C196.064 1404.94 197.183 1406.61 199.242 1407.32C201.3 1408.02 203.269 1407.41 204.037 1405.17L213.709 1376.96L227.573 1381.72L217.506 1411.08C214.185 1420.76 204.01 1422.42 195.111 1419.37C186.091 1416.27 179.253 1408.79 182.574 1399.1L192.641 1369.74L206.505 1374.49ZM250.013 1400.16C244.82 1398.54 240.379 1403.32 238.608 1409C236.779 1414.87 237.743 1421.67 243.425 1423.44C246.419 1424.38 247.869 1424.02 248.964 1423.09L250.222 1419.06L245.333 1417.54L247.867 1409.41L266.747 1415.29L262.023 1430.45C257.746 1434.28 249.116 1437.02 240.073 1434.2C224.37 1429.3 220.115 1415.64 223.6 1404.46C227.086 1393.28 238.373 1384.6 253.404 1389.28C264.096 1392.61 268.236 1399.33 269.713 1404.49L254.927 1405.04C254.505 1403.17 253.679 1401.3 250.013 1400.16ZM289.525 1400.66L305.902 1405.31L307.338 1453.22L293.423 1449.27L293.069 1442.31L281.063 1438.91L277.108 1444.63L263.132 1440.67L289.525 1400.66ZM292.453 1421.51L286.797 1429.95L292.708 1431.63L292.453 1421.51ZM353.091 1433.14C351.157 1440.57 347.596 1442.82 342.965 1443.33L348.881 1464.05L332.53 1459.79L328.894 1444.03L325.283 1457.91L310.79 1454.13L322.3 1409.91L342.12 1415.07C350.419 1417.23 355.59 1423.54 353.091 1433.14ZM332.328 1430.84L334.682 1431.45C336.664 1431.97 338.271 1431.13 338.802 1429.09C339.318 1427.1 338.34 1425.53 336.358 1425.01L334.005 1424.4L332.328 1430.84ZM392.27 1427.52L389.601 1438.6L375.228 1435.13L373.534 1442.16L387.16 1445.45L384.491 1456.52L370.865 1453.24L367.192 1468.48L352.944 1465.05L363.649 1420.63L392.27 1427.52ZM427.674 1450.31C426.044 1457.82 422.577 1460.21 417.971 1460.91L424.724 1481.37L408.214 1477.79L403.94 1462.19L400.896 1476.2L386.262 1473.02L395.965 1428.36L415.978 1432.71C424.358 1434.53 429.781 1440.62 427.674 1450.31ZM406.835 1448.86L409.212 1449.38C411.213 1449.82 412.784 1448.91 413.233 1446.85C413.668 1444.85 412.626 1443.31 410.625 1442.88L408.248 1442.36L406.835 1448.86ZM466.455 1442.81L464.333 1454L449.808 1451.25L448.711 1457.03L462.482 1459.64L460.348 1470.9L446.577 1468.29L445.552 1473.7L460.077 1476.45L457.944 1487.71L429.019 1482.22L437.53 1437.33L466.455 1442.81ZM499.887 1448.04L498.15 1459.3L483.539 1457.04L482.642 1462.86L496.494 1465L494.747 1476.32L480.895 1474.18L480.056 1479.62L494.667 1481.88L492.921 1493.2L463.825 1488.71L470.791 1443.55L499.887 1448.04Z" fill="white"/>
</svg>
