<svg width="993" height="1555" viewBox="0 0 993 1555" fill="none" xmlns="http://www.w3.org/2000/svg">
<g clip-path="url(#clip0_22_30)">
<path d="M637.428 1489.62C627.872 1525.28 481.305 1517 310.062 1471.12C138.819 1425.23 7.74722 1359.12 17.3039 1323.46L354.619 64.5781L974.744 230.74L637.428 1489.62Z" fill="black"/>
<ellipse cx="664.682" cy="147.66" rx="321" ry="66.8569" transform="rotate(15 664.682 147.66)" fill="#C7CFDC"/>
<g clip-path="url(#clip1_22_30)">
<path d="M419.125 394.054C412.294 419.545 386.183 434.62 360.692 427.79C335.201 420.96 320.126 394.848 326.956 369.357C333.786 343.866 359.898 328.791 385.388 335.621C410.879 342.451 425.955 368.563 419.125 394.054ZM348.588 375.019C344.954 388.58 352.951 402.432 366.513 406.066C380.074 409.7 393.926 401.703 397.56 388.141C401.194 374.579 393.197 360.727 379.635 357.094C366.073 353.46 352.221 361.457 348.588 375.019ZM433.404 402.994L426.372 401.11L431.183 383.153L438.215 385.038L442.724 368.211L464.448 374.032L459.939 390.858L472.119 394.122L467.308 412.079L455.128 408.815L444.462 448.621L422.738 442.8L433.404 402.994ZM464.389 453.96L489.288 361.038L511.011 366.859L499.605 409.427C503.772 405.43 509.804 403.008 519.85 405.7C536.425 410.141 543.052 421.069 538.914 436.514L529.56 471.423L507.836 465.602L515.878 435.591C517.762 428.559 517.065 423.123 509.154 421.003C501.871 419.052 495.433 424.998 494.222 429.519L486.113 459.781L464.389 453.96ZM564.146 454.311C562.657 460.372 565.531 465.718 571.81 467.401C578.842 469.285 581.983 468.108 583.854 465.648L603.066 470.796C598.175 478.503 587.879 488.799 566.657 483.113C546.315 477.662 540.249 459.617 544.253 444.674C548.257 429.731 563.705 416.778 583.922 422.195C606.525 428.252 611.746 445.936 607.305 462.511C607.035 463.515 606.733 464.646 606.338 465.617L564.146 454.311ZM587.82 447.331C588.385 443.714 586.423 438.478 579.768 436.694C573.113 434.911 568.796 438.465 567.728 441.947L587.82 447.331ZM608.514 492.579L623.992 434.816L645.716 440.637L644.639 444.655C647.823 442.817 653.151 441.014 660.183 442.899C664.076 443.942 666.134 445.301 667.782 446.684L663.375 463.134C661.877 462.194 660.036 461.028 656.143 459.985C649.237 458.135 640.601 459.724 638.111 469.016L630.238 498.399L608.514 492.579Z" fill="white"/>
<path d="M279.767 583.49L295.125 587.605C310.483 591.721 324.742 583.325 329.349 566.132C333.982 548.841 325.805 534.538 310.447 530.423L295.089 526.307L279.767 583.49ZM335.337 567.736C329.928 587.924 312.575 598.596 295.285 593.963L272.296 587.804L290.775 518.836L313.764 524.996C331.054 529.629 340.747 547.548 335.337 567.736ZM336.969 605.133L347.658 565.24L353.067 566.689L351.903 571.036C353.735 568.835 357.06 567.242 360.924 568.277C364.884 569.338 367.427 571.055 369.22 574.02L365.525 577.378C364.458 575.953 363.338 574.721 359.668 573.738C355.128 572.521 350.66 575.672 349.832 578.763L342.378 606.582L336.969 605.133ZM386.294 575.592L375.604 615.485L370.099 614.01L380.788 574.117L386.294 575.592ZM389.642 565.412C389.151 567.247 387.217 568.282 385.382 567.79C383.547 567.299 382.389 565.436 382.881 563.6C383.399 561.669 385.332 560.634 387.168 561.126C389.003 561.617 390.16 563.48 389.642 565.412ZM389.636 619.245L400.325 579.352L405.734 580.801L404.233 586.404C406.291 583.746 410.957 581.787 417.526 583.547C428.73 586.549 432.276 594.953 429.817 604.129L423.321 628.374L417.815 626.899L423.82 604.489C425.864 596.859 423.804 591.027 416.076 588.956C407.576 586.678 402.732 592.006 401.127 597.995L395.045 620.694L389.636 619.245ZM448.051 608.808L467.866 597.45L474.917 599.339L452.801 611.944L469.251 640.578L461.523 638.507L447.947 614.992L446.162 615.859L441.529 633.149L436.12 631.7L455.272 560.222L460.681 561.671L448.051 608.808ZM520.88 643.024L542.389 616.072L547.54 650.167L568.229 624.342L573.541 625.765L544.304 662.241L539.076 628.436L517.645 655.098L510.563 608.89L515.876 610.314L520.88 643.024ZM587.025 629.378L576.336 669.271L570.83 667.796L581.519 627.903L587.025 629.378ZM590.374 619.198C589.882 621.033 587.948 622.068 586.113 621.576C584.278 621.085 583.121 619.222 583.612 617.386C584.13 615.454 586.064 614.42 587.899 614.911C589.734 615.403 590.892 617.266 590.374 619.198ZM600.573 638.806L595.164 637.357L596.613 631.947L602.023 633.397L606.707 615.913L612.116 617.363L607.432 634.846L616.801 637.357L615.352 642.766L605.982 640.255L596.742 674.739L591.333 673.289L600.573 638.806ZM615.71 679.821L634.863 608.343L640.272 609.792L630.256 647.173C633.242 644.143 637.733 642.448 643.432 643.975C654.347 646.899 657.526 655.516 655.145 664.402L648.622 688.744L643.213 687.294L649.658 663.243C651.081 657.93 650.097 651.558 642.08 649.41C634.642 647.417 629.065 651.617 627.771 656.446L621.119 681.271L615.71 679.821ZM250.628 655.917C253.864 643.842 264.86 637.575 276.838 640.784C282.633 642.337 285.503 644.763 288.411 647.82L286.548 654.774C284.252 651.364 280.965 647.791 275.363 646.29C266.669 643.961 258.463 648.698 256.134 657.392C253.805 666.085 258.542 674.291 267.236 676.62C272.645 678.07 277.471 676.671 281.216 674.672L279.327 681.724C276.201 682.957 272.136 683.834 265.76 682.126C253.783 678.917 247.419 667.894 250.628 655.917ZM307.737 693.374C296.339 690.32 289.551 678.562 292.605 667.164C295.659 655.766 307.416 648.978 318.814 652.032C324.803 653.637 329.61 657.72 332.264 662.883L333.895 656.797L339.304 658.247L328.615 698.14L323.205 696.69L324.81 690.701C319.93 693.846 313.822 695.004 307.737 693.374ZM298.084 668.736C295.833 677.139 300.853 685.835 309.257 688.087C317.66 690.339 326.356 685.318 328.608 676.915C330.859 668.511 325.839 659.815 317.435 657.564C309.032 655.312 300.336 660.332 298.084 668.736ZM352.731 667.642L347.322 666.193L348.771 660.784L354.181 662.233L360.392 639.051C361.686 634.221 365.407 630.767 371.396 632.371C373.811 633.018 375.304 633.626 377.178 634.749L375.78 639.965C374.293 638.945 372.658 638.093 371.499 637.782C368.698 637.032 366.655 637.313 365.543 641.466L359.59 663.682L369.056 666.219L367.606 671.628L358.14 669.092L348.9 703.575L343.491 702.126L352.731 667.642ZM380.369 675.048L374.96 673.599L376.41 668.189L381.819 669.639L388.031 646.457C389.325 641.627 393.046 638.172 399.034 639.777C401.449 640.424 402.943 641.031 404.816 642.154L403.418 647.37C401.932 646.351 400.296 645.499 399.137 645.188C396.336 644.437 394.294 644.718 393.181 648.872L387.228 671.088L396.694 673.625L395.245 679.034L385.779 676.497L376.539 710.981L371.13 709.531L380.369 675.048ZM415.877 716.449C422.349 718.183 427.408 715.915 430.955 712.724L435.008 716.916C430.765 721.162 423.385 724.362 414.402 721.955C402.425 718.745 396.061 707.722 399.27 695.745C402.505 683.671 413.502 677.404 425.48 680.613C439.002 684.236 443.355 696.584 440.689 706.533C440.197 708.368 439.771 709.185 438.999 708.978L404.322 699.687C403.476 706.707 407.184 714.119 415.877 716.449ZM435.47 702.442C436.288 697.071 433.277 688.603 424.004 686.119C414.248 683.505 407.4 689.745 405.816 694.497L435.47 702.442ZM461.244 690.921L450.555 730.813L445.049 729.338L455.739 689.445L461.244 690.921ZM464.593 680.741C464.102 682.576 462.168 683.611 460.333 683.119C458.497 682.627 457.34 680.764 457.832 678.929C458.349 676.997 460.283 675.962 462.118 676.454C463.954 676.946 465.111 678.809 464.593 680.741ZM464.587 734.573L475.276 694.68L480.685 696.13L479.184 701.732C481.242 699.074 485.908 697.115 492.476 698.875C503.681 701.878 507.227 710.282 504.768 719.458L498.272 743.703L492.766 742.227L498.77 719.818C500.815 712.187 498.754 706.355 491.027 704.284C482.527 702.007 477.683 707.335 476.078 713.323L469.996 736.023L464.587 734.573ZM530.015 747.032C536.487 748.766 541.546 746.498 545.093 743.307L549.146 747.499C544.902 751.746 537.523 754.945 528.54 752.538C516.562 749.328 510.198 738.306 513.408 726.328C516.643 714.254 527.64 707.987 539.617 711.196C553.14 714.819 557.493 727.167 554.827 737.116C554.335 738.951 553.909 739.769 553.136 739.562L518.46 730.27C517.614 737.29 521.322 744.702 530.015 747.032ZM549.608 733.026C550.426 727.654 547.415 719.186 538.142 716.702C528.386 714.088 521.538 720.328 519.954 725.08L549.608 733.026ZM592.708 736.189C593.381 733.677 595.927 732.289 598.342 732.936C600.854 733.609 602.268 736.058 601.595 738.57C600.948 740.985 598.473 742.495 595.961 741.822C593.546 741.175 592.061 738.603 592.708 736.189ZM585.539 762.945C586.186 760.53 588.758 759.045 591.173 759.692C593.684 760.365 595.073 762.911 594.426 765.326C593.753 767.837 591.303 769.252 588.792 768.579C586.377 767.932 584.866 765.456 585.539 762.945ZM609.107 756.94L624.85 751.116L614.128 738.201L615.577 732.792L632.578 753.187L607.657 762.349L609.107 756.94Z" fill="white"/>
</g>
</g>
<defs>
<clipPath id="clip0_22_30">
<rect width="642" height="1437" fill="white" transform="translate(371.924) rotate(15)"/>
</clipPath>
<clipPath id="clip1_22_30">
<rect width="546" height="949.231" fill="white" transform="translate(336.357 318.197) rotate(15)"/>
</clipPath>
</defs>
</svg>
