<svg width="993" height="1555" viewBox="0 0 993 1555" fill="none" xmlns="http://www.w3.org/2000/svg">
<path d="M637.428 1489.62C627.872 1525.28 481.305 1517 310.062 1471.12C138.819 1425.23 7.74722 1359.12 17.3039 1323.46L354.619 64.5781L974.744 230.74L637.428 1489.62Z" fill="#DA387C"/>
<ellipse cx="664.682" cy="147.66" rx="321" ry="66.8569" transform="rotate(15 664.682 147.66)" fill="#C7CFDC"/>
<path d="M349.027 406.683L346.255 417.028L336.586 414.437L326.423 452.369L314.725 449.235L324.889 411.303L315.22 408.712L317.992 398.367L349.027 406.683ZM341.629 456.444L355.036 406.409L366.733 409.543L360.591 432.464C362.835 430.312 366.083 429.008 371.492 430.457C380.417 432.849 383.986 438.733 381.758 447.05L376.721 465.846L365.024 462.712L369.354 446.552C370.368 442.766 369.993 439.839 365.733 438.698C361.812 437.647 358.345 440.849 357.693 443.283L353.326 459.578L341.629 456.444ZM395.344 456.633C394.542 459.896 396.09 462.775 399.471 463.681C403.257 464.695 404.949 464.062 405.956 462.737L416.301 465.509C413.667 469.659 408.123 475.203 396.697 472.141C385.743 469.206 382.477 459.489 384.632 451.443C386.788 443.397 395.107 436.422 405.993 439.339C418.164 442.6 420.975 452.123 418.584 461.048C418.439 461.589 418.276 462.197 418.063 462.72L395.344 456.633ZM408.092 452.874C408.396 450.926 407.34 448.107 403.756 447.146C400.173 446.186 397.848 448.1 397.273 449.975L408.092 452.874Z" fill="white"/>
<path d="M374.318 520.858C368.52 542.495 349.433 551.294 329.65 545.994L315.277 542.143L304.303 583.098L277.412 575.892L306.98 465.545L348.244 476.602C368.026 481.902 380.116 499.221 374.318 520.858ZM321.613 518.497L333.514 521.685C341.241 523.756 345.842 520.185 347.581 513.694C349.32 507.203 346.235 501.407 339.435 499.585L327.535 496.396L321.613 518.497ZM394.673 574.846C392.84 582.306 396.378 588.886 404.105 590.956C412.76 593.275 416.627 591.827 418.929 588.799L442.574 595.135C436.554 604.62 423.883 617.292 397.764 610.294C372.727 603.585 365.261 581.376 370.189 562.985C375.117 544.594 394.131 528.652 419.013 535.319C446.832 542.773 453.258 564.538 447.791 584.938C447.46 586.174 447.087 587.565 446.602 588.76L394.673 574.846ZM423.81 566.254C424.506 561.803 422.092 555.358 413.9 553.164C405.709 550.969 400.396 555.343 399.082 559.629L423.81 566.254ZM545.615 570.898L526.4 642.608L502.754 636.272L503.955 631.791C499.696 633.465 493.376 635.416 481.012 632.103C457.367 625.767 450.549 604.229 455.477 585.838C460.405 567.446 477.078 552.202 500.724 558.538C512.624 561.727 517.948 565.969 520.561 569.817L521.969 564.562L545.615 570.898ZM482.07 592.301C479.917 600.337 484.782 608.763 492.818 610.917C500.855 613.07 509.281 608.205 511.434 600.169C513.588 592.132 508.723 583.706 500.686 581.553C492.65 579.399 484.223 584.264 482.07 592.301ZM572.821 617.445C570.584 625.791 575.411 631.888 584.529 634.331C593.029 636.609 597.741 635.718 601.969 633.538L595.592 657.338C591.107 658.621 584.756 660.067 572.392 656.754C548.283 650.294 541.156 628.673 546.084 610.281C551.012 591.89 568.036 576.574 592.145 583.035C601.573 585.561 608.72 589.795 612.819 593.046L606.607 616.229C603.477 613.071 600.657 609.996 591.693 607.594C582.575 605.151 575.057 609.1 572.821 617.445ZM604.687 663.585L635.331 549.22L662.068 556.384L648.03 608.776C653.158 603.855 660.582 600.875 672.946 604.188C693.346 609.654 701.503 623.104 696.41 642.113L684.898 685.078L658.161 677.914L668.058 640.977C670.377 632.322 669.519 625.632 659.783 623.023C650.819 620.621 642.895 627.94 641.404 633.503L631.424 670.749L604.687 663.585Z" fill="white"/>
<path d="M291.365 615.618L269.651 609.8L264.972 627.264L286.686 633.082L285.402 637.873L263.688 632.055L257.394 655.546L279.108 661.365L277.845 666.078L251.417 658.997L266.201 603.823L292.629 610.905L291.365 615.618ZM329.603 618.659L333.93 619.818L318.608 677.001L314.281 675.841L315.585 670.973C311.66 673.566 306.697 674.472 301.828 673.167C292.71 670.724 287.28 661.318 289.723 652.2C292.166 643.081 301.572 637.651 310.69 640.094C315.559 641.399 319.404 644.665 321.507 648.873L329.603 618.659ZM294.029 653.437C292.228 660.159 296.244 667.116 302.967 668.917C309.69 670.719 316.647 666.702 318.448 659.98C320.249 653.257 316.233 646.3 309.51 644.499C302.787 642.697 295.831 646.714 294.029 653.437ZM341.11 648.825L332.558 680.739L328.154 679.559L336.705 647.645L341.11 648.825ZM343.789 640.681C343.396 642.149 341.849 642.977 340.38 642.583C338.912 642.19 337.986 640.699 338.38 639.231C338.794 637.686 340.341 636.858 341.809 637.251C343.277 637.645 344.203 639.135 343.789 640.681ZM351.948 656.367L347.621 655.207L348.78 650.88L353.108 652.04L356.856 638.053L361.183 639.212L357.435 653.199L364.931 655.208L363.771 659.535L356.276 657.526L348.884 685.113L344.556 683.954L351.948 656.367ZM377.709 658.632L369.158 690.546L364.753 689.366L373.305 657.451L377.709 658.632ZM380.388 650.487C379.995 651.956 378.448 652.783 376.98 652.39C375.512 651.997 374.586 650.506 374.979 649.038C375.393 647.493 376.94 646.665 378.409 647.058C379.877 647.452 380.803 648.942 380.388 650.487ZM414.631 685.669C412.188 694.787 402.782 700.218 393.663 697.774C384.545 695.331 379.114 685.925 381.558 676.807C384.001 667.689 393.407 662.258 402.525 664.701C411.644 667.144 417.074 676.55 414.631 685.669ZM385.864 678.044C384.063 684.766 388.079 691.723 394.802 693.524C401.525 695.326 408.481 691.309 410.283 684.587C412.084 677.864 408.068 670.907 401.345 669.106C394.622 667.304 387.666 671.321 385.864 678.044ZM419.096 703.927L427.647 672.012L431.974 673.172L430.774 677.654C432.42 675.527 436.153 673.96 441.407 675.368C450.371 677.77 453.208 684.493 451.241 691.834L446.044 711.23L441.639 710.05L446.443 692.122C448.078 686.018 446.43 681.352 440.248 679.695C433.448 677.873 429.573 682.136 428.289 686.927L423.423 705.086L419.096 703.927Z" fill="white"/>
<path d="M208.189 1233.12L201.434 1258.33L97.9832 1230.61L108.349 1191.93C113.318 1173.38 129.555 1162.05 149.839 1167.48C165.342 1171.64 173.88 1183.24 174.782 1196.68L222.049 1181.4L214.672 1208.93L169.938 1222.87L208.189 1233.12ZM147.625 1216.89L150.615 1205.74C152.556 1198.49 149.208 1194.18 143.123 1192.55C137.038 1190.92 131.604 1193.81 129.896 1200.19L126.906 1211.34L147.625 1216.89ZM202.462 1140.9C209.456 1142.62 215.624 1139.3 217.566 1132.06C219.74 1123.94 218.382 1120.32 215.543 1118.16L221.483 1095.99C230.376 1101.64 242.256 1113.52 235.695 1138C229.405 1161.47 208.584 1168.47 191.343 1163.85C174.101 1159.23 159.155 1141.41 165.406 1118.08C172.394 1092 192.798 1085.98 211.924 1091.1C213.083 1091.41 214.387 1091.76 215.507 1092.22L202.462 1140.9ZM194.408 1113.59C190.234 1112.93 184.193 1115.2 182.135 1122.88C180.077 1130.55 184.178 1135.54 188.196 1136.77L194.408 1113.59ZM152.521 1012.01L158.461 989.837L265.679 1018.57L259.739 1040.73L255.537 1039.61C256.963 1043.56 258.626 1050.68 255.83 1061.12C249.891 1083.28 229.698 1089.68 212.456 1085.06C195.215 1080.44 180.923 1064.81 186.863 1042.64C190.047 1030.76 193.858 1026.96 197.437 1024.04L152.521 1012.01ZM218.671 1059.55C226.205 1061.56 234.105 1057 236.123 1049.47C238.142 1041.94 233.581 1034.04 226.047 1032.02C218.513 1030 210.613 1034.56 208.595 1042.09C206.576 1049.63 211.137 1057.53 218.671 1059.55ZM211.553 918.038C223.724 921.299 228.355 927.198 229.275 933.036C234.707 923.776 244.589 918.193 259.367 922.153C279.362 927.511 285.632 944.099 280.624 962.789L269.715 1003.5L166.264 975.784L175.543 941.155C180.551 922.465 194.891 913.573 211.553 918.038ZM212.864 961.249L214.145 956.468C215.853 950.093 213.241 945.355 206.721 943.608C200.635 941.978 195.134 944.541 193.426 950.916L192.145 955.698L212.864 961.249ZM257.2 973.129L260.112 962.262C261.975 955.308 259.171 948.966 250.912 946.753C242.944 944.618 236.909 948.591 235.046 955.546L232.134 966.413L257.2 973.129ZM232.438 876.027L270.834 886.315C277.064 887.985 280.932 885.139 282.369 879.778C283.766 874.562 281.984 870.202 275.609 868.494L237.213 858.206L243.93 833.14L283.629 843.778C301.885 848.669 308.601 864.755 303.088 885.33C297.575 905.904 283.677 916.622 265.421 911.73L225.722 901.093L232.438 876.027ZM321.477 810.323L314.722 835.534L207.504 806.805L214.26 781.594L321.477 810.323ZM333.344 766.036L326.589 791.247L219.371 762.518L226.126 737.307L333.344 766.036Z" fill="white"/>
</svg>
