<svg width="993" height="1555" viewBox="0 0 993 1555" fill="none" xmlns="http://www.w3.org/2000/svg">
<path d="M637.428 1489.62C627.872 1525.28 481.305 1517 310.062 1471.12C138.82 1425.23 7.74746 1359.12 17.3041 1323.46L354.619 64.5781L974.744 230.74L637.428 1489.62Z" fill="#DA387C"/>
<ellipse cx="664.681" cy="147.66" rx="321" ry="66.8569" transform="rotate(15 664.681 147.66)" fill="#C7CFDC"/>
<path d="M349.026 406.683L346.254 417.028L336.585 414.437L326.421 452.369L314.723 449.235L324.887 411.303L315.218 408.712L317.99 398.367L349.026 406.683ZM341.627 456.444L355.034 406.409L366.731 409.543L360.59 432.464C362.833 430.312 366.081 429.008 371.491 430.457C380.416 432.849 383.984 438.733 381.756 447.05L376.719 465.846L365.022 462.712L369.352 446.552C370.367 442.766 369.991 439.839 365.732 438.698C361.81 437.647 358.343 440.849 357.691 443.283L353.325 459.578L341.627 456.444ZM395.343 456.633C394.541 459.896 396.088 462.775 399.469 463.681C403.256 464.695 404.947 464.062 405.954 462.737L416.299 465.509C413.666 469.659 408.122 475.203 396.695 472.141C385.741 469.206 382.475 459.489 384.631 451.443C386.787 443.397 395.105 436.422 405.991 439.339C418.162 442.6 420.973 452.123 418.582 461.048C418.437 461.589 418.274 462.197 418.061 462.72L395.343 456.633ZM408.09 452.874C408.394 450.926 407.338 448.107 403.754 447.146C400.171 446.186 397.846 448.1 397.272 449.975L408.09 452.874Z" fill="white"/>
<path d="M374.316 520.858C368.519 542.495 349.431 551.294 329.649 545.994L315.276 542.143L304.302 583.098L277.41 575.892L306.978 465.545L348.242 476.602C368.024 481.902 380.114 499.221 374.316 520.858ZM321.612 518.497L333.512 521.685C341.239 523.756 345.84 520.185 347.579 513.694C349.319 507.203 346.234 501.407 339.434 499.585L327.533 496.396L321.612 518.497ZM394.672 574.846C392.839 582.306 396.376 588.886 404.104 590.956C412.758 593.275 416.625 591.827 418.927 588.799L442.573 595.135C436.553 604.62 423.881 617.292 397.763 610.294C372.726 603.585 365.259 581.376 370.187 562.985C375.115 544.594 394.129 528.652 419.012 535.319C446.83 542.773 453.256 564.538 447.79 584.938C447.458 586.174 447.086 587.565 446.6 588.76L394.672 574.846ZM423.808 566.254C424.504 561.803 422.09 555.358 413.899 553.164C405.708 550.969 400.395 555.343 399.081 559.629L423.808 566.254ZM545.613 570.898L526.398 642.608L502.752 636.272L503.953 631.791C499.695 633.465 493.375 635.416 481.011 632.103C457.365 625.767 450.547 604.229 455.475 585.838C460.403 567.446 477.076 552.202 500.722 558.538C512.623 561.727 517.946 565.969 520.559 569.817L521.967 564.562L545.613 570.898ZM482.068 592.301C479.915 600.337 484.78 608.763 492.816 610.917C500.853 613.07 509.279 608.205 511.433 600.169C513.586 592.132 508.721 583.706 500.684 581.553C492.648 579.399 484.222 584.264 482.068 592.301ZM572.819 617.445C570.583 625.791 575.409 631.888 584.528 634.331C593.028 636.609 597.739 635.718 601.967 633.538L595.59 657.338C591.105 658.621 584.754 660.067 572.391 656.754C548.281 650.294 541.154 628.673 546.082 610.281C551.01 591.89 568.034 576.574 592.144 583.035C601.571 585.561 608.719 589.795 612.817 593.046L606.605 616.229C603.476 613.071 600.655 609.996 591.692 607.594C582.573 605.151 575.055 609.1 572.819 617.445ZM604.685 663.585L635.33 549.22L662.066 556.384L648.028 608.776C653.156 603.855 660.581 600.875 672.944 604.188C693.345 609.654 701.502 623.104 696.408 642.113L684.896 685.078L658.159 677.914L668.056 640.977C670.375 632.322 669.518 625.632 659.781 623.023C650.817 620.621 642.893 627.94 641.402 633.503L631.422 670.749L604.685 663.585Z" fill="white"/>
<path d="M291.365 615.618L269.651 609.8L264.971 627.264L286.685 633.082L285.402 637.873L263.688 632.055L257.393 655.546L279.107 661.365L277.844 666.078L251.416 658.997L266.2 603.823L292.628 610.905L291.365 615.618ZM329.602 618.659L333.929 619.818L318.607 677.001L314.28 675.841L315.584 670.973C311.66 673.566 306.696 674.472 301.828 673.167C292.709 670.724 287.279 661.318 289.722 652.2C292.165 643.081 301.571 637.651 310.69 640.094C315.558 641.399 319.404 644.665 321.506 648.873L329.602 618.659ZM294.029 653.437C292.227 660.159 296.244 667.116 302.967 668.917C309.689 670.719 316.646 666.702 318.447 659.98C320.249 653.257 316.232 646.3 309.51 644.499C302.787 642.697 295.83 646.714 294.029 653.437ZM341.109 648.825L332.558 680.739L328.153 679.559L336.704 647.645L341.109 648.825ZM343.788 640.681C343.395 642.149 341.848 642.977 340.38 642.583C338.911 642.19 337.986 640.699 338.379 639.231C338.793 637.686 340.34 636.858 341.808 637.251C343.277 637.645 344.202 639.135 343.788 640.681ZM351.948 656.367L347.62 655.207L348.78 650.88L353.107 652.04L356.855 638.053L361.182 639.212L357.434 653.199L364.93 655.208L363.771 659.535L356.275 657.526L348.883 685.113L344.556 683.954L351.948 656.367ZM377.709 658.632L369.157 690.546L364.753 689.366L373.304 657.451L377.709 658.632ZM380.388 650.487C379.994 651.956 378.447 652.783 376.979 652.39C375.511 651.997 374.585 650.506 374.979 649.038C375.393 647.493 376.94 646.665 378.408 647.058C379.876 647.452 380.802 648.942 380.388 650.487ZM414.63 685.669C412.187 694.787 402.781 700.218 393.663 697.774C384.544 695.331 379.114 685.925 381.557 676.807C384 667.689 393.406 662.258 402.525 664.701C411.643 667.144 417.073 676.55 414.63 685.669ZM385.864 678.044C384.062 684.766 388.079 691.723 394.801 693.524C401.524 695.326 408.481 691.309 410.282 684.587C412.084 677.864 408.067 670.907 401.344 669.106C394.621 667.304 387.665 671.321 385.864 678.044ZM419.095 703.927L427.646 672.012L431.974 673.172L430.773 677.654C432.419 675.527 436.152 673.96 441.407 675.368C450.371 677.77 453.207 684.493 451.24 691.834L446.043 711.23L441.638 710.05L446.442 692.122C448.078 686.018 446.429 681.352 440.247 679.695C433.447 677.873 429.572 682.136 428.288 686.927L423.422 705.086L419.095 703.927Z" fill="white"/>
<rect width="323" height="67.9718" transform="translate(475.616 660.076) rotate(15)" fill="#3DA6CF"/>
<path d="M496.254 692.52C495.878 693.923 496.802 695.084 499.925 696.458C507.246 699.601 509.795 705.117 508.265 710.829C506.587 717.093 500.099 721.262 490.178 718.604C484.817 717.167 480.36 713.556 477.711 710.215L482.103 703.443C484.566 705.876 487.714 708.76 490.72 709.565C493.326 710.264 494.953 710.002 495.343 708.548C495.692 707.246 494.544 705.918 491.571 704.584C484.615 701.485 482.326 696.199 483.883 690.387C485.427 684.625 491.43 680.057 499.748 682.286C505.56 683.844 509.898 686.295 512.605 689.222L508.132 696.294C506.139 694.31 502.79 692.177 499.233 691.224C497.88 690.862 496.536 691.468 496.254 692.52Z" fill="white"/>
<path d="M528.838 690.296L522.581 713.645C522.085 715.499 523.082 716.787 524.786 717.243C526.489 717.7 528.047 717.097 528.544 715.243L534.801 691.893L546.275 694.968L539.763 719.269C537.615 727.286 529.48 729.188 522.114 727.214C514.648 725.214 508.704 719.54 510.852 711.523L517.364 687.221L528.838 690.296Z" fill="white"/>
<path d="M565.567 709.267C561.308 708.126 557.868 712.145 556.62 716.805C555.331 721.615 556.333 727.093 560.993 728.341C563.449 728.999 564.612 728.666 565.468 727.876L566.354 724.569L562.346 723.494L564.131 716.83L579.614 720.979L576.285 733.405C572.946 736.646 566.046 739.147 558.63 737.16C545.753 733.71 541.86 722.785 544.317 713.615C546.774 704.446 555.631 697.045 567.957 700.348C576.726 702.697 580.298 708.005 581.663 712.13L569.706 713.061C569.304 711.557 568.574 710.072 565.567 709.267Z" fill="white"/>
<path d="M597.963 708.817L611.291 712.389L613.029 751.199L601.705 748.165L601.334 742.534L591.563 739.916L588.426 744.607L577.052 741.559L597.963 708.817ZM600.585 725.685L596.103 732.593L600.913 733.882L600.585 725.685Z" fill="white"/>
<path d="M649.841 735.07C648.23 741.083 645.331 742.884 641.575 743.274L646.249 760.1L633.021 756.556L630.166 743.761L627.159 754.985L615.434 751.844L625.02 716.067L641.054 720.364C647.768 722.163 651.922 727.304 649.841 735.07ZM633.026 733.089L634.93 733.599C636.533 734.028 637.841 733.358 638.284 731.705C638.713 730.101 637.93 728.817 636.326 728.388L634.422 727.878L633.026 733.089Z" fill="white"/>
<path d="M681.837 731.292L679.447 740.21L667.872 737.109L666.355 742.771L677.329 745.711L674.939 754.63L663.965 751.69L660.676 763.966L649.202 760.892L658.788 725.116L681.837 731.292Z" fill="white"/>
<path d="M710.028 751.197C708.417 757.21 705.518 759.011 701.761 759.401L706.436 776.227L693.208 772.683L690.353 759.888L687.345 771.112L675.62 767.97L685.207 732.194L701.241 736.491C707.955 738.29 712.109 743.431 710.028 751.197ZM693.212 749.216L695.117 749.726C696.72 750.155 698.027 749.485 698.47 747.832C698.9 746.228 698.116 744.944 696.513 744.515L694.609 744.005L693.212 749.216Z" fill="white"/>
<path d="M742.023 747.418L739.634 756.337L728.059 753.236L726.824 757.846L737.797 760.786L735.394 769.755L724.421 766.815L723.266 771.124L734.84 774.225L732.437 783.194L709.388 777.019L718.974 741.242L742.023 747.418Z" fill="white"/>
<path d="M769.132 754.682L766.742 763.601L755.167 760.5L753.932 765.109L764.905 768.05L762.502 777.019L751.529 774.079L750.374 778.388L761.949 781.489L759.546 790.458L736.497 784.282L746.083 748.506L769.132 754.682Z" fill="white"/>
<path d="M208.189 1233.12L201.434 1258.33L97.9834 1230.61L108.349 1191.93C113.318 1173.38 129.555 1162.05 149.84 1167.48C165.343 1171.64 173.88 1183.24 174.782 1196.68L222.049 1181.4L214.673 1208.93L169.939 1222.87L208.189 1233.12ZM147.626 1216.89L150.615 1205.74C152.556 1198.49 149.209 1194.18 143.123 1192.55C137.038 1190.92 131.604 1193.81 129.896 1200.19L126.907 1211.34L147.626 1216.89ZM202.463 1140.9C209.456 1142.62 215.625 1139.3 217.566 1132.06C219.74 1123.94 218.382 1120.32 215.544 1118.16L221.484 1095.99C230.376 1101.64 242.256 1113.52 235.695 1138C229.406 1161.47 208.585 1168.47 191.343 1163.85C174.101 1159.23 159.155 1141.41 165.406 1118.08C172.394 1092 192.798 1085.98 211.924 1091.1C213.083 1091.41 214.387 1091.76 215.507 1092.22L202.463 1140.9ZM194.408 1113.59C190.235 1112.93 184.193 1115.2 182.135 1122.88C180.078 1130.55 184.178 1135.54 188.196 1136.77L194.408 1113.59ZM152.522 1012.01L158.461 989.837L265.679 1018.57L259.739 1040.73L255.538 1039.61C256.963 1043.56 258.626 1050.68 255.831 1061.12C249.891 1083.28 229.698 1089.68 212.457 1085.06C195.215 1080.44 180.924 1064.81 186.864 1042.64C190.047 1030.76 193.859 1026.96 197.437 1024.04L152.522 1012.01ZM218.671 1059.55C226.205 1061.56 234.105 1057 236.124 1049.47C238.143 1041.94 233.582 1034.04 226.047 1032.02C218.513 1030 210.614 1034.56 208.595 1042.09C206.576 1049.63 211.137 1057.53 218.671 1059.55ZM211.554 918.038C223.724 921.299 228.355 927.198 229.276 933.036C234.707 923.776 244.589 918.193 259.368 922.153C279.362 927.511 285.633 944.099 280.625 962.789L269.715 1003.5L166.265 975.784L175.543 941.155C180.551 922.465 194.891 913.573 211.554 918.038ZM212.864 961.249L214.145 956.468C215.854 950.093 213.241 945.355 206.721 943.608C200.635 941.978 195.134 944.541 193.426 950.916L192.145 955.698L212.864 961.249ZM257.2 973.129L260.112 962.262C261.975 955.308 259.171 948.966 250.913 946.753C242.944 944.618 236.91 948.591 235.046 955.546L232.134 966.413L257.2 973.129ZM232.438 876.027L270.834 886.315C277.064 887.985 280.932 885.139 282.369 879.778C283.767 874.562 281.984 870.202 275.609 868.494L237.214 858.206L243.93 833.14L283.629 843.778C301.885 848.669 308.601 864.755 303.088 885.33C297.575 905.904 283.678 916.622 265.422 911.73L225.722 901.093L232.438 876.027ZM321.478 810.323L314.722 835.534L207.505 806.805L214.26 781.594L321.478 810.323ZM333.344 766.036L326.589 791.247L219.371 762.518L226.127 737.307L333.344 766.036Z" fill="white"/>
<path d="M355.637 63.5832C355.564 63.8097 355.495 64.0375 355.434 64.2677C345.877 99.9336 476.95 166.043 648.192 211.927C819.435 257.811 966.001 266.095 975.558 230.429C975.62 230.199 975.674 229.968 975.724 229.735L975.743 229.74L956.331 302.184C946.775 337.85 800.208 329.567 628.965 283.683C457.723 237.798 326.65 171.688 336.207 136.023L355.618 63.5781L355.637 63.5832Z" fill="#3DA6CF"/>
<path d="M485.75 186.802C485.104 188.474 486.085 190.019 489.735 192.115C498.302 196.934 500.704 204.037 498.074 210.843C495.191 218.305 486.684 222.566 474.864 217.999C468.476 215.532 463.484 210.516 460.674 206.068L466.953 198.34C469.655 201.647 473.136 205.6 476.718 206.983C479.823 208.183 481.854 208.076 482.523 206.344C483.122 204.792 481.889 203.012 478.418 200.985C470.292 196.268 468.179 189.482 470.855 182.557C473.507 175.692 481.473 170.879 491.383 174.708C498.308 177.383 503.307 180.961 506.241 184.907L499.824 192.994C497.641 190.298 493.813 187.242 489.575 185.604C487.963 184.981 486.234 185.548 485.75 186.802ZM525.408 187.453L515.735 215.665C514.967 217.905 516.087 219.574 518.145 220.28C520.203 220.985 522.172 220.375 522.94 218.135L532.613 189.923L546.476 194.676L536.409 224.039C533.088 233.725 522.914 235.379 514.014 232.327C504.994 229.234 498.156 221.748 501.477 212.062L511.545 182.7L525.408 187.453ZM568.917 213.118C563.723 211.499 559.282 216.282 557.511 221.964C555.683 227.83 556.646 234.633 562.328 236.404C565.322 237.338 566.773 236.985 567.868 236.053L569.125 232.02L564.237 230.497L566.77 222.37L585.65 228.255L580.926 243.408C576.649 247.237 568.019 249.977 558.976 247.158C543.273 242.263 539.018 228.602 542.503 217.42C545.989 206.239 557.276 197.557 572.307 202.242C582.999 205.575 587.139 212.296 588.616 217.449L573.83 218.001C573.409 216.127 572.583 214.261 568.917 213.118ZM608.429 213.619L624.806 218.268L626.241 266.177L612.327 262.227L611.972 255.274L599.966 251.866L596.011 257.596L582.036 253.628L608.429 213.619ZM611.356 234.475L605.701 242.916L611.611 244.594L611.356 234.475ZM671.994 246.097C670.06 253.529 666.499 255.777 661.868 256.291L667.784 277.009L651.433 272.753L647.798 256.993L644.186 270.867L629.693 267.095L641.204 222.872L661.023 228.031C669.323 230.191 674.493 236.497 671.994 246.097ZM651.231 243.801L653.585 244.413C655.567 244.929 657.174 244.091 657.706 242.047C658.222 240.065 657.243 238.488 655.261 237.972L652.908 237.359L651.231 243.801ZM711.173 240.483L708.504 251.558L694.132 248.095L692.437 255.126L706.063 258.409L703.395 269.484L689.769 266.201L686.095 281.444L671.847 278.011L682.552 233.586L711.173 240.483ZM746.578 263.276C744.947 270.781 741.48 273.171 736.874 273.873L743.627 294.334L727.117 290.746L722.844 275.147L719.799 289.156L705.165 285.976L714.868 241.322L734.881 245.671C743.262 247.492 748.684 253.582 746.578 263.276ZM725.738 261.826L728.115 262.342C730.116 262.777 731.688 261.874 732.136 259.81C732.571 257.809 731.529 256.273 729.528 255.838L727.152 255.322L725.738 261.826ZM785.358 255.771L783.236 266.963L768.711 264.21L767.614 269.995L781.385 272.605L779.251 283.861L765.48 281.25L764.455 286.658L778.98 289.411L776.847 300.667L747.922 295.184L756.433 250.287L785.358 255.771ZM818.79 260.999L817.054 272.257L802.442 270.004L801.545 275.823L815.397 277.96L813.65 289.282L799.798 287.145L798.959 292.584L813.57 294.838L811.824 306.16L782.728 301.672L789.695 256.51L818.79 260.999Z" fill="white"/>
</svg>
