<svg width="993" height="1555" viewBox="0 0 993 1555" fill="none" xmlns="http://www.w3.org/2000/svg">
<path d="M637.428 1489.62C627.872 1525.28 481.305 1517 310.062 1471.12C138.82 1425.23 7.74746 1359.12 17.3041 1323.46L354.619 64.5781L974.744 230.74L637.428 1489.62Z" fill="#DA387C"/>
<ellipse cx="664.681" cy="147.66" rx="321" ry="66.8569" transform="rotate(15 664.681 147.66)" fill="#C7CFDC"/>
<path d="M349.026 406.683L346.254 417.028L336.585 414.437L326.421 452.369L314.723 449.235L324.887 411.303L315.218 408.712L317.99 398.367L349.026 406.683ZM341.627 456.444L355.034 406.409L366.731 409.543L360.59 432.464C362.833 430.312 366.081 429.008 371.491 430.457C380.416 432.849 383.984 438.733 381.756 447.05L376.719 465.846L365.022 462.712L369.352 446.552C370.367 442.766 369.991 439.839 365.732 438.698C361.81 437.647 358.343 440.849 357.691 443.283L353.325 459.578L341.627 456.444ZM395.343 456.633C394.541 459.896 396.088 462.775 399.469 463.681C403.256 464.695 404.947 464.062 405.954 462.737L416.299 465.509C413.666 469.659 408.122 475.203 396.695 472.141C385.741 469.206 382.475 459.489 384.631 451.443C386.787 443.397 395.105 436.422 405.991 439.339C418.162 442.6 420.973 452.123 418.582 461.048C418.437 461.589 418.274 462.197 418.061 462.72L395.343 456.633ZM408.09 452.874C408.394 450.926 407.338 448.107 403.754 447.146C400.171 446.186 397.846 448.1 397.272 449.975L408.09 452.874Z" fill="white"/>
<path d="M374.316 520.858C368.519 542.495 349.431 551.294 329.649 545.994L315.276 542.143L304.302 583.098L277.41 575.892L306.978 465.545L348.242 476.602C368.024 481.902 380.114 499.221 374.316 520.858ZM321.612 518.497L333.512 521.685C341.239 523.756 345.84 520.185 347.579 513.694C349.319 507.203 346.234 501.407 339.434 499.585L327.533 496.396L321.612 518.497ZM394.672 574.846C392.839 582.306 396.376 588.886 404.104 590.956C412.758 593.275 416.625 591.827 418.927 588.799L442.573 595.135C436.553 604.62 423.881 617.292 397.763 610.294C372.726 603.585 365.259 581.376 370.187 562.985C375.115 544.594 394.129 528.652 419.012 535.319C446.83 542.773 453.256 564.538 447.79 584.938C447.458 586.174 447.086 587.565 446.6 588.76L394.672 574.846ZM423.808 566.254C424.504 561.803 422.09 555.358 413.899 553.164C405.708 550.969 400.395 555.343 399.081 559.629L423.808 566.254ZM545.613 570.898L526.398 642.608L502.752 636.272L503.953 631.791C499.695 633.465 493.375 635.416 481.011 632.103C457.365 625.767 450.547 604.229 455.475 585.838C460.403 567.446 477.076 552.202 500.722 558.538C512.623 561.727 517.946 565.969 520.559 569.817L521.967 564.562L545.613 570.898ZM482.068 592.301C479.915 600.337 484.78 608.763 492.816 610.917C500.853 613.07 509.279 608.205 511.433 600.169C513.586 592.132 508.721 583.706 500.684 581.553C492.648 579.399 484.222 584.264 482.068 592.301ZM572.819 617.445C570.583 625.791 575.409 631.888 584.528 634.331C593.028 636.609 597.739 635.718 601.967 633.538L595.59 657.338C591.105 658.621 584.754 660.067 572.391 656.754C548.281 650.294 541.154 628.673 546.082 610.281C551.01 591.89 568.034 576.574 592.144 583.035C601.571 585.561 608.719 589.795 612.817 593.046L606.605 616.229C603.476 613.071 600.655 609.996 591.692 607.594C582.573 605.151 575.055 609.1 572.819 617.445ZM604.685 663.585L635.33 549.22L662.066 556.384L648.028 608.776C653.156 603.855 660.581 600.875 672.944 604.188C693.345 609.654 701.502 623.104 696.408 642.113L684.896 685.078L658.159 677.914L668.056 640.977C670.375 632.322 669.518 625.632 659.781 623.023C650.817 620.621 642.893 627.94 641.402 633.503L631.422 670.749L604.685 663.585Z" fill="white"/>
<path d="M291.365 615.618L269.651 609.8L264.971 627.264L286.685 633.082L285.402 637.873L263.688 632.055L257.393 655.546L279.107 661.365L277.844 666.078L251.416 658.997L266.2 603.823L292.628 610.905L291.365 615.618ZM329.602 618.659L333.929 619.818L318.607 677.001L314.28 675.841L315.584 670.973C311.66 673.566 306.696 674.472 301.828 673.167C292.709 670.724 287.279 661.318 289.722 652.2C292.165 643.081 301.571 637.651 310.69 640.094C315.558 641.399 319.404 644.665 321.506 648.873L329.602 618.659ZM294.029 653.437C292.227 660.159 296.244 667.116 302.967 668.917C309.689 670.719 316.646 666.702 318.447 659.98C320.249 653.257 316.232 646.3 309.51 644.499C302.787 642.697 295.83 646.714 294.029 653.437ZM341.109 648.825L332.558 680.739L328.153 679.559L336.704 647.645L341.109 648.825ZM343.788 640.681C343.395 642.149 341.848 642.977 340.38 642.583C338.911 642.19 337.986 640.699 338.379 639.231C338.793 637.686 340.34 636.858 341.808 637.251C343.277 637.645 344.202 639.135 343.788 640.681ZM351.948 656.367L347.62 655.207L348.78 650.88L353.107 652.04L356.855 638.053L361.182 639.212L357.434 653.199L364.93 655.208L363.771 659.535L356.275 657.526L348.883 685.113L344.556 683.954L351.948 656.367ZM377.709 658.632L369.157 690.546L364.753 689.366L373.304 657.451L377.709 658.632ZM380.388 650.487C379.994 651.956 378.447 652.783 376.979 652.39C375.511 651.997 374.585 650.506 374.979 649.038C375.393 647.493 376.94 646.665 378.408 647.058C379.876 647.452 380.802 648.942 380.388 650.487ZM414.63 685.669C412.187 694.787 402.781 700.218 393.663 697.774C384.544 695.331 379.114 685.925 381.557 676.807C384 667.689 393.406 662.258 402.525 664.701C411.643 667.144 417.073 676.55 414.63 685.669ZM385.864 678.044C384.062 684.766 388.079 691.723 394.801 693.524C401.524 695.326 408.481 691.309 410.282 684.587C412.084 677.864 408.067 670.907 401.344 669.106C394.621 667.304 387.665 671.321 385.864 678.044ZM419.095 703.927L427.646 672.012L431.974 673.172L430.773 677.654C432.419 675.527 436.152 673.96 441.407 675.368C450.371 677.77 453.207 684.493 451.24 691.834L446.043 711.23L441.638 710.05L446.442 692.122C448.078 686.018 446.429 681.352 440.247 679.695C433.447 677.873 429.572 682.136 428.288 686.927L423.422 705.086L419.095 703.927Z" fill="white"/>
<path d="M208.189 1233.12L201.434 1258.33L97.9834 1230.61L108.349 1191.93C113.318 1173.38 129.555 1162.05 149.84 1167.48C165.343 1171.64 173.88 1183.24 174.782 1196.68L222.049 1181.4L214.673 1208.93L169.939 1222.87L208.189 1233.12ZM147.626 1216.89L150.615 1205.74C152.556 1198.49 149.209 1194.18 143.123 1192.55C137.038 1190.92 131.604 1193.81 129.896 1200.19L126.907 1211.34L147.626 1216.89ZM202.463 1140.9C209.456 1142.62 215.625 1139.3 217.566 1132.06C219.74 1123.94 218.382 1120.32 215.544 1118.16L221.484 1095.99C230.376 1101.64 242.256 1113.52 235.695 1138C229.406 1161.47 208.585 1168.47 191.343 1163.85C174.101 1159.23 159.155 1141.41 165.406 1118.08C172.394 1092 192.798 1085.98 211.924 1091.1C213.083 1091.41 214.387 1091.76 215.507 1092.22L202.463 1140.9ZM194.408 1113.59C190.235 1112.93 184.193 1115.2 182.135 1122.88C180.078 1130.55 184.178 1135.54 188.196 1136.77L194.408 1113.59ZM152.522 1012.01L158.461 989.837L265.679 1018.57L259.739 1040.73L255.538 1039.61C256.963 1043.56 258.626 1050.68 255.831 1061.12C249.891 1083.28 229.698 1089.68 212.457 1085.06C195.215 1080.44 180.924 1064.81 186.864 1042.64C190.047 1030.76 193.859 1026.96 197.437 1024.04L152.522 1012.01ZM218.671 1059.55C226.205 1061.56 234.105 1057 236.124 1049.47C238.143 1041.94 233.582 1034.04 226.047 1032.02C218.513 1030 210.614 1034.56 208.595 1042.09C206.576 1049.63 211.137 1057.53 218.671 1059.55ZM211.554 918.038C223.724 921.299 228.355 927.198 229.276 933.036C234.707 923.776 244.589 918.193 259.368 922.153C279.362 927.511 285.633 944.099 280.625 962.789L269.715 1003.5L166.265 975.784L175.543 941.155C180.551 922.465 194.891 913.573 211.554 918.038ZM212.864 961.249L214.145 956.468C215.854 950.093 213.241 945.355 206.721 943.608C200.635 941.978 195.134 944.541 193.426 950.916L192.145 955.698L212.864 961.249ZM257.2 973.129L260.112 962.262C261.975 955.308 259.171 948.966 250.913 946.753C242.944 944.618 236.91 948.591 235.046 955.546L232.134 966.413L257.2 973.129ZM232.438 876.027L270.834 886.315C277.064 887.985 280.932 885.139 282.369 879.778C283.767 874.562 281.984 870.202 275.609 868.494L237.214 858.206L243.93 833.14L283.629 843.778C301.885 848.669 308.601 864.755 303.088 885.33C297.575 905.904 283.678 916.622 265.422 911.73L225.722 901.093L232.438 876.027ZM321.478 810.323L314.722 835.534L207.505 806.805L214.26 781.594L321.478 810.323ZM333.344 766.036L326.589 791.247L219.371 762.518L226.127 737.307L333.344 766.036Z" fill="white"/>
</svg>
