<svg width="993" height="1555" viewBox="0 0 993 1555" fill="none" xmlns="http://www.w3.org/2000/svg">
<path d="M637.428 1489.62C627.871 1525.28 481.304 1517 310.061 1471.12C138.819 1425.23 7.74649 1359.12 17.3031 1323.46L354.618 64.5781L974.743 230.74L637.428 1489.62Z" fill="#DA387C"/>
<ellipse cx="664.681" cy="147.66" rx="321" ry="66.8569" transform="rotate(15 664.681 147.66)" fill="#C7CFDC"/>
<path d="M357.744 518.146C353.033 535.726 337.524 542.876 321.451 538.569L309.773 535.44L300.857 568.716L279.008 562.862L303.031 473.204L336.559 482.188C352.632 486.495 362.454 500.567 357.744 518.146ZM314.921 516.228L324.59 518.818C330.869 520.501 334.607 517.599 336.02 512.326C337.433 507.052 334.927 502.342 329.402 500.862L319.733 498.271L314.921 516.228ZM374.283 562.012C372.793 568.073 375.667 573.419 381.946 575.101C388.978 576.985 392.119 575.808 393.99 573.349L413.202 578.496C408.311 586.203 398.015 596.499 376.794 590.813C356.451 585.362 350.385 567.317 354.389 552.374C358.393 537.431 373.842 524.479 394.059 529.896C416.661 535.952 421.882 553.636 417.441 570.211C417.172 571.216 416.869 572.346 416.474 573.317L374.283 562.012ZM397.956 555.031C398.521 551.414 396.56 546.178 389.904 544.395C383.249 542.611 378.932 546.165 377.865 549.647L397.956 555.031ZM496.922 558.804L481.31 617.068L462.098 611.921L463.074 608.279C459.614 609.64 454.479 611.225 444.433 608.533C425.221 603.385 419.681 585.885 423.685 570.942C427.689 555.999 441.236 543.614 460.449 548.762C470.118 551.352 474.443 554.799 476.566 557.925L477.71 553.656L496.922 558.804ZM445.292 576.193C443.543 582.723 447.495 589.569 454.025 591.319C460.555 593.069 467.401 589.116 469.151 582.586C470.9 576.057 466.948 569.21 460.418 567.461C453.888 565.711 447.042 569.664 445.292 576.193ZM519.027 596.624C517.21 603.404 521.132 608.358 528.54 610.343C535.447 612.194 539.275 611.47 542.71 609.699L537.528 629.037C533.884 630.079 528.725 631.254 518.679 628.562C499.09 623.313 493.3 605.746 497.303 590.803C501.307 575.86 515.139 563.416 534.728 568.665C542.388 570.717 548.196 574.157 551.525 576.799L546.478 595.635C543.936 593.069 541.644 590.571 534.361 588.62C526.953 586.634 520.844 589.843 519.027 596.624ZM544.919 634.112L569.817 541.19L591.541 547.011L580.135 589.579C584.301 585.582 590.333 583.16 600.379 585.852C616.954 590.293 623.582 601.221 619.443 616.666L610.09 651.575L588.366 645.754L596.407 615.743C598.292 608.711 597.595 603.275 589.684 601.155C582.401 599.204 575.962 605.15 574.751 609.671L566.642 639.933L544.919 634.112Z" fill="white"/>
<path d="M303.615 602.273L276.473 595L270.623 616.83L297.766 624.103L296.161 630.091L269.019 622.818L261.151 652.183L288.293 659.455L286.714 665.348L253.68 656.496L272.159 587.529L305.194 596.38L303.615 602.273ZM351.412 606.073L356.821 607.522L337.669 679.001L332.259 677.551L333.89 671.466C328.984 674.707 322.779 675.839 316.694 674.209C305.296 671.155 298.508 659.397 301.562 647.999C304.616 636.601 316.374 629.813 327.772 632.867C333.857 634.498 338.664 638.581 341.292 643.84L351.412 606.073ZM306.945 649.545C304.694 657.949 309.714 666.644 318.118 668.896C326.521 671.148 335.217 666.127 337.469 657.724C339.72 649.32 334.7 640.625 326.296 638.373C317.893 636.121 309.197 641.142 306.945 649.545ZM365.796 643.78L355.107 683.673L349.601 682.198L360.29 642.305L365.796 643.78ZM369.145 633.6C368.653 635.436 366.719 636.47 364.884 635.979C363.049 635.487 361.891 633.624 362.383 631.789C362.901 629.857 364.835 628.822 366.67 629.314C368.505 629.805 369.662 631.668 369.145 633.6ZM379.344 653.208L373.935 651.759L375.384 646.35L380.793 647.799L385.478 630.316L390.887 631.765L386.202 649.248L395.572 651.759L394.123 657.168L384.753 654.658L375.513 689.141L370.104 687.692L379.344 653.208ZM411.545 656.039L400.856 695.932L395.35 694.456L406.039 654.564L411.545 656.039ZM414.894 645.859C414.402 647.694 412.469 648.729 410.633 648.237C408.798 647.745 407.641 645.882 408.133 644.047C408.65 642.115 410.584 641.08 412.419 641.572C414.254 642.064 415.412 643.927 414.894 645.859ZM457.697 689.836C454.643 701.233 442.885 708.022 431.488 704.968C420.09 701.914 413.301 690.156 416.355 678.758C419.41 667.36 431.167 660.572 442.565 663.626C453.963 666.68 460.751 678.438 457.697 689.836ZM421.739 680.304C419.487 688.708 424.508 697.403 432.911 699.655C441.315 701.907 450.01 696.886 452.262 688.483C454.514 680.079 449.493 671.383 441.09 669.132C432.686 666.88 423.99 671.9 421.739 680.304ZM463.278 712.658L473.967 672.765L479.377 674.214L477.875 679.817C479.933 677.159 484.599 675.2 491.168 676.96C502.372 679.962 505.918 688.366 503.459 697.542L496.963 721.787L491.457 720.312L497.462 697.902C499.507 690.271 497.446 684.439 489.718 682.369C481.218 680.091 476.374 685.419 474.77 691.408L468.687 714.107L463.278 712.658Z" fill="white"/>
<path d="M208.189 1233.12L201.434 1258.33L97.9834 1230.61L108.349 1191.93C113.318 1173.38 129.555 1162.05 149.84 1167.48C165.343 1171.64 173.88 1183.24 174.782 1196.68L222.049 1181.4L214.673 1208.93L169.939 1222.87L208.189 1233.12ZM147.626 1216.89L150.615 1205.74C152.556 1198.49 149.209 1194.18 143.123 1192.55C137.038 1190.92 131.604 1193.81 129.896 1200.19L126.907 1211.34L147.626 1216.89ZM202.463 1140.9C209.456 1142.62 215.625 1139.3 217.566 1132.06C219.74 1123.94 218.382 1120.32 215.544 1118.16L221.484 1095.99C230.376 1101.64 242.256 1113.52 235.695 1138C229.406 1161.47 208.585 1168.47 191.343 1163.85C174.101 1159.23 159.155 1141.41 165.406 1118.08C172.394 1092 192.798 1085.98 211.924 1091.1C213.083 1091.41 214.387 1091.76 215.507 1092.22L202.463 1140.9ZM194.408 1113.59C190.235 1112.93 184.193 1115.2 182.135 1122.88C180.078 1130.55 184.178 1135.54 188.196 1136.77L194.408 1113.59ZM152.522 1012.01L158.461 989.837L265.679 1018.57L259.739 1040.73L255.538 1039.61C256.963 1043.56 258.626 1050.68 255.831 1061.12C249.891 1083.28 229.698 1089.68 212.457 1085.06C195.215 1080.44 180.924 1064.81 186.864 1042.64C190.047 1030.76 193.859 1026.96 197.437 1024.04L152.522 1012.01ZM218.671 1059.55C226.205 1061.56 234.105 1057 236.124 1049.47C238.143 1041.94 233.582 1034.04 226.047 1032.02C218.513 1030 210.614 1034.56 208.595 1042.09C206.576 1049.63 211.137 1057.53 218.671 1059.55ZM211.554 918.038C223.724 921.299 228.355 927.198 229.276 933.036C234.707 923.776 244.589 918.193 259.368 922.153C279.362 927.511 285.633 944.099 280.625 962.789L269.715 1003.5L166.265 975.784L175.543 941.155C180.551 922.465 194.891 913.573 211.554 918.038ZM212.864 961.249L214.145 956.468C215.854 950.093 213.241 945.355 206.721 943.608C200.635 941.978 195.134 944.541 193.426 950.916L192.145 955.698L212.864 961.249ZM257.2 973.129L260.112 962.262C261.975 955.308 259.171 948.966 250.913 946.753C242.944 944.618 236.91 948.591 235.046 955.546L232.134 966.413L257.2 973.129ZM232.438 876.027L270.834 886.315C277.064 887.985 280.932 885.139 282.369 879.778C283.767 874.562 281.984 870.202 275.609 868.494L237.214 858.206L243.93 833.14L283.629 843.778C301.885 848.669 308.601 864.755 303.088 885.33C297.575 905.904 283.678 916.622 265.422 911.73L225.722 901.093L232.438 876.027ZM321.478 810.323L314.722 835.534L207.505 806.805L214.26 781.594L321.478 810.323ZM333.344 766.036L326.589 791.247L219.371 762.518L226.127 737.307L333.344 766.036Z" fill="white"/>
<path d="M36.734 1251.02C36.6609 1251.24 36.592 1251.47 36.5303 1251.7C26.9738 1287.37 158.046 1353.48 329.289 1399.36C500.531 1445.24 647.098 1453.53 656.655 1417.86C656.716 1417.63 656.771 1417.4 656.821 1417.17L656.839 1417.17L637.428 1489.62C627.871 1525.28 481.304 1517 310.062 1471.12C138.819 1425.23 7.74701 1359.12 17.3037 1323.46L36.7151 1251.01L36.734 1251.02Z" fill="#3DA6CF"/>
<path d="M166.846 1374.24C166.2 1375.91 167.181 1377.45 170.831 1379.55C179.398 1384.37 181.799 1391.47 179.17 1398.28C176.287 1405.74 167.78 1410 155.96 1405.43C149.572 1402.97 144.58 1397.95 141.77 1393.5L148.049 1385.77C150.75 1389.08 154.232 1393.03 157.814 1394.42C160.918 1395.62 162.949 1395.51 163.618 1393.78C164.218 1392.23 162.985 1390.45 159.514 1388.42C151.388 1383.7 149.275 1376.92 151.95 1369.99C154.603 1363.13 162.568 1358.31 172.479 1362.14C179.404 1364.82 184.402 1368.39 187.337 1372.34L180.92 1380.43C178.737 1377.73 174.909 1374.68 170.67 1373.04C169.058 1372.41 167.33 1372.98 166.846 1374.24ZM206.504 1374.89L196.831 1403.1C196.063 1405.34 197.182 1407.01 199.241 1407.71C201.299 1408.42 203.267 1407.81 204.035 1405.57L213.708 1377.36L227.572 1382.11L217.505 1411.47C214.184 1421.16 204.009 1422.81 195.11 1419.76C186.089 1416.67 179.252 1409.18 182.573 1399.5L192.64 1370.13L206.504 1374.89ZM250.012 1400.55C244.819 1398.93 240.378 1403.72 238.607 1409.4C236.778 1415.26 237.741 1422.07 243.424 1423.84C246.418 1424.77 247.868 1424.42 248.963 1423.49L250.22 1419.45L245.332 1417.93L247.866 1409.8L266.746 1415.69L262.022 1430.84C257.745 1434.67 249.115 1437.41 240.072 1434.59C224.369 1429.7 220.114 1416.04 223.599 1404.85C227.085 1393.67 238.372 1384.99 253.402 1389.68C264.095 1393.01 268.235 1399.73 269.712 1404.88L254.926 1405.43C254.504 1403.56 253.678 1401.69 250.012 1400.55ZM289.524 1401.05L305.901 1405.7L307.337 1453.61L293.422 1449.66L293.068 1442.71L281.062 1439.3L277.107 1445.03L263.131 1441.06L289.524 1401.05ZM292.452 1421.91L286.796 1430.35L292.707 1432.03L292.452 1421.91ZM353.09 1433.53C351.156 1440.96 347.595 1443.21 342.964 1443.72L348.88 1464.44L332.529 1460.19L328.893 1444.43L325.282 1458.3L310.789 1454.53L322.299 1410.31L342.119 1415.46C350.418 1417.62 355.589 1423.93 353.09 1433.53ZM332.327 1431.23L334.681 1431.85C336.663 1432.36 338.27 1431.52 338.801 1429.48C339.317 1427.5 338.339 1425.92 336.357 1425.41L334.004 1424.79L332.327 1431.23ZM392.269 1427.92L389.6 1438.99L375.227 1435.53L373.533 1442.56L387.159 1445.84L384.49 1456.92L370.864 1453.63L367.191 1468.88L352.943 1465.44L363.648 1421.02L392.269 1427.92ZM427.673 1450.71C426.043 1458.21 422.576 1460.6 417.97 1461.31L424.723 1481.77L408.212 1478.18L403.939 1462.58L400.895 1476.59L386.261 1473.41L395.964 1428.76L415.977 1433.1C424.357 1434.93 429.78 1441.02 427.673 1450.71ZM406.834 1449.26L409.211 1449.78C411.212 1450.21 412.783 1449.31 413.232 1447.24C413.667 1445.24 412.625 1443.71 410.624 1443.27L408.247 1442.76L406.834 1449.26ZM466.454 1443.2L464.332 1454.4L449.806 1451.64L448.71 1457.43L462.48 1460.04L460.347 1471.29L446.576 1468.68L445.551 1474.09L460.076 1476.85L457.942 1488.1L429.018 1482.62L437.529 1437.72L466.454 1443.2ZM499.886 1448.43L498.149 1459.69L483.538 1457.44L482.64 1463.26L496.493 1465.39L494.746 1476.72L480.894 1474.58L480.055 1480.02L494.666 1482.27L492.919 1493.59L463.824 1489.11L470.79 1443.94L499.886 1448.43Z" fill="white"/>
</svg>
