<svg width="993" height="1555" viewBox="0 0 993 1555" fill="none" xmlns="http://www.w3.org/2000/svg">
<path fill-rule="evenodd" clip-rule="evenodd" d="M637.428 1489.62C627.872 1525.28 481.305 1517 310.062 1471.12C222.48 1447.65 145.406 1418.89 92.2791 1391.62L489.215 775.274L806.086 860.179L637.428 1489.62ZM859.747 199.927L489.215 775.274L185.962 694.017L354.619 64.5781L859.747 199.927Z" fill="#3DA6CF"/>
<path d="M17.3041 1323.46L185.962 694.017L489.215 775.274L92.2791 1391.62C41.5316 1365.57 12.6352 1340.88 17.3041 1323.46Z" fill="#3DA6CF"/>
<path d="M17.3041 1323.46L185.962 694.017L489.215 775.274L92.2791 1391.62C41.5316 1365.57 12.6352 1340.88 17.3041 1323.46Z" fill="white" fill-opacity="0.82"/>
<path fill-rule="evenodd" clip-rule="evenodd" d="M806.086 860.179L489.215 775.274L859.747 199.927L974.744 230.74L806.086 860.179Z" fill="#3DA6CF"/>
<path fill-rule="evenodd" clip-rule="evenodd" d="M806.086 860.179L489.215 775.274L859.747 199.927L974.744 230.74L806.086 860.179Z" fill="white" fill-opacity="0.82"/>
<ellipse cx="664.681" cy="147.66" rx="321" ry="66.8569" transform="rotate(15 664.681 147.66)" fill="#C7CFDC"/>
<path d="M289.597 661.74L264.387 654.985L292.106 551.534L330.792 561.9C349.337 566.869 360.671 583.106 355.236 603.39C351.082 618.893 339.477 627.43 326.036 628.332L341.323 675.6L313.794 668.223L299.847 623.489L289.597 661.74ZM305.825 601.176L316.982 604.166C324.226 606.107 328.54 602.759 330.17 596.674C331.801 590.588 328.909 585.155 322.534 583.446L311.377 580.457L305.825 601.176ZM381.818 656.013C380.1 663.007 383.416 669.175 390.661 671.116C398.775 673.29 402.4 671.932 404.558 669.094L426.726 675.034C421.082 683.926 409.202 695.807 384.716 689.246C361.244 682.956 354.244 662.135 358.864 644.893C363.484 627.652 381.31 612.706 404.637 618.956C430.717 625.945 436.741 646.349 431.617 665.474C431.306 666.633 430.957 667.937 430.501 669.058L381.818 656.013ZM409.134 647.959C409.786 643.785 407.523 637.743 399.844 635.686C392.165 633.628 387.184 637.729 385.952 641.747L409.134 647.959ZM510.714 606.072L532.882 612.012L504.153 719.23L481.985 713.29L483.111 709.088C479.157 710.513 472.034 712.176 461.602 709.381C439.434 703.441 433.042 683.249 437.662 666.007C442.282 648.765 457.914 634.474 480.082 640.414C491.963 643.598 495.755 647.409 498.679 650.988L510.714 606.072ZM463.173 672.222C461.154 679.756 465.715 687.655 473.25 689.674C480.784 691.693 488.683 687.132 490.702 679.598C492.721 672.064 488.16 664.164 480.626 662.145C473.092 660.127 465.192 664.687 463.173 672.222ZM604.681 665.104C601.42 677.275 595.521 681.906 589.683 682.826C598.943 688.258 604.526 698.14 600.566 712.918C595.208 732.913 578.62 739.183 559.93 734.175L519.216 723.266L546.935 619.815L581.564 629.094C600.254 634.102 609.146 648.442 604.681 665.104ZM561.47 666.415L566.251 667.696C572.626 669.404 577.364 666.791 579.111 660.271C580.741 654.186 578.178 648.685 571.803 646.977L567.021 645.696L561.47 666.415ZM549.59 710.751L560.457 713.662C567.411 715.526 573.753 712.722 575.966 704.463C578.101 696.494 574.128 690.46 567.173 688.597L556.306 685.685L549.59 710.751ZM646.692 685.989L636.404 724.384C634.734 730.615 637.58 734.483 642.941 735.919C648.157 737.317 652.517 735.535 654.225 729.16L664.513 690.764L689.579 697.48L678.941 737.18C674.05 755.436 657.964 762.151 637.389 756.639C616.815 751.126 606.097 737.228 610.989 718.972L621.626 679.273L646.692 685.989ZM712.396 775.028L687.185 768.273L715.914 661.055L741.125 667.81L712.396 775.028ZM756.683 786.895L731.472 780.14L760.201 672.922L785.412 679.677L756.683 786.895Z" fill="#E92842"/>
<g clip-path="url(#clip0_24_102)">
<path d="M460.56 869.964C460.855 870.106 461.151 870.245 461.447 870.383L460.56 869.964ZM462.99 871.069C463.338 871.22 463.687 871.365 464.037 871.51L462.99 871.069ZM465.593 872.112C465.938 872.239 466.282 872.363 466.629 872.485L465.593 872.112ZM467 872.613C467.293 872.715 467.587 872.812 467.882 872.908L467 872.613ZM468.311 873.048C468.66 873.158 469.011 873.266 469.362 873.373L468.311 873.048ZM469.712 873.471C470.497 873.704 471.288 873.916 472.084 874.109L469.712 873.471ZM472.463 874.204C472.835 874.291 473.207 874.376 473.58 874.457L472.463 874.204ZM473.932 874.534C474.256 874.602 474.576 874.666 474.899 874.729L473.932 874.534ZM475.235 874.795C475.588 874.861 475.942 874.925 476.294 874.985L475.235 874.795ZM478.12 875.262C478.395 875.302 478.668 875.339 478.943 875.368L478.12 875.262ZM550.61 798.973C550.364 798.742 550.108 798.523 549.842 798.317L550.61 798.973ZM548.002 797.163C547.654 796.989 547.298 796.832 546.934 796.694L548.002 797.163ZM348.841 784.834C347.875 783.315 347.296 781.583 347.154 779.789C347.049 778.294 346.895 776.42 347.284 774.969C349.068 768.432 354.191 764.594 358.908 763.445C361.051 762.924 361.933 762.409 362.314 762.125C362.194 762.028 362.058 761.952 361.912 761.899C356.313 760.399 354.026 757.455 353.11 755.237C352.236 753.155 352.15 750.749 352.801 748.318C353.118 747.137 353.616 745.946 354.282 744.769C356.558 742.587 357.865 743.704 358.426 745.283C358.787 746.274 362.034 750.189 366.852 751.963C370.355 753.267 371.821 755.544 372.452 757.218C373.178 759.154 373.099 761.232 372.653 762.898C372.47 763.579 372.222 764.199 371.922 764.729C370.793 766.779 367.949 768.139 364.051 769.796L361.817 770.822C358.514 772.446 356.343 774.657 355.751 776.865C355.603 777.417 355.556 777.981 355.609 778.527C355.632 778.751 355.672 778.973 355.731 779.189C356.385 781.533 359.424 783.708 364.786 783.307C367.262 783.128 372.36 781.552 375.731 779.626C379.702 777.339 384.086 777.71 388.2 778.471C391.763 779.144 394.143 778.863 396.113 777.567C401.94 773.724 406.437 774.17 410.548 774.95C412.122 775.245 412.235 775.157 412.509 774.939C415.524 772.576 418.226 771.622 420.518 771.259C422.266 770.983 423.776 771.049 425.013 771.106L426.524 771.137L426.911 771.107C429.349 770.986 431.246 770.853 436.638 768.992L436.865 768.922L436.867 768.92L437.09 768.851L437.093 768.851L437.316 768.789L437.319 768.789L437.541 768.73L437.544 768.73L437.765 768.68L437.772 768.68L437.99 768.631L437.997 768.631L438.215 768.588L438.224 768.589L438.441 768.551L438.45 768.549L438.666 768.52L438.675 768.519L438.89 768.491L438.901 768.491L439.115 768.471L439.126 768.468L439.337 768.451L439.561 768.437L439.575 768.438L439.783 768.428L439.796 768.428L440.006 768.424L440.02 768.424L440.227 768.423L440.243 768.423L440.449 768.429L440.467 768.429L440.67 768.437L440.686 768.437L440.892 768.449L440.909 768.449L441.111 768.466L441.13 768.467L441.331 768.487L441.349 768.489L441.547 768.512L441.568 768.513L441.766 768.543L441.787 768.544L441.981 768.574L442.002 768.578L442.197 768.611L442.219 768.615L442.412 768.652L442.435 768.656L442.624 768.695L442.646 768.7L442.837 768.742L443.049 768.792L443.071 768.798L443.259 768.846L443.492 768.908L443.676 768.96L443.698 768.967L443.72 768.973C443.852 769.012 443.983 769.056 444.114 769.099L444.295 769.159L444.32 769.168L444.496 769.23L444.523 769.239L444.698 769.305L444.726 769.316L444.9 769.381L444.928 769.391L445.101 769.461L445.128 769.473L445.299 769.542L445.327 769.555L445.495 769.628L445.523 769.641L445.692 769.715L445.721 769.73L445.885 769.806L445.916 769.82L446.078 769.897L446.107 769.913C446.366 770.037 446.619 770.169 446.865 770.304L447.019 770.39L447.05 770.408C447.297 770.548 447.54 770.691 447.777 770.837L447.917 770.926L447.952 770.948C448.421 771.246 448.868 771.561 449.298 771.883L449.418 771.975L449.575 772.095C462.891 761.451 480.691 756.764 498.448 760.666L498.449 760.662C499.323 760.855 500.193 761.067 501.057 761.298C501.629 761.451 502.198 761.613 502.765 761.783C503.046 761.868 503.327 761.956 503.607 762.043L503.611 762.044C503.888 762.133 504.168 762.223 504.446 762.316C521.148 767.884 533.808 780.438 540.013 795.797C541.516 795.688 543.106 795.743 544.663 796.048L544.704 796.057L544.852 796.087L545.004 796.12L545.041 796.127L545.081 796.137L545.23 796.172L545.27 796.181L545.418 796.219L545.458 796.229L545.609 796.268L545.646 796.278L545.796 796.32L545.834 796.33L546.019 796.383L546.17 796.43L546.203 796.44L546.353 796.488L546.388 796.499L546.538 796.551L546.566 796.56L546.718 796.615L546.748 796.625L546.9 796.682L546.927 796.693C547.291 796.831 547.647 796.988 547.995 797.162L548.149 797.239L548.17 797.25L548.321 797.332L548.343 797.342L548.494 797.427L548.514 797.438L548.667 797.526L548.683 797.536L548.839 797.628L548.854 797.637L549.004 797.732L549.022 797.743L549.175 797.843L549.188 797.851L549.352 797.963L549.506 798.069L549.515 798.077L549.666 798.187L549.675 798.194L549.828 798.309L549.837 798.317C550.1 798.521 550.357 798.738 550.605 798.973L550.61 798.978L550.757 799.115L550.758 799.118L550.904 799.263L550.906 799.265L551.05 799.415L551.052 799.416L551.193 799.569L551.335 799.726C553.908 802.707 555.472 804.135 556.858 805.166C557.481 805.63 558.073 806.013 558.7 806.421L559.027 806.643L560.366 807.375C561.097 807.754 561.931 808.188 562.807 808.76C565.001 810.186 567.466 812.475 569.255 816.94C569.385 817.266 569.444 817.4 570.962 817.934C574.909 819.314 579.019 821.174 582.162 827.419C583.209 829.525 585.12 830.953 588.541 832.153C592.508 833.557 596.476 835.424 598.766 839.389C600.725 842.743 604.347 846.656 606.408 848.05C610.849 851.078 614.585 850.719 616.295 849.008C616.666 848.65 616.963 848.226 617.184 847.753C617.299 847.508 617.392 847.253 617.463 846.992C618.054 844.784 617.278 841.783 615.236 838.726L614.978 838.362L613.797 836.717C611.263 833.335 609.478 830.736 609.509 828.391C609.514 827.782 609.622 827.125 609.805 826.444C610.252 824.777 611.232 822.942 612.806 821.621C614.197 820.489 616.626 819.256 620.288 819.872C625.374 820.752 630.121 818.979 630.928 818.301C632.219 817.218 633.895 816.9 634.768 819.926C634.762 821.28 634.598 822.561 634.281 823.742C633.626 826.186 632.353 828.213 630.556 829.579C628.644 831.04 625.2 832.448 619.592 830.946C619.474 830.914 619.293 830.925 619.14 830.943C619.321 831.378 619.828 832.266 621.428 833.788C624.938 837.142 627.46 843.029 625.741 849.582C625.352 851.034 624.289 852.581 623.434 853.819C622.539 855.119 621.379 856.214 620.03 857.032C619.848 857.142 619.66 857.248 619.464 857.348C616.571 858.879 612.259 859.534 605.932 857.427C605.266 857.204 604.606 856.962 603.954 856.701C602.919 859.9 600.996 863.517 599.222 865.126C598.678 865.635 598.493 866.025 598.439 866.226C598.417 866.31 598.412 866.361 598.402 866.396C598.438 866.421 600.807 868.834 600.807 868.834L601.199 869.186C601.199 869.186 601.43 869.381 601.457 869.419C601.501 869.415 602.444 869.623 602.444 869.623L602.635 869.646L602.655 869.649C604.458 869.953 607.375 869.812 607.663 873.307C607.735 874.233 607.72 875.018 607.716 875.717C607.708 877.144 607.741 878.215 608.668 879.428C608.668 879.428 609.378 879.087 610.19 878.68C610.816 878.369 611.436 878.044 612.048 877.705C613.085 877.089 614.477 877.916 615.453 878.617C616.44 879.328 617.546 880.638 618.36 881.443C619.181 882.244 619.53 883.074 619.588 883.97C619.659 884.867 620.185 885.589 621.064 886.405C621.902 887.232 622.837 889.412 622.186 891.842C622.086 892.214 622.043 892.544 622.057 892.91C622.069 893.153 622.104 893.413 622.167 893.714C622.803 896.87 621.318 897.975 620.359 898.352C619.067 898.869 617.079 898.693 615.374 897.924L615.265 898.386L612.753 897.34C611.778 896.944 610.377 896.845 609.538 896.797L609.337 896.797C607.383 896.669 605.126 895.391 604.357 892.814C604.329 892.718 604.301 892.623 604.278 892.523C603.909 891.116 603.13 889.693 602.685 889.237C601.863 889.243 600.579 889.204 599.179 888.672C597.881 888.18 596.479 887.256 595.261 885.54C595.059 885.255 594.862 884.947 594.672 884.619C592.99 881.696 590.081 880.41 588.095 880.191L586.904 880.088C584.442 879.884 581.364 879.639 579.097 877.26C578.533 876.669 577.674 875.985 576.829 875.327C574.656 873.597 572.409 871.811 572.686 869.391C572.739 868.96 572.493 868.081 572.285 867.378C572.104 866.758 571.906 866.079 571.8 865.38C571.697 864.712 571.678 864.026 571.838 863.357C570.977 863.348 570.122 863.21 569.303 862.948C569.013 862.854 568.728 862.747 568.449 862.627L567.426 862.175C565.708 861.386 562.106 859.757 560.788 859.873C558.167 860.095 550.536 858.496 548.6 857.472C548.6 857.472 547.886 857.102 547.212 856.759C546.335 857.283 545.391 857.743 544.427 858.119C545.914 858.606 547.291 858.774 548.14 859.253L549.9 860.261C550.553 860.244 552.026 860.661 552.846 860.962L555.02 861.723L557.486 862.645C558.641 863.216 559.794 864.089 558.933 866.419C558.65 867.133 557.959 868.064 557.174 868.51C556.733 868.793 554.896 870.356 554.444 870.882L554.298 871.045C553.489 872.005 552.455 872.808 550.231 872.212C549.949 872.133 549.664 872.068 549.376 872.019C549.26 872.181 548.988 872.466 548.988 872.466C548.182 873.47 547.034 874.861 545.407 875.408L544.966 875.574C543.644 876.069 541.446 876.878 538.891 875.093L538.01 874.483C535.782 872.934 532.409 870.601 530.802 869.068L530.576 868.851C529.08 867.422 528.743 867.125 528.082 867.044L527.713 867.004C526.318 866.832 523.691 866.493 522.717 863.118L522.624 862.823C511.258 872.001 496.578 876.818 481.447 875.619L481.38 875.616C480.864 875.574 480.347 875.524 479.83 875.469L479.639 875.447L478.934 875.366C478.66 875.334 478.387 875.299 478.111 875.261L477.612 875.192L476.828 875.07L476.286 874.984C475.934 874.924 475.579 874.86 475.227 874.794L474.893 874.728C474.57 874.664 474.25 874.601 473.926 874.532L473.573 874.458C473.2 874.377 472.83 874.292 472.456 874.204L472.079 874.11C471.283 873.918 470.492 873.705 469.707 873.472L469.355 873.373C469.004 873.267 468.654 873.158 468.304 873.048L467.877 872.908C467.583 872.811 467.289 872.716 466.996 872.613L466.623 872.486C466.277 872.364 465.932 872.24 465.587 872.113L465.079 871.918L464.407 871.658L464.033 871.51C463.682 871.368 463.333 871.22 462.986 871.068L462.565 870.886L461.823 870.557L461.442 870.384C461.146 870.245 460.849 870.108 460.555 869.965L459.92 869.65L459.595 869.489C459.163 869.266 458.727 869.043 458.301 868.811L458.187 868.75L457.517 868.383L457.174 868.19C456.776 867.965 456.382 867.732 455.989 867.5L455.849 867.414C444.184 860.381 435.514 849.527 431.064 837.003L429.715 838.205C427.2 840.645 424.762 839.626 423.449 839.074L423.11 838.924C422.499 838.664 422.046 838.749 420.052 839.243L419.734 839.314C417.581 839.84 413.509 840.177 410.79 840.401L409.72 840.488C406.617 840.758 405.113 838.954 404.236 837.872L403.925 837.505C402.787 836.218 402.495 834.442 402.293 833.166C402.293 833.166 402.216 832.787 402.183 832.586C401.908 832.484 401.628 832.397 401.344 832.325C399.14 831.735 398.624 830.516 398.412 829.282L398.373 829.07C398.236 828.386 397.443 826.118 397.183 825.647C396.735 824.872 396.581 823.713 396.709 822.958C397.121 820.508 398.574 820.333 399.848 820.412L402.446 820.847L404.713 821.276C405.56 821.422 407.046 821.798 407.602 822.138L409.632 822.147C410.597 822.154 411.888 822.7 413.405 823.019C412.771 822.203 412.195 821.345 411.681 820.45C410.917 820.408 410.12 820.373 410.12 820.373C407.926 820.29 400.531 817.863 398.387 816.365C397.297 815.603 393.366 815.212 391.475 815.036L390.346 814.911C389.194 814.784 388.08 814.425 387.07 813.856C386.649 815.2 385.581 816.238 384.669 817.113C384.14 817.619 383.471 818.252 383.304 818.653C382.356 820.893 379.486 821.308 376.747 821.721C375.686 821.869 374.615 822.036 373.826 822.265C370.693 823.197 367.892 821.866 365.65 820.81L364.563 820.303C362.744 819.502 359.581 819.161 356.657 820.85C352.19 823.421 348.889 821.708 347.409 820.843C346.796 821.015 345.403 821.856 344.386 822.892C342.405 824.953 339.677 824.958 337.862 824.062L337.682 823.961C336.94 823.584 335.695 822.974 334.654 822.83L331.94 822.476L332.091 822.025C330.22 821.836 328.405 820.992 327.54 819.898C326.904 819.094 326.167 817.393 328.319 814.984C328.823 814.403 329.059 813.969 329.225 813.35C329.876 810.919 331.765 809.497 332.902 809.199C334.082 808.934 334.908 808.575 335.404 807.83C335.896 807.082 336.613 806.537 337.726 806.254C338.83 805.963 340.446 805.382 341.65 805.258C342.849 805.14 344.469 805.121 345.067 806.174C345.678 807.201 347.132 809.355 347.132 809.355C349.231 808.479 349.479 806.887 351.07 804.557C353.051 801.671 355.518 803.254 357.223 803.891L357.417 803.973C357.417 803.973 358.35 804.267 358.374 804.289C358.43 804.274 358.728 804.22 358.728 804.22L359.228 804.108C359.228 804.108 362.499 803.205 362.531 803.199C362.553 803.168 362.566 803.118 362.589 803.034C362.643 802.833 362.684 802.405 362.465 801.692C361.73 799.409 361.873 795.316 362.581 792.03C362.113 791.962 361.663 791.89 361.223 791.808C354.229 790.523 350.624 787.702 348.841 784.834Z" fill="#F8EE3F"/>
<path d="M365.452 790.261C365.452 790.261 363.403 795.628 364.587 801.16C364.587 801.16 365.73 804.265 363.367 805.43L358.963 806.623C358.963 806.623 358.349 806.867 356.684 806.283C356.684 806.283 354.491 805.071 353.428 805.899C353.428 805.899 352.212 807.711 350.918 809.126C350.918 809.126 348.115 812.647 344.901 813.154C344.901 813.154 342.472 813.065 341.246 814.864C341.246 814.864 340.135 816.058 338.64 815.723C338.64 815.723 337.444 815.778 336.057 818.037C336.057 818.037 335.234 819.518 334.928 820.741C334.928 820.741 336.874 820.999 337.981 821.77C337.981 821.77 340.722 823.589 342.733 821.469C342.733 821.469 346.529 817.711 348.279 818.898C348.279 818.898 351.808 821.234 355.303 819.139C355.303 819.139 360.164 816.039 365.249 818.307C365.249 818.307 370.907 821.122 373.143 820.242C373.143 820.242 377.444 819.281 378.991 819.171C378.991 819.171 380.859 819.126 381.546 817.278C381.546 817.278 383.314 814.894 384.318 814.21L381.473 813.413C381.473 813.413 377.724 817.066 372.982 817.2C372.982 817.2 370.324 817.516 365.712 815.445C365.712 815.445 359.212 812.023 351.375 816.958C351.375 816.958 350.223 817.935 349.166 817.137C349.166 817.137 354.059 812.311 361.797 812.93C361.797 812.93 364.348 813.064 366.273 813.93C366.273 813.93 376.128 816.883 383.353 808.34C383.353 808.34 385.088 799.872 387.816 798.487C387.816 798.487 388.735 798.455 388.133 800.021C388.133 800.021 384.283 808.348 386.668 810.799C386.668 810.799 387.969 812.535 391.145 812.873C391.145 812.873 396.062 813.007 399.646 814.657C399.646 814.657 405.056 817.575 410.189 818.272C410.189 818.272 409.429 815.953 410.314 813.662C410.314 813.662 411.478 812.164 412.002 813.468C412.002 813.468 412.221 820.288 416.934 823.58C416.934 823.58 421.141 826.526 419.481 832.417C419.481 832.417 418.55 833.037 411.78 833.576C411.78 833.576 409.275 833.686 408.993 831.762C408.993 831.762 407.721 824.584 405.074 824.086L400.096 823.176C400.096 823.176 398.32 823.156 399.187 824.816C399.187 824.816 400.261 827.48 400.588 828.987C400.588 828.987 400.484 830.171 402.116 830.351C402.116 830.351 404.579 829.856 404.721 834.228C404.721 834.228 405.301 836.551 407.028 837.706C407.028 837.706 408.646 838.775 410.564 838.287C410.564 838.287 419.401 837.489 421.083 836.818C421.083 836.818 423.084 836.31 424.339 837.148C424.339 837.148 426.598 838.371 428.103 836.733L431.63 833.543C431.63 833.543 432.432 832.74 432.676 831.526C432.676 831.526 433.218 830.405 432.543 828.936C432.543 828.936 431.868 827.687 431.913 826.926L431.254 822.273C431.254 822.273 430.833 820.965 430.165 820.294L427.745 819.832C427.745 819.832 428.26 824.442 429 826.463C429 826.463 429.956 829.371 429.452 830.922C429.452 830.922 429.049 831.996 428.491 832.34C428.491 832.34 427.709 833.069 427.374 833.436C427.374 833.436 426.237 834.804 425.56 834.994C425.56 834.994 424.39 835.321 424.138 835.279C424.138 835.279 423.666 835.283 424.203 834.584C424.203 834.584 426.283 832.142 426.596 830.622C426.596 830.622 427.272 829.132 426.413 827.924C426.413 827.924 424.921 823.151 424.877 821.832C424.877 821.832 424.504 819.984 424.147 819.588C424.147 819.588 423.562 818.159 425.169 817.994C425.169 817.994 429.021 818.147 429.791 817.876C429.791 817.876 431.679 817.815 433.788 814.482C433.788 814.482 436.487 810.66 437.165 808.035C437.165 808.035 438.646 814.758 432.154 819.452C432.154 819.452 435.713 821.626 437.617 820.915C437.617 820.915 442.62 821.502 443.618 821.495C443.618 821.495 444.906 821.527 443.985 822.2C443.985 822.2 441.98 823.876 441.495 825.195C441.495 825.195 441.113 826.247 440.061 826.641C440.061 826.641 436.811 827.824 436.079 829.594C436.079 829.594 435.021 831.203 436.343 831.105C436.343 831.105 438.184 830.785 438.558 831.704C438.558 831.704 438.707 831.829 437.885 832.369C437.885 832.369 435.858 833.358 435.221 835.244C435.221 835.244 434.932 837.54 435.322 838.407C435.322 838.407 435.787 839.632 437.044 839.619C437.044 839.619 437.422 839.452 437.937 839.77C437.937 839.77 438.516 839.923 440.167 839.806C440.167 839.806 442.627 839.79 443.465 839.725C443.465 839.725 446.661 839.464 448.08 839.922C448.08 839.922 449.043 840.07 450.172 840.627C450.172 840.627 453.708 842.019 456.858 839.984C456.858 839.984 459.1 839.014 459.347 840.605C459.347 840.605 462.189 847.746 469.791 848.103C469.791 848.103 464.706 844.222 464.081 840.625C464.081 840.625 464.612 837.855 462.629 833.28C462.629 833.28 462.05 831.783 463.02 831.694C463.02 831.694 463.633 831.449 464.448 832.866C464.448 832.866 466.561 836.355 466.919 839.127C466.919 839.127 469.021 845.408 474.591 844.979C474.591 844.979 471.008 842.367 469.901 838.99C469.901 838.99 469.783 834.789 466.657 830.85C466.657 830.85 467.675 826.438 466.514 823.493C466.514 823.493 466.687 819.14 466.694 818.113C466.694 818.113 466.679 814.245 466.952 813.251C466.952 813.251 468.539 808.628 466.484 804.148C466.484 804.148 465.5 799.681 463.063 796.099C463.063 796.099 461.451 792.479 460.148 790.177C460.148 790.177 458.532 786.784 454.36 781.804C454.36 781.804 452.487 779.489 451.27 777.215C451.27 777.215 443.955 768.265 436.007 771.742C436.007 771.742 430.661 773.606 426.63 773.546C426.63 773.546 418.628 772.37 413.876 776.868C413.876 776.868 413.326 777.787 410.097 777.328C410.097 777.328 403.449 774.658 396.58 780.058C396.58 780.058 393.616 781.721 388.814 781.032C388.814 781.032 381.434 778.223 374.936 782.715C374.936 782.715 359.558 790.246 354.015 781.205C354.015 781.205 351.141 776.528 357.312 771.107C357.312 771.107 361.007 768.486 366.714 766.242C366.714 766.242 371.308 764.555 370.671 759.849C370.671 759.849 370.831 755.508 365.068 753.848C365.068 753.848 358.176 750.497 356.22 746.04C356.22 746.04 349.842 756.717 362.773 759.975C362.773 759.975 365.997 761.371 364.111 763.721C364.111 763.721 361.855 765.559 359.424 765.797C359.424 765.797 355.083 766.455 351.812 771.641C351.812 771.641 345.235 780.492 353.784 786.879C357.128 789.139 361.484 789.905 365.452 790.261ZM340.768 808.656C341.404 808.361 342.23 808.321 342.863 808.66C344.299 809.396 343.023 810.468 343.023 810.468C342.097 811.457 339.561 812.864 339.561 812.864C337.411 813.726 336.42 811.748 336.42 811.748C335.444 810.085 337.34 809.915 337.34 809.915C338.453 809.776 340.768 808.656 340.768 808.656ZM335.269 813.816C335.269 813.816 335.716 814.377 335.201 815.109C335.201 815.109 332.736 818.618 332.453 819.942C332.453 819.942 329.156 819.661 329.136 817.992C329.136 817.992 329.212 817.37 329.958 816.638C329.958 816.638 330.709 815.971 331.245 814.525C331.245 814.525 332.198 810.781 334.351 812.417C334.759 812.814 335.033 813.306 335.269 813.816ZM448.284 835.636C447.734 835.474 447.648 835.233 447.878 834.642C448.704 833.046 450.259 832.679 450.259 832.679C453.218 831.839 453.119 833.447 453.119 833.447C452.857 836.294 450.614 836.059 450.614 836.059C450.145 836.092 448.284 835.636 448.284 835.636ZM459.233 825.545C459.622 824.281 460.491 821.472 459.464 820.111C459.088 819.602 457.749 817.02 457.749 817.02C457.596 816.441 457.382 816.35 457.382 816.35C457.002 816.208 456.255 816.98 456.255 816.98C454.209 819.221 452.948 818.543 452.948 818.543C453.064 818.066 453.523 817.621 453.523 817.621C454.513 816.531 455.498 815.437 456.477 814.337C456.795 813.939 457.137 813.386 457.137 813.386C458.98 811.717 459.795 813.581 459.795 813.581C460.056 814.797 462.043 819.061 462.043 819.061C462.484 820.004 462.325 820.848 462.325 820.848C461.723 825.799 459.233 825.545 459.233 825.545ZM440.058 789.551C439.851 788.728 440.211 788.04 440.799 787.45C442.073 786.308 442.513 788.045 442.513 788.045C444.467 793.228 440.42 799.12 440.42 799.12C441.704 793.043 440.058 789.551 440.058 789.551ZM602.364 853.741C602.364 853.741 601.456 859.414 597.665 863.613C597.665 863.613 595.121 865.731 596.586 867.921L599.804 871.157C599.804 871.157 600.213 871.674 601.948 872.001C601.948 872.001 604.452 872.048 604.958 873.296C604.958 873.296 605.106 875.474 605.518 877.346C605.518 877.346 606.189 881.797 608.718 883.844C608.718 883.844 610.865 884.981 611.026 887.151C611.026 887.151 611.393 888.742 612.852 889.198C612.852 889.198 613.863 889.844 613.934 892.494C613.934 892.494 613.907 894.189 613.561 895.401C613.561 895.401 611.746 894.65 610.401 894.765C610.401 894.765 607.119 894.97 606.437 892.128C606.437 892.128 605.029 886.976 602.919 887.129C602.919 887.129 598.697 887.387 596.716 883.825C596.716 883.825 594.057 878.711 588.519 878.132C588.519 878.132 582.214 877.741 580.716 875.861C580.716 875.861 577.471 872.878 576.187 872.01C576.187 872.01 574.59 871.036 574.921 869.093C574.921 869.093 574.582 866.144 574.054 865.05L576.915 865.782C576.915 865.782 578.334 870.82 582.374 873.306C582.374 873.306 584.521 874.91 589.547 875.421C589.547 875.421 596.889 875.709 601.209 883.9C601.209 883.9 601.719 885.323 603.031 885.16C603.031 885.16 601.208 878.535 594.197 875.201C594.197 875.201 591.922 874.042 589.819 873.829C589.819 873.829 579.808 871.459 577.82 860.448C577.82 860.448 580.554 852.247 578.884 849.684C578.884 849.684 578.106 849.196 577.841 850.853C577.841 850.853 577.012 859.989 573.722 860.92C573.722 860.92 571.727 861.773 568.806 860.477C568.806 860.477 564.482 858.135 560.555 857.772C560.555 857.772 554.409 857.594 549.615 855.63C549.615 855.63 551.433 854.003 551.812 851.576C551.812 851.576 551.553 849.697 550.447 850.565C550.447 850.565 546.847 856.361 541.119 856.855C541.119 856.855 536.002 857.303 534.494 863.235C534.494 863.235 534.993 864.237 540.587 868.09C540.587 868.09 542.702 869.438 543.909 867.912C543.909 867.912 548.596 862.331 551.139 863.224L555.907 864.925C555.907 864.925 557.454 865.796 555.872 866.799C555.872 866.799 553.612 868.57 552.573 869.711C552.573 869.711 552.073 870.789 550.569 870.129C550.569 870.129 548.684 868.469 546.372 872.184C546.372 872.184 544.71 873.905 542.638 874.043C542.638 874.043 540.701 874.159 539.285 872.777C539.285 872.777 532.03 867.668 530.911 866.246C530.911 866.246 529.43 864.806 527.926 864.904C527.926 864.904 525.36 864.834 524.876 862.663L523.416 858.137C523.416 858.137 523.121 857.04 523.518 855.867C523.518 855.867 523.608 854.624 524.928 853.69C524.928 853.69 526.138 852.947 526.479 852.265L529.377 848.565C529.377 848.565 530.396 847.642 531.309 847.395L533.637 848.205C533.637 848.205 530.884 851.94 529.232 853.32C529.232 853.32 526.95 855.36 526.611 856.956C526.611 856.956 526.423 858.088 526.734 858.664C526.734 858.664 527.047 859.687 527.154 860.172C527.154 860.172 527.452 861.925 527.945 862.428C527.945 862.428 528.794 863.296 529.034 863.386C529.034 863.386 529.442 863.625 529.323 862.75C529.323 862.75 528.747 859.597 529.232 858.123C529.232 858.123 529.393 856.496 530.739 855.878C530.739 855.878 534.42 852.491 535.119 851.372C535.119 851.372 536.364 849.956 536.872 849.793C536.872 849.793 538.094 848.847 536.784 847.901C536.784 847.901 533.373 846.108 532.841 845.488C532.841 845.488 531.237 844.492 531.076 840.551C531.076 840.551 530.651 835.891 531.374 833.279C531.374 833.279 526.731 838.36 530.007 845.671C530.007 845.671 525.837 845.775 524.544 844.207C524.544 844.207 519.919 842.214 519.055 841.708C519.055 841.708 517.926 841.092 518.385 842.136C518.385 842.136 519.283 844.589 519.046 845.975C519.046 845.975 518.849 847.077 519.564 847.944C519.564 847.944 521.787 850.593 521.534 852.492C521.534 852.492 521.647 854.415 520.551 853.668C520.551 853.668 519.117 852.471 518.333 853.079C518.333 853.079 518.142 853.114 518.584 853.992C518.584 853.992 519.844 855.862 519.452 857.814C519.452 857.814 518.555 859.947 517.782 860.502C517.782 860.502 516.768 861.33 515.686 860.691C515.686 860.691 515.444 860.358 514.836 860.375C514.836 860.375 514.259 860.218 512.887 859.291C512.887 859.291 510.765 858.048 510.072 857.572C510.072 857.572 507.434 855.748 505.976 855.435C505.976 855.435 505.067 855.081 503.811 855C503.811 855 500.052 854.437 498.341 851.1C498.341 851.1 496.884 849.138 495.877 850.394C495.877 850.394 489.844 855.157 483.082 851.664C483.082 851.664 489.429 850.846 491.767 848.043C491.767 848.043 492.691 845.379 496.695 842.408C496.695 842.408 497.945 841.401 497.149 840.839C497.149 840.839 496.742 840.32 495.326 841.14C495.326 841.14 491.755 843.106 490.058 845.327C490.058 845.327 485.095 849.715 480.487 846.559C480.487 846.559 484.894 846.088 487.542 843.717C487.542 843.717 489.745 840.138 494.424 838.29C494.424 838.29 495.747 833.96 498.226 831.991C498.226 831.991 500.254 828.134 500.759 827.241C500.759 827.241 502.706 823.898 502.966 822.901C502.966 822.901 503.904 818.104 507.924 815.252C507.924 815.252 511.009 811.875 514.913 809.993C514.913 809.993 518.118 807.663 520.396 806.32C520.396 806.32 523.494 804.19 529.597 801.963C529.597 801.963 532.375 800.895 534.565 799.534C534.565 799.534 545.374 795.44 550.521 802.426C550.521 802.426 554.218 806.713 557.742 808.677C557.742 808.677 565.258 811.659 567.122 817.93C567.122 817.93 567.138 819.001 570.164 820.218C570.164 820.218 577.257 821.229 580.506 829.34C580.506 829.34 582.242 832.264 586.746 834.068C586.746 834.068 594.537 835.324 597.919 842.463C597.919 842.463 607.472 856.675 616.794 851.616C616.794 851.616 621.62 849.003 618.987 841.223C618.987 841.223 617.098 837.105 613.279 832.309C613.279 832.309 610.141 828.55 613.048 824.794C613.048 824.794 615.08 820.955 620.901 822.399C620.901 822.399 628.545 822.942 632.466 820.06C632.466 820.06 632.654 832.496 619.823 828.852C619.823 828.852 616.332 828.448 616.792 831.427C616.792 831.427 617.827 834.146 619.813 835.568C619.813 835.568 623.243 838.308 623.484 844.435C623.484 844.435 624.756 855.389 614.154 856.645C610.134 856.932 605.979 855.417 602.364 853.741ZM614.545 882.014C614.141 881.441 613.446 880.993 612.73 880.97C611.116 880.889 611.686 882.456 611.686 882.456C611.995 883.776 613.487 886.262 613.487 886.262C614.921 888.084 616.766 886.867 616.766 886.867C618.441 885.914 616.883 884.818 616.883 884.818C615.99 884.141 614.545 882.014 614.545 882.014ZM616.725 889.232C616.725 889.232 616.061 889.495 616.138 890.386C616.138 890.386 616.518 894.657 616.102 895.946C616.102 895.946 619.1 897.351 619.949 895.915C619.949 895.915 620.194 895.338 619.915 894.332C619.915 894.332 619.598 893.378 619.857 891.858C619.857 891.858 620.905 888.139 618.222 888.48C617.669 888.62 617.186 888.909 616.725 889.232ZM507.941 851.621C508.5 851.756 508.697 851.591 508.791 850.963C508.873 849.168 507.712 848.073 507.712 848.073C505.57 845.866 504.85 847.308 504.85 847.308C503.656 849.905 505.714 850.823 505.714 850.823C506.104 851.086 507.941 851.621 507.941 851.621ZM503.507 837.408C503.801 836.119 504.452 833.252 506.024 832.587C506.606 832.335 509.054 830.768 509.054 830.768C509.477 830.342 509.707 830.37 509.707 830.37C510.106 830.437 510.369 831.48 510.369 831.48C511.019 834.444 512.452 834.487 512.452 834.487C512.589 834.016 512.412 833.4 512.412 833.4C512.1 831.962 511.795 830.522 511.497 829.08C511.447 828.697 511.415 828.312 511.401 827.926C510.64 825.559 509.002 826.766 509.002 826.766C508.168 827.688 504.317 830.388 504.317 830.388C503.809 830.738 503.413 831.226 503.176 831.794C501.225 836.383 503.507 837.408 503.507 837.408ZM538.109 815.824C538.7 815.214 538.732 814.439 538.518 813.634C537.985 812.008 536.738 813.292 536.738 813.292C532.453 816.804 533.012 823.93 533.012 823.93C534.936 818.024 538.109 815.824 538.109 815.824Z" fill="#CC2729"/>
</g>
<path d="M314.369 858.642C313.561 855.63 311.979 853.653 308.675 852.768C304.271 851.588 301.242 853.385 300.28 856.979C299.394 860.282 302.406 862.952 305.483 866.075C309.976 870.633 315.446 875.95 313.443 883.427C311.781 889.628 305.972 893.227 298.901 891.332C291.773 889.422 289.042 884.777 288.233 879.218L291.867 878.639C292.391 882.941 294.575 886.384 299.849 887.797C304.659 889.086 308.758 886.768 309.908 882.479C311.305 877.263 307.584 873.533 304.079 869.923C299.543 865.291 295.04 862.159 296.686 856.016C298.177 850.452 303.422 847.571 309.623 849.233C314.955 850.661 317.076 854.336 317.976 857.931L314.369 858.642ZM330.091 887.639C328.6 893.203 331.769 896.909 336.348 898.136C340.868 899.347 345.523 897.737 347.014 892.174L355.183 861.689L358.718 862.636L350.674 892.657C348.577 900.481 342.197 903.43 335.416 901.613C328.577 899.781 324.557 893.921 326.622 886.213L334.666 856.192L338.26 857.154L330.091 887.639ZM366.985 887.089C370.246 874.918 381.825 868.331 393.88 871.561C402.805 873.953 407.169 880.153 408.783 884.561L405.353 886.003C403.724 881.653 399.772 876.929 392.933 875.096C382.907 872.41 373.222 877.952 370.52 888.036C367.834 898.063 373.434 907.763 383.46 910.449C393.371 913.105 401.872 907.804 404.562 901.009L392.044 897.655L392.991 894.12L409.451 898.53C406.392 909.947 395.205 917.385 382.513 913.984C370.342 910.723 363.724 899.26 366.985 887.089ZM442.592 883.681L447.722 930.836L444.187 929.889L442.795 917.465L425.524 912.837L418.165 922.916L414.629 921.969L442.592 883.681ZM440.107 892.954L427.92 909.69L442.409 913.573L440.107 892.954ZM490.402 908.978C488.818 914.889 483.102 918.14 476.379 916.339L475.278 916.044L483.006 940.29L478.833 939.172L471.279 914.973L469.83 914.584L464.286 935.274L460.693 934.312L471.781 892.931L481.923 895.649C488.762 897.481 491.986 903.066 490.402 908.978ZM477.327 912.804C482.021 914.062 485.827 911.913 486.867 908.03C487.892 904.205 485.67 900.442 480.976 899.184L474.427 897.429L470.778 911.049L477.327 912.804ZM524.797 910.926L510.366 907.059L506.794 920.389L521.225 924.256L520.278 927.791L505.847 923.924L500.226 944.904L496.69 943.957L507.778 902.577L525.744 907.391L524.797 910.926ZM560.117 927.658C558.533 933.569 552.816 936.82 546.093 935.019L544.992 934.724L552.72 958.97L548.547 957.852L540.993 933.652L539.544 933.264L534.001 953.954L530.407 952.992L541.495 911.611L551.637 914.329C558.476 916.161 561.701 921.746 560.117 927.658ZM547.041 931.484C551.735 932.742 555.541 930.593 556.581 926.71C557.606 922.885 555.384 919.122 550.69 917.864L544.141 916.109L540.492 929.729L547.041 931.484ZM596.25 930.072L579.964 925.708L576.455 938.806L592.74 943.17L591.778 946.763L575.492 942.399L570.771 960.018L587.057 964.382L586.109 967.917L566.289 962.606L577.376 921.226L597.197 926.537L596.25 930.072ZM630.937 939.366L614.652 935.003L611.142 948.101L627.428 952.464L626.465 956.057L610.179 951.694L605.458 969.312L621.744 973.676L620.797 977.211L600.976 971.9L612.064 930.52L631.885 935.831L630.937 939.366Z" fill="#E92842"/>
<defs>
<clipPath id="clip0_24_102">
<rect width="306" height="117" fill="white" transform="translate(352.637 721.078) rotate(15)"/>
</clipPath>
</defs>
</svg>
