<svg width="993" height="1555" viewBox="0 0 993 1555" fill="none" xmlns="http://www.w3.org/2000/svg">
<path fill-rule="evenodd" clip-rule="evenodd" d="M637.428 1489.62C627.871 1525.28 481.304 1517 310.061 1471.12C222.479 1447.65 145.405 1418.89 92.2781 1391.62L489.214 775.274L806.085 860.179L637.428 1489.62ZM859.746 199.927L489.214 775.274L185.961 694.017L354.618 64.5781L859.746 199.927Z" fill="#213A7A"/>
<path d="M17.3031 1323.46L185.961 694.017L489.214 775.274L92.2781 1391.62C41.5306 1365.57 12.6342 1340.88 17.3031 1323.46Z" fill="#213A7A"/>
<path d="M17.3031 1323.46L185.961 694.017L489.214 775.274L92.2781 1391.62C41.5306 1365.57 12.6342 1340.88 17.3031 1323.46Z" fill="white" fill-opacity="0.82"/>
<path fill-rule="evenodd" clip-rule="evenodd" d="M806.085 860.179L489.214 775.274L859.746 199.927L974.743 230.74L806.085 860.179Z" fill="#213A7A"/>
<path fill-rule="evenodd" clip-rule="evenodd" d="M806.085 860.179L489.214 775.274L859.746 199.927L974.743 230.74L806.085 860.179Z" fill="white" fill-opacity="0.82"/>
<ellipse cx="664.681" cy="147.66" rx="321" ry="66.8569" transform="rotate(15 664.681 147.66)" fill="#C7CFDC"/>
<path d="M289.597 661.74L264.386 654.985L292.105 551.534L330.791 561.9C349.336 566.869 360.67 583.106 355.235 603.39C351.081 618.893 339.476 627.43 326.035 628.332L341.322 675.6L313.793 668.223L299.846 623.489L289.597 661.74ZM305.824 601.176L316.981 604.166C324.225 606.107 328.539 602.759 330.169 596.674C331.8 590.588 328.908 585.155 322.533 583.446L311.376 580.457L305.824 601.176ZM381.818 656.013C380.099 663.007 383.415 669.175 390.66 671.116C398.774 673.29 402.399 671.932 404.557 669.094L426.725 675.034C421.081 683.926 409.201 695.807 384.715 689.246C361.243 682.956 354.243 662.135 358.863 644.893C363.483 627.652 381.309 612.706 404.636 618.956C430.716 625.945 436.74 646.349 431.616 665.474C431.305 666.633 430.956 667.937 430.5 669.058L381.818 656.013ZM409.133 647.959C409.785 643.785 407.522 637.743 399.843 635.686C392.164 633.628 387.183 637.729 385.951 641.747L409.133 647.959ZM510.713 606.072L532.881 612.012L504.152 719.23L481.984 713.29L483.11 709.088C479.156 710.513 472.033 712.176 461.601 709.381C439.433 703.441 433.042 683.249 437.661 666.007C442.281 648.765 457.913 634.474 480.081 640.414C491.962 643.598 495.754 647.409 498.678 650.988L510.713 606.072ZM463.172 672.222C461.153 679.756 465.714 687.655 473.249 689.674C480.783 691.693 488.682 687.132 490.701 679.598C492.72 672.064 488.159 664.164 480.625 662.145C473.091 660.127 465.191 664.687 463.172 672.222ZM604.68 665.104C601.419 677.275 595.52 681.906 589.682 682.826C598.942 688.258 604.525 698.14 600.565 712.918C595.207 732.913 578.619 739.183 559.929 734.175L519.215 723.266L546.934 619.815L581.563 629.094C600.253 634.102 609.145 648.442 604.68 665.104ZM561.469 666.415L566.25 667.696C572.625 669.404 577.363 666.791 579.11 660.271C580.74 654.186 578.177 648.685 571.802 646.977L567.02 645.696L561.469 666.415ZM549.589 710.751L560.456 713.662C567.41 715.526 573.752 712.722 575.965 704.463C578.1 696.494 574.127 690.46 567.172 688.597L556.305 685.685L549.589 710.751ZM646.691 685.989L636.403 724.384C634.733 730.615 637.579 734.483 642.94 735.919C648.156 737.317 652.516 735.535 654.224 729.16L664.512 690.764L689.578 697.48L678.94 737.18C674.049 755.436 657.963 762.151 637.388 756.639C616.814 751.126 606.096 737.228 610.988 718.972L621.625 679.273L646.691 685.989ZM712.395 775.028L687.184 768.273L715.913 661.055L741.124 667.81L712.395 775.028ZM756.682 786.895L731.471 780.14L760.2 672.922L785.411 679.677L756.682 786.895Z" fill="#E92842"/>
<g clip-path="url(#clip0_24_75)">
<path d="M460.56 869.964C460.855 870.106 461.151 870.245 461.447 870.383L460.56 869.964ZM462.99 871.069C463.338 871.22 463.687 871.365 464.037 871.51L462.99 871.069ZM465.593 872.112C465.938 872.239 466.282 872.363 466.629 872.485L465.593 872.112ZM467 872.613C467.293 872.715 467.587 872.812 467.882 872.908L467 872.613ZM468.311 873.048C468.66 873.158 469.011 873.266 469.362 873.373L468.311 873.048ZM469.712 873.471C470.497 873.704 471.288 873.916 472.084 874.109L469.712 873.471ZM472.463 874.204C472.835 874.291 473.207 874.376 473.58 874.457L472.463 874.204ZM473.932 874.534C474.256 874.602 474.576 874.666 474.899 874.729L473.932 874.534ZM475.235 874.795C475.588 874.861 475.942 874.925 476.294 874.985L475.235 874.795ZM478.12 875.262C478.395 875.302 478.668 875.339 478.943 875.368L478.12 875.262ZM550.61 798.973C550.364 798.742 550.108 798.523 549.842 798.317L550.61 798.973ZM548.002 797.163C547.654 796.989 547.298 796.832 546.934 796.694L548.002 797.163ZM348.841 784.834C347.875 783.315 347.296 781.583 347.154 779.789C347.049 778.294 346.895 776.42 347.284 774.969C349.068 768.432 354.191 764.594 358.908 763.445C361.051 762.924 361.933 762.409 362.314 762.125C362.194 762.028 362.058 761.952 361.912 761.899C356.313 760.399 354.026 757.455 353.11 755.237C352.236 753.155 352.15 750.749 352.801 748.318C353.118 747.137 353.616 745.946 354.282 744.769C356.558 742.587 357.865 743.704 358.426 745.283C358.787 746.274 362.034 750.189 366.852 751.963C370.355 753.267 371.821 755.544 372.452 757.218C373.178 759.154 373.099 761.232 372.653 762.898C372.47 763.579 372.222 764.199 371.922 764.729C370.793 766.779 367.949 768.139 364.051 769.796L361.817 770.822C358.514 772.446 356.343 774.657 355.751 776.865C355.603 777.417 355.556 777.981 355.609 778.527C355.632 778.751 355.672 778.973 355.731 779.189C356.385 781.533 359.424 783.708 364.786 783.307C367.262 783.128 372.36 781.552 375.731 779.626C379.702 777.339 384.086 777.71 388.2 778.471C391.763 779.144 394.143 778.863 396.113 777.567C401.94 773.724 406.437 774.17 410.548 774.95C412.122 775.245 412.235 775.157 412.509 774.939C415.524 772.576 418.226 771.622 420.518 771.259C422.266 770.983 423.776 771.049 425.013 771.106L426.524 771.137L426.911 771.107C429.349 770.986 431.246 770.853 436.638 768.992L436.865 768.922L436.867 768.92L437.09 768.851L437.093 768.851L437.316 768.789L437.319 768.789L437.541 768.73L437.544 768.73L437.765 768.68L437.772 768.68L437.99 768.631L437.997 768.631L438.215 768.588L438.224 768.589L438.441 768.551L438.45 768.549L438.666 768.52L438.675 768.519L438.89 768.491L438.901 768.491L439.115 768.471L439.126 768.468L439.337 768.451L439.561 768.437L439.575 768.438L439.783 768.428L439.796 768.428L440.006 768.424L440.02 768.424L440.227 768.423L440.243 768.423L440.449 768.429L440.467 768.429L440.67 768.437L440.686 768.437L440.892 768.449L440.909 768.449L441.111 768.466L441.13 768.467L441.331 768.487L441.349 768.489L441.547 768.512L441.568 768.513L441.766 768.543L441.787 768.544L441.981 768.574L442.002 768.578L442.197 768.611L442.219 768.615L442.412 768.652L442.435 768.656L442.624 768.695L442.646 768.7L442.837 768.742L443.049 768.792L443.071 768.798L443.259 768.846L443.492 768.908L443.676 768.96L443.698 768.967L443.72 768.973C443.852 769.012 443.983 769.056 444.114 769.099L444.295 769.159L444.32 769.168L444.496 769.23L444.523 769.239L444.698 769.305L444.726 769.316L444.9 769.381L444.928 769.391L445.101 769.461L445.128 769.473L445.299 769.542L445.327 769.555L445.495 769.628L445.523 769.641L445.692 769.715L445.721 769.73L445.885 769.806L445.916 769.82L446.078 769.897L446.107 769.913C446.366 770.037 446.619 770.169 446.865 770.304L447.019 770.39L447.05 770.408C447.297 770.548 447.54 770.691 447.777 770.837L447.917 770.926L447.952 770.948C448.421 771.246 448.868 771.561 449.298 771.883L449.418 771.975L449.575 772.095C462.891 761.451 480.691 756.764 498.448 760.666L498.449 760.662C499.323 760.855 500.193 761.067 501.057 761.298C501.629 761.451 502.198 761.613 502.765 761.783C503.046 761.868 503.327 761.956 503.607 762.043L503.611 762.044C503.888 762.133 504.168 762.223 504.446 762.316C521.148 767.884 533.808 780.438 540.013 795.797C541.516 795.688 543.106 795.743 544.663 796.048L544.704 796.057L544.852 796.087L545.004 796.12L545.041 796.127L545.081 796.137L545.23 796.172L545.27 796.181L545.418 796.219L545.458 796.229L545.609 796.268L545.646 796.278L545.796 796.32L545.834 796.33L546.019 796.383L546.17 796.43L546.203 796.44L546.353 796.488L546.388 796.499L546.538 796.551L546.566 796.56L546.718 796.615L546.748 796.625L546.9 796.682L546.927 796.693C547.291 796.831 547.647 796.988 547.995 797.162L548.149 797.239L548.17 797.25L548.321 797.332L548.343 797.342L548.494 797.427L548.514 797.438L548.667 797.526L548.683 797.536L548.839 797.628L548.854 797.637L549.004 797.732L549.022 797.743L549.175 797.843L549.188 797.851L549.352 797.963L549.506 798.069L549.515 798.077L549.666 798.187L549.675 798.194L549.828 798.309L549.837 798.317C550.1 798.521 550.357 798.738 550.605 798.973L550.61 798.978L550.757 799.115L550.758 799.118L550.904 799.263L550.906 799.265L551.05 799.415L551.052 799.416L551.193 799.569L551.335 799.726C553.908 802.707 555.472 804.135 556.858 805.166C557.481 805.63 558.073 806.013 558.7 806.421L559.027 806.643L560.366 807.375C561.097 807.754 561.931 808.188 562.807 808.76C565.001 810.186 567.466 812.475 569.255 816.94C569.385 817.266 569.444 817.4 570.962 817.934C574.909 819.314 579.019 821.174 582.162 827.419C583.209 829.525 585.12 830.953 588.541 832.153C592.508 833.557 596.476 835.424 598.766 839.389C600.725 842.743 604.347 846.656 606.408 848.05C610.849 851.078 614.585 850.719 616.295 849.008C616.666 848.65 616.963 848.226 617.184 847.753C617.299 847.508 617.392 847.253 617.463 846.992C618.054 844.784 617.278 841.783 615.236 838.726L614.978 838.362L613.797 836.717C611.263 833.335 609.478 830.736 609.509 828.391C609.514 827.782 609.622 827.125 609.805 826.444C610.252 824.777 611.232 822.942 612.806 821.621C614.197 820.489 616.626 819.256 620.288 819.872C625.374 820.752 630.121 818.979 630.928 818.301C632.219 817.218 633.895 816.9 634.768 819.926C634.762 821.28 634.598 822.561 634.281 823.742C633.626 826.186 632.353 828.213 630.556 829.579C628.644 831.04 625.2 832.448 619.592 830.946C619.474 830.914 619.293 830.925 619.14 830.943C619.321 831.378 619.828 832.266 621.428 833.788C624.938 837.142 627.46 843.029 625.741 849.582C625.352 851.034 624.289 852.581 623.434 853.819C622.539 855.119 621.379 856.214 620.03 857.032C619.848 857.142 619.66 857.248 619.464 857.348C616.571 858.879 612.259 859.534 605.932 857.427C605.266 857.204 604.606 856.962 603.954 856.701C602.919 859.9 600.996 863.517 599.222 865.126C598.678 865.635 598.493 866.025 598.439 866.226C598.417 866.31 598.412 866.361 598.402 866.396C598.438 866.421 600.807 868.834 600.807 868.834L601.199 869.186C601.199 869.186 601.43 869.381 601.457 869.419C601.501 869.415 602.444 869.623 602.444 869.623L602.635 869.646L602.655 869.649C604.458 869.953 607.375 869.812 607.663 873.307C607.735 874.233 607.72 875.018 607.716 875.717C607.708 877.144 607.741 878.215 608.668 879.428C608.668 879.428 609.378 879.087 610.19 878.68C610.816 878.369 611.436 878.044 612.048 877.705C613.085 877.089 614.477 877.916 615.453 878.617C616.44 879.328 617.546 880.638 618.36 881.443C619.181 882.244 619.53 883.074 619.588 883.97C619.659 884.867 620.185 885.589 621.064 886.405C621.902 887.232 622.837 889.412 622.186 891.842C622.086 892.214 622.043 892.544 622.057 892.91C622.069 893.153 622.104 893.413 622.167 893.714C622.803 896.87 621.318 897.975 620.359 898.352C619.067 898.869 617.079 898.693 615.374 897.924L615.265 898.386L612.753 897.34C611.778 896.944 610.377 896.845 609.538 896.797L609.337 896.797C607.383 896.669 605.126 895.391 604.357 892.814C604.329 892.718 604.301 892.623 604.278 892.523C603.909 891.116 603.13 889.693 602.685 889.237C601.863 889.243 600.579 889.204 599.179 888.672C597.881 888.18 596.479 887.256 595.261 885.54C595.059 885.255 594.862 884.947 594.672 884.619C592.99 881.696 590.081 880.41 588.095 880.191L586.904 880.088C584.442 879.884 581.364 879.639 579.097 877.26C578.533 876.669 577.674 875.985 576.829 875.327C574.656 873.597 572.409 871.811 572.686 869.391C572.739 868.96 572.493 868.081 572.285 867.378C572.104 866.758 571.906 866.079 571.8 865.38C571.697 864.712 571.678 864.026 571.838 863.357C570.977 863.348 570.122 863.21 569.303 862.948C569.013 862.854 568.728 862.747 568.449 862.627L567.426 862.175C565.708 861.386 562.106 859.757 560.788 859.873C558.167 860.095 550.536 858.496 548.6 857.472C548.6 857.472 547.886 857.102 547.212 856.759C546.335 857.283 545.391 857.743 544.427 858.119C545.914 858.606 547.291 858.774 548.14 859.253L549.9 860.261C550.553 860.244 552.026 860.661 552.846 860.962L555.02 861.723L557.486 862.645C558.641 863.216 559.794 864.089 558.933 866.419C558.65 867.133 557.959 868.064 557.174 868.51C556.733 868.793 554.896 870.356 554.444 870.882L554.298 871.045C553.489 872.005 552.455 872.808 550.231 872.212C549.949 872.133 549.664 872.068 549.376 872.019C549.26 872.181 548.988 872.466 548.988 872.466C548.182 873.47 547.034 874.861 545.407 875.408L544.966 875.574C543.644 876.069 541.446 876.878 538.891 875.093L538.01 874.483C535.782 872.934 532.409 870.601 530.802 869.068L530.576 868.851C529.08 867.422 528.743 867.125 528.082 867.044L527.713 867.004C526.318 866.832 523.691 866.493 522.717 863.118L522.624 862.823C511.258 872.001 496.578 876.818 481.447 875.619L481.38 875.616C480.864 875.574 480.347 875.524 479.83 875.469L479.639 875.447L478.934 875.366C478.66 875.334 478.387 875.299 478.111 875.261L477.612 875.192L476.828 875.07L476.286 874.984C475.934 874.924 475.579 874.86 475.227 874.794L474.893 874.728C474.57 874.664 474.25 874.601 473.926 874.532L473.573 874.458C473.2 874.377 472.83 874.292 472.456 874.204L472.079 874.11C471.283 873.918 470.492 873.705 469.707 873.472L469.355 873.373C469.004 873.267 468.654 873.158 468.304 873.048L467.877 872.908C467.583 872.811 467.289 872.716 466.996 872.613L466.623 872.486C466.277 872.364 465.932 872.24 465.587 872.113L465.079 871.918L464.407 871.658L464.033 871.51C463.682 871.368 463.333 871.22 462.986 871.068L462.565 870.886L461.823 870.557L461.442 870.384C461.146 870.245 460.849 870.108 460.555 869.965L459.92 869.65L459.595 869.489C459.163 869.266 458.727 869.043 458.301 868.811L458.187 868.75L457.517 868.383L457.174 868.19C456.776 867.965 456.382 867.732 455.989 867.5L455.849 867.414C444.184 860.381 435.514 849.527 431.064 837.003L429.715 838.205C427.2 840.645 424.762 839.626 423.449 839.074L423.11 838.924C422.499 838.664 422.046 838.749 420.052 839.243L419.734 839.314C417.581 839.84 413.509 840.177 410.79 840.401L409.72 840.488C406.617 840.758 405.113 838.954 404.236 837.872L403.925 837.505C402.787 836.218 402.495 834.442 402.293 833.166C402.293 833.166 402.216 832.787 402.183 832.586C401.908 832.484 401.628 832.397 401.344 832.325C399.14 831.735 398.624 830.516 398.412 829.282L398.373 829.07C398.236 828.386 397.443 826.118 397.183 825.647C396.735 824.872 396.581 823.713 396.709 822.958C397.121 820.508 398.574 820.333 399.848 820.412L402.446 820.847L404.713 821.276C405.56 821.422 407.046 821.798 407.602 822.138L409.632 822.147C410.597 822.154 411.888 822.7 413.405 823.019C412.771 822.203 412.195 821.345 411.681 820.45C410.917 820.408 410.12 820.373 410.12 820.373C407.926 820.29 400.531 817.863 398.387 816.365C397.297 815.603 393.366 815.212 391.475 815.036L390.346 814.911C389.194 814.784 388.08 814.425 387.07 813.856C386.649 815.2 385.581 816.238 384.669 817.113C384.14 817.619 383.471 818.252 383.304 818.653C382.356 820.893 379.486 821.308 376.747 821.721C375.686 821.869 374.615 822.036 373.826 822.265C370.693 823.197 367.892 821.866 365.65 820.81L364.563 820.303C362.744 819.502 359.581 819.161 356.657 820.85C352.19 823.421 348.889 821.708 347.409 820.843C346.796 821.015 345.403 821.856 344.386 822.892C342.405 824.953 339.677 824.958 337.862 824.062L337.682 823.961C336.94 823.584 335.695 822.974 334.654 822.83L331.94 822.476L332.091 822.025C330.22 821.836 328.405 820.992 327.54 819.898C326.904 819.094 326.167 817.393 328.319 814.984C328.823 814.403 329.059 813.969 329.225 813.35C329.876 810.919 331.765 809.497 332.902 809.199C334.082 808.934 334.908 808.575 335.404 807.83C335.896 807.082 336.613 806.537 337.726 806.254C338.83 805.963 340.446 805.382 341.65 805.258C342.849 805.14 344.469 805.121 345.067 806.174C345.678 807.201 347.132 809.355 347.132 809.355C349.231 808.479 349.479 806.887 351.07 804.557C353.051 801.671 355.518 803.254 357.223 803.891L357.417 803.973C357.417 803.973 358.35 804.267 358.374 804.289C358.43 804.274 358.728 804.22 358.728 804.22L359.228 804.108C359.228 804.108 362.499 803.205 362.531 803.199C362.553 803.168 362.566 803.118 362.589 803.034C362.643 802.833 362.684 802.405 362.465 801.692C361.73 799.409 361.873 795.316 362.581 792.03C362.113 791.962 361.663 791.89 361.223 791.808C354.229 790.523 350.624 787.702 348.841 784.834Z" fill="#F8EE3F"/>
<path d="M365.454 790.261C365.454 790.261 363.405 795.628 364.589 801.16C364.589 801.16 365.732 804.265 363.369 805.43L358.965 806.623C358.965 806.623 358.351 806.867 356.686 806.283C356.686 806.283 354.493 805.071 353.43 805.899C353.43 805.899 352.214 807.711 350.92 809.126C350.92 809.126 348.117 812.647 344.903 813.154C344.903 813.154 342.474 813.065 341.248 814.864C341.248 814.864 340.137 816.058 338.642 815.723C338.642 815.723 337.446 815.778 336.059 818.037C336.059 818.037 335.236 819.518 334.93 820.741C334.93 820.741 336.876 820.999 337.982 821.77C337.982 821.77 340.724 823.589 342.735 821.469C342.735 821.469 346.531 817.711 348.281 818.898C348.281 818.898 351.81 821.234 355.305 819.139C355.305 819.139 360.166 816.039 365.251 818.307C365.251 818.307 370.909 821.122 373.145 820.242C373.145 820.242 377.446 819.281 378.993 819.171C378.993 819.171 380.861 819.126 381.548 817.278C381.548 817.278 383.316 814.894 384.32 814.21L381.475 813.413C381.475 813.413 377.726 817.066 372.984 817.2C372.984 817.2 370.325 817.516 365.714 815.445C365.714 815.445 359.214 812.023 351.377 816.958C351.377 816.958 350.225 817.935 349.168 817.137C349.168 817.137 354.061 812.311 361.799 812.93C361.799 812.93 364.35 813.064 366.275 813.93C366.275 813.93 376.13 816.883 383.355 808.34C383.355 808.34 385.09 799.872 387.818 798.487C387.818 798.487 388.737 798.455 388.135 800.021C388.135 800.021 384.285 808.348 386.67 810.799C386.67 810.799 387.971 812.535 391.147 812.873C391.147 812.873 396.064 813.007 399.648 814.657C399.648 814.657 405.058 817.575 410.191 818.272C410.191 818.272 409.431 815.953 410.316 813.662C410.316 813.662 411.48 812.164 412.004 813.468C412.004 813.468 412.223 820.288 416.936 823.58C416.936 823.58 421.143 826.526 419.483 832.417C419.483 832.417 418.552 833.037 411.782 833.576C411.782 833.576 409.277 833.686 408.995 831.762C408.995 831.762 407.723 824.584 405.076 824.086L400.098 823.176C400.098 823.176 398.322 823.156 399.189 824.816C399.189 824.816 400.263 827.48 400.59 828.987C400.59 828.987 400.486 830.171 402.118 830.351C402.118 830.351 404.581 829.856 404.723 834.228C404.723 834.228 405.303 836.551 407.03 837.706C407.03 837.706 408.647 838.775 410.566 838.287C410.566 838.287 419.403 837.489 421.085 836.818C421.085 836.818 423.086 836.31 424.341 837.148C424.341 837.148 426.6 838.371 428.104 836.733L431.632 833.543C431.632 833.543 432.434 832.74 432.678 831.526C432.678 831.526 433.22 830.405 432.545 828.936C432.545 828.936 431.87 827.687 431.915 826.926L431.256 822.273C431.256 822.273 430.835 820.965 430.167 820.294L427.747 819.832C427.747 819.832 428.262 824.442 429.002 826.463C429.002 826.463 429.958 829.371 429.454 830.922C429.454 830.922 429.051 831.996 428.493 832.34C428.493 832.34 427.711 833.069 427.376 833.436C427.376 833.436 426.238 834.804 425.562 834.994C425.562 834.994 424.392 835.321 424.14 835.279C424.14 835.279 423.668 835.283 424.205 834.584C424.205 834.584 426.285 832.142 426.598 830.622C426.598 830.622 427.274 829.132 426.415 827.924C426.415 827.924 424.923 823.151 424.879 821.832C424.879 821.832 424.506 819.984 424.149 819.588C424.149 819.588 423.564 818.159 425.171 817.994C425.171 817.994 429.023 818.147 429.793 817.876C429.793 817.876 431.681 817.815 433.79 814.482C433.79 814.482 436.489 810.66 437.167 808.035C437.167 808.035 438.648 814.758 432.156 819.452C432.156 819.452 435.715 821.626 437.619 820.915C437.619 820.915 442.622 821.502 443.62 821.495C443.62 821.495 444.908 821.527 443.987 822.2C443.987 822.2 441.982 823.876 441.497 825.195C441.497 825.195 441.115 826.247 440.063 826.641C440.063 826.641 436.813 827.824 436.081 829.594C436.081 829.594 435.023 831.203 436.345 831.105C436.345 831.105 438.186 830.785 438.56 831.704C438.56 831.704 438.709 831.829 437.887 832.369C437.887 832.369 435.86 833.358 435.223 835.244C435.223 835.244 434.934 837.54 435.324 838.407C435.324 838.407 435.789 839.632 437.046 839.619C437.046 839.619 437.424 839.452 437.938 839.77C437.938 839.77 438.518 839.923 440.169 839.806C440.169 839.806 442.629 839.79 443.467 839.725C443.467 839.725 446.663 839.464 448.082 839.922C448.082 839.922 449.045 840.07 450.174 840.627C450.174 840.627 453.71 842.019 456.86 839.984C456.86 839.984 459.102 839.014 459.349 840.605C459.349 840.605 462.191 847.746 469.793 848.103C469.793 848.103 464.708 844.222 464.083 840.625C464.083 840.625 464.614 837.855 462.631 833.28C462.631 833.28 462.052 831.783 463.022 831.694C463.022 831.694 463.635 831.449 464.45 832.866C464.45 832.866 466.563 836.355 466.921 839.127C466.921 839.127 469.023 845.408 474.593 844.979C474.593 844.979 471.01 842.367 469.903 838.99C469.903 838.99 469.785 834.789 466.659 830.85C466.659 830.85 467.677 826.438 466.516 823.493C466.516 823.493 466.689 819.14 466.696 818.113C466.696 818.113 466.681 814.245 466.954 813.251C466.954 813.251 468.54 808.628 466.486 804.148C466.486 804.148 465.502 799.681 463.065 796.099C463.065 796.099 461.453 792.479 460.15 790.177C460.15 790.177 458.534 786.784 454.362 781.804C454.362 781.804 452.489 779.489 451.272 777.215C451.272 777.215 443.957 768.265 436.009 771.742C436.009 771.742 430.663 773.606 426.632 773.546C426.632 773.546 418.63 772.37 413.878 776.868C413.878 776.868 413.328 777.787 410.099 777.328C410.099 777.328 403.451 774.658 396.582 780.058C396.582 780.058 393.618 781.721 388.816 781.032C388.816 781.032 381.436 778.223 374.938 782.715C374.938 782.715 359.56 790.246 354.017 781.205C354.017 781.205 351.143 776.528 357.314 771.107C357.314 771.107 361.009 768.486 366.716 766.242C366.716 766.242 371.31 764.555 370.673 759.849C370.673 759.849 370.833 755.508 365.07 753.848C365.07 753.848 358.178 750.497 356.222 746.04C356.222 746.04 349.844 756.717 362.775 759.975C362.775 759.975 365.999 761.371 364.113 763.721C364.113 763.721 361.857 765.559 359.426 765.797C359.426 765.797 355.085 766.455 351.814 771.641C351.814 771.641 345.237 780.492 353.786 786.879C357.13 789.139 361.486 789.905 365.454 790.261ZM340.77 808.656C341.406 808.361 342.232 808.321 342.865 808.66C344.301 809.396 343.025 810.468 343.025 810.468C342.099 811.457 339.563 812.864 339.563 812.864C337.413 813.726 336.422 811.748 336.422 811.748C335.445 810.085 337.342 809.915 337.342 809.915C338.455 809.776 340.77 808.656 340.77 808.656ZM335.271 813.816C335.271 813.816 335.718 814.377 335.203 815.109C335.203 815.109 332.738 818.618 332.455 819.942C332.455 819.942 329.158 819.661 329.138 817.992C329.138 817.992 329.214 817.37 329.96 816.638C329.96 816.638 330.711 815.971 331.247 814.525C331.247 814.525 332.2 810.781 334.353 812.417C334.761 812.814 335.035 813.306 335.271 813.816ZM448.286 835.636C447.736 835.474 447.65 835.233 447.88 834.642C448.706 833.046 450.261 832.679 450.261 832.679C453.219 831.839 453.121 833.447 453.121 833.447C452.859 836.294 450.616 836.059 450.616 836.059C450.147 836.092 448.286 835.636 448.286 835.636ZM459.235 825.545C459.624 824.281 460.493 821.472 459.466 820.111C459.09 819.602 457.751 817.02 457.751 817.02C457.597 816.441 457.384 816.35 457.384 816.35C457.004 816.208 456.257 816.98 456.257 816.98C454.211 819.221 452.95 818.543 452.95 818.543C453.066 818.066 453.525 817.621 453.525 817.621C454.515 816.531 455.5 815.437 456.479 814.337C456.796 813.939 457.139 813.386 457.139 813.386C458.981 811.717 459.797 813.581 459.797 813.581C460.058 814.797 462.045 819.061 462.045 819.061C462.486 820.004 462.327 820.848 462.327 820.848C461.725 825.799 459.235 825.545 459.235 825.545ZM440.059 789.551C439.853 788.728 440.213 788.04 440.801 787.45C442.075 786.308 442.515 788.045 442.515 788.045C444.469 793.228 440.422 799.12 440.422 799.12C441.706 793.043 440.059 789.551 440.059 789.551ZM602.366 853.741C602.366 853.741 601.458 859.414 597.667 863.613C597.667 863.613 595.123 865.731 596.588 867.921L599.806 871.157C599.806 871.157 600.215 871.674 601.95 872.001C601.95 872.001 604.454 872.048 604.96 873.296C604.96 873.296 605.108 875.474 605.52 877.346C605.52 877.346 606.191 881.797 608.72 883.844C608.72 883.844 610.867 884.981 611.028 887.151C611.028 887.151 611.395 888.742 612.854 889.198C612.854 889.198 613.865 889.844 613.936 892.494C613.936 892.494 613.909 894.189 613.563 895.401C613.563 895.401 611.748 894.65 610.403 894.765C610.403 894.765 607.121 894.97 606.439 892.128C606.439 892.128 605.031 886.976 602.921 887.129C602.921 887.129 598.699 887.387 596.718 883.825C596.718 883.825 594.059 878.711 588.521 878.132C588.521 878.132 582.216 877.741 580.718 875.861C580.718 875.861 577.473 872.878 576.189 872.01C576.189 872.01 574.592 871.036 574.923 869.093C574.923 869.093 574.584 866.144 574.056 865.05L576.917 865.782C576.917 865.782 578.336 870.82 582.376 873.306C582.376 873.306 584.523 874.91 589.549 875.421C589.549 875.421 596.891 875.709 601.211 883.9C601.211 883.9 601.721 885.323 603.033 885.16C603.033 885.16 601.21 878.535 594.199 875.201C594.199 875.201 591.924 874.042 589.821 873.829C589.821 873.829 579.81 871.459 577.822 860.448C577.822 860.448 580.556 852.247 578.886 849.684C578.886 849.684 578.108 849.196 577.843 850.853C577.843 850.853 577.014 859.989 573.724 860.92C573.724 860.92 571.729 861.773 568.808 860.477C568.808 860.477 564.484 858.135 560.556 857.772C560.556 857.772 554.411 857.594 549.617 855.63C549.617 855.63 551.435 854.003 551.814 851.576C551.814 851.576 551.555 849.697 550.449 850.565C550.449 850.565 546.849 856.361 541.121 856.855C541.121 856.855 536.004 857.303 534.496 863.235C534.496 863.235 534.995 864.237 540.589 868.09C540.589 868.09 542.704 869.438 543.911 867.912C543.911 867.912 548.598 862.331 551.141 863.224L555.909 864.925C555.909 864.925 557.456 865.796 555.874 866.799C555.874 866.799 553.614 868.57 552.575 869.711C552.575 869.711 552.075 870.789 550.571 870.129C550.571 870.129 548.686 868.469 546.374 872.184C546.374 872.184 544.712 873.905 542.64 874.043C542.64 874.043 540.703 874.159 539.287 872.777C539.287 872.777 532.032 867.668 530.912 866.246C530.912 866.246 529.432 864.806 527.928 864.904C527.928 864.904 525.362 864.834 524.878 862.663L523.418 858.137C523.418 858.137 523.123 857.04 523.52 855.867C523.52 855.867 523.61 854.624 524.93 853.69C524.93 853.69 526.14 852.947 526.481 852.265L529.379 848.565C529.379 848.565 530.398 847.642 531.311 847.395L533.639 848.205C533.639 848.205 530.886 851.94 529.233 853.32C529.233 853.32 526.952 855.36 526.613 856.956C526.613 856.956 526.425 858.088 526.736 858.664C526.736 858.664 527.049 859.687 527.156 860.172C527.156 860.172 527.454 861.925 527.947 862.428C527.947 862.428 528.796 863.296 529.036 863.386C529.036 863.386 529.444 863.625 529.325 862.75C529.325 862.75 528.748 859.597 529.234 858.123C529.234 858.123 529.395 856.496 530.741 855.878C530.741 855.878 534.422 852.491 535.121 851.372C535.121 851.372 536.366 849.956 536.874 849.793C536.874 849.793 538.096 848.847 536.786 847.901C536.786 847.901 533.375 846.108 532.843 845.488C532.843 845.488 531.239 844.492 531.078 840.551C531.078 840.551 530.653 835.891 531.376 833.279C531.376 833.279 526.733 838.36 530.009 845.671C530.009 845.671 525.839 845.775 524.546 844.207C524.546 844.207 519.921 842.214 519.057 841.708C519.057 841.708 517.928 841.092 518.387 842.136C518.387 842.136 519.285 844.589 519.047 845.975C519.047 845.975 518.851 847.077 519.566 847.944C519.566 847.944 521.789 850.593 521.536 852.492C521.536 852.492 521.649 854.415 520.553 853.668C520.553 853.668 519.119 852.471 518.335 853.079C518.335 853.079 518.144 853.114 518.586 853.992C518.586 853.992 519.846 855.862 519.454 857.814C519.454 857.814 518.557 859.947 517.784 860.502C517.784 860.502 516.77 861.33 515.688 860.691C515.688 860.691 515.446 860.358 514.838 860.375C514.838 860.375 514.26 860.218 512.889 859.291C512.889 859.291 510.767 858.048 510.073 857.572C510.073 857.572 507.436 855.748 505.977 855.435C505.977 855.435 505.069 855.081 503.813 855C503.813 855 500.054 854.437 498.343 851.1C498.343 851.1 496.886 849.138 495.879 850.394C495.879 850.394 489.846 855.157 483.084 851.664C483.084 851.664 489.431 850.846 491.769 848.043C491.769 848.043 492.693 845.379 496.697 842.408C496.697 842.408 497.947 841.401 497.151 840.839C497.151 840.839 496.744 840.32 495.328 841.14C495.328 841.14 491.757 843.106 490.06 845.327C490.06 845.327 485.097 849.715 480.489 846.559C480.489 846.559 484.896 846.088 487.544 843.717C487.544 843.717 489.746 840.138 494.426 838.29C494.426 838.29 495.749 833.96 498.228 831.991C498.228 831.991 500.256 828.134 500.761 827.241C500.761 827.241 502.708 823.898 502.968 822.901C502.968 822.901 503.906 818.104 507.926 815.252C507.926 815.252 511.011 811.875 514.915 809.993C514.915 809.993 518.12 807.663 520.398 806.32C520.398 806.32 523.496 804.19 529.599 801.963C529.599 801.963 532.377 800.895 534.567 799.534C534.567 799.534 545.376 795.44 550.523 802.426C550.523 802.426 554.22 806.713 557.743 808.677C557.743 808.677 565.26 811.659 567.124 817.93C567.124 817.93 567.14 819.001 570.166 820.218C570.166 820.218 577.259 821.229 580.508 829.34C580.508 829.34 582.244 832.264 586.748 834.068C586.748 834.068 594.539 835.324 597.921 842.463C597.921 842.463 607.474 856.675 616.796 851.616C616.796 851.616 621.622 849.003 618.989 841.223C618.989 841.223 617.1 837.105 613.281 832.309C613.281 832.309 610.143 828.55 613.05 824.794C613.05 824.794 615.082 820.955 620.903 822.399C620.903 822.399 628.547 822.942 632.468 820.06C632.468 820.06 632.656 832.496 619.825 828.852C619.825 828.852 616.334 828.448 616.794 831.427C616.794 831.427 617.829 834.146 619.815 835.568C619.815 835.568 623.245 838.308 623.486 844.435C623.486 844.435 624.758 855.389 614.156 856.645C610.136 856.932 605.981 855.417 602.366 853.741ZM614.547 882.014C614.143 881.441 613.448 880.993 612.732 880.97C611.118 880.889 611.688 882.456 611.688 882.456C611.997 883.776 613.489 886.262 613.489 886.262C614.923 888.084 616.768 886.867 616.768 886.867C618.443 885.914 616.885 884.818 616.885 884.818C615.992 884.141 614.547 882.014 614.547 882.014ZM616.727 889.232C616.727 889.232 616.063 889.495 616.14 890.386C616.14 890.386 616.52 894.657 616.104 895.946C616.104 895.946 619.102 897.351 619.951 895.915C619.951 895.915 620.196 895.338 619.917 894.332C619.917 894.332 619.6 893.378 619.859 891.858C619.859 891.858 620.907 888.139 618.224 888.48C617.671 888.62 617.188 888.909 616.727 889.232ZM507.943 851.621C508.502 851.756 508.699 851.591 508.793 850.963C508.875 849.168 507.714 848.073 507.714 848.073C505.572 845.866 504.852 847.308 504.852 847.308C503.657 849.905 505.716 850.823 505.716 850.823C506.106 851.086 507.943 851.621 507.943 851.621ZM503.509 837.408C503.803 836.119 504.454 833.252 506.026 832.587C506.608 832.335 509.056 830.768 509.056 830.768C509.479 830.342 509.709 830.37 509.709 830.37C510.108 830.437 510.371 831.48 510.371 831.48C511.021 834.444 512.454 834.487 512.454 834.487C512.591 834.016 512.414 833.4 512.414 833.4C512.102 831.962 511.797 830.522 511.499 829.08C511.449 828.697 511.417 828.312 511.403 827.926C510.642 825.559 509.004 826.766 509.004 826.766C508.17 827.688 504.319 830.388 504.319 830.388C503.811 830.738 503.415 831.226 503.178 831.794C501.227 836.383 503.509 837.408 503.509 837.408ZM538.111 815.824C538.702 815.214 538.734 814.439 538.52 813.634C537.987 812.008 536.74 813.292 536.74 813.292C532.455 816.804 533.014 823.93 533.014 823.93C534.938 818.024 538.111 815.824 538.111 815.824Z" fill="#CC2729"/>
</g>
<path d="M264.2 841.099L247.915 836.735L244.405 849.833L260.691 854.197L259.728 857.79L243.442 853.427L238.721 871.045L255.007 875.409L254.06 878.944L234.239 873.633L245.327 832.253L265.147 837.564L264.2 841.099ZM309.846 849.603L313.381 850.55L302.107 892.626L281.289 851.393L272.577 883.906L269.042 882.959L280.207 841.289L301.025 882.521L309.846 849.603ZM347.441 863.403L331.156 859.04L327.646 872.138L343.931 876.501L342.969 880.095L326.683 875.731L321.962 893.349L338.248 897.713L337.301 901.248L317.48 895.937L328.568 854.557L348.388 859.868L347.441 863.403ZM381.644 879.836C380.06 885.747 374.344 888.999 367.621 887.197L366.52 886.902L374.248 911.148L370.075 910.03L362.521 885.831L361.072 885.442L355.528 906.133L351.935 905.17L363.023 863.789L373.165 866.507C380.004 868.34 383.228 873.924 381.644 879.836ZM368.569 883.662C373.263 884.92 377.069 882.772 378.109 878.889C379.134 875.063 376.912 871.3 372.218 870.042L365.669 868.288L362.02 881.907L368.569 883.662ZM391.606 893.686C394.867 881.515 406.447 874.928 418.502 878.158C427.427 880.549 431.791 886.75 433.405 891.158L429.975 892.6C428.345 888.25 424.393 883.526 417.554 881.693C407.528 879.007 397.844 884.549 395.141 894.633C392.455 904.66 398.055 914.36 408.082 917.046C417.992 919.702 426.493 914.401 429.184 907.606L416.665 904.252L417.613 900.717L434.072 905.127C431.013 916.544 419.827 923.982 407.134 920.581C394.964 917.32 388.345 905.857 391.606 893.686ZM453.7 888.086L458.539 907.583L472.535 893.133L476.245 894.127L459.361 911.468L453.74 932.448L450.204 931.501L455.826 910.521L450.049 887.108L453.7 888.086ZM505.363 942.491L514.578 944.961C523.792 947.43 532.348 942.392 535.112 932.076C537.892 921.702 532.986 913.12 523.771 910.651L514.556 908.182L505.363 942.491ZM538.705 933.039C535.46 945.152 525.048 951.555 514.673 948.775L500.88 945.079L511.968 903.699L525.761 907.395C536.135 910.175 541.951 920.926 538.705 933.039ZM576.927 932.162C575.343 938.073 569.627 941.325 562.904 939.523L561.803 939.228L569.531 963.474L565.358 962.356L557.804 938.157L556.355 937.768L550.811 958.459L547.218 957.496L558.306 916.115L568.448 918.833C575.287 920.665 578.511 926.25 576.927 932.162ZM563.852 935.988C568.546 937.246 572.352 935.098 573.392 931.214C574.417 927.389 572.195 923.626 567.501 922.368L560.952 920.614L557.303 934.233L563.852 935.988ZM586.983 968.151L583.447 967.203L594.535 925.823L598.07 926.77L586.983 968.151ZM644.161 939.182L647.696 940.13L636.422 982.205L615.604 940.972L606.893 973.485L603.357 972.538L614.523 930.868L635.34 972.101L644.161 939.182ZM662.2 962.216L683.747 949.727L688.441 950.985L665.514 964.222L676.832 992.226L672.775 991.138L662.517 965.904L660.958 966.853L655.678 986.557L652.143 985.61L663.231 944.23L666.766 945.177L662.2 962.216Z" fill="#E92842"/>
<defs>
<clipPath id="clip0_24_75">
<rect width="306" height="117" fill="white" transform="translate(352.638 721.078) rotate(15)"/>
</clipPath>
</defs>
</svg>
