<svg width="993" height="1555" viewBox="0 0 993 1555" fill="none" xmlns="http://www.w3.org/2000/svg">
<path d="M637.428 1489.62C627.872 1525.28 481.305 1517 310.062 1471.12C138.82 1425.23 7.74747 1359.12 17.3041 1323.46L354.619 64.5781L974.744 230.74L637.428 1489.62Z" fill="#213A7A"/>
<ellipse cx="664.681" cy="147.66" rx="321" ry="66.8569" transform="rotate(15 664.681 147.66)" fill="#C7CFDC"/>
<path d="M216.403 1235.31L209.648 1260.52L106.197 1232.8L116.563 1194.11C121.532 1175.57 137.769 1164.24 158.053 1169.67C173.557 1173.82 182.094 1185.43 182.996 1198.87L230.263 1183.58L222.887 1211.11L178.152 1225.06L216.403 1235.31ZM155.84 1219.08L158.829 1207.92C160.77 1200.68 157.422 1196.37 151.337 1194.74C145.252 1193.11 139.818 1196 138.11 1202.37L135.12 1213.53L155.84 1219.08ZM210.677 1143.09C217.67 1144.81 223.839 1141.49 225.78 1134.25C227.954 1126.13 226.596 1122.51 223.758 1120.35L229.697 1098.18C238.59 1103.82 250.47 1115.7 243.909 1140.19C237.62 1163.66 216.798 1170.66 199.557 1166.04C182.315 1161.42 167.369 1143.6 173.62 1120.27C180.608 1094.19 201.012 1088.17 220.138 1093.29C221.297 1093.6 222.601 1093.95 223.721 1094.41L210.677 1143.09ZM202.622 1115.77C198.448 1115.12 192.407 1117.38 190.349 1125.06C188.292 1132.74 192.392 1137.72 196.41 1138.95L202.622 1115.77ZM160.735 1014.19L166.675 992.025L273.893 1020.75L267.953 1042.92L263.751 1041.8C265.177 1045.75 266.84 1052.87 264.045 1063.3C258.105 1085.47 237.912 1091.86 220.671 1087.24C203.429 1082.62 189.138 1066.99 195.077 1044.82C198.261 1032.94 202.072 1029.15 205.651 1026.23L160.735 1014.19ZM226.885 1061.73C234.419 1063.75 242.319 1059.19 244.338 1051.66C246.356 1044.12 241.796 1036.22 234.261 1034.2C226.727 1032.19 218.827 1036.75 216.809 1044.28C214.79 1051.81 219.351 1059.71 226.885 1061.73ZM219.767 920.225C231.938 923.486 236.569 929.386 237.49 935.223C242.921 925.963 252.803 920.381 267.582 924.341C287.576 929.698 293.847 946.286 288.838 964.977L277.929 1005.69L174.478 977.971L183.757 943.343C188.765 924.652 203.105 915.761 219.767 920.225ZM221.078 963.437L222.359 958.655C224.067 952.28 221.455 947.543 214.935 945.796C208.849 944.165 203.348 946.729 201.64 953.104L200.359 957.885L221.078 963.437ZM265.414 975.317L268.326 964.45C270.189 957.495 267.385 951.153 259.126 948.94C251.158 946.805 245.124 950.779 243.26 957.734L240.348 968.6L265.414 975.317ZM240.652 878.215L279.048 888.503C285.278 890.172 289.146 887.326 290.583 881.965C291.98 876.749 290.198 872.39 283.823 870.681L245.427 860.393L252.144 835.328L291.843 845.965C310.099 850.857 316.815 866.943 311.302 887.517C305.789 908.091 291.891 918.81 273.635 913.918L233.936 903.28L240.652 878.215ZM329.692 812.511L322.936 837.721L215.719 808.993L222.474 783.782L329.692 812.511ZM341.558 768.223L334.803 793.434L227.585 764.705L234.341 739.495L341.558 768.223Z" fill="white"/>
</svg>
