<svg width="993" height="1555" viewBox="0 0 993 1555" fill="none" xmlns="http://www.w3.org/2000/svg">
<path d="M637.428 1489.62C627.872 1525.28 481.305 1517 310.062 1471.12C138.82 1425.23 7.74747 1359.12 17.3041 1323.46L354.619 64.5781L974.744 230.74L637.428 1489.62Z" fill="#213A7A"/>
<ellipse cx="664.681" cy="147.66" rx="321" ry="66.8569" transform="rotate(15 664.681 147.66)" fill="#C7CFDC"/>
<path d="M36.734 1251.02C36.6609 1251.24 36.592 1251.47 36.5303 1251.7C26.9738 1287.37 158.046 1353.48 329.289 1399.36C500.531 1445.24 647.098 1453.53 656.655 1417.86C656.716 1417.63 656.771 1417.4 656.821 1417.17L656.839 1417.17L637.428 1489.62C627.871 1525.28 481.304 1517 310.062 1471.12C138.819 1425.23 7.74701 1359.12 17.3037 1323.46L36.7151 1251.01L36.734 1251.02Z" fill="#3DA6CF"/>
<path d="M166.847 1374.24C166.201 1375.91 167.182 1377.45 170.832 1379.55C179.399 1384.37 181.8 1391.47 179.171 1398.28C176.288 1405.74 167.781 1410 155.96 1405.43C149.573 1402.97 144.581 1397.95 141.771 1393.5L148.05 1385.77C150.751 1389.08 154.233 1393.03 157.815 1394.42C160.919 1395.62 162.95 1395.51 163.619 1393.78C164.219 1392.23 162.986 1390.45 159.515 1388.42C151.389 1383.7 149.276 1376.92 151.951 1369.99C154.604 1363.13 162.569 1358.31 172.48 1362.14C179.405 1364.82 184.403 1368.39 187.338 1372.34L180.921 1380.43C178.738 1377.73 174.91 1374.68 170.671 1373.04C169.059 1372.41 167.331 1372.98 166.847 1374.24ZM206.505 1374.89L196.832 1403.1C196.064 1405.34 197.183 1407.01 199.242 1407.71C201.3 1408.42 203.268 1407.81 204.036 1405.57L213.709 1377.36L227.573 1382.11L217.506 1411.47C214.185 1421.16 204.01 1422.81 195.111 1419.76C186.09 1416.67 179.253 1409.18 182.574 1399.5L192.641 1370.13L206.505 1374.89ZM250.013 1400.55C244.82 1398.93 240.379 1403.72 238.608 1409.4C236.779 1415.26 237.742 1422.07 243.425 1423.84C246.419 1424.77 247.869 1424.42 248.964 1423.49L250.221 1419.45L245.333 1417.93L247.867 1409.8L266.746 1415.69L262.023 1430.84C257.746 1434.67 249.116 1437.41 240.073 1434.59C224.37 1429.7 220.115 1416.04 223.6 1404.85C227.086 1393.67 238.373 1384.99 253.403 1389.68C264.096 1393.01 268.236 1399.73 269.713 1404.88L254.927 1405.43C254.505 1403.56 253.679 1401.69 250.013 1400.55ZM289.525 1401.05L305.902 1405.7L307.338 1453.61L293.423 1449.66L293.069 1442.71L281.063 1439.3L277.108 1445.03L263.132 1441.06L289.525 1401.05ZM292.453 1421.91L286.797 1430.35L292.708 1432.03L292.453 1421.91ZM353.091 1433.53C351.157 1440.96 347.596 1443.21 342.965 1443.72L348.881 1464.44L332.53 1460.19L328.894 1444.43L325.283 1458.3L310.79 1454.53L322.3 1410.31L342.12 1415.46C350.419 1417.62 355.59 1423.93 353.091 1433.53ZM332.328 1431.23L334.682 1431.85C336.664 1432.36 338.27 1431.52 338.802 1429.48C339.318 1427.5 338.34 1425.92 336.358 1425.41L334.005 1424.79L332.328 1431.23ZM392.27 1427.92L389.601 1438.99L375.228 1435.53L373.534 1442.56L387.16 1445.84L384.491 1456.92L370.865 1453.63L367.192 1468.88L352.944 1465.44L363.649 1421.02L392.27 1427.92ZM427.674 1450.71C426.043 1458.21 422.577 1460.6 417.971 1461.31L424.724 1481.77L408.213 1478.18L403.94 1462.58L400.896 1476.59L386.262 1473.41L395.965 1428.76L415.978 1433.1C424.358 1434.93 429.781 1441.02 427.674 1450.71ZM406.835 1449.26L409.212 1449.78C411.213 1450.21 412.784 1449.31 413.233 1447.24C413.668 1445.24 412.626 1443.71 410.625 1443.27L408.248 1442.76L406.835 1449.26ZM466.455 1443.2L464.333 1454.4L449.807 1451.64L448.711 1457.43L462.481 1460.04L460.348 1471.29L446.577 1468.68L445.552 1474.09L460.077 1476.85L457.943 1488.1L429.019 1482.62L437.53 1437.72L466.455 1443.2ZM499.887 1448.43L498.15 1459.69L483.539 1457.44L482.641 1463.26L496.494 1465.39L494.747 1476.72L480.895 1474.58L480.056 1480.02L494.667 1482.27L492.92 1493.59L463.825 1489.11L470.791 1443.94L499.887 1448.43Z" fill="white"/>
<path d="M216.403 1235.31L209.648 1260.52L106.197 1232.8L116.563 1194.11C121.532 1175.57 137.769 1164.24 158.053 1169.67C173.557 1173.82 182.094 1185.43 182.996 1198.87L230.263 1183.58L222.887 1211.11L178.152 1225.06L216.403 1235.31ZM155.84 1219.08L158.829 1207.92C160.77 1200.68 157.422 1196.37 151.337 1194.74C145.252 1193.11 139.818 1196 138.11 1202.37L135.12 1213.53L155.84 1219.08ZM210.677 1143.09C217.67 1144.81 223.839 1141.49 225.78 1134.25C227.954 1126.13 226.596 1122.51 223.758 1120.35L229.697 1098.18C238.59 1103.82 250.47 1115.7 243.909 1140.19C237.62 1163.66 216.798 1170.66 199.557 1166.04C182.315 1161.42 167.369 1143.6 173.62 1120.27C180.608 1094.19 201.012 1088.17 220.138 1093.29C221.297 1093.6 222.601 1093.95 223.721 1094.41L210.677 1143.09ZM202.622 1115.77C198.448 1115.12 192.407 1117.38 190.349 1125.06C188.292 1132.74 192.392 1137.72 196.41 1138.95L202.622 1115.77ZM160.735 1014.19L166.675 992.025L273.893 1020.75L267.953 1042.92L263.751 1041.8C265.177 1045.75 266.84 1052.87 264.045 1063.3C258.105 1085.47 237.912 1091.86 220.671 1087.24C203.429 1082.62 189.138 1066.99 195.077 1044.82C198.261 1032.94 202.072 1029.15 205.651 1026.23L160.735 1014.19ZM226.885 1061.73C234.419 1063.75 242.319 1059.19 244.338 1051.66C246.356 1044.12 241.796 1036.22 234.261 1034.2C226.727 1032.19 218.827 1036.75 216.809 1044.28C214.79 1051.81 219.351 1059.71 226.885 1061.73ZM219.767 920.225C231.938 923.486 236.569 929.386 237.49 935.223C242.921 925.963 252.803 920.381 267.582 924.341C287.576 929.698 293.847 946.286 288.838 964.977L277.929 1005.69L174.478 977.971L183.757 943.343C188.765 924.652 203.105 915.761 219.767 920.225ZM221.078 963.437L222.359 958.655C224.067 952.28 221.455 947.543 214.935 945.796C208.849 944.165 203.348 946.729 201.64 953.104L200.359 957.885L221.078 963.437ZM265.414 975.317L268.326 964.45C270.189 957.495 267.385 951.153 259.126 948.94C251.158 946.805 245.124 950.779 243.26 957.734L240.348 968.6L265.414 975.317ZM240.652 878.215L279.048 888.503C285.278 890.172 289.146 887.326 290.583 881.965C291.98 876.749 290.198 872.39 283.823 870.681L245.427 860.393L252.144 835.328L291.843 845.965C310.099 850.857 316.815 866.943 311.302 887.517C305.789 908.091 291.891 918.81 273.635 913.918L233.936 903.28L240.652 878.215ZM329.692 812.511L322.936 837.721L215.719 808.993L222.474 783.782L329.692 812.511ZM341.558 768.223L334.803 793.434L227.585 764.705L234.341 739.495L341.558 768.223Z" fill="white"/>
</svg>
