<svg width="993" height="1555" viewBox="0 0 993 1555" fill="none" xmlns="http://www.w3.org/2000/svg">
<path fill-rule="evenodd" clip-rule="evenodd" d="M637.428 1489.62C627.872 1525.28 481.305 1517 310.062 1471.12C222.48 1447.65 145.405 1418.89 92.2788 1391.62L489.215 775.274L806.086 860.179L637.428 1489.62ZM859.747 199.927L489.215 775.274L185.962 694.017L354.619 64.5781L859.747 199.927Z" fill="#3DA6CF"/>
<path d="M17.3039 1323.46L185.962 694.017L489.215 775.274L92.2788 1391.62C41.5314 1365.57 12.635 1340.88 17.3039 1323.46Z" fill="#3DA6CF"/>
<path d="M17.3039 1323.46L185.962 694.017L489.215 775.274L92.2788 1391.62C41.5314 1365.57 12.635 1340.88 17.3039 1323.46Z" fill="white" fill-opacity="0.82"/>
<path fill-rule="evenodd" clip-rule="evenodd" d="M806.086 860.179L489.215 775.274L859.747 199.927L974.744 230.74L806.086 860.179Z" fill="#3DA6CF"/>
<path fill-rule="evenodd" clip-rule="evenodd" d="M806.086 860.179L489.215 775.274L859.747 199.927L974.744 230.74L806.086 860.179Z" fill="white" fill-opacity="0.82"/>
<ellipse cx="664.682" cy="147.66" rx="321" ry="66.8569" transform="rotate(15 664.682 147.66)" fill="#C7CFDC"/>
<path d="M289.597 661.74L264.387 654.985L292.106 551.534L330.791 561.9C349.337 566.869 360.671 583.106 355.236 603.39C351.082 618.893 339.477 627.43 326.035 628.332L341.323 675.6L313.794 668.223L299.846 623.489L289.597 661.74ZM305.825 601.176L316.982 604.166C324.226 606.107 328.54 602.759 330.17 596.674C331.801 590.588 328.908 585.155 322.533 583.446L311.377 580.457L305.825 601.176ZM381.818 656.013C380.1 663.007 383.416 669.175 390.661 671.116C398.774 673.29 402.399 671.932 404.557 669.094L426.725 675.034C421.082 683.926 409.202 695.807 384.716 689.246C361.244 682.956 354.244 662.135 358.864 644.893C363.484 627.652 381.31 612.706 404.637 618.956C430.717 625.945 436.741 646.349 431.616 665.474C431.306 666.633 430.956 667.937 430.501 669.058L381.818 656.013ZM409.134 647.959C409.786 643.785 407.523 637.743 399.844 635.686C392.164 633.628 387.183 637.729 385.951 641.747L409.134 647.959ZM510.714 606.072L532.882 612.012L504.153 719.23L481.985 713.29L483.111 709.088C479.157 710.513 472.034 712.176 461.602 709.381C439.434 703.441 433.042 683.249 437.662 666.007C442.282 648.765 457.914 634.474 480.082 640.414C491.962 643.598 495.755 647.409 498.679 650.988L510.714 606.072ZM463.173 672.222C461.154 679.756 465.715 687.655 473.249 689.674C480.784 691.693 488.683 687.132 490.702 679.598C492.721 672.064 488.16 664.164 480.626 662.145C473.091 660.127 465.192 664.687 463.173 672.222ZM604.681 665.104C601.42 677.275 595.52 681.906 589.683 682.826C598.943 688.258 604.526 698.14 600.566 712.918C595.208 732.913 578.62 739.183 559.929 734.175L519.216 723.266L546.935 619.815L581.564 629.094C600.254 634.102 609.146 648.442 604.681 665.104ZM561.469 666.415L566.251 667.696C572.626 669.404 577.364 666.791 579.111 660.271C580.741 654.186 578.178 648.685 571.802 646.977L567.021 645.696L561.469 666.415ZM549.59 710.751L560.456 713.662C567.411 715.526 573.753 712.722 575.966 704.463C578.101 696.494 574.127 690.46 567.173 688.597L556.306 685.685L549.59 710.751ZM646.692 685.989L636.403 724.384C634.734 730.615 637.58 734.483 642.941 735.919C648.157 737.317 652.517 735.535 654.225 729.16L664.513 690.764L689.579 697.48L678.941 737.18C674.05 755.436 657.963 762.151 637.389 756.639C616.815 751.126 606.097 737.228 610.988 718.972L621.626 679.273L646.692 685.989ZM712.395 775.028L687.185 768.273L715.914 661.055L741.124 667.81L712.395 775.028ZM756.683 786.895L731.472 780.14L760.201 672.922L785.412 679.677L756.683 786.895Z" fill="#E92842"/>
<g clip-path="url(#clip0_24_102)">
<path d="M460.56 869.964C460.856 870.106 461.152 870.245 461.448 870.383L460.56 869.964ZM462.991 871.069C463.338 871.22 463.688 871.365 464.038 871.51L462.991 871.069ZM465.594 872.112C465.939 872.239 466.283 872.363 466.629 872.485L465.594 872.112ZM467.001 872.613C467.294 872.715 467.588 872.812 467.883 872.908L467.001 872.613ZM468.311 873.048C468.661 873.158 469.011 873.266 469.362 873.373L468.311 873.048ZM469.713 873.471C470.498 873.704 471.289 873.916 472.084 874.109L469.713 873.471ZM472.464 874.204C472.835 874.291 473.208 874.376 473.581 874.457L472.464 874.204ZM473.933 874.534C474.257 874.602 474.577 874.666 474.9 874.729L473.933 874.534ZM475.236 874.795C475.589 874.861 475.943 874.925 476.295 874.985L475.236 874.795ZM478.121 875.262C478.395 875.302 478.669 875.339 478.943 875.368L478.121 875.262ZM550.61 798.973C550.365 798.742 550.109 798.523 549.842 798.317L550.61 798.973ZM548.003 797.163C547.655 796.989 547.299 796.832 546.935 796.694L548.003 797.163ZM348.842 784.834C347.876 783.315 347.297 781.583 347.155 779.789C347.049 778.294 346.895 776.42 347.284 774.969C349.068 768.432 354.192 764.594 358.908 763.445C361.051 762.924 361.934 762.409 362.315 762.125C362.195 762.028 362.059 761.952 361.913 761.899C356.314 760.399 354.026 757.455 353.11 755.237C352.237 753.155 352.151 750.749 352.802 748.318C353.119 747.137 353.616 745.946 354.283 744.769C356.559 742.587 357.866 743.704 358.427 745.283C358.788 746.274 362.035 750.189 366.853 751.963C370.356 753.267 371.822 755.544 372.453 757.218C373.179 759.154 373.1 761.232 372.653 762.898C372.471 763.579 372.222 764.199 371.923 764.729C370.794 766.779 367.949 768.139 364.051 769.796L361.818 770.822C358.515 772.446 356.344 774.657 355.752 776.865C355.604 777.417 355.557 777.981 355.61 778.527C355.632 778.751 355.672 778.973 355.732 779.189C356.385 781.533 359.425 783.708 364.787 783.307C367.263 783.128 372.361 781.552 375.731 779.626C379.703 777.339 384.087 777.71 388.2 778.471C391.764 779.144 394.144 778.863 396.114 777.567C401.941 773.724 406.437 774.17 410.549 774.95C412.123 775.245 412.236 775.157 412.51 774.939C415.524 772.576 418.227 771.622 420.519 771.259C422.266 770.983 423.777 771.049 425.013 771.106L426.524 771.137L426.912 771.107C429.349 770.986 431.247 770.853 436.638 768.992L436.866 768.922L436.867 768.92L437.091 768.851L437.093 768.851L437.316 768.789L437.32 768.789L437.542 768.73L437.545 768.73L437.766 768.68L437.773 768.68L437.991 768.631L437.998 768.631L438.216 768.588L438.225 768.589L438.442 768.551L438.45 768.549L438.667 768.52L438.676 768.519L438.891 768.491L438.902 768.491L439.116 768.471L439.127 768.468L439.338 768.451L439.561 768.437L439.576 768.438L439.784 768.428L439.797 768.428L440.007 768.424L440.021 768.424L440.228 768.423L440.244 768.423L440.449 768.429L440.468 768.429L440.67 768.437L440.687 768.437L440.892 768.449L440.91 768.449L441.112 768.466L441.131 768.467L441.332 768.487L441.35 768.489L441.548 768.512L441.569 768.513L441.766 768.543L441.787 768.544L441.981 768.574L442.002 768.578L442.198 768.611L442.22 768.615L442.413 768.652L442.435 768.656L442.625 768.695L442.647 768.7L442.838 768.742L443.049 768.792L443.071 768.798L443.259 768.846L443.492 768.908L443.677 768.96L443.699 768.967L443.721 768.973C443.853 769.012 443.984 769.056 444.115 769.099L444.295 769.159L444.321 769.168L444.497 769.23L444.524 769.239L444.699 769.305L444.726 769.316L444.901 769.381L444.929 769.391L445.101 769.461L445.128 769.473L445.299 769.542L445.328 769.555L445.496 769.628L445.524 769.641L445.692 769.715L445.722 769.73L445.886 769.806L445.917 769.82L446.079 769.897L446.108 769.913C446.367 770.037 446.62 770.169 446.866 770.304L447.02 770.39L447.051 770.408C447.298 770.548 447.54 770.691 447.778 770.837L447.918 770.926L447.953 770.948C448.421 771.246 448.869 771.561 449.298 771.883L449.419 771.975L449.576 772.095C462.892 761.451 480.692 756.764 498.448 760.666L498.45 760.662C499.324 760.855 500.193 761.067 501.058 761.298C501.63 761.451 502.199 761.613 502.765 761.783C503.047 761.868 503.328 761.956 503.608 762.043L503.611 762.044C503.889 762.133 504.169 762.223 504.447 762.316C521.149 767.884 533.809 780.438 540.014 795.797C541.517 795.688 543.107 795.743 544.664 796.048L544.705 796.057L544.852 796.087L545.005 796.12L545.042 796.127L545.082 796.137L545.231 796.172L545.271 796.181L545.419 796.219L545.459 796.229L545.61 796.268L545.647 796.278L545.797 796.32L545.835 796.33L546.02 796.383L546.17 796.43L546.203 796.44L546.353 796.488L546.388 796.499L546.539 796.551L546.567 796.56L546.719 796.615L546.748 796.625L546.9 796.682L546.928 796.693C547.291 796.831 547.648 796.988 547.996 797.162L548.15 797.239L548.171 797.25L548.322 797.332L548.343 797.342L548.495 797.427L548.515 797.438L548.668 797.526L548.684 797.536L548.84 797.628L548.854 797.637L549.005 797.732L549.022 797.743L549.175 797.843L549.189 797.851L549.353 797.963L549.506 798.069L549.515 798.077L549.666 798.187L549.676 798.194L549.829 798.309L549.838 798.317C550.101 798.521 550.358 798.738 550.606 798.973L550.61 798.978L550.757 799.115L550.759 799.118L550.904 799.263L550.907 799.265L551.051 799.415L551.053 799.416L551.194 799.569L551.336 799.726C553.908 802.707 555.473 804.135 556.859 805.166C557.482 805.63 558.073 806.013 558.7 806.421L559.028 806.643L560.367 807.375C561.098 807.754 561.932 808.188 562.808 808.76C565.002 810.186 567.466 812.475 569.256 816.94C569.385 817.266 569.445 817.4 570.963 817.934C574.91 819.314 579.02 821.174 582.163 827.419C583.21 829.525 585.121 830.953 588.542 832.153C592.508 833.557 596.477 835.424 598.767 839.389C600.726 842.743 604.347 846.656 606.409 848.05C610.85 851.078 614.586 850.719 616.296 849.008C616.667 848.65 616.964 848.226 617.184 847.753C617.299 847.508 617.393 847.253 617.463 846.992C618.055 844.784 617.278 841.783 615.237 838.726L614.979 838.362L613.798 836.717C611.263 833.335 609.479 830.736 609.509 828.391C609.515 827.782 609.623 827.125 609.806 826.444C610.252 824.777 611.233 822.942 612.807 821.621C614.198 820.489 616.626 819.256 620.289 819.872C625.374 820.752 630.122 818.979 630.928 818.301C632.219 817.218 633.895 816.9 634.769 819.926C634.763 821.28 634.598 822.561 634.282 823.742C633.627 826.186 632.353 828.213 630.557 829.579C628.645 831.04 625.201 832.448 619.593 830.946C619.474 830.914 619.294 830.925 619.141 830.943C619.322 831.378 619.828 832.266 621.428 833.788C624.938 837.142 627.461 843.029 625.742 849.582C625.353 851.034 624.29 852.581 623.435 853.819C622.54 855.119 621.38 856.214 620.03 857.032C619.848 857.142 619.66 857.248 619.465 857.348C616.572 858.879 612.26 859.534 605.932 857.427C605.266 857.204 604.607 856.962 603.955 856.701C602.919 859.9 600.996 863.517 599.223 865.126C598.679 865.635 598.494 866.025 598.44 866.226C598.417 866.31 598.413 866.361 598.403 866.396C598.439 866.421 600.808 868.834 600.808 868.834L601.2 869.186C601.2 869.186 601.431 869.381 601.458 869.419C601.502 869.415 602.445 869.623 602.445 869.623L602.636 869.646L602.655 869.649C604.459 869.953 607.376 869.812 607.664 873.307C607.736 874.233 607.72 875.018 607.717 875.717C607.708 877.144 607.742 878.215 608.668 879.428C608.668 879.428 609.379 879.087 610.191 878.68C610.817 878.369 611.436 878.044 612.048 877.705C613.086 877.089 614.478 877.916 615.454 878.617C616.44 879.328 617.546 880.638 618.36 881.443C619.182 882.244 619.531 883.074 619.588 883.97C619.659 884.867 620.185 885.589 621.064 886.405C621.903 887.232 622.838 889.412 622.187 891.842C622.087 892.214 622.043 892.544 622.058 892.91C622.07 893.153 622.105 893.413 622.168 893.714C622.804 896.87 621.319 897.975 620.36 898.352C619.068 898.869 617.08 898.693 615.374 897.924L615.266 898.386L612.754 897.34C611.778 896.944 610.378 896.845 609.538 896.797L609.338 896.797C607.384 896.669 605.127 895.391 604.358 892.814C604.33 892.718 604.302 892.623 604.278 892.523C603.91 891.116 603.131 889.693 602.685 889.237C601.864 889.243 600.579 889.204 599.18 888.672C597.882 888.18 596.48 887.256 595.262 885.54C595.06 885.255 594.863 884.947 594.673 884.619C592.991 881.696 590.082 880.41 588.096 880.191L586.904 880.088C584.442 879.884 581.364 879.639 579.098 877.26C578.534 876.669 577.675 875.985 576.83 875.327C574.657 873.597 572.41 871.811 572.687 869.391C572.74 868.96 572.494 868.081 572.286 867.378C572.104 866.758 571.907 866.079 571.801 865.38C571.697 864.712 571.678 864.026 571.839 863.357C570.978 863.348 570.123 863.21 569.303 862.948C569.014 862.854 568.729 862.747 568.45 862.627L567.427 862.175C565.709 861.386 562.106 859.757 560.789 859.873C558.168 860.095 550.537 858.496 548.601 857.472C548.601 857.472 547.887 857.102 547.213 856.759C546.336 857.283 545.392 857.743 544.427 858.119C545.915 858.606 547.292 858.774 548.141 859.253L549.901 860.261C550.554 860.244 552.027 860.661 552.847 860.962L555.021 861.723L557.487 862.645C558.641 863.216 559.795 864.089 558.933 866.419C558.651 867.133 557.959 868.064 557.175 868.51C556.733 868.793 554.896 870.356 554.444 870.882L554.299 871.045C553.49 872.005 552.456 872.808 550.231 872.212C549.95 872.133 549.665 872.068 549.376 872.019C549.26 872.181 548.989 872.466 548.989 872.466C548.183 873.47 547.035 874.861 545.407 875.408L544.967 875.574C543.645 876.069 541.447 876.878 538.892 875.093L538.011 874.483C535.783 872.934 532.409 870.601 530.802 869.068L530.577 868.851C529.08 867.422 528.744 867.125 528.083 867.044L527.714 867.004C526.319 866.832 523.692 866.493 522.718 863.118L522.625 862.823C511.258 872.001 496.579 876.818 481.447 875.619L481.38 875.616C480.865 875.574 480.347 875.524 479.831 875.469L479.639 875.447L478.935 875.366C478.661 875.334 478.387 875.299 478.112 875.261L477.613 875.192L476.829 875.07L476.287 874.984C475.934 874.924 475.58 874.86 475.227 874.794L474.894 874.728C474.57 874.664 474.251 874.601 473.927 874.532L473.574 874.458C473.201 874.377 472.831 874.292 472.457 874.204L472.08 874.11C471.284 873.917 470.493 873.705 469.708 873.472L469.355 873.373C469.005 873.267 468.654 873.158 468.305 873.048L467.878 872.908C467.584 872.811 467.289 872.716 466.997 872.613L466.624 872.486C466.277 872.364 465.932 872.24 465.588 872.113L465.08 871.918L464.408 871.658L464.034 871.51C463.682 871.368 463.333 871.22 462.987 871.068L462.566 870.886L461.824 870.557L461.443 870.384C461.146 870.245 460.85 870.108 460.556 869.965L459.92 869.65L459.596 869.489C459.163 869.266 458.728 869.043 458.301 868.811L458.188 868.75L457.518 868.383L457.175 868.19C456.777 867.965 456.383 867.732 455.99 867.5L455.85 867.414C444.185 860.381 435.515 849.527 431.065 837.003L429.716 838.205C427.201 840.645 424.762 839.626 423.45 839.074L423.111 838.924C422.5 838.664 422.047 838.749 420.052 839.243L419.735 839.314C417.582 839.84 413.509 840.177 410.791 840.401L409.721 840.488C406.618 840.758 405.114 838.954 404.236 837.872L403.926 837.505C402.788 836.218 402.496 834.442 402.294 833.166C402.294 833.166 402.217 832.787 402.184 832.586C401.909 832.484 401.628 832.397 401.344 832.325C399.141 831.735 398.625 830.516 398.413 829.282L398.373 829.07C398.236 828.386 397.444 826.118 397.183 825.647C396.736 824.872 396.581 823.713 396.71 822.958C397.121 820.508 398.575 820.333 399.849 820.412L402.446 820.847L404.714 821.276C405.561 821.422 407.047 821.798 407.602 822.138L409.632 822.147C410.598 822.154 411.888 822.7 413.406 823.019C412.772 822.203 412.196 821.345 411.681 820.45C410.917 820.408 410.121 820.373 410.121 820.373C407.927 820.29 400.532 817.863 398.388 816.365C397.298 815.603 393.366 815.212 391.476 815.036L390.347 814.911C389.195 814.784 388.08 814.425 387.071 813.856C386.649 815.2 385.582 816.238 384.67 817.113C384.141 817.619 383.472 818.252 383.305 818.653C382.356 820.893 379.487 821.308 376.747 821.721C375.687 821.869 374.616 822.036 373.826 822.265C370.694 823.197 367.892 821.866 365.651 820.81L364.564 820.303C362.745 819.502 359.581 819.161 356.658 820.85C352.19 823.421 348.89 821.708 347.41 820.843C346.797 821.015 345.403 821.856 344.386 822.892C342.406 824.953 339.677 824.958 337.862 824.062L337.683 823.961C336.941 823.584 335.695 822.974 334.655 822.83L331.941 822.476L332.092 822.025C330.221 821.836 328.405 820.992 327.54 819.898C326.905 819.094 326.168 817.393 328.319 814.984C328.824 814.403 329.06 813.969 329.226 813.35C329.877 810.919 331.765 809.497 332.903 809.199C334.083 808.934 334.908 808.575 335.405 807.83C335.896 807.082 336.614 806.537 337.727 806.254C338.831 805.963 340.447 805.382 341.65 805.258C342.85 805.14 344.469 805.121 345.067 806.174C345.679 807.201 347.133 809.355 347.133 809.355C349.232 808.479 349.48 806.887 351.071 804.557C353.052 801.671 355.518 803.254 357.224 803.891L357.417 803.973C357.417 803.973 358.35 804.267 358.374 804.289C358.431 804.274 358.729 804.22 358.729 804.22L359.229 804.108C359.229 804.108 362.5 803.205 362.532 803.199C362.554 803.168 362.567 803.118 362.59 803.034C362.643 802.833 362.684 802.405 362.466 801.692C361.73 799.409 361.874 795.316 362.582 792.03C362.114 791.962 361.663 791.89 361.223 791.808C354.23 790.523 350.625 787.702 348.842 784.834Z" fill="#F8EE3F"/>
<path d="M365.455 790.261C365.455 790.261 363.406 795.628 364.59 801.16C364.59 801.16 365.733 804.265 363.37 805.43L358.966 806.623C358.966 806.623 358.352 806.867 356.687 806.283C356.687 806.283 354.493 805.071 353.431 805.899C353.431 805.899 352.214 807.711 350.92 809.126C350.92 809.126 348.117 812.647 344.904 813.154C344.904 813.154 342.474 813.065 341.248 814.864C341.248 814.864 340.137 816.058 338.643 815.723C338.643 815.723 337.447 815.778 336.06 818.037C336.06 818.037 335.237 819.518 334.931 820.741C334.931 820.741 336.877 820.999 337.983 821.77C337.983 821.77 340.724 823.589 342.736 821.469C342.736 821.469 346.532 817.711 348.282 818.898C348.282 818.898 351.81 821.234 355.306 819.139C355.306 819.139 360.167 816.039 365.251 818.307C365.251 818.307 370.91 821.122 373.145 820.242C373.145 820.242 377.447 819.281 378.993 819.171C378.993 819.171 380.862 819.126 381.549 817.278C381.549 817.278 383.317 814.894 384.321 814.21L381.475 813.413C381.475 813.413 377.727 817.066 372.984 817.2C372.984 817.2 370.326 817.516 365.715 815.445C365.715 815.445 359.214 812.023 351.378 816.958C351.378 816.958 350.225 817.935 349.169 817.137C349.169 817.137 354.062 812.311 361.799 812.93C361.799 812.93 364.351 813.064 366.276 813.93C366.276 813.93 376.13 816.883 383.356 808.34C383.356 808.34 385.09 799.872 387.819 798.487C387.819 798.487 388.738 798.455 388.136 800.021C388.136 800.021 384.285 808.348 386.67 810.799C386.67 810.799 387.971 812.535 391.148 812.873C391.148 812.873 396.065 813.007 399.649 814.657C399.649 814.657 405.059 817.575 410.192 818.272C410.192 818.272 409.432 815.953 410.317 813.662C410.317 813.662 411.481 812.164 412.004 813.468C412.004 813.468 412.224 820.288 416.937 823.58C416.937 823.58 421.144 826.526 419.484 832.417C419.484 832.417 418.553 833.037 411.783 833.576C411.783 833.576 409.278 833.686 408.996 831.762C408.996 831.762 407.724 824.584 405.077 824.086L400.099 823.176C400.099 823.176 398.322 823.156 399.189 824.816C399.189 824.816 400.264 827.48 400.591 828.987C400.591 828.987 400.487 830.171 402.118 830.351C402.118 830.351 404.581 829.856 404.724 834.228C404.724 834.228 405.304 836.551 407.03 837.706C407.03 837.706 408.648 838.775 410.566 838.287C410.566 838.287 419.404 837.489 421.086 836.818C421.086 836.818 423.087 836.31 424.342 837.148C424.342 837.148 426.601 838.371 428.105 836.733L431.633 833.543C431.633 833.543 432.435 832.74 432.679 831.526C432.679 831.526 433.221 830.405 432.546 828.936C432.546 828.936 431.871 827.687 431.915 826.926L431.257 822.273C431.257 822.273 430.835 820.965 430.167 820.294L427.748 819.832C427.748 819.832 428.263 824.442 429.003 826.463C429.003 826.463 429.958 829.371 429.455 830.922C429.455 830.922 429.052 831.996 428.494 832.34C428.494 832.34 427.711 833.069 427.377 833.436C427.377 833.436 426.239 834.804 425.562 834.994C425.562 834.994 424.393 835.321 424.141 835.279C424.141 835.279 423.669 835.283 424.205 834.584C424.205 834.584 426.285 832.142 426.599 830.622C426.599 830.622 427.275 829.132 426.416 827.924C426.416 827.924 424.924 823.151 424.88 821.832C424.88 821.832 424.506 819.984 424.15 819.588C424.15 819.588 423.564 818.159 425.171 817.994C425.171 817.994 429.024 818.147 429.793 817.876C429.793 817.876 431.682 817.815 433.791 814.482C433.791 814.482 436.489 810.66 437.168 808.035C437.168 808.035 438.649 814.758 432.157 819.452C432.157 819.452 435.716 821.626 437.62 820.915C437.62 820.915 442.622 821.502 443.62 821.495C443.62 821.495 444.909 821.527 443.988 822.2C443.988 822.2 441.983 823.876 441.498 825.195C441.498 825.195 441.115 826.247 440.064 826.641C440.064 826.641 436.814 827.824 436.082 829.594C436.082 829.594 435.024 831.203 436.346 831.105C436.346 831.105 438.187 830.785 438.561 831.704C438.561 831.704 438.709 831.829 437.888 832.369C437.888 832.369 435.861 833.358 435.224 835.244C435.224 835.244 434.935 837.54 435.325 838.407C435.325 838.407 435.79 839.632 437.047 839.619C437.047 839.619 437.424 839.452 437.939 839.77C437.939 839.77 438.518 839.923 440.17 839.806C440.17 839.806 442.629 839.79 443.468 839.725C443.468 839.725 446.664 839.464 448.082 839.922C448.082 839.922 449.046 840.07 450.175 840.627C450.175 840.627 453.711 842.019 456.861 839.984C456.861 839.984 459.103 839.014 459.349 840.605C459.349 840.605 462.191 847.746 469.793 848.103C469.793 848.103 464.709 844.222 464.084 840.625C464.084 840.625 464.614 837.855 462.632 833.28C462.632 833.28 462.052 831.783 463.022 831.694C463.022 831.694 463.636 831.449 464.451 832.866C464.451 832.866 466.563 836.355 466.922 839.127C466.922 839.127 469.024 845.408 474.594 844.979C474.594 844.979 471.011 842.367 469.904 838.99C469.904 838.99 469.785 834.789 466.66 830.85C466.66 830.85 467.678 826.438 466.517 823.493C466.517 823.493 466.69 819.14 466.697 818.113C466.697 818.113 466.681 814.245 466.955 813.251C466.955 813.251 468.541 808.628 466.486 804.148C466.486 804.148 465.502 799.681 463.065 796.099C463.065 796.099 461.454 792.479 460.151 790.177C460.151 790.177 458.535 786.784 454.363 781.804C454.363 781.804 452.49 779.489 451.273 777.215C451.273 777.215 443.958 768.265 436.009 771.742C436.009 771.742 430.664 773.606 426.633 773.546C426.633 773.546 418.63 772.37 413.879 776.868C413.879 776.868 413.329 777.787 410.1 777.328C410.1 777.328 403.452 774.658 396.583 780.058C396.583 780.058 393.618 781.721 388.817 781.032C388.817 781.032 381.437 778.223 374.939 782.715C374.939 782.715 359.561 790.246 354.018 781.205C354.018 781.205 351.143 776.528 357.315 771.107C357.315 771.107 361.01 768.486 366.717 766.242C366.717 766.242 371.311 764.555 370.673 759.849C370.673 759.849 370.834 755.508 365.07 753.848C365.07 753.848 358.178 750.497 356.222 746.04C356.222 746.04 349.844 756.717 362.776 759.975C362.776 759.975 366 761.371 364.114 763.721C364.114 763.721 361.858 765.559 359.427 765.797C359.427 765.797 355.086 766.455 351.815 771.641C351.815 771.641 345.237 780.492 353.787 786.879C357.13 789.139 361.487 789.905 365.455 790.261ZM340.771 808.656C341.406 808.361 342.233 808.321 342.866 808.66C344.302 809.396 343.026 810.468 343.026 810.468C342.1 811.457 339.564 812.864 339.564 812.864C337.413 813.726 336.423 811.748 336.423 811.748C335.446 810.085 337.342 809.915 337.342 809.915C338.456 809.776 340.771 808.656 340.771 808.656ZM335.272 813.816C335.272 813.816 335.718 814.377 335.203 815.109C335.203 815.109 332.739 818.618 332.456 819.942C332.456 819.942 329.159 819.661 329.139 817.992C329.139 817.992 329.215 817.37 329.961 816.638C329.961 816.638 330.712 815.971 331.248 814.525C331.248 814.525 332.201 810.781 334.354 812.417C334.762 812.814 335.036 813.306 335.272 813.816ZM448.287 835.636C447.737 835.474 447.651 835.233 447.881 834.642C448.707 833.046 450.262 832.679 450.262 832.679C453.22 831.839 453.122 833.447 453.122 833.447C452.86 836.294 450.617 836.059 450.617 836.059C450.147 836.092 448.287 835.636 448.287 835.636ZM459.236 825.545C459.625 824.281 460.493 821.472 459.467 820.111C459.09 819.602 457.752 817.02 457.752 817.02C457.598 816.441 457.385 816.35 457.385 816.35C457.005 816.208 456.258 816.98 456.258 816.98C454.211 819.221 452.951 818.543 452.951 818.543C453.066 818.066 453.526 817.621 453.526 817.621C454.516 816.531 455.5 815.437 456.479 814.337C456.797 813.939 457.139 813.386 457.139 813.386C458.982 811.717 459.798 813.581 459.798 813.581C460.059 814.797 462.045 819.061 462.045 819.061C462.487 820.004 462.327 820.848 462.327 820.848C461.726 825.799 459.236 825.545 459.236 825.545ZM440.06 789.551C439.854 788.728 440.214 788.04 440.802 787.45C442.076 786.308 442.515 788.045 442.515 788.045C444.47 793.228 440.423 799.12 440.423 799.12C441.707 793.043 440.06 789.551 440.06 789.551ZM602.367 853.741C602.367 853.741 601.458 859.414 597.667 863.613C597.667 863.613 595.124 865.731 596.589 867.921L599.807 871.157C599.807 871.157 600.216 871.674 601.951 872.001C601.951 872.001 604.455 872.048 604.961 873.296C604.961 873.296 605.109 875.474 605.521 877.346C605.521 877.346 606.191 881.797 608.721 883.844C608.721 883.844 610.868 884.981 611.028 887.151C611.028 887.151 611.395 888.742 612.855 889.198C612.855 889.198 613.865 889.844 613.936 892.494C613.936 892.494 613.909 894.189 613.563 895.401C613.563 895.401 611.749 894.65 610.404 894.765C610.404 894.765 607.122 894.97 606.44 892.128C606.44 892.128 605.031 886.976 602.922 887.129C602.922 887.129 598.7 887.387 596.719 883.825C596.719 883.825 594.06 878.711 588.521 878.132C588.521 878.132 582.216 877.741 580.719 875.861C580.719 875.861 577.474 872.878 576.19 872.01C576.19 872.01 574.593 871.036 574.924 869.093C574.924 869.093 574.584 866.144 574.056 865.05L576.918 865.782C576.918 865.782 578.337 870.82 582.377 873.306C582.377 873.306 584.523 874.91 589.55 875.421C589.55 875.421 596.891 875.709 601.211 883.9C601.211 883.9 601.721 885.323 603.033 885.16C603.033 885.16 601.211 878.535 594.199 875.201C594.199 875.201 591.924 874.042 589.822 873.829C589.822 873.829 579.811 871.459 577.823 860.448C577.823 860.448 580.557 852.247 578.887 849.684C578.887 849.684 578.109 849.196 577.844 850.853C577.844 850.853 577.014 859.989 573.725 860.92C573.725 860.92 571.729 861.773 568.809 860.477C568.809 860.477 564.485 858.135 560.557 857.772C560.557 857.772 554.411 857.594 549.617 855.63C549.617 855.63 551.436 854.003 551.815 851.576C551.815 851.576 551.555 849.697 550.449 850.565C550.449 850.565 546.849 856.361 541.121 856.855C541.121 856.855 536.005 857.303 534.497 863.235C534.497 863.235 534.996 864.237 540.59 868.09C540.59 868.09 542.705 869.438 543.911 867.912C543.911 867.912 548.598 862.331 551.141 863.224L555.91 864.925C555.91 864.925 557.457 865.796 555.875 866.799C555.875 866.799 553.614 868.57 552.576 869.711C552.576 869.711 552.076 870.789 550.572 870.129C550.572 870.129 548.686 868.469 546.375 872.184C546.375 872.184 544.713 873.905 542.64 874.043C542.64 874.043 540.704 874.159 539.288 872.777C539.288 872.777 532.033 867.668 530.913 866.246C530.913 866.246 529.433 864.806 527.928 864.904C527.928 864.904 525.363 864.834 524.879 862.663L523.419 858.137C523.419 858.137 523.124 857.04 523.52 855.867C523.52 855.867 523.61 854.624 524.93 853.69C524.93 853.69 526.14 852.947 526.481 852.265L529.379 848.565C529.379 848.565 530.398 847.642 531.311 847.395L533.64 848.205C533.64 848.205 530.887 851.94 529.234 853.32C529.234 853.32 526.953 855.36 526.613 856.956C526.613 856.956 526.426 858.088 526.737 858.664C526.737 858.664 527.05 859.687 527.157 860.172C527.157 860.172 527.455 861.925 527.948 862.428C527.948 862.428 528.797 863.296 529.037 863.386C529.037 863.386 529.445 863.625 529.325 862.75C529.325 862.75 528.749 859.597 529.234 858.123C529.234 858.123 529.396 856.496 530.742 855.878C530.742 855.878 534.423 852.491 535.122 851.372C535.122 851.372 536.367 849.956 536.875 849.793C536.875 849.793 538.096 848.847 536.787 847.901C536.787 847.901 533.375 846.108 532.844 845.488C532.844 845.488 531.239 844.492 531.078 840.551C531.078 840.551 530.654 835.891 531.377 833.279C531.377 833.279 526.733 838.36 530.01 845.671C530.01 845.671 525.84 845.775 524.546 844.207C524.546 844.207 519.922 842.214 519.058 841.708C519.058 841.708 517.929 841.092 518.388 842.136C518.388 842.136 519.286 844.589 519.048 845.975C519.048 845.975 518.851 847.077 519.567 847.944C519.567 847.944 521.79 850.593 521.537 852.492C521.537 852.492 521.65 854.415 520.553 853.668C520.553 853.668 519.119 852.471 518.336 853.079C518.336 853.079 518.145 853.114 518.587 853.992C518.587 853.992 519.847 855.862 519.455 857.814C519.455 857.814 518.558 859.947 517.785 860.502C517.785 860.502 516.771 861.33 515.689 860.691C515.689 860.691 515.447 860.358 514.838 860.375C514.838 860.375 514.261 860.218 512.89 859.291C512.89 859.291 510.768 858.048 510.074 857.572C510.074 857.572 507.437 855.748 505.978 855.435C505.978 855.435 505.07 855.081 503.813 855C503.813 855 500.054 854.437 498.344 851.1C498.344 851.1 496.887 849.138 495.88 850.394C495.88 850.394 489.847 855.157 483.085 851.664C483.085 851.664 489.431 850.846 491.77 848.043C491.77 848.043 492.694 845.379 496.698 842.408C496.698 842.408 497.947 841.401 497.152 840.839C497.152 840.839 496.744 840.32 495.329 841.14C495.329 841.14 491.758 843.106 490.06 845.327C490.06 845.327 485.097 849.715 480.49 846.559C480.49 846.559 484.897 846.088 487.544 843.717C487.544 843.717 489.747 840.138 494.427 838.29C494.427 838.29 495.75 833.96 498.229 831.991C498.229 831.991 500.257 828.134 500.762 827.241C500.762 827.241 502.708 823.898 502.969 822.901C502.969 822.901 503.906 818.104 507.927 815.252C507.927 815.252 511.011 811.875 514.916 809.993C514.916 809.993 518.121 807.663 520.399 806.32C520.399 806.32 523.496 804.19 529.6 801.963C529.6 801.963 532.378 800.895 534.568 799.534C534.568 799.534 545.377 795.44 550.524 802.426C550.524 802.426 554.221 806.713 557.744 808.677C557.744 808.677 565.26 811.659 567.124 817.93C567.124 817.93 567.141 819.001 570.167 820.218C570.167 820.218 577.26 821.229 580.509 829.34C580.509 829.34 582.245 832.264 586.749 834.068C586.749 834.068 594.54 835.324 597.922 842.463C597.922 842.463 607.475 856.675 616.797 851.616C616.797 851.616 621.623 849.003 618.99 841.223C618.99 841.223 617.101 837.105 613.282 832.309C613.282 832.309 610.143 828.55 613.051 824.794C613.051 824.794 615.082 820.955 620.903 822.399C620.903 822.399 628.548 822.942 632.469 820.06C632.469 820.06 632.657 832.496 619.826 828.852C619.826 828.852 616.335 828.448 616.794 831.427C616.794 831.427 617.829 834.146 619.816 835.568C619.816 835.568 623.246 838.308 623.487 844.435C623.487 844.435 624.759 855.389 614.157 856.645C610.137 856.932 605.982 855.417 602.367 853.741ZM614.548 882.014C614.144 881.441 613.448 880.993 612.732 880.97C611.119 880.889 611.688 882.456 611.688 882.456C611.997 883.776 613.49 886.262 613.49 886.262C614.924 888.084 616.768 886.867 616.768 886.867C618.444 885.914 616.886 884.818 616.886 884.818C615.993 884.141 614.548 882.014 614.548 882.014ZM616.728 889.232C616.728 889.232 616.064 889.495 616.141 890.386C616.141 890.386 616.52 894.657 616.105 895.946C616.105 895.946 619.103 897.351 619.952 895.915C619.952 895.915 620.197 895.338 619.917 894.332C619.917 894.332 619.601 893.378 619.86 891.858C619.86 891.858 620.907 888.139 618.225 888.48C617.672 888.62 617.188 888.909 616.728 889.232ZM507.944 851.621C508.502 851.756 508.699 851.591 508.794 850.963C508.876 849.168 507.714 848.073 507.714 848.073C505.573 845.866 504.853 847.308 504.853 847.308C503.658 849.905 505.717 850.823 505.717 850.823C506.107 851.086 507.944 851.621 507.944 851.621ZM503.509 837.408C503.804 836.119 504.455 833.252 506.026 832.587C506.609 832.335 509.057 830.768 509.057 830.768C509.48 830.342 509.71 830.37 509.71 830.37C510.108 830.437 510.372 831.48 510.372 831.48C511.022 834.444 512.455 834.487 512.455 834.487C512.592 834.016 512.414 833.4 512.414 833.4C512.102 831.962 511.797 830.522 511.499 829.08C511.449 828.697 511.417 828.312 511.404 827.926C510.642 825.559 509.005 826.766 509.005 826.766C508.171 827.688 504.32 830.388 504.32 830.388C503.812 830.738 503.416 831.226 503.179 831.794C501.227 836.383 503.509 837.408 503.509 837.408ZM538.112 815.824C538.703 815.214 538.734 814.439 538.52 813.634C537.988 812.008 536.741 813.292 536.741 813.292C532.456 816.804 533.015 823.93 533.015 823.93C534.939 818.024 538.112 815.824 538.112 815.824Z" fill="#CC2729"/>
</g>
<path d="M314.37 858.642C313.562 855.63 311.98 853.653 308.676 852.768C304.272 851.588 301.243 853.385 300.28 856.979C299.395 860.282 302.407 862.952 305.483 866.075C309.977 870.633 315.447 875.95 313.444 883.427C311.782 889.628 305.973 893.227 298.902 891.332C291.773 889.422 289.043 884.777 288.234 879.218L291.868 878.639C292.392 882.941 294.575 886.384 299.849 887.797C304.66 889.086 308.759 886.768 309.908 882.479C311.306 877.263 307.585 873.533 304.08 869.923C299.544 865.291 295.041 862.159 296.687 856.016C298.178 850.452 303.422 847.571 309.623 849.233C314.955 850.661 317.077 854.336 317.977 857.931L314.37 858.642ZM330.092 887.639C328.601 893.203 331.77 896.909 336.348 898.136C340.869 899.347 345.524 897.737 347.015 892.174L355.183 861.689L358.719 862.636L350.674 892.657C348.578 900.481 342.197 903.43 335.417 901.613C328.578 899.781 324.558 893.921 326.623 886.213L334.667 856.192L338.26 857.154L330.092 887.639ZM366.986 887.089C370.247 874.918 381.826 868.331 393.881 871.561C402.806 873.953 407.17 880.153 408.784 884.561L405.354 886.003C403.725 881.653 399.772 876.929 392.934 875.096C382.907 872.41 373.223 877.952 370.521 888.036C367.834 898.063 373.435 907.763 383.461 910.449C393.371 913.105 401.873 907.804 404.563 901.009L392.045 897.655L392.992 894.12L409.451 898.53C406.392 909.947 395.206 917.385 382.514 913.984C370.343 910.723 363.724 899.26 366.986 887.089ZM442.592 883.681L447.723 930.836L444.187 929.889L442.795 917.465L425.525 912.837L418.165 922.916L414.63 921.969L442.592 883.681ZM440.108 892.954L427.921 909.69L442.41 913.573L440.108 892.954ZM490.403 908.978C488.819 914.889 483.103 918.14 476.38 916.339L475.279 916.044L483.007 940.29L478.834 939.172L471.28 914.973L469.831 914.584L464.287 935.274L460.694 934.312L471.782 892.931L481.924 895.649C488.763 897.481 491.987 903.066 490.403 908.978ZM477.327 912.804C482.022 914.062 485.827 911.913 486.868 908.03C487.893 904.205 485.671 900.442 480.977 899.184L474.428 897.429L470.778 911.049L477.327 912.804ZM524.798 910.926L510.367 907.059L506.795 920.389L521.226 924.256L520.279 927.791L505.848 923.924L500.226 944.904L496.691 943.957L507.779 902.577L525.745 907.391L524.798 910.926ZM560.117 927.658C558.533 933.569 552.817 936.82 546.094 935.019L544.993 934.724L552.721 958.97L548.548 957.852L540.994 933.652L539.545 933.264L534.001 953.954L530.408 952.992L541.496 911.611L551.638 914.329C558.477 916.161 561.701 921.746 560.117 927.658ZM547.041 931.484C551.736 932.742 555.542 930.593 556.582 926.71C557.607 922.885 555.385 919.122 550.691 917.864L544.142 916.109L540.492 929.729L547.041 931.484ZM596.251 930.072L579.965 925.708L576.456 938.806L592.741 943.17L591.778 946.763L575.493 942.399L570.772 960.018L587.057 964.382L586.11 967.917L566.289 962.606L577.377 921.226L597.198 926.537L596.251 930.072ZM630.938 939.366L614.652 935.003L611.143 948.101L627.428 952.464L626.466 956.057L610.18 951.694L605.459 969.312L621.745 973.676L620.797 977.211L600.977 971.9L612.064 930.52L631.885 935.831L630.938 939.366Z" fill="#E92842"/>
<defs>
<clipPath id="clip0_24_102">
<rect width="306" height="117" fill="white" transform="translate(352.639 721.078) rotate(15)"/>
</clipPath>
</defs>
</svg>
