<svg width="800" height="800" viewBox="0 0 800 800" fill="none" xmlns="http://www.w3.org/2000/svg">
<circle cx="400" cy="400" r="400" fill="#00598C"/>
<path d="M493.844 347.893C505.568 335.768 515.445 315.154 507.317 284.819C499.082 254.085 474.383 233.752 442.451 242.308C410.52 250.864 405.74 282.518 400.775 315.078C393.587 358.501 383.604 402.672 331.716 416.576C287.012 428.554 247.836 411.672 232.543 354.594C217.997 300.311 242.771 271.427 271.843 253.798L281.816 268.666C258.303 283.094 237.25 306.703 248.907 350.209C261.314 396.51 292.206 409.622 327.331 400.211C370.039 388.767 376.622 351.068 382.378 311.879C387.87 274.9 394.959 237.493 438.066 225.943C476.783 215.569 512.053 238.631 523.283 280.541C533.015 316.863 522.854 344.398 504.801 361.642L493.844 347.893Z" fill="white"/>
<path d="M572.063 534.438L543.187 426.669L439.41 454.476L468.286 562.245L451.921 566.629L423.045 458.861L274.564 498.646L270.286 482.681L555.274 406.318L588.428 530.053L572.063 534.438Z" fill="white"/>
</svg>
