<svg width="993" height="1555" viewBox="0 0 993 1555" fill="none" xmlns="http://www.w3.org/2000/svg">
<path d="M637.428 1489.62C627.872 1525.28 481.305 1517 310.062 1471.12C138.819 1425.23 7.74722 1359.12 17.3039 1323.46L354.619 64.5781L974.744 230.74L637.428 1489.62Z" fill="#269FD4"/>
<ellipse cx="664.682" cy="147.66" rx="321" ry="66.8569" transform="rotate(15 664.682 147.66)" fill="#C7CFDC"/>
<path d="M342.801 429.923L340.029 440.268L330.36 437.677L320.196 475.609L308.499 472.475L318.662 434.543L308.994 431.952L311.765 421.607L342.801 429.923ZM335.402 479.684L348.809 429.649L360.507 432.783L354.365 455.705C356.608 453.552 359.857 452.248 365.266 453.698C374.191 456.089 377.76 461.973 375.531 470.29L370.495 489.087L358.797 485.952L363.127 469.792C364.142 466.006 363.767 463.079 359.507 461.938C355.585 460.887 352.118 464.089 351.466 466.523L347.1 482.818L335.402 479.684ZM389.118 479.873C388.316 483.136 389.863 486.015 393.244 486.921C397.031 487.936 398.722 487.302 399.729 485.977L410.075 488.749C407.441 492.899 401.897 498.443 390.47 495.381C379.516 492.446 376.25 482.73 378.406 474.684C380.562 466.637 388.88 459.663 399.766 462.58C411.937 465.841 414.748 475.363 412.357 484.288C412.212 484.829 412.049 485.437 411.836 485.96L389.118 479.873ZM401.865 476.114C402.169 474.166 401.113 471.347 397.53 470.387C393.946 469.426 391.622 471.34 391.047 473.215L401.865 476.114Z" fill="white"/>
<path d="M342.352 524.364C338.262 520.038 334.063 516.625 327.91 514.976C322.51 513.529 317.409 514.989 316.063 520.012C315.087 523.653 316.892 526.963 324.5 530.213C341.499 537.594 347.034 551.594 343.367 565.281C339.43 579.973 324.259 591.385 302.912 585.665C286.839 581.358 278.391 573.711 271.669 564.642L286.833 551.748C291.582 558.134 297.763 563.694 306.679 566.083C313.836 568.001 318.747 564.741 320.026 559.969C321.641 553.941 318.632 549.098 311.091 545.597C293.633 537.419 288.806 526.301 291.902 514.749C296.242 498.55 312.271 490.463 332.111 495.78C343.161 498.74 349.236 503.194 354.756 508.711L342.352 524.364ZM370.142 576.493C368.652 582.554 371.526 587.9 377.805 589.582C384.837 591.466 387.978 590.289 389.849 587.83L409.061 592.978C404.17 600.684 393.874 610.98 372.653 605.294C352.31 599.843 346.244 581.798 350.248 566.856C354.252 551.913 369.701 538.96 389.918 544.377C412.52 550.433 417.741 568.117 413.3 584.692C413.031 585.697 412.728 586.827 412.333 587.798L370.142 576.493ZM393.815 569.512C394.38 565.895 392.419 560.659 385.763 558.876C379.108 557.092 374.791 560.646 373.724 564.129L393.815 569.512ZM492.781 573.285L477.169 631.55L457.957 626.402L458.933 622.76C455.473 624.121 450.338 625.706 440.292 623.014C421.08 617.866 415.54 600.366 419.544 585.423C423.548 570.481 437.095 558.095 456.308 563.243C465.977 565.833 470.302 569.28 472.425 572.406L473.569 568.137L492.781 573.285ZM441.151 590.675C439.402 597.204 443.354 604.051 449.884 605.8C456.414 607.55 463.26 603.597 465.01 597.067C466.759 590.538 462.807 583.692 456.277 581.942C449.747 580.192 442.901 584.145 441.151 590.675ZM609.029 596.628C606.203 607.175 601.09 611.189 596.031 611.987C604.056 616.694 608.895 625.258 605.463 638.066C600.819 655.395 586.443 660.829 570.244 656.489L534.959 647.034L558.983 557.377L588.994 565.419C605.193 569.759 612.899 582.187 609.029 596.628ZM571.579 597.763L575.723 598.874C581.248 600.354 585.354 598.09 586.868 592.439C588.281 587.165 586.06 582.398 580.534 580.917L576.391 579.807L571.579 597.763ZM561.283 636.188L570.701 638.711C576.729 640.326 582.225 637.896 584.143 630.739C585.993 623.832 582.549 618.603 576.522 616.988L567.104 614.464L561.283 636.188ZM632.975 673.298L611.125 667.443L636.024 574.521L657.873 580.375L632.975 673.298ZM683.821 625.012L674.904 658.288C673.458 663.688 675.924 667.04 680.57 668.285C685.091 669.497 688.869 667.952 690.35 662.427L699.266 629.151L720.99 634.972L711.77 669.378C707.531 685.2 693.59 691.02 675.759 686.242C657.928 681.464 648.638 669.419 652.878 653.598L662.097 619.191L683.821 625.012ZM741.457 675.986C739.968 682.047 742.842 687.394 749.12 689.076C756.152 690.96 759.294 689.783 761.164 687.323L780.377 692.471C775.485 700.178 765.19 710.474 743.968 704.788C723.626 699.337 717.559 681.292 721.563 666.349C725.567 651.406 741.016 638.453 761.233 643.871C783.836 649.927 789.057 667.611 784.615 684.186C784.346 685.191 784.043 686.321 783.649 687.292L741.457 675.986ZM765.13 669.006C765.696 665.389 763.734 660.153 757.079 658.369C750.424 656.586 746.107 660.14 745.039 663.622L765.13 669.006Z" fill="white"/>
<path d="M292.127 612.779L270.413 606.96L265.734 624.424L287.448 630.243L286.164 635.034L264.45 629.215L258.156 652.707L279.87 658.525L278.607 663.239L252.179 656.157L266.963 600.984L293.39 608.065L292.127 612.779ZM330.365 615.819L334.692 616.978L319.37 674.161L315.042 673.002L316.347 668.133C312.422 670.726 307.458 671.632 302.59 670.328C293.472 667.884 288.041 658.478 290.485 649.36C292.928 640.242 302.334 634.811 311.452 637.254C316.32 638.559 320.166 641.825 322.269 646.033L330.365 615.819ZM294.791 650.597C292.99 657.32 297.006 664.276 303.729 666.078C310.452 667.879 317.408 663.863 319.21 657.14C321.011 650.417 316.995 643.46 310.272 641.659C303.549 639.858 296.593 643.874 294.791 650.597ZM341.872 645.985L333.32 677.899L328.916 676.719L337.467 644.805L341.872 645.985ZM344.551 637.841C344.157 639.309 342.61 640.137 341.142 639.743C339.674 639.35 338.748 637.86 339.141 636.391C339.556 634.846 341.103 634.018 342.571 634.411C344.039 634.805 344.965 636.295 344.551 637.841ZM352.71 653.527L348.383 652.368L349.542 648.04L353.87 649.2L357.617 635.213L361.945 636.373L358.197 650.359L365.692 652.368L364.533 656.695L357.037 654.687L349.646 682.273L345.318 681.114L352.71 653.527ZM378.471 655.792L369.92 687.706L365.515 686.526L374.066 654.611L378.471 655.792ZM381.15 647.648C380.757 649.116 379.21 649.944 377.742 649.55C376.273 649.157 375.348 647.666 375.741 646.198C376.155 644.653 377.702 643.825 379.17 644.218C380.639 644.612 381.564 646.102 381.15 647.648ZM415.393 682.829C412.949 691.947 403.543 697.378 394.425 694.935C385.307 692.491 379.876 683.085 382.319 673.967C384.763 664.849 394.169 659.418 403.287 661.861C412.405 664.305 417.836 673.711 415.393 682.829ZM386.626 675.204C384.825 681.927 388.841 688.883 395.564 690.685C402.287 692.486 409.243 688.47 411.045 681.747C412.846 675.024 408.83 668.067 402.107 666.266C395.384 664.465 388.427 668.481 386.626 675.204ZM419.857 701.087L428.409 669.172L432.736 670.332L431.535 674.814C433.182 672.688 436.915 671.12 442.169 672.528C451.133 674.93 453.97 681.653 452.002 688.994L446.805 708.39L442.401 707.21L447.204 689.282C448.84 683.178 447.192 678.512 441.01 676.856C434.21 675.034 430.334 679.296 429.051 684.087L424.185 702.246L419.857 701.087Z" fill="white"/>
<path d="M208.951 1230.28L202.196 1255.49L98.7449 1227.77L109.111 1189.09C114.08 1170.54 130.317 1159.21 150.601 1164.64C166.104 1168.8 174.641 1180.4 175.543 1193.84L222.81 1178.56L215.434 1206.09L170.7 1220.03L208.951 1230.28ZM148.387 1214.05L151.377 1202.9C153.318 1195.65 149.97 1191.34 143.885 1189.71C137.799 1188.08 132.366 1190.97 130.657 1197.35L127.668 1208.5L148.387 1214.05ZM203.224 1138.06C210.218 1139.78 216.386 1136.46 218.327 1129.22C220.501 1121.1 219.143 1117.48 216.305 1115.32L222.245 1093.15C231.137 1098.8 243.018 1110.68 236.456 1135.16C230.167 1158.64 209.346 1165.63 192.104 1161.01C174.863 1156.39 159.917 1138.57 166.167 1115.24C173.155 1089.16 193.56 1083.14 212.685 1088.26C213.844 1088.57 215.148 1088.92 216.269 1089.38L203.224 1138.06ZM195.169 1110.75C190.996 1110.09 184.954 1112.36 182.897 1120.04C180.839 1127.71 184.94 1132.7 188.958 1133.93L195.169 1110.75ZM153.283 1009.17L159.223 986.997L266.441 1015.73L260.501 1037.89L256.299 1036.77C257.724 1040.72 259.387 1047.85 256.592 1058.28C250.652 1080.45 230.46 1086.84 213.218 1082.22C195.976 1077.6 181.685 1061.97 187.625 1039.8C190.809 1027.92 194.62 1024.12 198.199 1021.2L153.283 1009.17ZM219.433 1056.71C226.967 1058.72 234.866 1054.16 236.885 1046.63C238.904 1039.1 234.343 1031.2 226.809 1029.18C219.275 1027.16 211.375 1031.72 209.356 1039.25C207.338 1046.79 211.898 1054.69 219.433 1056.71ZM212.315 915.198C224.486 918.459 229.117 924.359 230.037 930.196C235.469 920.936 245.35 915.353 260.129 919.313C280.124 924.671 286.394 941.259 281.386 959.95L270.477 1000.66L167.026 972.944L176.305 938.315C181.313 919.625 195.653 910.733 212.315 915.198ZM213.626 958.409L214.907 953.628C216.615 947.253 214.002 942.515 207.482 940.768C201.397 939.138 195.896 941.701 194.188 948.076L192.907 952.858L213.626 958.409ZM257.962 970.289L260.873 959.423C262.737 952.468 259.933 946.126 251.674 943.913C243.705 941.778 237.671 945.752 235.808 952.706L232.896 963.573L257.962 970.289ZM233.2 873.187L271.595 883.475C277.826 885.145 281.694 882.299 283.13 876.938C284.528 871.722 282.746 867.362 276.371 865.654L237.975 855.366L244.691 830.3L284.391 840.938C302.647 845.829 309.362 861.916 303.849 882.49C298.337 903.064 284.439 913.782 266.183 908.891L226.483 898.253L233.2 873.187ZM322.239 807.483L315.484 832.694L208.266 803.965L215.021 778.755L322.239 807.483ZM334.106 763.196L327.351 788.407L220.133 759.678L226.888 734.467L334.106 763.196Z" fill="white"/>
</svg>
