<svg width="993" height="1555" viewBox="0 0 993 1555" fill="none" xmlns="http://www.w3.org/2000/svg">
<path d="M637.428 1489.62C627.872 1525.28 481.305 1517 310.062 1471.12C138.819 1425.23 7.74723 1359.12 17.3039 1323.46L354.619 64.5781L974.744 230.74L637.428 1489.62Z" fill="#269FD4"/>
<ellipse cx="664.682" cy="147.66" rx="321" ry="66.8569" transform="rotate(15 664.682 147.66)" fill="#C7CFDC"/>
<path d="M36.7357 1251.02C36.6626 1251.24 36.5937 1251.47 36.532 1251.7C26.9755 1287.37 158.048 1353.48 329.29 1399.36C500.533 1445.24 647.1 1453.53 656.656 1417.86C656.718 1417.63 656.772 1417.4 656.822 1417.17L656.841 1417.17L637.43 1489.62C627.873 1525.28 481.306 1517 310.064 1471.12C138.821 1425.23 7.74872 1359.12 17.3054 1323.46L36.7168 1251.01L36.7357 1251.02Z" fill="#3DA6CF"/>
<path d="M166.848 1374.24C166.202 1375.91 167.183 1377.45 170.833 1379.55C179.4 1384.37 181.802 1391.47 179.173 1398.28C176.29 1405.74 167.783 1410 155.962 1405.43C149.574 1402.97 144.583 1397.95 141.772 1393.5L148.051 1385.77C150.753 1389.08 154.235 1393.03 157.817 1394.42C160.921 1395.62 162.952 1395.51 163.621 1393.78C164.221 1392.23 162.987 1390.45 159.517 1388.42C151.391 1383.7 149.278 1376.92 151.953 1369.99C154.606 1363.13 162.571 1358.31 172.481 1362.14C179.406 1364.82 184.405 1368.39 187.34 1372.34L180.922 1380.43C178.739 1377.73 174.912 1374.68 170.673 1373.04C169.061 1372.41 167.333 1372.98 166.848 1374.24ZM206.507 1374.89L196.834 1403.1C196.066 1405.34 197.185 1407.01 199.243 1407.71C201.302 1408.42 203.27 1407.81 204.038 1405.57L213.711 1377.36L227.575 1382.11L217.508 1411.47C214.186 1421.16 204.012 1422.81 195.113 1419.76C186.092 1416.67 179.255 1409.18 182.576 1399.5L192.643 1370.13L206.507 1374.89ZM250.015 1400.55C244.821 1398.93 240.381 1403.72 238.609 1409.4C236.781 1415.26 237.744 1422.07 243.427 1423.84C246.42 1424.77 247.871 1424.42 248.966 1423.49L250.223 1419.45L245.335 1417.93L247.868 1409.8L266.748 1415.69L262.025 1430.84C257.748 1434.67 249.117 1437.41 240.074 1434.59C224.372 1429.7 220.116 1416.04 223.602 1404.85C227.087 1393.67 238.374 1384.99 253.405 1389.68C264.098 1393.01 268.237 1399.73 269.715 1404.88L254.928 1405.43C254.507 1403.56 253.681 1401.69 250.015 1400.55ZM289.527 1401.05L305.904 1405.7L307.339 1453.61L293.425 1449.66L293.07 1442.71L281.065 1439.3L277.11 1445.03L263.134 1441.06L289.527 1401.05ZM292.455 1421.91L286.799 1430.35L292.709 1432.03L292.455 1421.91ZM353.093 1433.53C351.158 1440.96 347.597 1443.21 342.967 1443.72L348.883 1464.44L332.531 1460.19L328.896 1444.43L325.285 1458.3L310.792 1454.53L322.302 1410.31L342.122 1415.46C350.421 1417.62 355.592 1423.93 353.093 1433.53ZM332.33 1431.23L334.683 1431.85C336.665 1432.36 338.272 1431.52 338.804 1429.48C339.32 1427.5 338.342 1425.92 336.36 1425.41L334.006 1424.79L332.33 1431.23ZM392.271 1427.92L389.603 1438.99L375.23 1435.53L373.536 1442.56L387.162 1445.84L384.493 1456.92L370.867 1453.63L367.194 1468.88L352.946 1465.44L363.651 1421.02L392.271 1427.92ZM427.676 1450.71C426.045 1458.21 422.579 1460.6 417.972 1461.31L424.726 1481.77L408.215 1478.18L403.942 1462.58L400.898 1476.59L386.263 1473.41L395.967 1428.76L415.98 1433.1C424.36 1434.93 429.782 1441.02 427.676 1450.71ZM406.837 1449.26L409.213 1449.78C411.215 1450.21 412.786 1449.31 413.235 1447.24C413.669 1445.24 412.628 1443.71 410.627 1443.27L408.25 1442.76L406.837 1449.26ZM466.456 1443.2L464.334 1454.4L449.809 1451.64L448.712 1457.43L462.483 1460.04L460.349 1471.29L446.579 1468.68L445.554 1474.09L460.079 1476.85L457.945 1488.1L429.02 1482.62L437.531 1437.72L466.456 1443.2ZM499.889 1448.43L498.152 1459.69L483.541 1457.44L482.643 1463.26L496.495 1465.39L494.749 1476.72L480.897 1474.58L480.057 1480.02L494.669 1482.27L492.922 1493.59L463.826 1489.11L470.793 1443.94L499.889 1448.43Z" fill="white"/>
<path d="M347.01 506.977C342.92 502.651 338.721 499.238 332.568 497.589C327.168 496.143 322.067 497.602 320.721 502.625C319.745 506.266 321.55 509.576 329.158 512.826C346.157 520.207 351.692 534.207 348.025 547.894C344.088 562.586 328.917 573.998 307.57 568.278C291.497 563.972 283.049 556.324 276.327 547.256L291.491 534.361C296.24 540.748 302.422 546.307 311.337 548.696C318.495 550.614 323.406 547.354 324.684 542.582C326.299 536.555 323.29 531.711 315.75 528.21C298.291 520.033 293.464 508.915 296.56 497.362C300.9 481.164 316.929 473.077 336.769 478.393C347.82 481.354 353.894 485.808 359.414 491.324L347.01 506.977ZM374.8 559.106C373.31 565.167 376.185 570.513 382.463 572.195C389.495 574.08 392.637 572.903 394.507 570.443L413.719 575.591C408.828 583.297 398.532 593.594 377.311 587.907C356.969 582.457 350.902 564.412 354.906 549.469C358.91 534.526 374.359 521.573 394.576 526.99C417.178 533.046 422.399 550.73 417.958 567.306C417.689 568.31 417.386 569.44 416.991 570.411L374.8 559.106ZM398.473 552.125C399.039 548.508 397.077 543.272 390.422 541.489C383.766 539.706 379.45 543.26 378.382 546.742L398.473 552.125ZM497.44 555.898L481.828 614.163L462.615 609.015L463.591 605.373C460.131 606.734 454.996 608.319 444.95 605.627C425.738 600.48 420.198 582.98 424.202 568.037C428.206 553.094 441.754 540.708 460.966 545.856C470.635 548.447 474.96 551.894 477.083 555.02L478.227 550.75L497.44 555.898ZM445.809 573.288C444.06 579.818 448.013 586.664 454.542 588.414C461.072 590.163 467.918 586.21 469.668 579.681C471.417 573.151 467.465 566.305 460.935 564.555C454.405 562.806 447.559 566.758 445.809 573.288ZM613.688 579.241C610.861 589.789 605.748 593.802 600.689 594.6C608.714 599.307 613.553 607.871 610.121 620.68C605.478 638.008 591.101 643.443 574.903 639.102L539.617 629.648L563.641 539.99L593.652 548.032C609.851 552.372 617.557 564.8 613.688 579.241ZM576.237 580.377L580.381 581.487C585.906 582.967 590.012 580.703 591.526 575.052C592.94 569.778 590.718 565.011 585.193 563.53L581.049 562.42L576.237 580.377ZM565.942 618.801L575.359 621.325C581.387 622.94 586.883 620.509 588.801 613.352C590.651 606.446 587.208 601.216 581.18 599.601L571.762 597.078L565.942 618.801ZM637.633 655.911L615.784 650.056L640.682 557.134L662.531 562.989L637.633 655.911ZM688.479 607.625L679.563 640.902C678.116 646.301 680.582 649.654 685.228 650.899C689.749 652.11 693.527 650.565 695.008 645.04L703.924 611.764L725.648 617.585L716.429 651.991C712.189 667.813 698.248 673.633 680.417 668.855C662.586 664.077 653.297 652.033 657.536 636.211L666.755 601.805L688.479 607.625ZM746.115 658.6C744.626 664.661 747.5 670.007 753.779 671.689C760.81 673.573 763.952 672.396 765.822 669.937L785.035 675.085C780.143 682.791 769.848 693.087 748.626 687.401C728.284 681.95 722.218 663.905 726.222 648.962C730.226 634.02 745.674 621.067 765.891 626.484C788.494 632.54 793.715 650.224 789.274 666.799C789.004 667.804 788.702 668.934 788.307 669.905L746.115 658.6ZM769.789 651.619C770.354 648.002 768.392 642.766 761.737 640.983C755.082 639.199 750.765 642.753 749.697 646.236L769.789 651.619Z" fill="white"/>
<path d="M304.378 599.433L277.235 592.16L271.386 613.99L298.528 621.263L296.924 627.251L269.781 619.979L261.913 649.343L289.056 656.616L287.477 662.508L254.442 653.656L272.922 584.689L305.957 593.541L304.378 599.433ZM352.174 603.233L357.584 604.682L338.431 676.161L333.022 674.711L334.652 668.626C329.746 671.867 323.542 673 317.457 671.369C306.059 668.315 299.27 656.557 302.324 645.159C305.378 633.761 317.136 626.973 328.534 630.027C334.619 631.658 339.426 635.741 342.055 641.001L352.174 603.233ZM307.708 646.705C305.456 655.109 310.476 663.805 318.88 666.056C327.284 668.308 335.979 663.288 338.231 654.884C340.483 646.481 335.462 637.785 327.059 635.533C318.655 633.281 309.959 638.302 307.708 646.705ZM366.558 640.941L355.869 680.833L350.363 679.358L361.052 639.465L366.558 640.941ZM369.907 630.76C369.415 632.596 367.482 633.63 365.646 633.139C363.811 632.647 362.654 630.784 363.146 628.949C363.663 627.017 365.597 625.982 367.432 626.474C369.267 626.966 370.425 628.829 369.907 630.76ZM380.106 650.368L374.697 648.919L376.147 643.51L381.556 644.959L386.24 627.476L391.649 628.925L386.965 646.409L396.334 648.919L394.885 654.328L385.515 651.818L376.276 686.301L370.866 684.852L380.106 650.368ZM412.308 653.199L401.618 693.092L396.113 691.617L406.802 651.724L412.308 653.199ZM415.657 643.019C415.165 644.854 413.231 645.889 411.396 645.397C409.561 644.905 408.403 643.042 408.895 641.207C409.413 639.275 411.346 638.241 413.182 638.732C415.017 639.224 416.174 641.087 415.657 643.019ZM458.46 686.996C455.405 698.394 443.648 705.182 432.25 702.128C420.852 699.074 414.064 687.316 417.118 675.918C420.172 664.52 431.93 657.732 443.327 660.786C454.725 663.84 461.514 675.598 458.46 686.996ZM422.501 677.464C420.249 685.868 425.27 694.563 433.674 696.815C442.077 699.067 450.773 694.046 453.024 685.643C455.276 677.239 450.256 668.544 441.852 666.292C433.449 664.04 424.753 669.061 422.501 677.464ZM464.041 709.818L474.73 669.925L480.139 671.374L478.638 676.977C480.696 674.319 485.362 672.36 491.93 674.12C503.135 677.122 506.681 685.526 504.222 694.702L497.726 718.947L492.22 717.472L498.224 695.062C500.269 687.432 498.208 681.6 490.481 679.529C481.981 677.251 477.137 682.579 475.532 688.568L469.45 711.267L464.041 709.818Z" fill="white"/>
<path d="M208.951 1230.28L202.196 1255.49L98.7449 1227.77L109.111 1189.09C114.08 1170.54 130.317 1159.21 150.601 1164.64C166.104 1168.8 174.641 1180.4 175.543 1193.84L222.81 1178.56L215.434 1206.09L170.7 1220.03L208.951 1230.28ZM148.387 1214.05L151.377 1202.9C153.318 1195.65 149.97 1191.34 143.885 1189.71C137.799 1188.08 132.366 1190.97 130.657 1197.35L127.668 1208.5L148.387 1214.05ZM203.224 1138.06C210.218 1139.78 216.386 1136.46 218.327 1129.22C220.501 1121.1 219.143 1117.48 216.305 1115.32L222.245 1093.15C231.137 1098.8 243.018 1110.68 236.456 1135.16C230.167 1158.64 209.346 1165.63 192.104 1161.01C174.863 1156.39 159.917 1138.57 166.167 1115.24C173.155 1089.16 193.56 1083.14 212.685 1088.26C213.844 1088.57 215.148 1088.92 216.269 1089.38L203.224 1138.06ZM195.169 1110.75C190.996 1110.09 184.954 1112.36 182.897 1120.04C180.839 1127.71 184.94 1132.7 188.958 1133.93L195.169 1110.75ZM153.283 1009.17L159.223 986.997L266.441 1015.73L260.501 1037.89L256.299 1036.77C257.724 1040.72 259.387 1047.85 256.592 1058.28C250.652 1080.45 230.46 1086.84 213.218 1082.22C195.976 1077.6 181.685 1061.97 187.625 1039.8C190.809 1027.92 194.62 1024.12 198.199 1021.2L153.283 1009.17ZM219.433 1056.71C226.967 1058.72 234.866 1054.16 236.885 1046.63C238.904 1039.1 234.343 1031.2 226.809 1029.18C219.275 1027.16 211.375 1031.72 209.356 1039.25C207.338 1046.79 211.898 1054.69 219.433 1056.71ZM212.315 915.198C224.486 918.459 229.117 924.359 230.037 930.196C235.469 920.936 245.35 915.353 260.129 919.313C280.124 924.671 286.394 941.259 281.386 959.95L270.477 1000.66L167.026 972.944L176.305 938.315C181.313 919.625 195.653 910.733 212.315 915.198ZM213.626 958.409L214.907 953.628C216.615 947.253 214.002 942.515 207.482 940.768C201.397 939.138 195.896 941.701 194.188 948.076L192.907 952.858L213.626 958.409ZM257.962 970.289L260.873 959.423C262.737 952.468 259.933 946.126 251.674 943.913C243.705 941.778 237.671 945.752 235.808 952.706L232.896 963.573L257.962 970.289ZM233.2 873.187L271.595 883.475C277.826 885.145 281.694 882.299 283.13 876.938C284.528 871.722 282.746 867.362 276.371 865.654L237.975 855.366L244.691 830.3L284.391 840.938C302.647 845.829 309.362 861.916 303.849 882.49C298.337 903.064 284.439 913.782 266.183 908.891L226.483 898.253L233.2 873.187ZM322.239 807.483L315.484 832.694L208.266 803.965L215.021 778.755L322.239 807.483ZM334.106 763.196L327.351 788.407L220.133 759.678L226.888 734.467L334.106 763.196Z" fill="white"/>
</svg>
