<svg width="800" height="800" viewBox="0 0 800 800" fill="none" xmlns="http://www.w3.org/2000/svg">
<circle cx="400" cy="400" r="400" fill="#3DA6CF"/>
<path d="M430.61 267.687C419.403 270.69 415.065 281.718 418.034 308.807C425.53 372.004 397.551 411.674 351.923 423.9C301.892 437.306 247.141 409.078 225.906 329.83C214.431 287.003 221.61 241.752 234.144 210.081L298.528 213.421C291.54 240.174 284.16 273.467 290.595 297.482C296.171 318.295 304.485 328.508 316.092 325.398C326.498 322.609 331.1 309.365 328.453 283.477C322.108 222.975 349.53 186.027 395.958 173.587C441.987 161.254 497.56 184.542 515.362 250.983C527.803 297.412 528.171 337.208 518.732 367.621L451.946 364.925C457.712 343.218 459.089 311.534 451.474 283.116C448.579 272.31 439.015 265.435 430.61 267.687Z" fill="white"/>
<path d="M601.878 580.267L530.634 599.357L505.86 506.9L460.633 519.019L484.119 606.672L412.876 625.762L389.389 538.108L291.329 564.383L266.77 472.727L552.545 396.154L601.878 580.267Z" fill="white"/>
</svg>
