<svg width="993" height="1555" viewBox="0 0 993 1555" fill="none" xmlns="http://www.w3.org/2000/svg">
<path d="M637.428 1489.62C627.872 1525.28 481.305 1517 310.062 1471.12C138.819 1425.23 7.74723 1359.12 17.3039 1323.46L354.619 64.5781L974.744 230.74L637.428 1489.62Z" fill="#F0F0F2"/>
<ellipse cx="664.682" cy="147.66" rx="321" ry="66.8569" transform="rotate(15 664.682 147.66)" fill="#C7CFDC"/>
<path d="M346.243 509.841C342.153 505.515 337.953 502.101 331.8 500.453C326.401 499.006 321.299 500.465 319.953 505.488C318.978 509.13 320.782 512.44 328.391 515.689C345.389 523.071 350.925 537.07 347.257 550.757C343.321 565.449 328.15 576.862 306.803 571.142C290.73 566.835 282.281 559.188 275.559 550.119L290.723 537.224C295.472 543.611 301.654 549.17 310.57 551.559C317.727 553.477 322.638 550.217 323.917 545.445C325.532 539.418 322.523 534.574 314.982 531.073C297.524 522.896 292.697 511.778 295.792 500.225C300.133 484.027 316.162 475.94 336.002 481.256C347.052 484.217 353.126 488.671 358.647 494.188L346.243 509.841ZM361.964 612.032L342.752 606.884L364.958 524.007L384.171 529.155L383.195 532.797C386.621 531.561 392.795 530.12 401.836 532.543C421.048 537.691 426.587 555.191 422.583 570.133C418.58 585.076 405.032 597.462 385.82 592.314C375.523 589.555 372.236 586.252 369.703 583.15L361.964 612.032ZM400.474 564.748C402.224 558.218 398.271 551.372 391.741 549.622C385.212 547.872 378.365 551.825 376.616 558.355C374.866 564.884 378.819 571.731 385.348 573.48C391.878 575.23 398.724 571.277 400.474 564.748ZM424.777 601.945L440.254 544.183L461.978 550.004L460.901 554.022C464.086 552.183 469.414 550.381 476.446 552.265C480.338 553.308 482.397 554.667 484.045 556.051L479.637 572.501C478.139 571.561 476.298 570.395 472.406 569.352C465.499 567.501 456.864 569.09 454.374 578.383L446.501 607.766L424.777 601.945ZM513.096 563.701L497.619 621.463L475.895 615.642L491.372 557.88L513.096 563.701ZM519.637 542.304C517.921 548.709 511.234 552.569 504.829 550.853C498.425 549.137 494.565 542.45 496.28 536.046C497.996 529.642 504.684 525.781 511.088 527.497C517.492 529.213 521.353 535.9 519.637 542.304ZM507.778 624.185L523.255 566.423L544.853 572.21L543.44 577.484C546.943 575.462 552.531 573.191 563.707 576.185C579.278 580.357 584.248 590.437 580.379 604.878L570.689 641.042L549.091 635.255L557.536 603.737C559.42 596.705 559.578 591.094 551.667 588.975C542.877 586.619 539.537 592.05 538.393 596.32L529.376 629.972L507.778 624.185ZM628.821 651.639C624.657 653.619 619.849 654.484 610.306 651.927C590.968 646.745 585.361 629.496 589.298 614.804C593.234 600.113 606.714 587.978 626.052 593.16C636.098 595.851 639.134 599.087 642.044 602.29L643.053 598.523L662.266 603.671L647.259 659.675C643.02 675.497 630.13 684.425 606.397 678.066C583.543 671.942 579.071 658.496 580.431 648.901L601.15 654.453C601.506 657.644 604.383 660.972 612.168 663.058C621.084 665.447 625.995 662.187 627.711 655.783L628.821 651.639ZM610.77 620.558C609.021 627.088 612.973 633.934 619.503 635.684C626.033 637.433 632.879 633.48 634.629 626.951C636.378 620.421 632.426 613.575 625.896 611.825C619.366 610.076 612.52 614.028 610.77 620.558Z" fill="#FF1200"/>
<path d="M303.61 602.296L276.468 595.023L270.618 616.853L297.761 624.126L296.156 630.115L269.014 622.842L261.146 652.206L288.288 659.479L286.709 665.371L253.675 656.519L272.154 587.552L305.189 596.404L303.61 602.296ZM351.407 606.096L356.816 607.546L337.663 679.024L332.254 677.575L333.885 671.489C328.979 674.73 322.774 675.863 316.689 674.232C305.291 671.178 298.503 659.421 301.557 648.023C304.611 636.625 316.368 629.837 327.766 632.891C333.852 634.521 338.659 638.604 341.287 643.864L351.407 606.096ZM306.94 649.569C304.688 657.972 309.709 666.668 318.112 668.92C326.516 671.171 335.212 666.151 337.463 657.747C339.715 649.344 334.695 640.648 326.291 638.396C317.888 636.145 309.192 641.165 306.94 649.569ZM365.791 643.804L355.101 683.697L349.596 682.221L360.285 642.329L365.791 643.804ZM369.14 633.624C368.648 635.459 366.714 636.494 364.879 636.002C363.044 635.51 361.886 633.647 362.378 631.812C362.896 629.88 364.829 628.845 366.665 629.337C368.5 629.829 369.657 631.692 369.14 633.624ZM379.339 653.232L373.93 651.782L375.379 646.373L380.788 647.822L385.473 630.339L390.882 631.789L386.197 649.272L395.567 651.782L394.117 657.192L384.748 654.681L375.508 689.165L370.099 687.715L379.339 653.232ZM411.54 656.062L400.851 695.955L395.345 694.48L406.034 654.587L411.54 656.062ZM414.889 645.882C414.397 647.718 412.463 648.752 410.628 648.261C408.793 647.769 407.636 645.906 408.127 644.071C408.645 642.139 410.579 641.104 412.414 641.596C414.249 642.087 415.407 643.95 414.889 645.882ZM457.692 689.859C454.638 701.257 442.88 708.045 431.482 704.991C420.085 701.937 413.296 690.179 416.35 678.782C419.404 667.384 431.162 660.595 442.56 663.649C453.958 666.703 460.746 678.461 457.692 689.859ZM421.734 680.327C419.482 688.731 424.502 697.427 432.906 699.678C441.309 701.93 450.005 696.91 452.257 688.506C454.509 680.103 449.488 671.407 441.085 669.155C432.681 666.903 423.985 671.924 421.734 680.327ZM463.273 712.681L473.962 672.788L479.371 674.238L477.87 679.84C479.928 677.182 484.594 675.223 491.163 676.983C502.367 679.985 505.913 688.389 503.454 697.566L496.958 721.81L491.452 720.335L497.457 697.926C499.501 690.295 497.441 684.463 489.713 682.392C481.213 680.115 476.369 685.442 474.764 691.431L468.682 714.13L463.273 712.681Z" fill="#FF1200"/>
<path d="M208.183 1233.14L201.428 1258.36L97.9773 1230.64L108.343 1191.95C113.312 1173.4 129.549 1162.07 149.833 1167.51C165.337 1171.66 173.874 1183.27 174.776 1196.71L222.043 1181.42L214.667 1208.95L169.932 1222.9L208.183 1233.14ZM147.62 1216.92L150.609 1205.76C152.55 1198.52 149.202 1194.2 143.117 1192.57C137.032 1190.94 131.598 1193.83 129.89 1200.21L126.9 1211.37L147.62 1216.92ZM202.457 1140.92C209.45 1142.64 215.619 1139.33 217.56 1132.08C219.734 1123.97 218.376 1120.34 215.538 1118.18L221.478 1096.02C230.37 1101.66 242.25 1113.54 235.689 1138.03C229.4 1161.5 208.578 1168.5 191.337 1163.88C174.095 1159.26 159.149 1141.43 165.4 1118.11C172.388 1092.03 192.792 1086 211.918 1091.13C213.077 1091.44 214.381 1091.79 215.501 1092.24L202.457 1140.92ZM194.402 1113.61C190.229 1112.96 184.187 1115.22 182.129 1122.9C180.072 1130.58 184.172 1135.56 188.19 1136.79L194.402 1113.61ZM152.515 1012.03L158.455 989.86L265.673 1018.59L259.733 1040.76L255.531 1039.63C256.957 1043.59 258.62 1050.71 255.825 1061.14C249.885 1083.31 229.692 1089.7 212.451 1085.08C195.209 1080.46 180.918 1064.83 186.857 1042.66C190.041 1030.78 193.852 1026.99 197.431 1024.06L152.515 1012.03ZM218.665 1059.57C226.199 1061.59 234.099 1057.03 236.118 1049.49C238.136 1041.96 233.576 1034.06 226.041 1032.04C218.507 1030.02 210.608 1034.58 208.589 1042.12C206.57 1049.65 211.131 1057.55 218.665 1059.57ZM211.547 918.061C223.718 921.322 228.349 927.222 229.27 933.059C234.701 923.799 244.583 918.217 259.362 922.177C279.356 927.534 285.627 944.122 280.618 962.813L269.709 1003.53L166.259 975.807L175.537 941.179C180.545 922.488 194.885 913.596 211.547 918.061ZM212.858 961.273L214.139 956.491C215.848 950.116 213.235 945.379 206.715 943.632C200.629 942.001 195.128 944.565 193.42 950.94L192.139 955.721L212.858 961.273ZM257.194 973.153L260.106 962.286C261.969 955.331 259.165 948.989 250.907 946.776C242.938 944.641 236.904 948.615 235.04 955.57L232.128 966.436L257.194 973.153ZM232.432 876.051L270.828 886.339C277.058 888.008 280.926 885.162 282.363 879.801C283.76 874.585 281.978 870.226 275.603 868.517L237.207 858.229L243.924 833.164L283.623 843.801C301.879 848.693 308.595 864.779 303.082 885.353C297.569 905.927 283.671 916.646 265.415 911.754L225.716 901.116L232.432 876.051ZM321.472 810.347L314.716 835.557L207.499 806.829L214.254 781.618L321.472 810.347ZM333.338 766.059L326.583 791.27L219.365 762.541L226.121 737.331L333.338 766.059Z" fill="#FF1200"/>
</svg>
