<svg width="993" height="1555" viewBox="0 0 993 1555" fill="none" xmlns="http://www.w3.org/2000/svg">
<path d="M637.428 1489.62C627.872 1525.28 481.305 1517 310.062 1471.12C138.819 1425.23 7.74722 1359.12 17.3039 1323.46L354.619 64.5781L974.744 230.74L637.428 1489.62Z" fill="#F0F0F2"/>
<ellipse cx="664.682" cy="147.66" rx="321" ry="66.8569" transform="rotate(15 664.682 147.66)" fill="#C7CFDC"/>
<path d="M349.021 406.706L346.249 417.051L336.581 414.461L326.417 452.392L314.719 449.258L324.883 411.326L315.214 408.735L317.986 398.39L349.021 406.706ZM341.623 456.467L355.03 406.432L366.727 409.566L360.586 432.488C362.829 430.335 366.077 429.031 371.486 430.481C380.412 432.872 383.98 438.756 381.752 447.073L376.715 465.87L365.018 462.736L369.348 446.576C370.362 442.789 369.987 439.862 365.727 438.721C361.806 437.67 358.339 440.872 357.687 443.306L353.321 459.601L341.623 456.467ZM395.339 456.656C394.537 459.92 396.084 462.798 399.465 463.704C403.251 464.719 404.943 464.085 405.95 462.76L416.295 465.532C413.661 469.682 408.118 475.226 396.691 472.164C385.737 469.229 382.471 459.513 384.627 451.467C386.783 443.421 395.101 436.446 405.987 439.363C418.158 442.624 420.969 452.146 418.578 461.071C418.433 461.612 418.27 462.221 418.057 462.743L395.339 456.656ZM408.086 452.897C408.39 450.95 407.334 448.13 403.75 447.17C400.167 446.21 397.842 448.123 397.267 449.998L408.086 452.897Z" fill="#FF1200"/>
<path d="M360.163 510.63C355.13 505.306 349.961 501.105 342.388 499.076C335.742 497.295 329.464 499.091 327.807 505.273C326.606 509.755 328.828 513.829 338.191 517.829C359.113 526.913 365.926 544.144 361.412 560.989C356.567 579.071 337.895 593.118 311.622 586.078C291.84 580.777 281.442 571.365 273.168 560.203L291.832 544.333C297.677 552.194 305.285 559.036 316.258 561.976C325.067 564.337 331.112 560.324 332.685 554.452C334.673 547.033 330.97 541.072 321.689 536.763C300.201 526.698 294.261 513.015 298.07 498.796C303.412 478.859 323.141 468.906 347.559 475.449C361.16 479.093 368.635 484.575 375.43 491.365L360.163 510.63ZM379.512 636.404L355.867 630.068L383.198 528.066L406.844 534.402L405.643 538.884C409.86 537.364 417.458 535.59 428.586 538.571C452.231 544.907 459.049 566.446 454.121 584.837C449.193 603.228 432.52 618.472 408.874 612.136C396.201 608.74 392.155 604.675 389.037 600.858L379.512 636.404ZM426.91 578.208C429.063 570.172 424.198 561.745 416.162 559.592C408.125 557.439 399.699 562.304 397.545 570.34C395.392 578.377 400.257 586.803 408.294 588.956C416.33 591.11 424.756 586.245 426.91 578.208ZM456.821 623.99L475.87 552.898L502.607 560.062L501.282 565.007C505.201 562.744 511.758 560.526 520.413 562.845C525.204 564.129 527.738 565.802 529.766 567.505L524.341 587.75C522.498 586.594 520.232 585.159 515.441 583.875C506.941 581.597 496.312 583.553 493.248 594.99L483.558 631.154L456.821 623.99ZM565.521 576.92L546.472 648.012L519.735 640.848L538.784 569.755L565.521 576.92ZM573.571 550.586C571.459 558.468 563.229 563.219 555.347 561.107C547.465 558.996 542.713 550.765 544.825 542.883C546.937 535.001 555.168 530.25 563.049 532.362C570.931 534.473 575.683 542.704 573.571 550.586ZM558.976 651.362L578.025 580.27L604.607 587.393L602.868 593.884C607.179 591.395 614.057 588.6 627.812 592.285C646.976 597.42 653.093 609.826 648.331 627.599L636.405 672.109L609.822 664.986L620.217 626.195C622.536 617.54 622.729 610.635 612.993 608.026C602.174 605.127 598.064 611.811 596.656 617.066L585.558 658.485L558.976 651.362ZM707.952 685.151C702.827 687.588 696.91 688.653 685.164 685.505C661.363 679.128 654.463 657.899 659.308 639.816C664.153 621.734 680.744 606.799 704.544 613.177C716.908 616.49 720.645 620.472 724.227 624.414L725.469 619.777L749.115 626.113L730.645 695.042C725.428 714.515 709.563 725.503 680.353 717.676C652.226 710.14 646.721 693.591 648.395 681.782L673.895 688.615C674.334 692.542 677.874 696.638 687.456 699.205C698.429 702.146 704.473 698.133 706.585 690.251L707.952 685.151ZM685.736 646.898C683.582 654.934 688.447 663.361 696.484 665.514C704.52 667.667 712.946 662.802 715.1 654.766C717.253 646.729 712.388 638.303 704.352 636.15C696.315 633.996 687.889 638.861 685.736 646.898Z" fill="#FF1200"/>
<path d="M291.36 615.642L269.646 609.824L264.966 627.288L286.68 633.106L285.396 637.897L263.682 632.079L257.388 655.57L279.102 661.388L277.839 666.102L251.411 659.021L266.195 603.847L292.623 610.928L291.36 615.642ZM329.597 618.682L333.924 619.842L318.602 677.024L314.275 675.865L315.579 670.997C311.655 673.589 306.691 674.495 301.823 673.191C292.704 670.748 287.274 661.342 289.717 652.223C292.16 643.105 301.566 637.674 310.685 640.118C315.553 641.422 319.398 644.689 321.501 648.896L329.597 618.682ZM294.024 653.46C292.222 660.183 296.239 667.139 302.961 668.941C309.684 670.742 316.641 666.726 318.442 660.003C320.244 653.28 316.227 646.324 309.504 644.522C302.782 642.721 295.825 646.737 294.024 653.46ZM341.104 648.848L332.553 680.762L328.148 679.582L336.699 647.668L341.104 648.848ZM343.783 640.704C343.39 642.172 341.843 643 340.375 642.607C338.906 642.213 337.981 640.723 338.374 639.255C338.788 637.709 340.335 636.881 341.803 637.275C343.271 637.668 344.197 639.159 343.783 640.704ZM351.942 656.39L347.615 655.231L348.775 650.904L353.102 652.063L356.85 638.076L361.177 639.236L357.429 653.223L364.925 655.231L363.765 659.558L356.27 657.55L348.878 685.137L344.551 683.977L351.942 656.39ZM377.704 658.655L369.152 690.569L364.747 689.389L373.299 657.475L377.704 658.655ZM380.383 650.511C379.989 651.979 378.442 652.807 376.974 652.414C375.506 652.02 374.58 650.53 374.973 649.061C375.388 647.516 376.935 646.688 378.403 647.082C379.871 647.475 380.797 648.965 380.383 650.511ZM414.625 685.692C412.182 694.811 402.776 700.241 393.657 697.798C384.539 695.355 379.109 685.949 381.552 676.83C383.995 667.712 393.401 662.281 402.519 664.725C411.638 667.168 417.068 676.574 414.625 685.692ZM385.858 678.067C384.057 684.79 388.073 691.746 394.796 693.548C401.519 695.349 408.476 691.333 410.277 684.61C412.078 677.887 408.062 670.931 401.339 669.129C394.616 667.328 387.66 671.344 385.858 678.067ZM419.09 703.95L427.641 672.036L431.969 673.195L430.768 677.677C432.414 675.551 436.147 673.984 441.402 675.392C450.365 677.793 453.202 684.517 451.235 691.858L446.038 711.253L441.633 710.073L446.437 692.146C448.073 686.041 446.424 681.375 440.242 679.719C433.442 677.897 429.567 682.159 428.283 686.95L423.417 705.109L419.09 703.95Z" fill="#FF1200"/>
<path d="M208.183 1233.14L201.428 1258.36L97.9773 1230.64L108.343 1191.95C113.312 1173.4 129.549 1162.07 149.833 1167.51C165.337 1171.66 173.874 1183.27 174.776 1196.71L222.043 1181.42L214.667 1208.95L169.932 1222.9L208.183 1233.14ZM147.62 1216.92L150.609 1205.76C152.55 1198.52 149.202 1194.2 143.117 1192.57C137.032 1190.94 131.598 1193.83 129.89 1200.21L126.9 1211.37L147.62 1216.92ZM202.457 1140.92C209.45 1142.64 215.619 1139.33 217.56 1132.08C219.734 1123.97 218.376 1120.34 215.538 1118.18L221.478 1096.02C230.37 1101.66 242.25 1113.54 235.689 1138.03C229.4 1161.5 208.578 1168.5 191.337 1163.88C174.095 1159.26 159.149 1141.43 165.4 1118.11C172.388 1092.03 192.792 1086 211.918 1091.13C213.077 1091.44 214.381 1091.79 215.501 1092.24L202.457 1140.92ZM194.402 1113.61C190.229 1112.96 184.187 1115.22 182.129 1122.9C180.072 1130.58 184.172 1135.56 188.19 1136.79L194.402 1113.61ZM152.515 1012.03L158.455 989.86L265.673 1018.59L259.733 1040.76L255.531 1039.63C256.957 1043.59 258.62 1050.71 255.825 1061.14C249.885 1083.31 229.692 1089.7 212.451 1085.08C195.209 1080.46 180.918 1064.83 186.857 1042.66C190.041 1030.78 193.852 1026.99 197.431 1024.06L152.515 1012.03ZM218.665 1059.57C226.199 1061.59 234.099 1057.03 236.118 1049.49C238.136 1041.96 233.576 1034.06 226.041 1032.04C218.507 1030.02 210.608 1034.58 208.589 1042.12C206.57 1049.65 211.131 1057.55 218.665 1059.57ZM211.547 918.061C223.718 921.322 228.349 927.222 229.27 933.059C234.701 923.799 244.583 918.217 259.362 922.177C279.356 927.534 285.627 944.122 280.618 962.813L269.709 1003.53L166.259 975.807L175.537 941.179C180.545 922.488 194.885 913.596 211.547 918.061ZM212.858 961.273L214.139 956.491C215.848 950.116 213.235 945.379 206.715 943.632C200.629 942.001 195.128 944.565 193.42 950.94L192.139 955.721L212.858 961.273ZM257.194 973.153L260.106 962.286C261.969 955.331 259.165 948.989 250.907 946.776C242.938 944.641 236.904 948.615 235.04 955.57L232.128 966.436L257.194 973.153ZM232.432 876.051L270.828 886.339C277.058 888.008 280.926 885.162 282.363 879.801C283.76 874.585 281.978 870.226 275.603 868.517L237.207 858.229L243.924 833.164L283.623 843.801C301.879 848.693 308.595 864.779 303.082 885.353C297.569 905.927 283.671 916.646 265.415 911.754L225.716 901.116L232.432 876.051ZM321.472 810.347L314.716 835.557L207.499 806.829L214.254 781.618L321.472 810.347ZM333.338 766.059L326.583 791.27L219.365 762.541L226.121 737.331L333.338 766.059Z" fill="#FF1200"/>
</svg>
