<svg width="993" height="1555" viewBox="0 0 993 1555" fill="none" xmlns="http://www.w3.org/2000/svg">
<path d="M637.428 1489.62C627.872 1525.28 481.305 1517 310.062 1471.12C138.819 1425.23 7.74723 1359.12 17.3039 1323.46L354.619 64.5781L974.744 230.74L637.428 1489.62Z" fill="#F9CF59"/>
<ellipse cx="664.682" cy="147.66" rx="321" ry="66.8569" transform="rotate(15 664.682 147.66)" fill="#C7CFDC"/>
<path d="M347.01 506.977C342.92 502.651 338.721 499.238 332.568 497.589C327.168 496.143 322.067 497.602 320.721 502.625C319.745 506.266 321.55 509.576 329.158 512.826C346.157 520.207 351.692 534.207 348.025 547.894C344.088 562.586 328.917 573.998 307.57 568.278C291.497 563.972 283.049 556.324 276.327 547.256L291.491 534.361C296.24 540.748 302.422 546.307 311.337 548.696C318.495 550.614 323.406 547.354 324.684 542.582C326.299 536.555 323.29 531.711 315.75 528.21C298.291 520.033 293.464 508.915 296.56 497.362C300.9 481.164 316.929 473.077 336.769 478.393C347.82 481.354 353.894 485.808 359.414 491.324L347.01 506.977ZM386.571 526.729L377.654 560.005C376.207 565.405 378.674 568.758 383.32 570.002C387.84 571.214 391.619 569.669 393.099 564.144L402.016 530.868L423.739 536.689L414.52 571.095C410.281 586.917 396.339 592.737 378.508 587.959C360.677 583.181 351.388 571.137 355.628 555.315L364.847 520.908L386.571 526.729ZM419.028 597.336L434.505 539.573L456.103 545.361L454.858 550.007C458.578 548.177 465.413 546.779 476.087 549.638C487.137 552.599 491.536 557.277 493.574 561.726C497.555 559.428 502.708 556.772 514.637 559.968C529.705 564.006 536.259 573.702 532.995 585.882L522.498 625.06L500.9 619.273L510.253 584.365C511.565 579.467 509.729 574.265 503.074 572.482C496.293 570.665 492.035 574.503 490.857 578.898L481.436 614.058L459.838 608.271L469.36 572.734C470.571 568.214 469.513 563.624 462.105 561.638C454.696 559.653 451.292 563.317 450.08 567.838L440.626 603.123L419.028 597.336ZM533.071 627.894L548.548 570.131L570.147 575.918L568.902 580.564C572.622 578.735 579.457 577.336 590.13 580.196C601.18 583.157 605.58 587.835 607.618 592.284C611.598 589.986 616.751 587.329 628.68 590.526C643.749 594.563 650.302 604.26 647.039 616.44L636.541 655.618L614.943 649.831L624.297 614.922C625.609 610.025 623.773 604.823 617.118 603.039C610.337 601.223 606.078 605.061 604.901 609.456L595.48 644.616L573.881 638.829L583.403 603.292C584.615 598.772 583.557 594.181 576.148 592.196C568.739 590.211 565.335 593.875 564.124 598.395L554.669 633.681L533.071 627.894ZM672.294 638.819C670.804 644.88 673.678 650.226 679.957 651.909C686.989 653.793 690.131 652.616 692.001 650.156L711.213 655.304C706.322 663.011 696.026 673.307 674.805 667.621C654.462 662.17 648.396 644.125 652.4 629.182C656.404 614.239 671.853 601.286 692.07 606.703C714.672 612.76 719.893 630.444 715.452 647.019C715.183 648.023 714.88 649.154 714.485 650.124L672.294 638.819ZM695.967 631.839C696.532 628.222 694.571 622.985 687.915 621.202C681.26 619.419 676.943 622.973 675.876 626.455L695.967 631.839ZM716.662 677.087L732.139 619.324L753.863 625.145L752.786 629.163C755.97 627.325 761.299 625.522 768.33 627.407C772.223 628.45 774.282 629.809 775.93 631.192L771.522 647.642C770.024 646.702 768.183 645.536 764.29 644.493C757.384 642.643 748.749 644.232 746.259 653.524L738.385 682.907L716.662 677.087Z" fill="black"/>
<path d="M304.378 599.433L277.235 592.16L271.386 613.99L298.528 621.263L296.924 627.251L269.781 619.979L261.913 649.343L289.056 656.616L287.477 662.508L254.442 653.656L272.922 584.689L305.957 593.541L304.378 599.433ZM352.174 603.233L357.584 604.682L338.431 676.161L333.022 674.711L334.652 668.626C329.746 671.867 323.542 673 317.457 671.369C306.059 668.315 299.27 656.557 302.324 645.159C305.378 633.761 317.136 626.973 328.534 630.027C334.619 631.658 339.426 635.741 342.055 641.001L352.174 603.233ZM307.708 646.705C305.456 655.109 310.476 663.805 318.88 666.056C327.284 668.308 335.979 663.288 338.231 654.884C340.483 646.481 335.462 637.785 327.059 635.533C318.655 633.281 309.959 638.302 307.708 646.705ZM366.558 640.941L355.869 680.833L350.363 679.358L361.052 639.465L366.558 640.941ZM369.907 630.76C369.415 632.596 367.482 633.63 365.646 633.139C363.811 632.647 362.654 630.784 363.146 628.949C363.663 627.017 365.597 625.982 367.432 626.474C369.267 626.966 370.425 628.829 369.907 630.76ZM380.106 650.368L374.697 648.919L376.147 643.51L381.556 644.959L386.24 627.476L391.649 628.925L386.965 646.409L396.334 648.919L394.885 654.328L385.515 651.818L376.276 686.301L370.866 684.852L380.106 650.368ZM412.308 653.199L401.618 693.092L396.113 691.617L406.802 651.724L412.308 653.199ZM415.657 643.019C415.165 644.854 413.231 645.889 411.396 645.397C409.561 644.905 408.403 643.042 408.895 641.207C409.413 639.275 411.346 638.241 413.182 638.732C415.017 639.224 416.174 641.087 415.657 643.019ZM458.46 686.996C455.405 698.394 443.648 705.182 432.25 702.128C420.852 699.074 414.064 687.316 417.118 675.918C420.172 664.52 431.93 657.732 443.327 660.786C454.725 663.84 461.514 675.598 458.46 686.996ZM422.501 677.464C420.249 685.868 425.27 694.563 433.674 696.815C442.077 699.067 450.773 694.046 453.024 685.643C455.276 677.239 450.256 668.544 441.852 666.292C433.449 664.04 424.753 669.061 422.501 677.464ZM464.041 709.818L474.73 669.925L480.139 671.374L478.638 676.977C480.696 674.319 485.362 672.36 491.93 674.12C503.135 677.122 506.681 685.526 504.222 694.702L497.726 718.947L492.22 717.472L498.224 695.062C500.269 687.432 498.208 681.6 490.481 679.529C481.981 677.251 477.137 682.579 475.532 688.568L469.45 711.267L464.041 709.818Z" fill="black"/>
<path d="M208.951 1230.28L202.196 1255.49L98.7449 1227.77L109.111 1189.09C114.08 1170.54 130.317 1159.21 150.601 1164.64C166.104 1168.8 174.641 1180.4 175.543 1193.84L222.81 1178.56L215.434 1206.09L170.7 1220.03L208.951 1230.28ZM148.387 1214.05L151.377 1202.9C153.318 1195.65 149.97 1191.34 143.885 1189.71C137.799 1188.08 132.366 1190.97 130.657 1197.35L127.668 1208.5L148.387 1214.05ZM203.224 1138.06C210.218 1139.78 216.386 1136.46 218.327 1129.22C220.501 1121.1 219.143 1117.48 216.305 1115.32L222.245 1093.15C231.137 1098.8 243.018 1110.68 236.456 1135.16C230.167 1158.64 209.346 1165.63 192.104 1161.01C174.863 1156.39 159.917 1138.57 166.167 1115.24C173.155 1089.16 193.56 1083.14 212.685 1088.26C213.844 1088.57 215.148 1088.92 216.269 1089.38L203.224 1138.06ZM195.169 1110.75C190.996 1110.09 184.954 1112.36 182.897 1120.04C180.839 1127.71 184.94 1132.7 188.958 1133.93L195.169 1110.75ZM153.283 1009.17L159.223 986.997L266.441 1015.73L260.501 1037.89L256.299 1036.77C257.724 1040.72 259.387 1047.85 256.592 1058.28C250.652 1080.45 230.46 1086.84 213.218 1082.22C195.976 1077.6 181.685 1061.97 187.625 1039.8C190.809 1027.92 194.62 1024.12 198.199 1021.2L153.283 1009.17ZM219.433 1056.71C226.967 1058.72 234.866 1054.16 236.885 1046.63C238.904 1039.1 234.343 1031.2 226.809 1029.18C219.275 1027.16 211.375 1031.72 209.356 1039.25C207.338 1046.79 211.898 1054.69 219.433 1056.71ZM212.315 915.198C224.486 918.459 229.117 924.359 230.037 930.196C235.469 920.936 245.35 915.353 260.129 919.313C280.124 924.671 286.394 941.259 281.386 959.95L270.477 1000.66L167.026 972.944L176.305 938.315C181.313 919.625 195.653 910.733 212.315 915.198ZM213.626 958.409L214.907 953.628C216.615 947.253 214.002 942.515 207.482 940.768C201.397 939.138 195.896 941.701 194.188 948.076L192.907 952.858L213.626 958.409ZM257.962 970.289L260.873 959.423C262.737 952.468 259.933 946.126 251.674 943.913C243.705 941.778 237.671 945.752 235.808 952.706L232.896 963.573L257.962 970.289ZM233.2 873.187L271.595 883.475C277.826 885.145 281.694 882.299 283.13 876.938C284.528 871.722 282.746 867.362 276.371 865.654L237.975 855.366L244.691 830.3L284.391 840.938C302.647 845.829 309.362 861.916 303.849 882.49C298.337 903.064 284.439 913.782 266.183 908.891L226.483 898.253L233.2 873.187ZM322.239 807.483L315.484 832.694L208.266 803.965L215.021 778.755L322.239 807.483ZM334.106 763.196L327.351 788.407L220.133 759.678L226.888 734.467L334.106 763.196Z" fill="black"/>
</svg>
