<svg width="993" height="1555" viewBox="0 0 993 1555" fill="none" xmlns="http://www.w3.org/2000/svg">
<path d="M637.428 1489.62C627.872 1525.28 481.305 1517 310.062 1471.12C138.819 1425.23 7.74722 1359.12 17.3039 1323.46L354.619 64.5781L974.744 230.74L637.428 1489.62Z" fill="#F9CF59"/>
<ellipse cx="664.682" cy="147.66" rx="321" ry="66.8569" transform="rotate(15 664.682 147.66)" fill="#C7CFDC"/>
<path d="M349.789 403.843L347.017 414.188L337.348 411.597L327.184 449.529L315.487 446.395L325.651 408.463L315.982 405.872L318.754 395.527L349.789 403.843ZM342.391 453.604L355.798 403.569L367.495 406.703L361.353 429.624C363.597 427.472 366.845 426.168 372.254 427.617C381.179 430.009 384.748 435.893 382.519 444.21L377.483 463.007L365.785 459.872L370.115 443.712C371.13 439.926 370.755 436.999 366.495 435.858C362.573 434.807 359.107 438.009 358.454 440.443L354.088 456.738L342.391 453.604ZM396.106 453.793C395.304 457.056 396.852 459.935 400.233 460.841C404.019 461.855 405.711 461.222 406.718 459.897L417.063 462.669C414.429 466.819 408.885 472.363 397.458 469.301C386.505 466.366 383.238 456.65 385.394 448.603C387.55 440.557 395.869 433.583 406.755 436.5C418.925 439.761 421.737 449.283 419.345 458.208C419.2 458.749 419.037 459.357 418.825 459.88L396.106 453.793ZM408.853 450.034C409.158 448.086 408.101 445.267 404.518 444.307C400.934 443.346 398.61 445.26 398.035 447.135L408.853 450.034Z" fill="black"/>
<path d="M331.387 469.041L341.921 502.673L366.624 478.483L398.152 486.93L348.338 531.89L333.348 587.836L306.611 580.672L321.601 524.726L301.25 460.966L331.387 469.041ZM408.415 575.484C406.582 582.944 410.119 589.524 417.847 591.594C426.501 593.913 430.368 592.465 432.67 589.437L456.316 595.773C450.296 605.258 437.624 617.93 411.506 610.932C386.469 604.223 379.003 582.014 383.93 563.623C388.858 545.232 407.872 529.29 432.755 535.957C460.573 543.411 466.999 565.176 461.533 585.576C461.202 586.812 460.829 588.203 460.343 589.398L408.415 575.484ZM437.551 566.892C438.247 562.441 435.833 555.996 427.642 553.802C419.451 551.607 414.138 555.981 412.824 560.267L437.551 566.892ZM492.231 630.409L465.34 623.203L495.984 508.838L522.876 516.043L492.231 630.409ZM539.471 643.067L512.58 635.861L543.224 521.496L570.115 528.701L539.471 643.067ZM641.251 632.075C636.157 651.084 618.473 666.389 592.355 659.39C566.236 652.392 558.11 630.172 563.204 611.162C568.214 592.462 586.445 576.972 612.563 583.971C638.682 590.969 646.261 613.374 641.251 632.075ZM587.581 617.86C585.428 625.896 590.292 634.322 598.329 636.476C606.675 638.712 614.792 633.764 616.945 625.728C619.098 617.691 614.543 609.348 606.197 607.112C598.161 604.958 589.734 609.823 587.581 617.86ZM688.698 647.107L716.07 614.19L729.052 617.669L736.381 659.553L761.971 626.489L788.708 633.653L738.285 696.339L719.74 691.37L712.54 653.33L688.057 682.88L669.357 677.87L656.26 598.164L682.997 605.328L688.698 647.107Z" fill="black"/>
<path d="M292.127 612.779L270.413 606.96L265.734 624.424L287.448 630.243L286.164 635.034L264.45 629.215L258.156 652.707L279.87 658.525L278.607 663.239L252.179 656.157L266.963 600.984L293.39 608.065L292.127 612.779ZM330.365 615.819L334.692 616.978L319.37 674.161L315.042 673.002L316.347 668.133C312.422 670.726 307.458 671.632 302.59 670.328C293.472 667.884 288.041 658.478 290.485 649.36C292.928 640.242 302.334 634.811 311.452 637.254C316.32 638.559 320.166 641.825 322.269 646.033L330.365 615.819ZM294.791 650.597C292.99 657.32 297.006 664.276 303.729 666.078C310.452 667.879 317.408 663.863 319.21 657.14C321.011 650.417 316.995 643.46 310.272 641.659C303.549 639.858 296.593 643.874 294.791 650.597ZM341.872 645.985L333.32 677.899L328.916 676.719L337.467 644.805L341.872 645.985ZM344.551 637.841C344.157 639.309 342.61 640.137 341.142 639.743C339.674 639.35 338.748 637.86 339.141 636.391C339.556 634.846 341.103 634.018 342.571 634.411C344.039 634.805 344.965 636.295 344.551 637.841ZM352.71 653.527L348.383 652.368L349.542 648.04L353.87 649.2L357.617 635.213L361.945 636.373L358.197 650.359L365.692 652.368L364.533 656.695L357.037 654.687L349.646 682.273L345.318 681.114L352.71 653.527ZM378.471 655.792L369.92 687.706L365.515 686.526L374.066 654.611L378.471 655.792ZM381.15 647.648C380.757 649.116 379.21 649.944 377.742 649.55C376.273 649.157 375.348 647.666 375.741 646.198C376.155 644.653 377.702 643.825 379.17 644.218C380.639 644.612 381.564 646.102 381.15 647.648ZM415.393 682.829C412.949 691.947 403.543 697.378 394.425 694.935C385.307 692.491 379.876 683.085 382.319 673.967C384.763 664.849 394.169 659.418 403.287 661.861C412.405 664.305 417.836 673.711 415.393 682.829ZM386.626 675.204C384.825 681.927 388.841 688.883 395.564 690.685C402.287 692.486 409.243 688.47 411.045 681.747C412.846 675.024 408.83 668.067 402.107 666.266C395.384 664.465 388.427 668.481 386.626 675.204ZM419.857 701.087L428.409 669.172L432.736 670.332L431.535 674.814C433.182 672.688 436.915 671.12 442.169 672.528C451.133 674.93 453.97 681.653 452.002 688.994L446.805 708.39L442.401 707.21L447.204 689.282C448.84 683.178 447.192 678.512 441.01 676.856C434.21 675.034 430.334 679.296 429.051 684.087L424.185 702.246L419.857 701.087Z" fill="black"/>
<path d="M208.951 1230.28L202.196 1255.49L98.7449 1227.77L109.111 1189.09C114.08 1170.54 130.317 1159.21 150.601 1164.64C166.104 1168.8 174.641 1180.4 175.543 1193.84L222.81 1178.56L215.434 1206.09L170.7 1220.03L208.951 1230.28ZM148.387 1214.05L151.377 1202.9C153.318 1195.65 149.97 1191.34 143.885 1189.71C137.799 1188.08 132.366 1190.97 130.657 1197.35L127.668 1208.5L148.387 1214.05ZM203.224 1138.06C210.218 1139.78 216.386 1136.46 218.327 1129.22C220.501 1121.1 219.143 1117.48 216.305 1115.32L222.245 1093.15C231.137 1098.8 243.018 1110.68 236.456 1135.16C230.167 1158.64 209.346 1165.63 192.104 1161.01C174.863 1156.39 159.917 1138.57 166.167 1115.24C173.155 1089.16 193.56 1083.14 212.685 1088.26C213.844 1088.57 215.148 1088.92 216.269 1089.38L203.224 1138.06ZM195.169 1110.75C190.996 1110.09 184.954 1112.36 182.897 1120.04C180.839 1127.71 184.94 1132.7 188.958 1133.93L195.169 1110.75ZM153.283 1009.17L159.223 986.997L266.441 1015.73L260.501 1037.89L256.299 1036.77C257.724 1040.72 259.387 1047.85 256.592 1058.28C250.652 1080.45 230.46 1086.84 213.218 1082.22C195.976 1077.6 181.685 1061.97 187.625 1039.8C190.809 1027.92 194.62 1024.12 198.199 1021.2L153.283 1009.17ZM219.433 1056.71C226.967 1058.72 234.866 1054.16 236.885 1046.63C238.904 1039.1 234.343 1031.2 226.809 1029.18C219.275 1027.16 211.375 1031.72 209.356 1039.25C207.338 1046.79 211.898 1054.69 219.433 1056.71ZM212.315 915.198C224.486 918.459 229.117 924.359 230.037 930.196C235.469 920.936 245.35 915.353 260.129 919.313C280.124 924.671 286.394 941.259 281.386 959.95L270.477 1000.66L167.026 972.944L176.305 938.315C181.313 919.625 195.653 910.733 212.315 915.198ZM213.626 958.409L214.907 953.628C216.615 947.253 214.002 942.515 207.482 940.768C201.397 939.138 195.896 941.701 194.188 948.076L192.907 952.858L213.626 958.409ZM257.962 970.289L260.873 959.423C262.737 952.468 259.933 946.126 251.674 943.913C243.705 941.778 237.671 945.752 235.808 952.706L232.896 963.573L257.962 970.289ZM233.2 873.187L271.595 883.475C277.826 885.145 281.694 882.299 283.13 876.938C284.528 871.722 282.746 867.362 276.371 865.654L237.975 855.366L244.691 830.3L284.391 840.938C302.647 845.829 309.362 861.916 303.849 882.49C298.337 903.064 284.439 913.782 266.183 908.891L226.483 898.253L233.2 873.187ZM322.239 807.483L315.484 832.694L208.266 803.965L215.021 778.755L322.239 807.483ZM334.106 763.196L327.351 788.407L220.133 759.678L226.888 734.467L334.106 763.196Z" fill="black"/>
</svg>
